%TF.GenerationSoftware,KiCad,Pcbnew,(5.1.9)-1*%
%TF.CreationDate,2024-11-26T15:48:13-08:00*%
%TF.ProjectId,RADA3K,52414441-334b-42e6-9b69-6361645f7063,rev?*%
%TF.SameCoordinates,Original*%
%TF.FileFunction,Copper,L5,Inr*%
%TF.FilePolarity,Positive*%
%FSLAX46Y46*%
G04 Gerber Fmt 4.6, Leading zero omitted, Abs format (unit mm)*
G04 Created by KiCad (PCBNEW (5.1.9)-1) date 2024-11-26 15:48:13*
%MOMM*%
%LPD*%
G01*
G04 APERTURE LIST*
%TA.AperFunction,ComponentPad*%
%ADD10C,4.064000*%
%TD*%
%TA.AperFunction,ComponentPad*%
%ADD11R,1.700000X1.700000*%
%TD*%
%TA.AperFunction,ComponentPad*%
%ADD12O,1.700000X1.700000*%
%TD*%
%TA.AperFunction,ComponentPad*%
%ADD13C,1.600000*%
%TD*%
%TA.AperFunction,ComponentPad*%
%ADD14R,1.600000X1.600000*%
%TD*%
%TA.AperFunction,ViaPad*%
%ADD15C,1.600000*%
%TD*%
%TA.AperFunction,ViaPad*%
%ADD16C,0.600000*%
%TD*%
%TA.AperFunction,Conductor*%
%ADD17C,0.254000*%
%TD*%
%TA.AperFunction,Conductor*%
%ADD18C,0.100000*%
%TD*%
G04 APERTURE END LIST*
D10*
%TO.N,GND*%
%TO.C,GND*%
X59944000Y-136652000D03*
%TD*%
%TO.N,GND*%
%TO.C,GND*%
X59944000Y-105918000D03*
%TD*%
%TO.N,GND*%
%TO.C,GND*%
X114554000Y-136652000D03*
%TD*%
D11*
%TO.N,+5V*%
%TO.C,J4*%
X57797700Y-121183400D03*
D12*
%TO.N,/FPGA_PWR*%
X57797700Y-118643400D03*
%TD*%
D11*
%TO.N,/_CHAREN*%
%TO.C,J1*%
X105664000Y-117983000D03*
D12*
%TO.N,/_HIRAM*%
X105664000Y-120523000D03*
%TO.N,/_LORAM*%
X105664000Y-123063000D03*
%TD*%
%TO.N,/FPGA__CHAREN*%
%TO.C,J3*%
X112141000Y-110439200D03*
%TO.N,/FPGA__HIRAM*%
X109601000Y-110439200D03*
%TO.N,/FPGA__LORAM*%
X107061000Y-110439200D03*
%TO.N,/FPGA_D0*%
X104521000Y-110439200D03*
%TO.N,Net-(J3-Pad16)*%
X101981000Y-110439200D03*
%TO.N,GND*%
X99441000Y-110439200D03*
%TO.N,/FPGA_A0*%
X96901000Y-110439200D03*
%TO.N,/FPGA_D1*%
X94361000Y-110439200D03*
%TO.N,/FPGA_A1*%
X91821000Y-110439200D03*
%TO.N,/FPGA_A2*%
X89281000Y-110439200D03*
%TO.N,/FPGA_A3*%
X86741000Y-110439200D03*
%TO.N,/FPGA_A4*%
X84201000Y-110439200D03*
%TO.N,/FPGA_A5*%
X81661000Y-110439200D03*
%TO.N,/FPGA_A6*%
X79121000Y-110439200D03*
%TO.N,/FPGA_A7*%
X76581000Y-110439200D03*
%TO.N,/CLK0*%
X74041000Y-110439200D03*
%TO.N,/SDA*%
X71501000Y-110439200D03*
%TO.N,/SCL*%
X68961000Y-110439200D03*
%TO.N,GND*%
X66421000Y-110439200D03*
D11*
%TO.N,/FPGA_PWR*%
X63881000Y-110439200D03*
%TD*%
D12*
%TO.N,GND*%
%TO.C,J2*%
X112141000Y-130759200D03*
%TO.N,Net-(J2-Pad19)*%
X109601000Y-130759200D03*
%TO.N,/FPGA_D2*%
X107061000Y-130759200D03*
%TO.N,/FPGA_D3*%
X104521000Y-130759200D03*
%TO.N,/FPGA_D4*%
X101981000Y-130759200D03*
%TO.N,/FPGA_D5*%
X99441000Y-130759200D03*
%TO.N,/FPGA_D6*%
X96901000Y-130759200D03*
%TO.N,/FPGA_D7*%
X94361000Y-130759200D03*
%TO.N,/FPGA_A8*%
X91821000Y-130759200D03*
%TO.N,/FPGA_A9*%
X89281000Y-130759200D03*
%TO.N,/FPGA_BA*%
X86741000Y-130759200D03*
%TO.N,/FPGA_A10*%
X84201000Y-130759200D03*
%TO.N,/FPGA_A11*%
X81661000Y-130759200D03*
%TO.N,/FPGA_A12*%
X79121000Y-130759200D03*
%TO.N,/FPGA_A13*%
X76581000Y-130759200D03*
%TO.N,/FPGA_A14*%
X74041000Y-130759200D03*
%TO.N,/FPGA_A15*%
X71501000Y-130759200D03*
%TO.N,/FPGA_PHI2*%
X68961000Y-130759200D03*
%TO.N,/FPGA_R__W*%
X66421000Y-130759200D03*
D11*
%TO.N,/FPGA__RST*%
X63881000Y-130759200D03*
%TD*%
D13*
%TO.N,GND*%
%TO.C,J5*%
X113690400Y-95872300D03*
%TO.N,/A0*%
X111150400Y-95872300D03*
%TO.N,/A1*%
X108610400Y-95872300D03*
%TO.N,/A2*%
X106070400Y-95872300D03*
%TO.N,/A3*%
X103530400Y-95872300D03*
%TO.N,/A4*%
X100990400Y-95872300D03*
%TO.N,/A5*%
X98450400Y-95872300D03*
%TO.N,/A6*%
X95910400Y-95872300D03*
%TO.N,/A7*%
X93370400Y-95872300D03*
%TO.N,/A8*%
X90830400Y-95872300D03*
%TO.N,/A9*%
X88290400Y-95872300D03*
%TO.N,/A10*%
X85750400Y-95872300D03*
%TO.N,/A11*%
X83210400Y-95872300D03*
%TO.N,/A12*%
X80670400Y-95872300D03*
%TO.N,/A13*%
X78130400Y-95872300D03*
%TO.N,/A14*%
X75590400Y-95872300D03*
%TO.N,/A15*%
X73050400Y-95872300D03*
%TO.N,/PHI2*%
X70510400Y-95872300D03*
%TO.N,/_NMI*%
X67970400Y-95872300D03*
%TO.N,/_RST*%
X65430400Y-95872300D03*
%TO.N,/_ROMH*%
X62890400Y-95872300D03*
%TO.N,GND*%
X60350400Y-95872300D03*
X113690400Y-100952300D03*
%TO.N,/D0*%
X111150400Y-100952300D03*
%TO.N,/D1*%
X108610400Y-100952300D03*
%TO.N,/D2*%
X106070400Y-100952300D03*
%TO.N,/D3*%
X103530400Y-100952300D03*
%TO.N,/D4*%
X100990400Y-100952300D03*
%TO.N,/D5*%
X98450400Y-100952300D03*
%TO.N,/D6*%
X95910400Y-100952300D03*
%TO.N,/D7*%
X93370400Y-100952300D03*
%TO.N,/_DMA*%
X90830400Y-100952300D03*
%TO.N,/BA*%
X88290400Y-100952300D03*
%TO.N,/_ROML*%
X85750400Y-100952300D03*
%TO.N,/_IO2*%
X83210400Y-100952300D03*
%TO.N,/_EXROM*%
X80670400Y-100952300D03*
%TO.N,/_GAME*%
X78130400Y-100952300D03*
%TO.N,/_IO1*%
X75590400Y-100952300D03*
%TO.N,/DOT_CLK*%
X73050400Y-100952300D03*
%TO.N,/R__W*%
X70510400Y-100952300D03*
%TO.N,/_IRQ*%
X67970400Y-100952300D03*
%TO.N,+5V*%
X65430400Y-100952300D03*
D14*
%TO.N,GND*%
X60350400Y-100952300D03*
D13*
%TO.N,+5V*%
X62890400Y-100952300D03*
%TD*%
D10*
%TO.N,GND*%
%TO.C,GND*%
X114554000Y-105918000D03*
%TD*%
D15*
%TO.N,GND*%
X113779300Y-159651700D03*
D16*
X60413900Y-161594800D03*
X110636400Y-146152300D03*
X69146400Y-146012300D03*
X94259400Y-147180300D03*
X92956400Y-141262300D03*
X86169500Y-149136100D03*
X69256400Y-142052300D03*
D15*
X66306700Y-151358600D03*
X87972900Y-140246100D03*
X112077500Y-140246100D03*
D16*
X113753900Y-161531300D03*
D15*
X57416700Y-109562900D03*
X75006200Y-125514100D03*
X85128100Y-118300500D03*
X81648300Y-125031500D03*
X91732100Y-125183900D03*
%TO.N,+3V3*%
X112064800Y-147916900D03*
X66332100Y-142709900D03*
X87972900Y-147916900D03*
X68694300Y-114998500D03*
X83324700Y-126085600D03*
X71564500Y-114846100D03*
X80479900Y-115417600D03*
D16*
%TO.N,/A8*%
X91528900Y-161594800D03*
%TO.N,/A0*%
X110326400Y-160442300D03*
%TO.N,/A9*%
X88366400Y-160692300D03*
%TO.N,/A1*%
X107466400Y-160052300D03*
%TO.N,/A10*%
X85816400Y-160772300D03*
%TO.N,/A2*%
X105106400Y-161362300D03*
%TO.N,/A3*%
X102536400Y-159452300D03*
%TO.N,/A15*%
X74126400Y-161012300D03*
%TO.N,/A7*%
X92608400Y-161658300D03*
%TO.N,/A14*%
X76776400Y-160792300D03*
%TO.N,/A6*%
X95084900Y-160451800D03*
%TO.N,/A13*%
X78906400Y-160802300D03*
%TO.N,/A5*%
X98577400Y-159753300D03*
%TO.N,/A12*%
X80352900Y-161213800D03*
%TO.N,/A4*%
X100101400Y-161721800D03*
%TO.N,/A11*%
X83019900Y-161150300D03*
%TO.N,/D0*%
X111086900Y-157962600D03*
%TO.N,/D1*%
X108736400Y-160107900D03*
%TO.N,/D2*%
X105811320Y-159961580D03*
%TO.N,/D3*%
X103168310Y-160597710D03*
%TO.N,/D4*%
X100861400Y-158857950D03*
%TO.N,/D5*%
X99375400Y-157304300D03*
%TO.N,/D6*%
X96918349Y-160487349D03*
%TO.N,/D7*%
X93638149Y-160973549D03*
%TO.N,/_ROMH*%
X62956400Y-159332300D03*
%TO.N,/R__W*%
X70573900Y-159308800D03*
%TO.N,/_IRQ*%
X68359850Y-155748850D03*
%TO.N,/_RST*%
X65436400Y-159382300D03*
%TO.N,/PHI2*%
X71386400Y-161132300D03*
%TO.N,/_NMI*%
X67970400Y-161531300D03*
%TO.N,/DOT_CLK*%
X73501399Y-158044471D03*
%TO.N,/_IO1*%
X75653900Y-158232900D03*
%TO.N,/_GAME*%
X78193900Y-156794200D03*
%TO.N,/_EXROM*%
X79616400Y-158026000D03*
%TO.N,/_IO2*%
X82394899Y-160416401D03*
%TO.N,/_ROML*%
X85184764Y-160281342D03*
%TO.N,/BA*%
X87741399Y-160010201D03*
%TO.N,/_DMA*%
X91824850Y-160023850D03*
%TO.N,/_HIRAM*%
X114998500Y-140411200D03*
%TO.N,/_LORAM*%
X114914000Y-148383000D03*
%TO.N,/_CHAREN*%
X113423700Y-148145500D03*
%TD*%
D17*
%TO.N,GND*%
X118060400Y-139612810D02*
X116193876Y-139612310D01*
X116158900Y-139608865D01*
X116088176Y-139615831D01*
X116019904Y-139622536D01*
X116019813Y-139622564D01*
X116019717Y-139622573D01*
X115952784Y-139642877D01*
X115886057Y-139663099D01*
X115885972Y-139663144D01*
X115885881Y-139663172D01*
X115824288Y-139696094D01*
X115762697Y-139728994D01*
X115762623Y-139729054D01*
X115762538Y-139729100D01*
X115708319Y-139773596D01*
X115694512Y-139784922D01*
X115594528Y-139684938D01*
X115441389Y-139582614D01*
X115271229Y-139512132D01*
X115090589Y-139476200D01*
X114906411Y-139476200D01*
X114725771Y-139512132D01*
X114555611Y-139582614D01*
X114402472Y-139684938D01*
X114272238Y-139815172D01*
X114169914Y-139968311D01*
X114099432Y-140138471D01*
X114063500Y-140319111D01*
X114063500Y-140503289D01*
X114099432Y-140683929D01*
X114169914Y-140854089D01*
X114272238Y-141007228D01*
X114402472Y-141137462D01*
X114555611Y-141239786D01*
X114725771Y-141310268D01*
X114906411Y-141346200D01*
X115090589Y-141346200D01*
X115271229Y-141310268D01*
X115441389Y-141239786D01*
X115448901Y-141234767D01*
X115448900Y-142643176D01*
X115448901Y-142643186D01*
X115448901Y-147615894D01*
X115356889Y-147554414D01*
X115186729Y-147483932D01*
X115006089Y-147448000D01*
X114821911Y-147448000D01*
X114641271Y-147483932D01*
X114471111Y-147554414D01*
X114317972Y-147656738D01*
X114258089Y-147716621D01*
X114252286Y-147702611D01*
X114149962Y-147549472D01*
X114019728Y-147419238D01*
X113866589Y-147316914D01*
X113696429Y-147246432D01*
X113515789Y-147210500D01*
X113331611Y-147210500D01*
X113320177Y-147212774D01*
X113179437Y-147002141D01*
X112979559Y-146802263D01*
X112744527Y-146645220D01*
X112483374Y-146537047D01*
X112206135Y-146481900D01*
X111923465Y-146481900D01*
X111646226Y-146537047D01*
X111385073Y-146645220D01*
X111150041Y-146802263D01*
X110950163Y-147002141D01*
X110793120Y-147237173D01*
X110684947Y-147498326D01*
X110629800Y-147775565D01*
X110629800Y-148058235D01*
X110684947Y-148335474D01*
X110793120Y-148596627D01*
X110950163Y-148831659D01*
X111150041Y-149031537D01*
X111385073Y-149188580D01*
X111646226Y-149296753D01*
X111923465Y-149351900D01*
X112206135Y-149351900D01*
X112483374Y-149296753D01*
X112744527Y-149188580D01*
X112979559Y-149031537D01*
X113020550Y-148990546D01*
X113150971Y-149044568D01*
X113331611Y-149080500D01*
X113515789Y-149080500D01*
X113696429Y-149044568D01*
X113866589Y-148974086D01*
X114019728Y-148871762D01*
X114079611Y-148811879D01*
X114085414Y-148825889D01*
X114187738Y-148979028D01*
X114317972Y-149109262D01*
X114471111Y-149211586D01*
X114641271Y-149282068D01*
X114821911Y-149318000D01*
X115006089Y-149318000D01*
X115186729Y-149282068D01*
X115356889Y-149211586D01*
X115448901Y-149150106D01*
X115448900Y-162995129D01*
X58464900Y-163228261D01*
X58464900Y-161439211D01*
X67035400Y-161439211D01*
X67035400Y-161623389D01*
X67071332Y-161804029D01*
X67141814Y-161974189D01*
X67244138Y-162127328D01*
X67374372Y-162257562D01*
X67527511Y-162359886D01*
X67697671Y-162430368D01*
X67878311Y-162466300D01*
X68062489Y-162466300D01*
X68243129Y-162430368D01*
X68413289Y-162359886D01*
X68566428Y-162257562D01*
X68696662Y-162127328D01*
X68798986Y-161974189D01*
X68869468Y-161804029D01*
X68905400Y-161623389D01*
X68905400Y-161439211D01*
X68869468Y-161258571D01*
X68798986Y-161088411D01*
X68766780Y-161040211D01*
X70451400Y-161040211D01*
X70451400Y-161224389D01*
X70487332Y-161405029D01*
X70557814Y-161575189D01*
X70660138Y-161728328D01*
X70790372Y-161858562D01*
X70943511Y-161960886D01*
X71113671Y-162031368D01*
X71294311Y-162067300D01*
X71478489Y-162067300D01*
X71659129Y-162031368D01*
X71829289Y-161960886D01*
X71982428Y-161858562D01*
X72112662Y-161728328D01*
X72214986Y-161575189D01*
X72285468Y-161405029D01*
X72321400Y-161224389D01*
X72321400Y-161040211D01*
X72297531Y-160920211D01*
X73191400Y-160920211D01*
X73191400Y-161104389D01*
X73227332Y-161285029D01*
X73297814Y-161455189D01*
X73400138Y-161608328D01*
X73530372Y-161738562D01*
X73683511Y-161840886D01*
X73853671Y-161911368D01*
X74034311Y-161947300D01*
X74218489Y-161947300D01*
X74399129Y-161911368D01*
X74569289Y-161840886D01*
X74722428Y-161738562D01*
X74852662Y-161608328D01*
X74954986Y-161455189D01*
X75025468Y-161285029D01*
X75061400Y-161104389D01*
X75061400Y-160920211D01*
X75025468Y-160739571D01*
X75009165Y-160700211D01*
X75841400Y-160700211D01*
X75841400Y-160884389D01*
X75877332Y-161065029D01*
X75947814Y-161235189D01*
X76050138Y-161388328D01*
X76180372Y-161518562D01*
X76333511Y-161620886D01*
X76503671Y-161691368D01*
X76684311Y-161727300D01*
X76868489Y-161727300D01*
X77049129Y-161691368D01*
X77219289Y-161620886D01*
X77372428Y-161518562D01*
X77502662Y-161388328D01*
X77604986Y-161235189D01*
X77675468Y-161065029D01*
X77711400Y-160884389D01*
X77711400Y-160710211D01*
X77971400Y-160710211D01*
X77971400Y-160894389D01*
X78007332Y-161075029D01*
X78077814Y-161245189D01*
X78180138Y-161398328D01*
X78310372Y-161528562D01*
X78463511Y-161630886D01*
X78633671Y-161701368D01*
X78814311Y-161737300D01*
X78998489Y-161737300D01*
X79179129Y-161701368D01*
X79349289Y-161630886D01*
X79478003Y-161544882D01*
X79524314Y-161656689D01*
X79626638Y-161809828D01*
X79756872Y-161940062D01*
X79910011Y-162042386D01*
X80080171Y-162112868D01*
X80260811Y-162148800D01*
X80444989Y-162148800D01*
X80625629Y-162112868D01*
X80795789Y-162042386D01*
X80948928Y-161940062D01*
X81079162Y-161809828D01*
X81181486Y-161656689D01*
X81251968Y-161486529D01*
X81287900Y-161305889D01*
X81287900Y-161121711D01*
X81251968Y-160941071D01*
X81181486Y-160770911D01*
X81079162Y-160617772D01*
X80948928Y-160487538D01*
X80795789Y-160385214D01*
X80648758Y-160324312D01*
X81459899Y-160324312D01*
X81459899Y-160508490D01*
X81495831Y-160689130D01*
X81566313Y-160859290D01*
X81668637Y-161012429D01*
X81798871Y-161142663D01*
X81952010Y-161244987D01*
X82097395Y-161305207D01*
X82120832Y-161423029D01*
X82191314Y-161593189D01*
X82293638Y-161746328D01*
X82423872Y-161876562D01*
X82577011Y-161978886D01*
X82747171Y-162049368D01*
X82927811Y-162085300D01*
X83111989Y-162085300D01*
X83292629Y-162049368D01*
X83462789Y-161978886D01*
X83615928Y-161876562D01*
X83746162Y-161746328D01*
X83848486Y-161593189D01*
X83918968Y-161423029D01*
X83954900Y-161242389D01*
X83954900Y-161058211D01*
X83918968Y-160877571D01*
X83848486Y-160707411D01*
X83746162Y-160554272D01*
X83615928Y-160424038D01*
X83462789Y-160321714D01*
X83317404Y-160261494D01*
X83303034Y-160189253D01*
X84249764Y-160189253D01*
X84249764Y-160373431D01*
X84285696Y-160554071D01*
X84356178Y-160724231D01*
X84458502Y-160877370D01*
X84588736Y-161007604D01*
X84741875Y-161109928D01*
X84912035Y-161180410D01*
X84978919Y-161193714D01*
X84987814Y-161215189D01*
X85090138Y-161368328D01*
X85220372Y-161498562D01*
X85373511Y-161600886D01*
X85543671Y-161671368D01*
X85724311Y-161707300D01*
X85908489Y-161707300D01*
X86089129Y-161671368D01*
X86259289Y-161600886D01*
X86412428Y-161498562D01*
X86542662Y-161368328D01*
X86644986Y-161215189D01*
X86715468Y-161045029D01*
X86751400Y-160864389D01*
X86751400Y-160680211D01*
X86715468Y-160499571D01*
X86644986Y-160329411D01*
X86542662Y-160176272D01*
X86412428Y-160046038D01*
X86259289Y-159943714D01*
X86197480Y-159918112D01*
X86806399Y-159918112D01*
X86806399Y-160102290D01*
X86842331Y-160282930D01*
X86912813Y-160453090D01*
X87015137Y-160606229D01*
X87145371Y-160736463D01*
X87298510Y-160838787D01*
X87455124Y-160903658D01*
X87467332Y-160965029D01*
X87537814Y-161135189D01*
X87640138Y-161288328D01*
X87770372Y-161418562D01*
X87923511Y-161520886D01*
X88093671Y-161591368D01*
X88274311Y-161627300D01*
X88458489Y-161627300D01*
X88639129Y-161591368D01*
X88809289Y-161520886D01*
X88836489Y-161502711D01*
X90593900Y-161502711D01*
X90593900Y-161686889D01*
X90629832Y-161867529D01*
X90700314Y-162037689D01*
X90802638Y-162190828D01*
X90932872Y-162321062D01*
X91086011Y-162423386D01*
X91256171Y-162493868D01*
X91436811Y-162529800D01*
X91620989Y-162529800D01*
X91801629Y-162493868D01*
X91971789Y-162423386D01*
X92021133Y-162390416D01*
X92165511Y-162486886D01*
X92335671Y-162557368D01*
X92516311Y-162593300D01*
X92700489Y-162593300D01*
X92881129Y-162557368D01*
X93051289Y-162486886D01*
X93204428Y-162384562D01*
X93334662Y-162254328D01*
X93436986Y-162101189D01*
X93507468Y-161931029D01*
X93513238Y-161902020D01*
X93546060Y-161908549D01*
X93730238Y-161908549D01*
X93910878Y-161872617D01*
X94081038Y-161802135D01*
X94234177Y-161699811D01*
X94304277Y-161629711D01*
X99166400Y-161629711D01*
X99166400Y-161813889D01*
X99202332Y-161994529D01*
X99272814Y-162164689D01*
X99375138Y-162317828D01*
X99505372Y-162448062D01*
X99658511Y-162550386D01*
X99828671Y-162620868D01*
X100009311Y-162656800D01*
X100193489Y-162656800D01*
X100374129Y-162620868D01*
X100544289Y-162550386D01*
X100697428Y-162448062D01*
X100827662Y-162317828D01*
X100929986Y-162164689D01*
X101000468Y-161994529D01*
X101036400Y-161813889D01*
X101036400Y-161629711D01*
X101000468Y-161449071D01*
X100929986Y-161278911D01*
X100827662Y-161125772D01*
X100697428Y-160995538D01*
X100544289Y-160893214D01*
X100374129Y-160822732D01*
X100193489Y-160786800D01*
X100009311Y-160786800D01*
X99828671Y-160822732D01*
X99658511Y-160893214D01*
X99505372Y-160995538D01*
X99375138Y-161125772D01*
X99272814Y-161278911D01*
X99202332Y-161449071D01*
X99166400Y-161629711D01*
X94304277Y-161629711D01*
X94364411Y-161569577D01*
X94466735Y-161416438D01*
X94537217Y-161246278D01*
X94543523Y-161214578D01*
X94642011Y-161280386D01*
X94812171Y-161350868D01*
X94992811Y-161386800D01*
X95176989Y-161386800D01*
X95357629Y-161350868D01*
X95527789Y-161280386D01*
X95680928Y-161178062D01*
X95811162Y-161047828D01*
X95913486Y-160894689D01*
X95983968Y-160724529D01*
X95998089Y-160653539D01*
X96019281Y-160760078D01*
X96089763Y-160930238D01*
X96192087Y-161083377D01*
X96322321Y-161213611D01*
X96475460Y-161315935D01*
X96645620Y-161386417D01*
X96826260Y-161422349D01*
X97010438Y-161422349D01*
X97191078Y-161386417D01*
X97361238Y-161315935D01*
X97514377Y-161213611D01*
X97644611Y-161083377D01*
X97746935Y-160930238D01*
X97817417Y-160760078D01*
X97853349Y-160579438D01*
X97853349Y-160395260D01*
X97841277Y-160334570D01*
X97851138Y-160349328D01*
X97981372Y-160479562D01*
X98134511Y-160581886D01*
X98304671Y-160652368D01*
X98485311Y-160688300D01*
X98669489Y-160688300D01*
X98850129Y-160652368D01*
X99020289Y-160581886D01*
X99173428Y-160479562D01*
X99303662Y-160349328D01*
X99405986Y-160196189D01*
X99476468Y-160026029D01*
X99512400Y-159845389D01*
X99512400Y-159661211D01*
X99476468Y-159480571D01*
X99405986Y-159310411D01*
X99303662Y-159157272D01*
X99173428Y-159027038D01*
X99020289Y-158924714D01*
X98850129Y-158854232D01*
X98669489Y-158818300D01*
X98485311Y-158818300D01*
X98304671Y-158854232D01*
X98134511Y-158924714D01*
X97981372Y-159027038D01*
X97851138Y-159157272D01*
X97748814Y-159310411D01*
X97678332Y-159480571D01*
X97642400Y-159661211D01*
X97642400Y-159845389D01*
X97654472Y-159906079D01*
X97644611Y-159891321D01*
X97514377Y-159761087D01*
X97361238Y-159658763D01*
X97191078Y-159588281D01*
X97010438Y-159552349D01*
X96826260Y-159552349D01*
X96645620Y-159588281D01*
X96475460Y-159658763D01*
X96322321Y-159761087D01*
X96192087Y-159891321D01*
X96089763Y-160044460D01*
X96019281Y-160214620D01*
X96005160Y-160285610D01*
X95983968Y-160179071D01*
X95913486Y-160008911D01*
X95811162Y-159855772D01*
X95680928Y-159725538D01*
X95527789Y-159623214D01*
X95357629Y-159552732D01*
X95176989Y-159516800D01*
X94992811Y-159516800D01*
X94812171Y-159552732D01*
X94642011Y-159623214D01*
X94488872Y-159725538D01*
X94358638Y-159855772D01*
X94256314Y-160008911D01*
X94185832Y-160179071D01*
X94179526Y-160210771D01*
X94081038Y-160144963D01*
X93910878Y-160074481D01*
X93730238Y-160038549D01*
X93546060Y-160038549D01*
X93365420Y-160074481D01*
X93195260Y-160144963D01*
X93042121Y-160247287D01*
X92911887Y-160377521D01*
X92809563Y-160530660D01*
X92739081Y-160700820D01*
X92733311Y-160729829D01*
X92700489Y-160723300D01*
X92516311Y-160723300D01*
X92430651Y-160740339D01*
X92551112Y-160619878D01*
X92653436Y-160466739D01*
X92723918Y-160296579D01*
X92759850Y-160115939D01*
X92759850Y-159931761D01*
X92723918Y-159751121D01*
X92653436Y-159580961D01*
X92551112Y-159427822D01*
X92420878Y-159297588D01*
X92267739Y-159195264D01*
X92097579Y-159124782D01*
X91916939Y-159088850D01*
X91732761Y-159088850D01*
X91552121Y-159124782D01*
X91381961Y-159195264D01*
X91228822Y-159297588D01*
X91098588Y-159427822D01*
X90996264Y-159580961D01*
X90925782Y-159751121D01*
X90889850Y-159931761D01*
X90889850Y-160115939D01*
X90925782Y-160296579D01*
X90996264Y-160466739D01*
X91098588Y-160619878D01*
X91198380Y-160719670D01*
X91086011Y-160766214D01*
X90932872Y-160868538D01*
X90802638Y-160998772D01*
X90700314Y-161151911D01*
X90629832Y-161322071D01*
X90593900Y-161502711D01*
X88836489Y-161502711D01*
X88962428Y-161418562D01*
X89092662Y-161288328D01*
X89194986Y-161135189D01*
X89265468Y-160965029D01*
X89301400Y-160784389D01*
X89301400Y-160600211D01*
X89265468Y-160419571D01*
X89194986Y-160249411D01*
X89092662Y-160096272D01*
X88962428Y-159966038D01*
X88809289Y-159863714D01*
X88652675Y-159798843D01*
X88640467Y-159737472D01*
X88569985Y-159567312D01*
X88467661Y-159414173D01*
X88337427Y-159283939D01*
X88184288Y-159181615D01*
X88014128Y-159111133D01*
X87833488Y-159075201D01*
X87649310Y-159075201D01*
X87468670Y-159111133D01*
X87298510Y-159181615D01*
X87145371Y-159283939D01*
X87015137Y-159414173D01*
X86912813Y-159567312D01*
X86842331Y-159737472D01*
X86806399Y-159918112D01*
X86197480Y-159918112D01*
X86089129Y-159873232D01*
X86022245Y-159859928D01*
X86013350Y-159838453D01*
X85911026Y-159685314D01*
X85780792Y-159555080D01*
X85627653Y-159452756D01*
X85457493Y-159382274D01*
X85276853Y-159346342D01*
X85092675Y-159346342D01*
X84912035Y-159382274D01*
X84741875Y-159452756D01*
X84588736Y-159555080D01*
X84458502Y-159685314D01*
X84356178Y-159838453D01*
X84285696Y-160008613D01*
X84249764Y-160189253D01*
X83303034Y-160189253D01*
X83293967Y-160143672D01*
X83223485Y-159973512D01*
X83121161Y-159820373D01*
X82990927Y-159690139D01*
X82837788Y-159587815D01*
X82667628Y-159517333D01*
X82486988Y-159481401D01*
X82302810Y-159481401D01*
X82122170Y-159517333D01*
X81952010Y-159587815D01*
X81798871Y-159690139D01*
X81668637Y-159820373D01*
X81566313Y-159973512D01*
X81495831Y-160143672D01*
X81459899Y-160324312D01*
X80648758Y-160324312D01*
X80625629Y-160314732D01*
X80444989Y-160278800D01*
X80260811Y-160278800D01*
X80080171Y-160314732D01*
X79910011Y-160385214D01*
X79781297Y-160471218D01*
X79734986Y-160359411D01*
X79632662Y-160206272D01*
X79502428Y-160076038D01*
X79349289Y-159973714D01*
X79179129Y-159903232D01*
X78998489Y-159867300D01*
X78814311Y-159867300D01*
X78633671Y-159903232D01*
X78463511Y-159973714D01*
X78310372Y-160076038D01*
X78180138Y-160206272D01*
X78077814Y-160359411D01*
X78007332Y-160529571D01*
X77971400Y-160710211D01*
X77711400Y-160710211D01*
X77711400Y-160700211D01*
X77675468Y-160519571D01*
X77604986Y-160349411D01*
X77502662Y-160196272D01*
X77372428Y-160066038D01*
X77219289Y-159963714D01*
X77049129Y-159893232D01*
X76868489Y-159857300D01*
X76684311Y-159857300D01*
X76503671Y-159893232D01*
X76333511Y-159963714D01*
X76180372Y-160066038D01*
X76050138Y-160196272D01*
X75947814Y-160349411D01*
X75877332Y-160519571D01*
X75841400Y-160700211D01*
X75009165Y-160700211D01*
X74954986Y-160569411D01*
X74852662Y-160416272D01*
X74722428Y-160286038D01*
X74569289Y-160183714D01*
X74399129Y-160113232D01*
X74218489Y-160077300D01*
X74034311Y-160077300D01*
X73853671Y-160113232D01*
X73683511Y-160183714D01*
X73530372Y-160286038D01*
X73400138Y-160416272D01*
X73297814Y-160569411D01*
X73227332Y-160739571D01*
X73191400Y-160920211D01*
X72297531Y-160920211D01*
X72285468Y-160859571D01*
X72214986Y-160689411D01*
X72112662Y-160536272D01*
X71982428Y-160406038D01*
X71829289Y-160303714D01*
X71659129Y-160233232D01*
X71478489Y-160197300D01*
X71294311Y-160197300D01*
X71113671Y-160233232D01*
X70943511Y-160303714D01*
X70790372Y-160406038D01*
X70660138Y-160536272D01*
X70557814Y-160689411D01*
X70487332Y-160859571D01*
X70451400Y-161040211D01*
X68766780Y-161040211D01*
X68696662Y-160935272D01*
X68566428Y-160805038D01*
X68413289Y-160702714D01*
X68243129Y-160632232D01*
X68062489Y-160596300D01*
X67878311Y-160596300D01*
X67697671Y-160632232D01*
X67527511Y-160702714D01*
X67374372Y-160805038D01*
X67244138Y-160935272D01*
X67141814Y-161088411D01*
X67071332Y-161258571D01*
X67035400Y-161439211D01*
X58464900Y-161439211D01*
X58464900Y-159240211D01*
X62021400Y-159240211D01*
X62021400Y-159424389D01*
X62057332Y-159605029D01*
X62127814Y-159775189D01*
X62230138Y-159928328D01*
X62360372Y-160058562D01*
X62513511Y-160160886D01*
X62683671Y-160231368D01*
X62864311Y-160267300D01*
X63048489Y-160267300D01*
X63229129Y-160231368D01*
X63399289Y-160160886D01*
X63552428Y-160058562D01*
X63682662Y-159928328D01*
X63784986Y-159775189D01*
X63855468Y-159605029D01*
X63891400Y-159424389D01*
X63891400Y-159290211D01*
X64501400Y-159290211D01*
X64501400Y-159474389D01*
X64537332Y-159655029D01*
X64607814Y-159825189D01*
X64710138Y-159978328D01*
X64840372Y-160108562D01*
X64993511Y-160210886D01*
X65163671Y-160281368D01*
X65344311Y-160317300D01*
X65528489Y-160317300D01*
X65709129Y-160281368D01*
X65879289Y-160210886D01*
X66032428Y-160108562D01*
X66162662Y-159978328D01*
X66264986Y-159825189D01*
X66335468Y-159655029D01*
X66371400Y-159474389D01*
X66371400Y-159290211D01*
X66356780Y-159216711D01*
X69638900Y-159216711D01*
X69638900Y-159400889D01*
X69674832Y-159581529D01*
X69745314Y-159751689D01*
X69847638Y-159904828D01*
X69977872Y-160035062D01*
X70131011Y-160137386D01*
X70301171Y-160207868D01*
X70481811Y-160243800D01*
X70665989Y-160243800D01*
X70846629Y-160207868D01*
X71016789Y-160137386D01*
X71169928Y-160035062D01*
X71300162Y-159904828D01*
X71402486Y-159751689D01*
X71472968Y-159581529D01*
X71508900Y-159400889D01*
X71508900Y-159216711D01*
X71472968Y-159036071D01*
X71402486Y-158865911D01*
X71300162Y-158712772D01*
X71169928Y-158582538D01*
X71016789Y-158480214D01*
X70846629Y-158409732D01*
X70665989Y-158373800D01*
X70481811Y-158373800D01*
X70301171Y-158409732D01*
X70131011Y-158480214D01*
X69977872Y-158582538D01*
X69847638Y-158712772D01*
X69745314Y-158865911D01*
X69674832Y-159036071D01*
X69638900Y-159216711D01*
X66356780Y-159216711D01*
X66335468Y-159109571D01*
X66264986Y-158939411D01*
X66162662Y-158786272D01*
X66032428Y-158656038D01*
X65879289Y-158553714D01*
X65709129Y-158483232D01*
X65528489Y-158447300D01*
X65344311Y-158447300D01*
X65163671Y-158483232D01*
X64993511Y-158553714D01*
X64840372Y-158656038D01*
X64710138Y-158786272D01*
X64607814Y-158939411D01*
X64537332Y-159109571D01*
X64501400Y-159290211D01*
X63891400Y-159290211D01*
X63891400Y-159240211D01*
X63855468Y-159059571D01*
X63784986Y-158889411D01*
X63682662Y-158736272D01*
X63552428Y-158606038D01*
X63399289Y-158503714D01*
X63229129Y-158433232D01*
X63048489Y-158397300D01*
X62864311Y-158397300D01*
X62683671Y-158433232D01*
X62513511Y-158503714D01*
X62360372Y-158606038D01*
X62230138Y-158736272D01*
X62127814Y-158889411D01*
X62057332Y-159059571D01*
X62021400Y-159240211D01*
X58464900Y-159240211D01*
X58464900Y-157952382D01*
X72566399Y-157952382D01*
X72566399Y-158136560D01*
X72602331Y-158317200D01*
X72672813Y-158487360D01*
X72775137Y-158640499D01*
X72905371Y-158770733D01*
X73058510Y-158873057D01*
X73228670Y-158943539D01*
X73409310Y-158979471D01*
X73593488Y-158979471D01*
X73774128Y-158943539D01*
X73944288Y-158873057D01*
X74097427Y-158770733D01*
X74227661Y-158640499D01*
X74329985Y-158487360D01*
X74400467Y-158317200D01*
X74435553Y-158140811D01*
X74718900Y-158140811D01*
X74718900Y-158324989D01*
X74754832Y-158505629D01*
X74825314Y-158675789D01*
X74927638Y-158828928D01*
X75057872Y-158959162D01*
X75211011Y-159061486D01*
X75381171Y-159131968D01*
X75561811Y-159167900D01*
X75745989Y-159167900D01*
X75926629Y-159131968D01*
X76096789Y-159061486D01*
X76249928Y-158959162D01*
X76380162Y-158828928D01*
X76482486Y-158675789D01*
X76552968Y-158505629D01*
X76588900Y-158324989D01*
X76588900Y-158140811D01*
X76552968Y-157960171D01*
X76542091Y-157933911D01*
X78681400Y-157933911D01*
X78681400Y-158118089D01*
X78717332Y-158298729D01*
X78787814Y-158468889D01*
X78890138Y-158622028D01*
X79020372Y-158752262D01*
X79173511Y-158854586D01*
X79343671Y-158925068D01*
X79524311Y-158961000D01*
X79708489Y-158961000D01*
X79889129Y-158925068D01*
X80059289Y-158854586D01*
X80192075Y-158765861D01*
X99926400Y-158765861D01*
X99926400Y-158950039D01*
X99962332Y-159130679D01*
X100032814Y-159300839D01*
X100135138Y-159453978D01*
X100265372Y-159584212D01*
X100418511Y-159686536D01*
X100588671Y-159757018D01*
X100769311Y-159792950D01*
X100953489Y-159792950D01*
X101134129Y-159757018D01*
X101304289Y-159686536D01*
X101457428Y-159584212D01*
X101587662Y-159453978D01*
X101601400Y-159433418D01*
X101601400Y-159544389D01*
X101637332Y-159725029D01*
X101707814Y-159895189D01*
X101810138Y-160048328D01*
X101940372Y-160178562D01*
X102093511Y-160280886D01*
X102263671Y-160351368D01*
X102263981Y-160351430D01*
X102233310Y-160505621D01*
X102233310Y-160689799D01*
X102269242Y-160870439D01*
X102339724Y-161040599D01*
X102442048Y-161193738D01*
X102572282Y-161323972D01*
X102725421Y-161426296D01*
X102895581Y-161496778D01*
X103076221Y-161532710D01*
X103260399Y-161532710D01*
X103441039Y-161496778D01*
X103611199Y-161426296D01*
X103764338Y-161323972D01*
X103818099Y-161270211D01*
X104171400Y-161270211D01*
X104171400Y-161454389D01*
X104207332Y-161635029D01*
X104277814Y-161805189D01*
X104380138Y-161958328D01*
X104510372Y-162088562D01*
X104663511Y-162190886D01*
X104833671Y-162261368D01*
X105014311Y-162297300D01*
X105198489Y-162297300D01*
X105379129Y-162261368D01*
X105549289Y-162190886D01*
X105702428Y-162088562D01*
X105832662Y-161958328D01*
X105934986Y-161805189D01*
X106005468Y-161635029D01*
X106041400Y-161454389D01*
X106041400Y-161270211D01*
X106005468Y-161089571D01*
X105934986Y-160919411D01*
X105917816Y-160893714D01*
X106084049Y-160860648D01*
X106254209Y-160790166D01*
X106407348Y-160687842D01*
X106537582Y-160557608D01*
X106615418Y-160441119D01*
X106637814Y-160495189D01*
X106740138Y-160648328D01*
X106870372Y-160778562D01*
X107023511Y-160880886D01*
X107193671Y-160951368D01*
X107374311Y-160987300D01*
X107558489Y-160987300D01*
X107739129Y-160951368D01*
X107909289Y-160880886D01*
X108062428Y-160778562D01*
X108073600Y-160767390D01*
X108140372Y-160834162D01*
X108293511Y-160936486D01*
X108463671Y-161006968D01*
X108644311Y-161042900D01*
X108828489Y-161042900D01*
X109009129Y-161006968D01*
X109179289Y-160936486D01*
X109332428Y-160834162D01*
X109434428Y-160732162D01*
X109497814Y-160885189D01*
X109600138Y-161038328D01*
X109730372Y-161168562D01*
X109883511Y-161270886D01*
X110053671Y-161341368D01*
X110234311Y-161377300D01*
X110418489Y-161377300D01*
X110599129Y-161341368D01*
X110769289Y-161270886D01*
X110922428Y-161168562D01*
X111052662Y-161038328D01*
X111154986Y-160885189D01*
X111225468Y-160715029D01*
X111261400Y-160534389D01*
X111261400Y-160350211D01*
X111225468Y-160169571D01*
X111154986Y-159999411D01*
X111052662Y-159846272D01*
X110922428Y-159716038D01*
X110769289Y-159613714D01*
X110599129Y-159543232D01*
X110418489Y-159507300D01*
X110234311Y-159507300D01*
X110053671Y-159543232D01*
X109883511Y-159613714D01*
X109730372Y-159716038D01*
X109628372Y-159818038D01*
X109564986Y-159665011D01*
X109462662Y-159511872D01*
X109332428Y-159381638D01*
X109179289Y-159279314D01*
X109009129Y-159208832D01*
X108828489Y-159172900D01*
X108644311Y-159172900D01*
X108463671Y-159208832D01*
X108293511Y-159279314D01*
X108140372Y-159381638D01*
X108129200Y-159392810D01*
X108062428Y-159326038D01*
X107909289Y-159223714D01*
X107739129Y-159153232D01*
X107558489Y-159117300D01*
X107374311Y-159117300D01*
X107193671Y-159153232D01*
X107023511Y-159223714D01*
X106870372Y-159326038D01*
X106740138Y-159456272D01*
X106662302Y-159572761D01*
X106639906Y-159518691D01*
X106537582Y-159365552D01*
X106407348Y-159235318D01*
X106254209Y-159132994D01*
X106084049Y-159062512D01*
X105903409Y-159026580D01*
X105719231Y-159026580D01*
X105538591Y-159062512D01*
X105368431Y-159132994D01*
X105215292Y-159235318D01*
X105085058Y-159365552D01*
X104982734Y-159518691D01*
X104912252Y-159688851D01*
X104876320Y-159869491D01*
X104876320Y-160053669D01*
X104912252Y-160234309D01*
X104982734Y-160404469D01*
X104999904Y-160430166D01*
X104833671Y-160463232D01*
X104663511Y-160533714D01*
X104510372Y-160636038D01*
X104380138Y-160766272D01*
X104277814Y-160919411D01*
X104207332Y-161089571D01*
X104171400Y-161270211D01*
X103818099Y-161270211D01*
X103894572Y-161193738D01*
X103996896Y-161040599D01*
X104067378Y-160870439D01*
X104103310Y-160689799D01*
X104103310Y-160505621D01*
X104067378Y-160324981D01*
X103996896Y-160154821D01*
X103894572Y-160001682D01*
X103764338Y-159871448D01*
X103611199Y-159769124D01*
X103441039Y-159698642D01*
X103440729Y-159698580D01*
X103471400Y-159544389D01*
X103471400Y-159360211D01*
X103435468Y-159179571D01*
X103364986Y-159009411D01*
X103262662Y-158856272D01*
X103132428Y-158726038D01*
X102979289Y-158623714D01*
X102809129Y-158553232D01*
X102628489Y-158517300D01*
X102444311Y-158517300D01*
X102263671Y-158553232D01*
X102093511Y-158623714D01*
X101940372Y-158726038D01*
X101810138Y-158856272D01*
X101796400Y-158876832D01*
X101796400Y-158765861D01*
X101760468Y-158585221D01*
X101689986Y-158415061D01*
X101587662Y-158261922D01*
X101457428Y-158131688D01*
X101304289Y-158029364D01*
X101134129Y-157958882D01*
X100953489Y-157922950D01*
X100769311Y-157922950D01*
X100588671Y-157958882D01*
X100418511Y-158029364D01*
X100265372Y-158131688D01*
X100135138Y-158261922D01*
X100032814Y-158415061D01*
X99962332Y-158585221D01*
X99926400Y-158765861D01*
X80192075Y-158765861D01*
X80212428Y-158752262D01*
X80342662Y-158622028D01*
X80444986Y-158468889D01*
X80515468Y-158298729D01*
X80551400Y-158118089D01*
X80551400Y-157933911D01*
X80515468Y-157753271D01*
X80444986Y-157583111D01*
X80342662Y-157429972D01*
X80212428Y-157299738D01*
X80081435Y-157212211D01*
X98440400Y-157212211D01*
X98440400Y-157396389D01*
X98476332Y-157577029D01*
X98546814Y-157747189D01*
X98649138Y-157900328D01*
X98779372Y-158030562D01*
X98932511Y-158132886D01*
X99102671Y-158203368D01*
X99283311Y-158239300D01*
X99467489Y-158239300D01*
X99648129Y-158203368D01*
X99818289Y-158132886D01*
X99971428Y-158030562D01*
X100101662Y-157900328D01*
X100121585Y-157870511D01*
X110151900Y-157870511D01*
X110151900Y-158054689D01*
X110187832Y-158235329D01*
X110258314Y-158405489D01*
X110360638Y-158558628D01*
X110490872Y-158688862D01*
X110644011Y-158791186D01*
X110814171Y-158861668D01*
X110994811Y-158897600D01*
X111178989Y-158897600D01*
X111359629Y-158861668D01*
X111529789Y-158791186D01*
X111682928Y-158688862D01*
X111813162Y-158558628D01*
X111915486Y-158405489D01*
X111985968Y-158235329D01*
X112021900Y-158054689D01*
X112021900Y-157870511D01*
X111985968Y-157689871D01*
X111915486Y-157519711D01*
X111813162Y-157366572D01*
X111682928Y-157236338D01*
X111529789Y-157134014D01*
X111359629Y-157063532D01*
X111178989Y-157027600D01*
X110994811Y-157027600D01*
X110814171Y-157063532D01*
X110644011Y-157134014D01*
X110490872Y-157236338D01*
X110360638Y-157366572D01*
X110258314Y-157519711D01*
X110187832Y-157689871D01*
X110151900Y-157870511D01*
X100121585Y-157870511D01*
X100203986Y-157747189D01*
X100274468Y-157577029D01*
X100310400Y-157396389D01*
X100310400Y-157212211D01*
X100274468Y-157031571D01*
X100203986Y-156861411D01*
X100101662Y-156708272D01*
X99971428Y-156578038D01*
X99818289Y-156475714D01*
X99648129Y-156405232D01*
X99467489Y-156369300D01*
X99283311Y-156369300D01*
X99102671Y-156405232D01*
X98932511Y-156475714D01*
X98779372Y-156578038D01*
X98649138Y-156708272D01*
X98546814Y-156861411D01*
X98476332Y-157031571D01*
X98440400Y-157212211D01*
X80081435Y-157212211D01*
X80059289Y-157197414D01*
X79889129Y-157126932D01*
X79708489Y-157091000D01*
X79524311Y-157091000D01*
X79343671Y-157126932D01*
X79173511Y-157197414D01*
X79020372Y-157299738D01*
X78890138Y-157429972D01*
X78787814Y-157583111D01*
X78717332Y-157753271D01*
X78681400Y-157933911D01*
X76542091Y-157933911D01*
X76482486Y-157790011D01*
X76380162Y-157636872D01*
X76249928Y-157506638D01*
X76096789Y-157404314D01*
X75926629Y-157333832D01*
X75745989Y-157297900D01*
X75561811Y-157297900D01*
X75381171Y-157333832D01*
X75211011Y-157404314D01*
X75057872Y-157506638D01*
X74927638Y-157636872D01*
X74825314Y-157790011D01*
X74754832Y-157960171D01*
X74718900Y-158140811D01*
X74435553Y-158140811D01*
X74436399Y-158136560D01*
X74436399Y-157952382D01*
X74400467Y-157771742D01*
X74329985Y-157601582D01*
X74227661Y-157448443D01*
X74097427Y-157318209D01*
X73944288Y-157215885D01*
X73774128Y-157145403D01*
X73593488Y-157109471D01*
X73409310Y-157109471D01*
X73228670Y-157145403D01*
X73058510Y-157215885D01*
X72905371Y-157318209D01*
X72775137Y-157448443D01*
X72672813Y-157601582D01*
X72602331Y-157771742D01*
X72566399Y-157952382D01*
X58464900Y-157952382D01*
X58464900Y-156702111D01*
X77258900Y-156702111D01*
X77258900Y-156886289D01*
X77294832Y-157066929D01*
X77365314Y-157237089D01*
X77467638Y-157390228D01*
X77597872Y-157520462D01*
X77751011Y-157622786D01*
X77921171Y-157693268D01*
X78101811Y-157729200D01*
X78285989Y-157729200D01*
X78466629Y-157693268D01*
X78636789Y-157622786D01*
X78789928Y-157520462D01*
X78920162Y-157390228D01*
X79022486Y-157237089D01*
X79092968Y-157066929D01*
X79128900Y-156886289D01*
X79128900Y-156702111D01*
X79092968Y-156521471D01*
X79022486Y-156351311D01*
X78920162Y-156198172D01*
X78789928Y-156067938D01*
X78636789Y-155965614D01*
X78466629Y-155895132D01*
X78285989Y-155859200D01*
X78101811Y-155859200D01*
X77921171Y-155895132D01*
X77751011Y-155965614D01*
X77597872Y-156067938D01*
X77467638Y-156198172D01*
X77365314Y-156351311D01*
X77294832Y-156521471D01*
X77258900Y-156702111D01*
X58464900Y-156702111D01*
X58464900Y-155656761D01*
X67424850Y-155656761D01*
X67424850Y-155840939D01*
X67460782Y-156021579D01*
X67531264Y-156191739D01*
X67633588Y-156344878D01*
X67763822Y-156475112D01*
X67916961Y-156577436D01*
X68087121Y-156647918D01*
X68267761Y-156683850D01*
X68451939Y-156683850D01*
X68632579Y-156647918D01*
X68802739Y-156577436D01*
X68955878Y-156475112D01*
X69086112Y-156344878D01*
X69188436Y-156191739D01*
X69258918Y-156021579D01*
X69294850Y-155840939D01*
X69294850Y-155656761D01*
X69258918Y-155476121D01*
X69188436Y-155305961D01*
X69086112Y-155152822D01*
X68955878Y-155022588D01*
X68802739Y-154920264D01*
X68632579Y-154849782D01*
X68451939Y-154813850D01*
X68267761Y-154813850D01*
X68087121Y-154849782D01*
X67916961Y-154920264D01*
X67763822Y-155022588D01*
X67633588Y-155152822D01*
X67531264Y-155305961D01*
X67460782Y-155476121D01*
X67424850Y-155656761D01*
X58464900Y-155656761D01*
X58464900Y-147775565D01*
X86537900Y-147775565D01*
X86537900Y-148058235D01*
X86593047Y-148335474D01*
X86701220Y-148596627D01*
X86858263Y-148831659D01*
X87058141Y-149031537D01*
X87293173Y-149188580D01*
X87554326Y-149296753D01*
X87831565Y-149351900D01*
X88114235Y-149351900D01*
X88391474Y-149296753D01*
X88652627Y-149188580D01*
X88887659Y-149031537D01*
X89087537Y-148831659D01*
X89244580Y-148596627D01*
X89352753Y-148335474D01*
X89407900Y-148058235D01*
X89407900Y-147775565D01*
X89352753Y-147498326D01*
X89244580Y-147237173D01*
X89087537Y-147002141D01*
X88887659Y-146802263D01*
X88652627Y-146645220D01*
X88391474Y-146537047D01*
X88114235Y-146481900D01*
X87831565Y-146481900D01*
X87554326Y-146537047D01*
X87293173Y-146645220D01*
X87058141Y-146802263D01*
X86858263Y-147002141D01*
X86701220Y-147237173D01*
X86593047Y-147498326D01*
X86537900Y-147775565D01*
X58464900Y-147775565D01*
X58464900Y-142568565D01*
X64897100Y-142568565D01*
X64897100Y-142851235D01*
X64952247Y-143128474D01*
X65060420Y-143389627D01*
X65217463Y-143624659D01*
X65417341Y-143824537D01*
X65652373Y-143981580D01*
X65913526Y-144089753D01*
X66190765Y-144144900D01*
X66473435Y-144144900D01*
X66750674Y-144089753D01*
X67011827Y-143981580D01*
X67246859Y-143824537D01*
X67446737Y-143624659D01*
X67603780Y-143389627D01*
X67711953Y-143128474D01*
X67767100Y-142851235D01*
X67767100Y-142568565D01*
X67711953Y-142291326D01*
X67603780Y-142030173D01*
X67446737Y-141795141D01*
X67246859Y-141595263D01*
X67011827Y-141438220D01*
X66750674Y-141330047D01*
X66473435Y-141274900D01*
X66190765Y-141274900D01*
X65913526Y-141330047D01*
X65652373Y-141438220D01*
X65417341Y-141595263D01*
X65217463Y-141795141D01*
X65060420Y-142030173D01*
X64952247Y-142291326D01*
X64897100Y-142568565D01*
X58464900Y-142568565D01*
X58464900Y-140357069D01*
X58468334Y-140322099D01*
X58461769Y-140255636D01*
X58454627Y-140183116D01*
X58454597Y-140183016D01*
X58454587Y-140182919D01*
X58435303Y-140119415D01*
X58414028Y-140049280D01*
X58413977Y-140049185D01*
X58413950Y-140049095D01*
X58382370Y-139990051D01*
X58348100Y-139925937D01*
X58348035Y-139925858D01*
X58347988Y-139925770D01*
X58304825Y-139873207D01*
X58259375Y-139817825D01*
X58259294Y-139817759D01*
X58259232Y-139817683D01*
X58207504Y-139775256D01*
X58151263Y-139729100D01*
X58151169Y-139729050D01*
X58151095Y-139728989D01*
X58092478Y-139697679D01*
X58027920Y-139663172D01*
X58027819Y-139663141D01*
X58027734Y-139663096D01*
X57963257Y-139643557D01*
X57894084Y-139622573D01*
X57893981Y-139622563D01*
X57893886Y-139622534D01*
X57826798Y-139615946D01*
X57754900Y-139608865D01*
X57719915Y-139612311D01*
X55980400Y-139612800D01*
X55980400Y-138522264D01*
X58253341Y-138522264D01*
X58473307Y-138892301D01*
X58938627Y-139136172D01*
X59442583Y-139284578D01*
X59965808Y-139331815D01*
X60488195Y-139276069D01*
X60989669Y-139119481D01*
X61414693Y-138892301D01*
X61634659Y-138522264D01*
X112863341Y-138522264D01*
X113083307Y-138892301D01*
X113548627Y-139136172D01*
X114052583Y-139284578D01*
X114575808Y-139331815D01*
X115098195Y-139276069D01*
X115599669Y-139119481D01*
X116024693Y-138892301D01*
X116244659Y-138522264D01*
X114554000Y-136831605D01*
X112863341Y-138522264D01*
X61634659Y-138522264D01*
X59944000Y-136831605D01*
X58253341Y-138522264D01*
X55980400Y-138522264D01*
X55980400Y-136673808D01*
X57264185Y-136673808D01*
X57319931Y-137196195D01*
X57476519Y-137697669D01*
X57703699Y-138122693D01*
X58073736Y-138342659D01*
X59764395Y-136652000D01*
X60123605Y-136652000D01*
X61814264Y-138342659D01*
X62184301Y-138122693D01*
X62428172Y-137657373D01*
X62576578Y-137153417D01*
X62619877Y-136673808D01*
X111874185Y-136673808D01*
X111929931Y-137196195D01*
X112086519Y-137697669D01*
X112313699Y-138122693D01*
X112683736Y-138342659D01*
X114374395Y-136652000D01*
X114733605Y-136652000D01*
X116424264Y-138342659D01*
X116794301Y-138122693D01*
X117038172Y-137657373D01*
X117186578Y-137153417D01*
X117233815Y-136630192D01*
X117178069Y-136107805D01*
X117021481Y-135606331D01*
X116794301Y-135181307D01*
X116424264Y-134961341D01*
X114733605Y-136652000D01*
X114374395Y-136652000D01*
X112683736Y-134961341D01*
X112313699Y-135181307D01*
X112069828Y-135646627D01*
X111921422Y-136150583D01*
X111874185Y-136673808D01*
X62619877Y-136673808D01*
X62623815Y-136630192D01*
X62568069Y-136107805D01*
X62411481Y-135606331D01*
X62184301Y-135181307D01*
X61814264Y-134961341D01*
X60123605Y-136652000D01*
X59764395Y-136652000D01*
X58073736Y-134961341D01*
X57703699Y-135181307D01*
X57459828Y-135646627D01*
X57311422Y-136150583D01*
X57264185Y-136673808D01*
X55980400Y-136673808D01*
X55980400Y-134781736D01*
X58253341Y-134781736D01*
X59944000Y-136472395D01*
X61634659Y-134781736D01*
X112863341Y-134781736D01*
X114554000Y-136472395D01*
X116244659Y-134781736D01*
X116024693Y-134411699D01*
X115559373Y-134167828D01*
X115055417Y-134019422D01*
X114532192Y-133972185D01*
X114009805Y-134027931D01*
X113508331Y-134184519D01*
X113083307Y-134411699D01*
X112863341Y-134781736D01*
X61634659Y-134781736D01*
X61414693Y-134411699D01*
X60949373Y-134167828D01*
X60445417Y-134019422D01*
X59922192Y-133972185D01*
X59399805Y-134027931D01*
X58898331Y-134184519D01*
X58473307Y-134411699D01*
X58253341Y-134781736D01*
X55980400Y-134781736D01*
X55980400Y-129909200D01*
X62392928Y-129909200D01*
X62392928Y-131609200D01*
X62405188Y-131733682D01*
X62441498Y-131853380D01*
X62500463Y-131963694D01*
X62579815Y-132060385D01*
X62676506Y-132139737D01*
X62786820Y-132198702D01*
X62906518Y-132235012D01*
X63031000Y-132247272D01*
X64731000Y-132247272D01*
X64855482Y-132235012D01*
X64975180Y-132198702D01*
X65085494Y-132139737D01*
X65182185Y-132060385D01*
X65261537Y-131963694D01*
X65320502Y-131853380D01*
X65342513Y-131780820D01*
X65474368Y-131912675D01*
X65717589Y-132075190D01*
X65987842Y-132187132D01*
X66274740Y-132244200D01*
X66567260Y-132244200D01*
X66854158Y-132187132D01*
X67124411Y-132075190D01*
X67367632Y-131912675D01*
X67574475Y-131705832D01*
X67691000Y-131531440D01*
X67807525Y-131705832D01*
X68014368Y-131912675D01*
X68257589Y-132075190D01*
X68527842Y-132187132D01*
X68814740Y-132244200D01*
X69107260Y-132244200D01*
X69394158Y-132187132D01*
X69664411Y-132075190D01*
X69907632Y-131912675D01*
X70114475Y-131705832D01*
X70231000Y-131531440D01*
X70347525Y-131705832D01*
X70554368Y-131912675D01*
X70797589Y-132075190D01*
X71067842Y-132187132D01*
X71354740Y-132244200D01*
X71647260Y-132244200D01*
X71934158Y-132187132D01*
X72204411Y-132075190D01*
X72447632Y-131912675D01*
X72654475Y-131705832D01*
X72771000Y-131531440D01*
X72887525Y-131705832D01*
X73094368Y-131912675D01*
X73337589Y-132075190D01*
X73607842Y-132187132D01*
X73894740Y-132244200D01*
X74187260Y-132244200D01*
X74474158Y-132187132D01*
X74744411Y-132075190D01*
X74987632Y-131912675D01*
X75194475Y-131705832D01*
X75311000Y-131531440D01*
X75427525Y-131705832D01*
X75634368Y-131912675D01*
X75877589Y-132075190D01*
X76147842Y-132187132D01*
X76434740Y-132244200D01*
X76727260Y-132244200D01*
X77014158Y-132187132D01*
X77284411Y-132075190D01*
X77527632Y-131912675D01*
X77734475Y-131705832D01*
X77851000Y-131531440D01*
X77967525Y-131705832D01*
X78174368Y-131912675D01*
X78417589Y-132075190D01*
X78687842Y-132187132D01*
X78974740Y-132244200D01*
X79267260Y-132244200D01*
X79554158Y-132187132D01*
X79824411Y-132075190D01*
X80067632Y-131912675D01*
X80274475Y-131705832D01*
X80391000Y-131531440D01*
X80507525Y-131705832D01*
X80714368Y-131912675D01*
X80957589Y-132075190D01*
X81227842Y-132187132D01*
X81514740Y-132244200D01*
X81807260Y-132244200D01*
X82094158Y-132187132D01*
X82364411Y-132075190D01*
X82607632Y-131912675D01*
X82814475Y-131705832D01*
X82931000Y-131531440D01*
X83047525Y-131705832D01*
X83254368Y-131912675D01*
X83497589Y-132075190D01*
X83767842Y-132187132D01*
X84054740Y-132244200D01*
X84347260Y-132244200D01*
X84634158Y-132187132D01*
X84904411Y-132075190D01*
X85147632Y-131912675D01*
X85354475Y-131705832D01*
X85471000Y-131531440D01*
X85587525Y-131705832D01*
X85794368Y-131912675D01*
X86037589Y-132075190D01*
X86307842Y-132187132D01*
X86594740Y-132244200D01*
X86887260Y-132244200D01*
X87174158Y-132187132D01*
X87444411Y-132075190D01*
X87687632Y-131912675D01*
X87894475Y-131705832D01*
X88011000Y-131531440D01*
X88127525Y-131705832D01*
X88334368Y-131912675D01*
X88577589Y-132075190D01*
X88847842Y-132187132D01*
X89134740Y-132244200D01*
X89427260Y-132244200D01*
X89714158Y-132187132D01*
X89984411Y-132075190D01*
X90227632Y-131912675D01*
X90434475Y-131705832D01*
X90551000Y-131531440D01*
X90667525Y-131705832D01*
X90874368Y-131912675D01*
X91117589Y-132075190D01*
X91387842Y-132187132D01*
X91674740Y-132244200D01*
X91967260Y-132244200D01*
X92254158Y-132187132D01*
X92524411Y-132075190D01*
X92767632Y-131912675D01*
X92974475Y-131705832D01*
X93091000Y-131531440D01*
X93207525Y-131705832D01*
X93414368Y-131912675D01*
X93657589Y-132075190D01*
X93927842Y-132187132D01*
X94214740Y-132244200D01*
X94507260Y-132244200D01*
X94794158Y-132187132D01*
X95064411Y-132075190D01*
X95307632Y-131912675D01*
X95514475Y-131705832D01*
X95631000Y-131531440D01*
X95747525Y-131705832D01*
X95954368Y-131912675D01*
X96197589Y-132075190D01*
X96467842Y-132187132D01*
X96754740Y-132244200D01*
X97047260Y-132244200D01*
X97334158Y-132187132D01*
X97604411Y-132075190D01*
X97847632Y-131912675D01*
X98054475Y-131705832D01*
X98171000Y-131531440D01*
X98287525Y-131705832D01*
X98494368Y-131912675D01*
X98737589Y-132075190D01*
X99007842Y-132187132D01*
X99294740Y-132244200D01*
X99587260Y-132244200D01*
X99874158Y-132187132D01*
X100144411Y-132075190D01*
X100387632Y-131912675D01*
X100594475Y-131705832D01*
X100711000Y-131531440D01*
X100827525Y-131705832D01*
X101034368Y-131912675D01*
X101277589Y-132075190D01*
X101547842Y-132187132D01*
X101834740Y-132244200D01*
X102127260Y-132244200D01*
X102414158Y-132187132D01*
X102684411Y-132075190D01*
X102927632Y-131912675D01*
X103134475Y-131705832D01*
X103251000Y-131531440D01*
X103367525Y-131705832D01*
X103574368Y-131912675D01*
X103817589Y-132075190D01*
X104087842Y-132187132D01*
X104374740Y-132244200D01*
X104667260Y-132244200D01*
X104954158Y-132187132D01*
X105224411Y-132075190D01*
X105467632Y-131912675D01*
X105674475Y-131705832D01*
X105791000Y-131531440D01*
X105907525Y-131705832D01*
X106114368Y-131912675D01*
X106357589Y-132075190D01*
X106627842Y-132187132D01*
X106914740Y-132244200D01*
X107207260Y-132244200D01*
X107494158Y-132187132D01*
X107764411Y-132075190D01*
X108007632Y-131912675D01*
X108214475Y-131705832D01*
X108331000Y-131531440D01*
X108447525Y-131705832D01*
X108654368Y-131912675D01*
X108897589Y-132075190D01*
X109167842Y-132187132D01*
X109454740Y-132244200D01*
X109747260Y-132244200D01*
X110034158Y-132187132D01*
X110304411Y-132075190D01*
X110547632Y-131912675D01*
X110754475Y-131705832D01*
X110876195Y-131523666D01*
X110945822Y-131640555D01*
X111140731Y-131856788D01*
X111374080Y-132030841D01*
X111636901Y-132156025D01*
X111784110Y-132200676D01*
X112014000Y-132079355D01*
X112014000Y-130886200D01*
X112268000Y-130886200D01*
X112268000Y-132079355D01*
X112497890Y-132200676D01*
X112645099Y-132156025D01*
X112907920Y-132030841D01*
X113141269Y-131856788D01*
X113336178Y-131640555D01*
X113485157Y-131390452D01*
X113582481Y-131116091D01*
X113461814Y-130886200D01*
X112268000Y-130886200D01*
X112014000Y-130886200D01*
X111994000Y-130886200D01*
X111994000Y-130632200D01*
X112014000Y-130632200D01*
X112014000Y-129439045D01*
X112268000Y-129439045D01*
X112268000Y-130632200D01*
X113461814Y-130632200D01*
X113582481Y-130402309D01*
X113485157Y-130127948D01*
X113336178Y-129877845D01*
X113141269Y-129661612D01*
X112907920Y-129487559D01*
X112645099Y-129362375D01*
X112497890Y-129317724D01*
X112268000Y-129439045D01*
X112014000Y-129439045D01*
X111784110Y-129317724D01*
X111636901Y-129362375D01*
X111374080Y-129487559D01*
X111140731Y-129661612D01*
X110945822Y-129877845D01*
X110876195Y-129994734D01*
X110754475Y-129812568D01*
X110547632Y-129605725D01*
X110304411Y-129443210D01*
X110034158Y-129331268D01*
X109747260Y-129274200D01*
X109454740Y-129274200D01*
X109167842Y-129331268D01*
X108897589Y-129443210D01*
X108654368Y-129605725D01*
X108447525Y-129812568D01*
X108331000Y-129986960D01*
X108214475Y-129812568D01*
X108007632Y-129605725D01*
X107764411Y-129443210D01*
X107494158Y-129331268D01*
X107207260Y-129274200D01*
X106914740Y-129274200D01*
X106627842Y-129331268D01*
X106357589Y-129443210D01*
X106114368Y-129605725D01*
X105907525Y-129812568D01*
X105791000Y-129986960D01*
X105674475Y-129812568D01*
X105467632Y-129605725D01*
X105224411Y-129443210D01*
X104954158Y-129331268D01*
X104667260Y-129274200D01*
X104374740Y-129274200D01*
X104087842Y-129331268D01*
X103817589Y-129443210D01*
X103574368Y-129605725D01*
X103367525Y-129812568D01*
X103251000Y-129986960D01*
X103134475Y-129812568D01*
X102927632Y-129605725D01*
X102684411Y-129443210D01*
X102414158Y-129331268D01*
X102127260Y-129274200D01*
X101834740Y-129274200D01*
X101547842Y-129331268D01*
X101277589Y-129443210D01*
X101034368Y-129605725D01*
X100827525Y-129812568D01*
X100711000Y-129986960D01*
X100594475Y-129812568D01*
X100387632Y-129605725D01*
X100144411Y-129443210D01*
X99874158Y-129331268D01*
X99587260Y-129274200D01*
X99294740Y-129274200D01*
X99007842Y-129331268D01*
X98737589Y-129443210D01*
X98494368Y-129605725D01*
X98287525Y-129812568D01*
X98171000Y-129986960D01*
X98054475Y-129812568D01*
X97847632Y-129605725D01*
X97604411Y-129443210D01*
X97334158Y-129331268D01*
X97047260Y-129274200D01*
X96754740Y-129274200D01*
X96467842Y-129331268D01*
X96197589Y-129443210D01*
X95954368Y-129605725D01*
X95747525Y-129812568D01*
X95631000Y-129986960D01*
X95514475Y-129812568D01*
X95307632Y-129605725D01*
X95064411Y-129443210D01*
X94794158Y-129331268D01*
X94507260Y-129274200D01*
X94214740Y-129274200D01*
X93927842Y-129331268D01*
X93657589Y-129443210D01*
X93414368Y-129605725D01*
X93207525Y-129812568D01*
X93091000Y-129986960D01*
X92974475Y-129812568D01*
X92767632Y-129605725D01*
X92524411Y-129443210D01*
X92254158Y-129331268D01*
X91967260Y-129274200D01*
X91674740Y-129274200D01*
X91387842Y-129331268D01*
X91117589Y-129443210D01*
X90874368Y-129605725D01*
X90667525Y-129812568D01*
X90551000Y-129986960D01*
X90434475Y-129812568D01*
X90227632Y-129605725D01*
X89984411Y-129443210D01*
X89714158Y-129331268D01*
X89427260Y-129274200D01*
X89134740Y-129274200D01*
X88847842Y-129331268D01*
X88577589Y-129443210D01*
X88334368Y-129605725D01*
X88127525Y-129812568D01*
X88011000Y-129986960D01*
X87894475Y-129812568D01*
X87687632Y-129605725D01*
X87444411Y-129443210D01*
X87174158Y-129331268D01*
X86887260Y-129274200D01*
X86594740Y-129274200D01*
X86307842Y-129331268D01*
X86037589Y-129443210D01*
X85794368Y-129605725D01*
X85587525Y-129812568D01*
X85471000Y-129986960D01*
X85354475Y-129812568D01*
X85147632Y-129605725D01*
X84904411Y-129443210D01*
X84634158Y-129331268D01*
X84347260Y-129274200D01*
X84054740Y-129274200D01*
X83767842Y-129331268D01*
X83497589Y-129443210D01*
X83254368Y-129605725D01*
X83047525Y-129812568D01*
X82931000Y-129986960D01*
X82814475Y-129812568D01*
X82607632Y-129605725D01*
X82364411Y-129443210D01*
X82094158Y-129331268D01*
X81807260Y-129274200D01*
X81514740Y-129274200D01*
X81227842Y-129331268D01*
X80957589Y-129443210D01*
X80714368Y-129605725D01*
X80507525Y-129812568D01*
X80391000Y-129986960D01*
X80274475Y-129812568D01*
X80067632Y-129605725D01*
X79824411Y-129443210D01*
X79554158Y-129331268D01*
X79267260Y-129274200D01*
X78974740Y-129274200D01*
X78687842Y-129331268D01*
X78417589Y-129443210D01*
X78174368Y-129605725D01*
X77967525Y-129812568D01*
X77851000Y-129986960D01*
X77734475Y-129812568D01*
X77527632Y-129605725D01*
X77284411Y-129443210D01*
X77014158Y-129331268D01*
X76727260Y-129274200D01*
X76434740Y-129274200D01*
X76147842Y-129331268D01*
X75877589Y-129443210D01*
X75634368Y-129605725D01*
X75427525Y-129812568D01*
X75311000Y-129986960D01*
X75194475Y-129812568D01*
X74987632Y-129605725D01*
X74744411Y-129443210D01*
X74474158Y-129331268D01*
X74187260Y-129274200D01*
X73894740Y-129274200D01*
X73607842Y-129331268D01*
X73337589Y-129443210D01*
X73094368Y-129605725D01*
X72887525Y-129812568D01*
X72771000Y-129986960D01*
X72654475Y-129812568D01*
X72447632Y-129605725D01*
X72204411Y-129443210D01*
X71934158Y-129331268D01*
X71647260Y-129274200D01*
X71354740Y-129274200D01*
X71067842Y-129331268D01*
X70797589Y-129443210D01*
X70554368Y-129605725D01*
X70347525Y-129812568D01*
X70231000Y-129986960D01*
X70114475Y-129812568D01*
X69907632Y-129605725D01*
X69664411Y-129443210D01*
X69394158Y-129331268D01*
X69107260Y-129274200D01*
X68814740Y-129274200D01*
X68527842Y-129331268D01*
X68257589Y-129443210D01*
X68014368Y-129605725D01*
X67807525Y-129812568D01*
X67691000Y-129986960D01*
X67574475Y-129812568D01*
X67367632Y-129605725D01*
X67124411Y-129443210D01*
X66854158Y-129331268D01*
X66567260Y-129274200D01*
X66274740Y-129274200D01*
X65987842Y-129331268D01*
X65717589Y-129443210D01*
X65474368Y-129605725D01*
X65342513Y-129737580D01*
X65320502Y-129665020D01*
X65261537Y-129554706D01*
X65182185Y-129458015D01*
X65085494Y-129378663D01*
X64975180Y-129319698D01*
X64855482Y-129283388D01*
X64731000Y-129271128D01*
X63031000Y-129271128D01*
X62906518Y-129283388D01*
X62786820Y-129319698D01*
X62676506Y-129378663D01*
X62579815Y-129458015D01*
X62500463Y-129554706D01*
X62441498Y-129665020D01*
X62405188Y-129784718D01*
X62392928Y-129909200D01*
X55980400Y-129909200D01*
X55980400Y-125944265D01*
X81889700Y-125944265D01*
X81889700Y-126226935D01*
X81944847Y-126504174D01*
X82053020Y-126765327D01*
X82210063Y-127000359D01*
X82409941Y-127200237D01*
X82644973Y-127357280D01*
X82906126Y-127465453D01*
X83183365Y-127520600D01*
X83466035Y-127520600D01*
X83743274Y-127465453D01*
X84004427Y-127357280D01*
X84239459Y-127200237D01*
X84439337Y-127000359D01*
X84596380Y-126765327D01*
X84704553Y-126504174D01*
X84759700Y-126226935D01*
X84759700Y-125944265D01*
X84704553Y-125667026D01*
X84596380Y-125405873D01*
X84439337Y-125170841D01*
X84239459Y-124970963D01*
X84004427Y-124813920D01*
X83743274Y-124705747D01*
X83466035Y-124650600D01*
X83183365Y-124650600D01*
X82906126Y-124705747D01*
X82644973Y-124813920D01*
X82409941Y-124970963D01*
X82210063Y-125170841D01*
X82053020Y-125405873D01*
X81944847Y-125667026D01*
X81889700Y-125944265D01*
X55980400Y-125944265D01*
X55980400Y-120333400D01*
X56309628Y-120333400D01*
X56309628Y-122033400D01*
X56321888Y-122157882D01*
X56358198Y-122277580D01*
X56417163Y-122387894D01*
X56496515Y-122484585D01*
X56593206Y-122563937D01*
X56703520Y-122622902D01*
X56823218Y-122659212D01*
X56947700Y-122671472D01*
X58647700Y-122671472D01*
X58772182Y-122659212D01*
X58891880Y-122622902D01*
X59002194Y-122563937D01*
X59098885Y-122484585D01*
X59178237Y-122387894D01*
X59237202Y-122277580D01*
X59273512Y-122157882D01*
X59285772Y-122033400D01*
X59285772Y-120333400D01*
X59273512Y-120208918D01*
X59237202Y-120089220D01*
X59178237Y-119978906D01*
X59098885Y-119882215D01*
X59002194Y-119802863D01*
X58891880Y-119743898D01*
X58819320Y-119721887D01*
X58951175Y-119590032D01*
X59113690Y-119346811D01*
X59225632Y-119076558D01*
X59282700Y-118789660D01*
X59282700Y-118497140D01*
X59225632Y-118210242D01*
X59113690Y-117939989D01*
X58951175Y-117696768D01*
X58744332Y-117489925D01*
X58501111Y-117327410D01*
X58230858Y-117215468D01*
X57943960Y-117158400D01*
X57651440Y-117158400D01*
X57364542Y-117215468D01*
X57094289Y-117327410D01*
X56851068Y-117489925D01*
X56644225Y-117696768D01*
X56481710Y-117939989D01*
X56369768Y-118210242D01*
X56312700Y-118497140D01*
X56312700Y-118789660D01*
X56369768Y-119076558D01*
X56481710Y-119346811D01*
X56644225Y-119590032D01*
X56776080Y-119721887D01*
X56703520Y-119743898D01*
X56593206Y-119802863D01*
X56496515Y-119882215D01*
X56417163Y-119978906D01*
X56358198Y-120089220D01*
X56321888Y-120208918D01*
X56309628Y-120333400D01*
X55980400Y-120333400D01*
X55980400Y-117133000D01*
X104175928Y-117133000D01*
X104175928Y-118833000D01*
X104188188Y-118957482D01*
X104224498Y-119077180D01*
X104283463Y-119187494D01*
X104362815Y-119284185D01*
X104459506Y-119363537D01*
X104569820Y-119422502D01*
X104642380Y-119444513D01*
X104510525Y-119576368D01*
X104348010Y-119819589D01*
X104236068Y-120089842D01*
X104179000Y-120376740D01*
X104179000Y-120669260D01*
X104236068Y-120956158D01*
X104348010Y-121226411D01*
X104510525Y-121469632D01*
X104717368Y-121676475D01*
X104891760Y-121793000D01*
X104717368Y-121909525D01*
X104510525Y-122116368D01*
X104348010Y-122359589D01*
X104236068Y-122629842D01*
X104179000Y-122916740D01*
X104179000Y-123209260D01*
X104236068Y-123496158D01*
X104348010Y-123766411D01*
X104510525Y-124009632D01*
X104717368Y-124216475D01*
X104960589Y-124378990D01*
X105230842Y-124490932D01*
X105517740Y-124548000D01*
X105810260Y-124548000D01*
X106097158Y-124490932D01*
X106367411Y-124378990D01*
X106610632Y-124216475D01*
X106817475Y-124009632D01*
X106979990Y-123766411D01*
X107091932Y-123496158D01*
X107149000Y-123209260D01*
X107149000Y-122916740D01*
X107091932Y-122629842D01*
X106979990Y-122359589D01*
X106817475Y-122116368D01*
X106610632Y-121909525D01*
X106436240Y-121793000D01*
X106610632Y-121676475D01*
X106817475Y-121469632D01*
X106979990Y-121226411D01*
X107091932Y-120956158D01*
X107149000Y-120669260D01*
X107149000Y-120376740D01*
X107091932Y-120089842D01*
X106979990Y-119819589D01*
X106817475Y-119576368D01*
X106685620Y-119444513D01*
X106758180Y-119422502D01*
X106868494Y-119363537D01*
X106965185Y-119284185D01*
X107044537Y-119187494D01*
X107103502Y-119077180D01*
X107139812Y-118957482D01*
X107152072Y-118833000D01*
X107152072Y-117133000D01*
X107139812Y-117008518D01*
X107103502Y-116888820D01*
X107044537Y-116778506D01*
X106965185Y-116681815D01*
X106868494Y-116602463D01*
X106758180Y-116543498D01*
X106638482Y-116507188D01*
X106514000Y-116494928D01*
X104814000Y-116494928D01*
X104689518Y-116507188D01*
X104569820Y-116543498D01*
X104459506Y-116602463D01*
X104362815Y-116681815D01*
X104283463Y-116778506D01*
X104224498Y-116888820D01*
X104188188Y-117008518D01*
X104175928Y-117133000D01*
X55980400Y-117133000D01*
X55980400Y-114857165D01*
X67259300Y-114857165D01*
X67259300Y-115139835D01*
X67314447Y-115417074D01*
X67422620Y-115678227D01*
X67579663Y-115913259D01*
X67779541Y-116113137D01*
X68014573Y-116270180D01*
X68275726Y-116378353D01*
X68552965Y-116433500D01*
X68835635Y-116433500D01*
X69112874Y-116378353D01*
X69374027Y-116270180D01*
X69609059Y-116113137D01*
X69808937Y-115913259D01*
X69965980Y-115678227D01*
X70074153Y-115417074D01*
X70129300Y-115139835D01*
X70129300Y-114857165D01*
X70098986Y-114704765D01*
X70129500Y-114704765D01*
X70129500Y-114987435D01*
X70184647Y-115264674D01*
X70292820Y-115525827D01*
X70449863Y-115760859D01*
X70649741Y-115960737D01*
X70884773Y-116117780D01*
X71145926Y-116225953D01*
X71423165Y-116281100D01*
X71705835Y-116281100D01*
X71983074Y-116225953D01*
X72244227Y-116117780D01*
X72479259Y-115960737D01*
X72679137Y-115760859D01*
X72836180Y-115525827D01*
X72939551Y-115276265D01*
X79044900Y-115276265D01*
X79044900Y-115558935D01*
X79100047Y-115836174D01*
X79208220Y-116097327D01*
X79365263Y-116332359D01*
X79565141Y-116532237D01*
X79800173Y-116689280D01*
X80061326Y-116797453D01*
X80338565Y-116852600D01*
X80621235Y-116852600D01*
X80898474Y-116797453D01*
X81159627Y-116689280D01*
X81394659Y-116532237D01*
X81594537Y-116332359D01*
X81751580Y-116097327D01*
X81859753Y-115836174D01*
X81914900Y-115558935D01*
X81914900Y-115276265D01*
X81859753Y-114999026D01*
X81751580Y-114737873D01*
X81594537Y-114502841D01*
X81394659Y-114302963D01*
X81159627Y-114145920D01*
X80898474Y-114037747D01*
X80621235Y-113982600D01*
X80338565Y-113982600D01*
X80061326Y-114037747D01*
X79800173Y-114145920D01*
X79565141Y-114302963D01*
X79365263Y-114502841D01*
X79208220Y-114737873D01*
X79100047Y-114999026D01*
X79044900Y-115276265D01*
X72939551Y-115276265D01*
X72944353Y-115264674D01*
X72999500Y-114987435D01*
X72999500Y-114704765D01*
X72944353Y-114427526D01*
X72836180Y-114166373D01*
X72679137Y-113931341D01*
X72479259Y-113731463D01*
X72244227Y-113574420D01*
X71983074Y-113466247D01*
X71705835Y-113411100D01*
X71423165Y-113411100D01*
X71145926Y-113466247D01*
X70884773Y-113574420D01*
X70649741Y-113731463D01*
X70449863Y-113931341D01*
X70292820Y-114166373D01*
X70184647Y-114427526D01*
X70129500Y-114704765D01*
X70098986Y-114704765D01*
X70074153Y-114579926D01*
X69965980Y-114318773D01*
X69808937Y-114083741D01*
X69609059Y-113883863D01*
X69374027Y-113726820D01*
X69112874Y-113618647D01*
X68835635Y-113563500D01*
X68552965Y-113563500D01*
X68275726Y-113618647D01*
X68014573Y-113726820D01*
X67779541Y-113883863D01*
X67579663Y-114083741D01*
X67422620Y-114318773D01*
X67314447Y-114579926D01*
X67259300Y-114857165D01*
X55980400Y-114857165D01*
X55980400Y-109589200D01*
X62392928Y-109589200D01*
X62392928Y-111289200D01*
X62405188Y-111413682D01*
X62441498Y-111533380D01*
X62500463Y-111643694D01*
X62579815Y-111740385D01*
X62676506Y-111819737D01*
X62786820Y-111878702D01*
X62906518Y-111915012D01*
X63031000Y-111927272D01*
X64731000Y-111927272D01*
X64855482Y-111915012D01*
X64975180Y-111878702D01*
X65085494Y-111819737D01*
X65182185Y-111740385D01*
X65261537Y-111643694D01*
X65320502Y-111533380D01*
X65344966Y-111452734D01*
X65420731Y-111536788D01*
X65654080Y-111710841D01*
X65916901Y-111836025D01*
X66064110Y-111880676D01*
X66294000Y-111759355D01*
X66294000Y-110566200D01*
X66274000Y-110566200D01*
X66274000Y-110312200D01*
X66294000Y-110312200D01*
X66294000Y-109119045D01*
X66548000Y-109119045D01*
X66548000Y-110312200D01*
X66568000Y-110312200D01*
X66568000Y-110566200D01*
X66548000Y-110566200D01*
X66548000Y-111759355D01*
X66777890Y-111880676D01*
X66925099Y-111836025D01*
X67187920Y-111710841D01*
X67421269Y-111536788D01*
X67616178Y-111320555D01*
X67685805Y-111203666D01*
X67807525Y-111385832D01*
X68014368Y-111592675D01*
X68257589Y-111755190D01*
X68527842Y-111867132D01*
X68814740Y-111924200D01*
X69107260Y-111924200D01*
X69394158Y-111867132D01*
X69664411Y-111755190D01*
X69907632Y-111592675D01*
X70114475Y-111385832D01*
X70231000Y-111211440D01*
X70347525Y-111385832D01*
X70554368Y-111592675D01*
X70797589Y-111755190D01*
X71067842Y-111867132D01*
X71354740Y-111924200D01*
X71647260Y-111924200D01*
X71934158Y-111867132D01*
X72204411Y-111755190D01*
X72447632Y-111592675D01*
X72654475Y-111385832D01*
X72771000Y-111211440D01*
X72887525Y-111385832D01*
X73094368Y-111592675D01*
X73337589Y-111755190D01*
X73607842Y-111867132D01*
X73894740Y-111924200D01*
X74187260Y-111924200D01*
X74474158Y-111867132D01*
X74744411Y-111755190D01*
X74987632Y-111592675D01*
X75194475Y-111385832D01*
X75311000Y-111211440D01*
X75427525Y-111385832D01*
X75634368Y-111592675D01*
X75877589Y-111755190D01*
X76147842Y-111867132D01*
X76434740Y-111924200D01*
X76727260Y-111924200D01*
X77014158Y-111867132D01*
X77284411Y-111755190D01*
X77527632Y-111592675D01*
X77734475Y-111385832D01*
X77851000Y-111211440D01*
X77967525Y-111385832D01*
X78174368Y-111592675D01*
X78417589Y-111755190D01*
X78687842Y-111867132D01*
X78974740Y-111924200D01*
X79267260Y-111924200D01*
X79554158Y-111867132D01*
X79824411Y-111755190D01*
X80067632Y-111592675D01*
X80274475Y-111385832D01*
X80391000Y-111211440D01*
X80507525Y-111385832D01*
X80714368Y-111592675D01*
X80957589Y-111755190D01*
X81227842Y-111867132D01*
X81514740Y-111924200D01*
X81807260Y-111924200D01*
X82094158Y-111867132D01*
X82364411Y-111755190D01*
X82607632Y-111592675D01*
X82814475Y-111385832D01*
X82931000Y-111211440D01*
X83047525Y-111385832D01*
X83254368Y-111592675D01*
X83497589Y-111755190D01*
X83767842Y-111867132D01*
X84054740Y-111924200D01*
X84347260Y-111924200D01*
X84634158Y-111867132D01*
X84904411Y-111755190D01*
X85147632Y-111592675D01*
X85354475Y-111385832D01*
X85471000Y-111211440D01*
X85587525Y-111385832D01*
X85794368Y-111592675D01*
X86037589Y-111755190D01*
X86307842Y-111867132D01*
X86594740Y-111924200D01*
X86887260Y-111924200D01*
X87174158Y-111867132D01*
X87444411Y-111755190D01*
X87687632Y-111592675D01*
X87894475Y-111385832D01*
X88011000Y-111211440D01*
X88127525Y-111385832D01*
X88334368Y-111592675D01*
X88577589Y-111755190D01*
X88847842Y-111867132D01*
X89134740Y-111924200D01*
X89427260Y-111924200D01*
X89714158Y-111867132D01*
X89984411Y-111755190D01*
X90227632Y-111592675D01*
X90434475Y-111385832D01*
X90551000Y-111211440D01*
X90667525Y-111385832D01*
X90874368Y-111592675D01*
X91117589Y-111755190D01*
X91387842Y-111867132D01*
X91674740Y-111924200D01*
X91967260Y-111924200D01*
X92254158Y-111867132D01*
X92524411Y-111755190D01*
X92767632Y-111592675D01*
X92974475Y-111385832D01*
X93091000Y-111211440D01*
X93207525Y-111385832D01*
X93414368Y-111592675D01*
X93657589Y-111755190D01*
X93927842Y-111867132D01*
X94214740Y-111924200D01*
X94507260Y-111924200D01*
X94794158Y-111867132D01*
X95064411Y-111755190D01*
X95307632Y-111592675D01*
X95514475Y-111385832D01*
X95631000Y-111211440D01*
X95747525Y-111385832D01*
X95954368Y-111592675D01*
X96197589Y-111755190D01*
X96467842Y-111867132D01*
X96754740Y-111924200D01*
X97047260Y-111924200D01*
X97334158Y-111867132D01*
X97604411Y-111755190D01*
X97847632Y-111592675D01*
X98054475Y-111385832D01*
X98176195Y-111203666D01*
X98245822Y-111320555D01*
X98440731Y-111536788D01*
X98674080Y-111710841D01*
X98936901Y-111836025D01*
X99084110Y-111880676D01*
X99314000Y-111759355D01*
X99314000Y-110566200D01*
X99294000Y-110566200D01*
X99294000Y-110312200D01*
X99314000Y-110312200D01*
X99314000Y-109119045D01*
X99568000Y-109119045D01*
X99568000Y-110312200D01*
X99588000Y-110312200D01*
X99588000Y-110566200D01*
X99568000Y-110566200D01*
X99568000Y-111759355D01*
X99797890Y-111880676D01*
X99945099Y-111836025D01*
X100207920Y-111710841D01*
X100441269Y-111536788D01*
X100636178Y-111320555D01*
X100705805Y-111203666D01*
X100827525Y-111385832D01*
X101034368Y-111592675D01*
X101277589Y-111755190D01*
X101547842Y-111867132D01*
X101834740Y-111924200D01*
X102127260Y-111924200D01*
X102414158Y-111867132D01*
X102684411Y-111755190D01*
X102927632Y-111592675D01*
X103134475Y-111385832D01*
X103251000Y-111211440D01*
X103367525Y-111385832D01*
X103574368Y-111592675D01*
X103817589Y-111755190D01*
X104087842Y-111867132D01*
X104374740Y-111924200D01*
X104667260Y-111924200D01*
X104954158Y-111867132D01*
X105224411Y-111755190D01*
X105467632Y-111592675D01*
X105674475Y-111385832D01*
X105791000Y-111211440D01*
X105907525Y-111385832D01*
X106114368Y-111592675D01*
X106357589Y-111755190D01*
X106627842Y-111867132D01*
X106914740Y-111924200D01*
X107207260Y-111924200D01*
X107494158Y-111867132D01*
X107764411Y-111755190D01*
X108007632Y-111592675D01*
X108214475Y-111385832D01*
X108331000Y-111211440D01*
X108447525Y-111385832D01*
X108654368Y-111592675D01*
X108897589Y-111755190D01*
X109167842Y-111867132D01*
X109454740Y-111924200D01*
X109747260Y-111924200D01*
X110034158Y-111867132D01*
X110304411Y-111755190D01*
X110547632Y-111592675D01*
X110754475Y-111385832D01*
X110871000Y-111211440D01*
X110987525Y-111385832D01*
X111194368Y-111592675D01*
X111437589Y-111755190D01*
X111707842Y-111867132D01*
X111994740Y-111924200D01*
X112287260Y-111924200D01*
X112574158Y-111867132D01*
X112844411Y-111755190D01*
X113087632Y-111592675D01*
X113294475Y-111385832D01*
X113456990Y-111142611D01*
X113568932Y-110872358D01*
X113626000Y-110585460D01*
X113626000Y-110292940D01*
X113568932Y-110006042D01*
X113456990Y-109735789D01*
X113294475Y-109492568D01*
X113087632Y-109285725D01*
X112844411Y-109123210D01*
X112574158Y-109011268D01*
X112287260Y-108954200D01*
X111994740Y-108954200D01*
X111707842Y-109011268D01*
X111437589Y-109123210D01*
X111194368Y-109285725D01*
X110987525Y-109492568D01*
X110871000Y-109666960D01*
X110754475Y-109492568D01*
X110547632Y-109285725D01*
X110304411Y-109123210D01*
X110034158Y-109011268D01*
X109747260Y-108954200D01*
X109454740Y-108954200D01*
X109167842Y-109011268D01*
X108897589Y-109123210D01*
X108654368Y-109285725D01*
X108447525Y-109492568D01*
X108331000Y-109666960D01*
X108214475Y-109492568D01*
X108007632Y-109285725D01*
X107764411Y-109123210D01*
X107494158Y-109011268D01*
X107207260Y-108954200D01*
X106914740Y-108954200D01*
X106627842Y-109011268D01*
X106357589Y-109123210D01*
X106114368Y-109285725D01*
X105907525Y-109492568D01*
X105791000Y-109666960D01*
X105674475Y-109492568D01*
X105467632Y-109285725D01*
X105224411Y-109123210D01*
X104954158Y-109011268D01*
X104667260Y-108954200D01*
X104374740Y-108954200D01*
X104087842Y-109011268D01*
X103817589Y-109123210D01*
X103574368Y-109285725D01*
X103367525Y-109492568D01*
X103251000Y-109666960D01*
X103134475Y-109492568D01*
X102927632Y-109285725D01*
X102684411Y-109123210D01*
X102414158Y-109011268D01*
X102127260Y-108954200D01*
X101834740Y-108954200D01*
X101547842Y-109011268D01*
X101277589Y-109123210D01*
X101034368Y-109285725D01*
X100827525Y-109492568D01*
X100705805Y-109674734D01*
X100636178Y-109557845D01*
X100441269Y-109341612D01*
X100207920Y-109167559D01*
X99945099Y-109042375D01*
X99797890Y-108997724D01*
X99568000Y-109119045D01*
X99314000Y-109119045D01*
X99084110Y-108997724D01*
X98936901Y-109042375D01*
X98674080Y-109167559D01*
X98440731Y-109341612D01*
X98245822Y-109557845D01*
X98176195Y-109674734D01*
X98054475Y-109492568D01*
X97847632Y-109285725D01*
X97604411Y-109123210D01*
X97334158Y-109011268D01*
X97047260Y-108954200D01*
X96754740Y-108954200D01*
X96467842Y-109011268D01*
X96197589Y-109123210D01*
X95954368Y-109285725D01*
X95747525Y-109492568D01*
X95631000Y-109666960D01*
X95514475Y-109492568D01*
X95307632Y-109285725D01*
X95064411Y-109123210D01*
X94794158Y-109011268D01*
X94507260Y-108954200D01*
X94214740Y-108954200D01*
X93927842Y-109011268D01*
X93657589Y-109123210D01*
X93414368Y-109285725D01*
X93207525Y-109492568D01*
X93091000Y-109666960D01*
X92974475Y-109492568D01*
X92767632Y-109285725D01*
X92524411Y-109123210D01*
X92254158Y-109011268D01*
X91967260Y-108954200D01*
X91674740Y-108954200D01*
X91387842Y-109011268D01*
X91117589Y-109123210D01*
X90874368Y-109285725D01*
X90667525Y-109492568D01*
X90551000Y-109666960D01*
X90434475Y-109492568D01*
X90227632Y-109285725D01*
X89984411Y-109123210D01*
X89714158Y-109011268D01*
X89427260Y-108954200D01*
X89134740Y-108954200D01*
X88847842Y-109011268D01*
X88577589Y-109123210D01*
X88334368Y-109285725D01*
X88127525Y-109492568D01*
X88011000Y-109666960D01*
X87894475Y-109492568D01*
X87687632Y-109285725D01*
X87444411Y-109123210D01*
X87174158Y-109011268D01*
X86887260Y-108954200D01*
X86594740Y-108954200D01*
X86307842Y-109011268D01*
X86037589Y-109123210D01*
X85794368Y-109285725D01*
X85587525Y-109492568D01*
X85471000Y-109666960D01*
X85354475Y-109492568D01*
X85147632Y-109285725D01*
X84904411Y-109123210D01*
X84634158Y-109011268D01*
X84347260Y-108954200D01*
X84054740Y-108954200D01*
X83767842Y-109011268D01*
X83497589Y-109123210D01*
X83254368Y-109285725D01*
X83047525Y-109492568D01*
X82931000Y-109666960D01*
X82814475Y-109492568D01*
X82607632Y-109285725D01*
X82364411Y-109123210D01*
X82094158Y-109011268D01*
X81807260Y-108954200D01*
X81514740Y-108954200D01*
X81227842Y-109011268D01*
X80957589Y-109123210D01*
X80714368Y-109285725D01*
X80507525Y-109492568D01*
X80391000Y-109666960D01*
X80274475Y-109492568D01*
X80067632Y-109285725D01*
X79824411Y-109123210D01*
X79554158Y-109011268D01*
X79267260Y-108954200D01*
X78974740Y-108954200D01*
X78687842Y-109011268D01*
X78417589Y-109123210D01*
X78174368Y-109285725D01*
X77967525Y-109492568D01*
X77851000Y-109666960D01*
X77734475Y-109492568D01*
X77527632Y-109285725D01*
X77284411Y-109123210D01*
X77014158Y-109011268D01*
X76727260Y-108954200D01*
X76434740Y-108954200D01*
X76147842Y-109011268D01*
X75877589Y-109123210D01*
X75634368Y-109285725D01*
X75427525Y-109492568D01*
X75311000Y-109666960D01*
X75194475Y-109492568D01*
X74987632Y-109285725D01*
X74744411Y-109123210D01*
X74474158Y-109011268D01*
X74187260Y-108954200D01*
X73894740Y-108954200D01*
X73607842Y-109011268D01*
X73337589Y-109123210D01*
X73094368Y-109285725D01*
X72887525Y-109492568D01*
X72771000Y-109666960D01*
X72654475Y-109492568D01*
X72447632Y-109285725D01*
X72204411Y-109123210D01*
X71934158Y-109011268D01*
X71647260Y-108954200D01*
X71354740Y-108954200D01*
X71067842Y-109011268D01*
X70797589Y-109123210D01*
X70554368Y-109285725D01*
X70347525Y-109492568D01*
X70231000Y-109666960D01*
X70114475Y-109492568D01*
X69907632Y-109285725D01*
X69664411Y-109123210D01*
X69394158Y-109011268D01*
X69107260Y-108954200D01*
X68814740Y-108954200D01*
X68527842Y-109011268D01*
X68257589Y-109123210D01*
X68014368Y-109285725D01*
X67807525Y-109492568D01*
X67685805Y-109674734D01*
X67616178Y-109557845D01*
X67421269Y-109341612D01*
X67187920Y-109167559D01*
X66925099Y-109042375D01*
X66777890Y-108997724D01*
X66548000Y-109119045D01*
X66294000Y-109119045D01*
X66064110Y-108997724D01*
X65916901Y-109042375D01*
X65654080Y-109167559D01*
X65420731Y-109341612D01*
X65344966Y-109425666D01*
X65320502Y-109345020D01*
X65261537Y-109234706D01*
X65182185Y-109138015D01*
X65085494Y-109058663D01*
X64975180Y-108999698D01*
X64855482Y-108963388D01*
X64731000Y-108951128D01*
X63031000Y-108951128D01*
X62906518Y-108963388D01*
X62786820Y-108999698D01*
X62676506Y-109058663D01*
X62579815Y-109138015D01*
X62500463Y-109234706D01*
X62441498Y-109345020D01*
X62405188Y-109464718D01*
X62392928Y-109589200D01*
X55980400Y-109589200D01*
X55980400Y-107788264D01*
X58253341Y-107788264D01*
X58473307Y-108158301D01*
X58938627Y-108402172D01*
X59442583Y-108550578D01*
X59965808Y-108597815D01*
X60488195Y-108542069D01*
X60989669Y-108385481D01*
X61414693Y-108158301D01*
X61634659Y-107788264D01*
X112863341Y-107788264D01*
X113083307Y-108158301D01*
X113548627Y-108402172D01*
X114052583Y-108550578D01*
X114575808Y-108597815D01*
X115098195Y-108542069D01*
X115599669Y-108385481D01*
X116024693Y-108158301D01*
X116244659Y-107788264D01*
X114554000Y-106097605D01*
X112863341Y-107788264D01*
X61634659Y-107788264D01*
X59944000Y-106097605D01*
X58253341Y-107788264D01*
X55980400Y-107788264D01*
X55980400Y-105939808D01*
X57264185Y-105939808D01*
X57319931Y-106462195D01*
X57476519Y-106963669D01*
X57703699Y-107388693D01*
X58073736Y-107608659D01*
X59764395Y-105918000D01*
X60123605Y-105918000D01*
X61814264Y-107608659D01*
X62184301Y-107388693D01*
X62428172Y-106923373D01*
X62576578Y-106419417D01*
X62619877Y-105939808D01*
X111874185Y-105939808D01*
X111929931Y-106462195D01*
X112086519Y-106963669D01*
X112313699Y-107388693D01*
X112683736Y-107608659D01*
X114374395Y-105918000D01*
X114733605Y-105918000D01*
X116424264Y-107608659D01*
X116794301Y-107388693D01*
X117038172Y-106923373D01*
X117186578Y-106419417D01*
X117233815Y-105896192D01*
X117178069Y-105373805D01*
X117021481Y-104872331D01*
X116794301Y-104447307D01*
X116424264Y-104227341D01*
X114733605Y-105918000D01*
X114374395Y-105918000D01*
X112683736Y-104227341D01*
X112313699Y-104447307D01*
X112069828Y-104912627D01*
X111921422Y-105416583D01*
X111874185Y-105939808D01*
X62619877Y-105939808D01*
X62623815Y-105896192D01*
X62568069Y-105373805D01*
X62411481Y-104872331D01*
X62184301Y-104447307D01*
X61814264Y-104227341D01*
X60123605Y-105918000D01*
X59764395Y-105918000D01*
X58073736Y-104227341D01*
X57703699Y-104447307D01*
X57459828Y-104912627D01*
X57311422Y-105416583D01*
X57264185Y-105939808D01*
X55980400Y-105939808D01*
X55980400Y-104047736D01*
X58253341Y-104047736D01*
X59944000Y-105738395D01*
X61634659Y-104047736D01*
X112863341Y-104047736D01*
X114554000Y-105738395D01*
X116244659Y-104047736D01*
X116024693Y-103677699D01*
X115559373Y-103433828D01*
X115055417Y-103285422D01*
X114532192Y-103238185D01*
X114009805Y-103293931D01*
X113508331Y-103450519D01*
X113083307Y-103677699D01*
X112863341Y-104047736D01*
X61634659Y-104047736D01*
X61414693Y-103677699D01*
X60949373Y-103433828D01*
X60445417Y-103285422D01*
X59922192Y-103238185D01*
X59399805Y-103293931D01*
X58898331Y-103450519D01*
X58473307Y-103677699D01*
X58253341Y-104047736D01*
X55980400Y-104047736D01*
X55980400Y-101752300D01*
X58912328Y-101752300D01*
X58924588Y-101876782D01*
X58960898Y-101996480D01*
X59019863Y-102106794D01*
X59099215Y-102203485D01*
X59195906Y-102282837D01*
X59306220Y-102341802D01*
X59425918Y-102378112D01*
X59550400Y-102390372D01*
X60064650Y-102387300D01*
X60223400Y-102228550D01*
X60223400Y-101079300D01*
X59074150Y-101079300D01*
X58915400Y-101238050D01*
X58912328Y-101752300D01*
X55980400Y-101752300D01*
X55980400Y-100152300D01*
X58912328Y-100152300D01*
X58915400Y-100666550D01*
X59074150Y-100825300D01*
X60223400Y-100825300D01*
X60223400Y-99676050D01*
X60477400Y-99676050D01*
X60477400Y-100825300D01*
X60497400Y-100825300D01*
X60497400Y-101079300D01*
X60477400Y-101079300D01*
X60477400Y-102228550D01*
X60636150Y-102387300D01*
X61150400Y-102390372D01*
X61274882Y-102378112D01*
X61394580Y-102341802D01*
X61504894Y-102282837D01*
X61601585Y-102203485D01*
X61680937Y-102106794D01*
X61739902Y-101996480D01*
X61776212Y-101876782D01*
X61777043Y-101868339D01*
X61975641Y-102066937D01*
X62210673Y-102223980D01*
X62471826Y-102332153D01*
X62749065Y-102387300D01*
X63031735Y-102387300D01*
X63308974Y-102332153D01*
X63570127Y-102223980D01*
X63805159Y-102066937D01*
X64005037Y-101867059D01*
X64160400Y-101634541D01*
X64315763Y-101867059D01*
X64515641Y-102066937D01*
X64750673Y-102223980D01*
X65011826Y-102332153D01*
X65289065Y-102387300D01*
X65571735Y-102387300D01*
X65848974Y-102332153D01*
X66110127Y-102223980D01*
X66345159Y-102066937D01*
X66545037Y-101867059D01*
X66700400Y-101634541D01*
X66855763Y-101867059D01*
X67055641Y-102066937D01*
X67290673Y-102223980D01*
X67551826Y-102332153D01*
X67829065Y-102387300D01*
X68111735Y-102387300D01*
X68388974Y-102332153D01*
X68650127Y-102223980D01*
X68885159Y-102066937D01*
X69085037Y-101867059D01*
X69240400Y-101634541D01*
X69395763Y-101867059D01*
X69595641Y-102066937D01*
X69830673Y-102223980D01*
X70091826Y-102332153D01*
X70369065Y-102387300D01*
X70651735Y-102387300D01*
X70928974Y-102332153D01*
X71190127Y-102223980D01*
X71425159Y-102066937D01*
X71625037Y-101867059D01*
X71780400Y-101634541D01*
X71935763Y-101867059D01*
X72135641Y-102066937D01*
X72370673Y-102223980D01*
X72631826Y-102332153D01*
X72909065Y-102387300D01*
X73191735Y-102387300D01*
X73468974Y-102332153D01*
X73730127Y-102223980D01*
X73965159Y-102066937D01*
X74165037Y-101867059D01*
X74320400Y-101634541D01*
X74475763Y-101867059D01*
X74675641Y-102066937D01*
X74910673Y-102223980D01*
X75171826Y-102332153D01*
X75449065Y-102387300D01*
X75731735Y-102387300D01*
X76008974Y-102332153D01*
X76270127Y-102223980D01*
X76505159Y-102066937D01*
X76705037Y-101867059D01*
X76860400Y-101634541D01*
X77015763Y-101867059D01*
X77215641Y-102066937D01*
X77450673Y-102223980D01*
X77711826Y-102332153D01*
X77989065Y-102387300D01*
X78271735Y-102387300D01*
X78548974Y-102332153D01*
X78810127Y-102223980D01*
X79045159Y-102066937D01*
X79245037Y-101867059D01*
X79400400Y-101634541D01*
X79555763Y-101867059D01*
X79755641Y-102066937D01*
X79990673Y-102223980D01*
X80251826Y-102332153D01*
X80529065Y-102387300D01*
X80811735Y-102387300D01*
X81088974Y-102332153D01*
X81350127Y-102223980D01*
X81585159Y-102066937D01*
X81785037Y-101867059D01*
X81940400Y-101634541D01*
X82095763Y-101867059D01*
X82295641Y-102066937D01*
X82530673Y-102223980D01*
X82791826Y-102332153D01*
X83069065Y-102387300D01*
X83351735Y-102387300D01*
X83628974Y-102332153D01*
X83890127Y-102223980D01*
X84125159Y-102066937D01*
X84325037Y-101867059D01*
X84480400Y-101634541D01*
X84635763Y-101867059D01*
X84835641Y-102066937D01*
X85070673Y-102223980D01*
X85331826Y-102332153D01*
X85609065Y-102387300D01*
X85891735Y-102387300D01*
X86168974Y-102332153D01*
X86430127Y-102223980D01*
X86665159Y-102066937D01*
X86865037Y-101867059D01*
X87020400Y-101634541D01*
X87175763Y-101867059D01*
X87375641Y-102066937D01*
X87610673Y-102223980D01*
X87871826Y-102332153D01*
X88149065Y-102387300D01*
X88431735Y-102387300D01*
X88708974Y-102332153D01*
X88970127Y-102223980D01*
X89205159Y-102066937D01*
X89405037Y-101867059D01*
X89560400Y-101634541D01*
X89715763Y-101867059D01*
X89915641Y-102066937D01*
X90150673Y-102223980D01*
X90411826Y-102332153D01*
X90689065Y-102387300D01*
X90971735Y-102387300D01*
X91248974Y-102332153D01*
X91510127Y-102223980D01*
X91745159Y-102066937D01*
X91945037Y-101867059D01*
X92100400Y-101634541D01*
X92255763Y-101867059D01*
X92455641Y-102066937D01*
X92690673Y-102223980D01*
X92951826Y-102332153D01*
X93229065Y-102387300D01*
X93511735Y-102387300D01*
X93788974Y-102332153D01*
X94050127Y-102223980D01*
X94285159Y-102066937D01*
X94485037Y-101867059D01*
X94640400Y-101634541D01*
X94795763Y-101867059D01*
X94995641Y-102066937D01*
X95230673Y-102223980D01*
X95491826Y-102332153D01*
X95769065Y-102387300D01*
X96051735Y-102387300D01*
X96328974Y-102332153D01*
X96590127Y-102223980D01*
X96825159Y-102066937D01*
X97025037Y-101867059D01*
X97180400Y-101634541D01*
X97335763Y-101867059D01*
X97535641Y-102066937D01*
X97770673Y-102223980D01*
X98031826Y-102332153D01*
X98309065Y-102387300D01*
X98591735Y-102387300D01*
X98868974Y-102332153D01*
X99130127Y-102223980D01*
X99365159Y-102066937D01*
X99565037Y-101867059D01*
X99720400Y-101634541D01*
X99875763Y-101867059D01*
X100075641Y-102066937D01*
X100310673Y-102223980D01*
X100571826Y-102332153D01*
X100849065Y-102387300D01*
X101131735Y-102387300D01*
X101408974Y-102332153D01*
X101670127Y-102223980D01*
X101905159Y-102066937D01*
X102105037Y-101867059D01*
X102260400Y-101634541D01*
X102415763Y-101867059D01*
X102615641Y-102066937D01*
X102850673Y-102223980D01*
X103111826Y-102332153D01*
X103389065Y-102387300D01*
X103671735Y-102387300D01*
X103948974Y-102332153D01*
X104210127Y-102223980D01*
X104445159Y-102066937D01*
X104645037Y-101867059D01*
X104800400Y-101634541D01*
X104955763Y-101867059D01*
X105155641Y-102066937D01*
X105390673Y-102223980D01*
X105651826Y-102332153D01*
X105929065Y-102387300D01*
X106211735Y-102387300D01*
X106488974Y-102332153D01*
X106750127Y-102223980D01*
X106985159Y-102066937D01*
X107185037Y-101867059D01*
X107340400Y-101634541D01*
X107495763Y-101867059D01*
X107695641Y-102066937D01*
X107930673Y-102223980D01*
X108191826Y-102332153D01*
X108469065Y-102387300D01*
X108751735Y-102387300D01*
X109028974Y-102332153D01*
X109290127Y-102223980D01*
X109525159Y-102066937D01*
X109725037Y-101867059D01*
X109880400Y-101634541D01*
X110035763Y-101867059D01*
X110235641Y-102066937D01*
X110470673Y-102223980D01*
X110731826Y-102332153D01*
X111009065Y-102387300D01*
X111291735Y-102387300D01*
X111568974Y-102332153D01*
X111830127Y-102223980D01*
X112065159Y-102066937D01*
X112187094Y-101945002D01*
X112877303Y-101945002D01*
X112948886Y-102188971D01*
X113204396Y-102309871D01*
X113478584Y-102378600D01*
X113760912Y-102392517D01*
X114040530Y-102351087D01*
X114306692Y-102255903D01*
X114431914Y-102188971D01*
X114503497Y-101945002D01*
X113690400Y-101131905D01*
X112877303Y-101945002D01*
X112187094Y-101945002D01*
X112265037Y-101867059D01*
X112421315Y-101633172D01*
X112453729Y-101693814D01*
X112697698Y-101765397D01*
X113510795Y-100952300D01*
X113870005Y-100952300D01*
X114683102Y-101765397D01*
X114927071Y-101693814D01*
X115047971Y-101438304D01*
X115116700Y-101164116D01*
X115130617Y-100881788D01*
X115089187Y-100602170D01*
X114994003Y-100336008D01*
X114927071Y-100210786D01*
X114683102Y-100139203D01*
X113870005Y-100952300D01*
X113510795Y-100952300D01*
X112697698Y-100139203D01*
X112453729Y-100210786D01*
X112423206Y-100275292D01*
X112422080Y-100272573D01*
X112265037Y-100037541D01*
X112187094Y-99959598D01*
X112877303Y-99959598D01*
X113690400Y-100772695D01*
X114503497Y-99959598D01*
X114431914Y-99715629D01*
X114176404Y-99594729D01*
X113902216Y-99526000D01*
X113619888Y-99512083D01*
X113340270Y-99553513D01*
X113074108Y-99648697D01*
X112948886Y-99715629D01*
X112877303Y-99959598D01*
X112187094Y-99959598D01*
X112065159Y-99837663D01*
X111830127Y-99680620D01*
X111568974Y-99572447D01*
X111291735Y-99517300D01*
X111009065Y-99517300D01*
X110731826Y-99572447D01*
X110470673Y-99680620D01*
X110235641Y-99837663D01*
X110035763Y-100037541D01*
X109880400Y-100270059D01*
X109725037Y-100037541D01*
X109525159Y-99837663D01*
X109290127Y-99680620D01*
X109028974Y-99572447D01*
X108751735Y-99517300D01*
X108469065Y-99517300D01*
X108191826Y-99572447D01*
X107930673Y-99680620D01*
X107695641Y-99837663D01*
X107495763Y-100037541D01*
X107340400Y-100270059D01*
X107185037Y-100037541D01*
X106985159Y-99837663D01*
X106750127Y-99680620D01*
X106488974Y-99572447D01*
X106211735Y-99517300D01*
X105929065Y-99517300D01*
X105651826Y-99572447D01*
X105390673Y-99680620D01*
X105155641Y-99837663D01*
X104955763Y-100037541D01*
X104800400Y-100270059D01*
X104645037Y-100037541D01*
X104445159Y-99837663D01*
X104210127Y-99680620D01*
X103948974Y-99572447D01*
X103671735Y-99517300D01*
X103389065Y-99517300D01*
X103111826Y-99572447D01*
X102850673Y-99680620D01*
X102615641Y-99837663D01*
X102415763Y-100037541D01*
X102260400Y-100270059D01*
X102105037Y-100037541D01*
X101905159Y-99837663D01*
X101670127Y-99680620D01*
X101408974Y-99572447D01*
X101131735Y-99517300D01*
X100849065Y-99517300D01*
X100571826Y-99572447D01*
X100310673Y-99680620D01*
X100075641Y-99837663D01*
X99875763Y-100037541D01*
X99720400Y-100270059D01*
X99565037Y-100037541D01*
X99365159Y-99837663D01*
X99130127Y-99680620D01*
X98868974Y-99572447D01*
X98591735Y-99517300D01*
X98309065Y-99517300D01*
X98031826Y-99572447D01*
X97770673Y-99680620D01*
X97535641Y-99837663D01*
X97335763Y-100037541D01*
X97180400Y-100270059D01*
X97025037Y-100037541D01*
X96825159Y-99837663D01*
X96590127Y-99680620D01*
X96328974Y-99572447D01*
X96051735Y-99517300D01*
X95769065Y-99517300D01*
X95491826Y-99572447D01*
X95230673Y-99680620D01*
X94995641Y-99837663D01*
X94795763Y-100037541D01*
X94640400Y-100270059D01*
X94485037Y-100037541D01*
X94285159Y-99837663D01*
X94050127Y-99680620D01*
X93788974Y-99572447D01*
X93511735Y-99517300D01*
X93229065Y-99517300D01*
X92951826Y-99572447D01*
X92690673Y-99680620D01*
X92455641Y-99837663D01*
X92255763Y-100037541D01*
X92100400Y-100270059D01*
X91945037Y-100037541D01*
X91745159Y-99837663D01*
X91510127Y-99680620D01*
X91248974Y-99572447D01*
X90971735Y-99517300D01*
X90689065Y-99517300D01*
X90411826Y-99572447D01*
X90150673Y-99680620D01*
X89915641Y-99837663D01*
X89715763Y-100037541D01*
X89560400Y-100270059D01*
X89405037Y-100037541D01*
X89205159Y-99837663D01*
X88970127Y-99680620D01*
X88708974Y-99572447D01*
X88431735Y-99517300D01*
X88149065Y-99517300D01*
X87871826Y-99572447D01*
X87610673Y-99680620D01*
X87375641Y-99837663D01*
X87175763Y-100037541D01*
X87020400Y-100270059D01*
X86865037Y-100037541D01*
X86665159Y-99837663D01*
X86430127Y-99680620D01*
X86168974Y-99572447D01*
X85891735Y-99517300D01*
X85609065Y-99517300D01*
X85331826Y-99572447D01*
X85070673Y-99680620D01*
X84835641Y-99837663D01*
X84635763Y-100037541D01*
X84480400Y-100270059D01*
X84325037Y-100037541D01*
X84125159Y-99837663D01*
X83890127Y-99680620D01*
X83628974Y-99572447D01*
X83351735Y-99517300D01*
X83069065Y-99517300D01*
X82791826Y-99572447D01*
X82530673Y-99680620D01*
X82295641Y-99837663D01*
X82095763Y-100037541D01*
X81940400Y-100270059D01*
X81785037Y-100037541D01*
X81585159Y-99837663D01*
X81350127Y-99680620D01*
X81088974Y-99572447D01*
X80811735Y-99517300D01*
X80529065Y-99517300D01*
X80251826Y-99572447D01*
X79990673Y-99680620D01*
X79755641Y-99837663D01*
X79555763Y-100037541D01*
X79400400Y-100270059D01*
X79245037Y-100037541D01*
X79045159Y-99837663D01*
X78810127Y-99680620D01*
X78548974Y-99572447D01*
X78271735Y-99517300D01*
X77989065Y-99517300D01*
X77711826Y-99572447D01*
X77450673Y-99680620D01*
X77215641Y-99837663D01*
X77015763Y-100037541D01*
X76860400Y-100270059D01*
X76705037Y-100037541D01*
X76505159Y-99837663D01*
X76270127Y-99680620D01*
X76008974Y-99572447D01*
X75731735Y-99517300D01*
X75449065Y-99517300D01*
X75171826Y-99572447D01*
X74910673Y-99680620D01*
X74675641Y-99837663D01*
X74475763Y-100037541D01*
X74320400Y-100270059D01*
X74165037Y-100037541D01*
X73965159Y-99837663D01*
X73730127Y-99680620D01*
X73468974Y-99572447D01*
X73191735Y-99517300D01*
X72909065Y-99517300D01*
X72631826Y-99572447D01*
X72370673Y-99680620D01*
X72135641Y-99837663D01*
X71935763Y-100037541D01*
X71780400Y-100270059D01*
X71625037Y-100037541D01*
X71425159Y-99837663D01*
X71190127Y-99680620D01*
X70928974Y-99572447D01*
X70651735Y-99517300D01*
X70369065Y-99517300D01*
X70091826Y-99572447D01*
X69830673Y-99680620D01*
X69595641Y-99837663D01*
X69395763Y-100037541D01*
X69240400Y-100270059D01*
X69085037Y-100037541D01*
X68885159Y-99837663D01*
X68650127Y-99680620D01*
X68388974Y-99572447D01*
X68111735Y-99517300D01*
X67829065Y-99517300D01*
X67551826Y-99572447D01*
X67290673Y-99680620D01*
X67055641Y-99837663D01*
X66855763Y-100037541D01*
X66700400Y-100270059D01*
X66545037Y-100037541D01*
X66345159Y-99837663D01*
X66110127Y-99680620D01*
X65848974Y-99572447D01*
X65571735Y-99517300D01*
X65289065Y-99517300D01*
X65011826Y-99572447D01*
X64750673Y-99680620D01*
X64515641Y-99837663D01*
X64315763Y-100037541D01*
X64160400Y-100270059D01*
X64005037Y-100037541D01*
X63805159Y-99837663D01*
X63570127Y-99680620D01*
X63308974Y-99572447D01*
X63031735Y-99517300D01*
X62749065Y-99517300D01*
X62471826Y-99572447D01*
X62210673Y-99680620D01*
X61975641Y-99837663D01*
X61777043Y-100036261D01*
X61776212Y-100027818D01*
X61739902Y-99908120D01*
X61680937Y-99797806D01*
X61601585Y-99701115D01*
X61504894Y-99621763D01*
X61394580Y-99562798D01*
X61274882Y-99526488D01*
X61150400Y-99514228D01*
X60636150Y-99517300D01*
X60477400Y-99676050D01*
X60223400Y-99676050D01*
X60064650Y-99517300D01*
X59550400Y-99514228D01*
X59425918Y-99526488D01*
X59306220Y-99562798D01*
X59195906Y-99621763D01*
X59099215Y-99701115D01*
X59019863Y-99797806D01*
X58960898Y-99908120D01*
X58924588Y-100027818D01*
X58912328Y-100152300D01*
X55980400Y-100152300D01*
X55980400Y-96865002D01*
X59537303Y-96865002D01*
X59608886Y-97108971D01*
X59864396Y-97229871D01*
X60138584Y-97298600D01*
X60420912Y-97312517D01*
X60700530Y-97271087D01*
X60966692Y-97175903D01*
X61091914Y-97108971D01*
X61163497Y-96865002D01*
X60350400Y-96051905D01*
X59537303Y-96865002D01*
X55980400Y-96865002D01*
X55980400Y-95942812D01*
X58910183Y-95942812D01*
X58951613Y-96222430D01*
X59046797Y-96488592D01*
X59113729Y-96613814D01*
X59357698Y-96685397D01*
X60170795Y-95872300D01*
X60530005Y-95872300D01*
X61343102Y-96685397D01*
X61587071Y-96613814D01*
X61617594Y-96549308D01*
X61618720Y-96552027D01*
X61775763Y-96787059D01*
X61975641Y-96986937D01*
X62210673Y-97143980D01*
X62471826Y-97252153D01*
X62749065Y-97307300D01*
X63031735Y-97307300D01*
X63308974Y-97252153D01*
X63570127Y-97143980D01*
X63805159Y-96986937D01*
X64005037Y-96787059D01*
X64160400Y-96554541D01*
X64315763Y-96787059D01*
X64515641Y-96986937D01*
X64750673Y-97143980D01*
X65011826Y-97252153D01*
X65289065Y-97307300D01*
X65571735Y-97307300D01*
X65848974Y-97252153D01*
X66110127Y-97143980D01*
X66345159Y-96986937D01*
X66545037Y-96787059D01*
X66700400Y-96554541D01*
X66855763Y-96787059D01*
X67055641Y-96986937D01*
X67290673Y-97143980D01*
X67551826Y-97252153D01*
X67829065Y-97307300D01*
X68111735Y-97307300D01*
X68388974Y-97252153D01*
X68650127Y-97143980D01*
X68885159Y-96986937D01*
X69085037Y-96787059D01*
X69240400Y-96554541D01*
X69395763Y-96787059D01*
X69595641Y-96986937D01*
X69830673Y-97143980D01*
X70091826Y-97252153D01*
X70369065Y-97307300D01*
X70651735Y-97307300D01*
X70928974Y-97252153D01*
X71190127Y-97143980D01*
X71425159Y-96986937D01*
X71625037Y-96787059D01*
X71780400Y-96554541D01*
X71935763Y-96787059D01*
X72135641Y-96986937D01*
X72370673Y-97143980D01*
X72631826Y-97252153D01*
X72909065Y-97307300D01*
X73191735Y-97307300D01*
X73468974Y-97252153D01*
X73730127Y-97143980D01*
X73965159Y-96986937D01*
X74165037Y-96787059D01*
X74320400Y-96554541D01*
X74475763Y-96787059D01*
X74675641Y-96986937D01*
X74910673Y-97143980D01*
X75171826Y-97252153D01*
X75449065Y-97307300D01*
X75731735Y-97307300D01*
X76008974Y-97252153D01*
X76270127Y-97143980D01*
X76505159Y-96986937D01*
X76705037Y-96787059D01*
X76860400Y-96554541D01*
X77015763Y-96787059D01*
X77215641Y-96986937D01*
X77450673Y-97143980D01*
X77711826Y-97252153D01*
X77989065Y-97307300D01*
X78271735Y-97307300D01*
X78548974Y-97252153D01*
X78810127Y-97143980D01*
X79045159Y-96986937D01*
X79245037Y-96787059D01*
X79400400Y-96554541D01*
X79555763Y-96787059D01*
X79755641Y-96986937D01*
X79990673Y-97143980D01*
X80251826Y-97252153D01*
X80529065Y-97307300D01*
X80811735Y-97307300D01*
X81088974Y-97252153D01*
X81350127Y-97143980D01*
X81585159Y-96986937D01*
X81785037Y-96787059D01*
X81940400Y-96554541D01*
X82095763Y-96787059D01*
X82295641Y-96986937D01*
X82530673Y-97143980D01*
X82791826Y-97252153D01*
X83069065Y-97307300D01*
X83351735Y-97307300D01*
X83628974Y-97252153D01*
X83890127Y-97143980D01*
X84125159Y-96986937D01*
X84325037Y-96787059D01*
X84480400Y-96554541D01*
X84635763Y-96787059D01*
X84835641Y-96986937D01*
X85070673Y-97143980D01*
X85331826Y-97252153D01*
X85609065Y-97307300D01*
X85891735Y-97307300D01*
X86168974Y-97252153D01*
X86430127Y-97143980D01*
X86665159Y-96986937D01*
X86865037Y-96787059D01*
X87020400Y-96554541D01*
X87175763Y-96787059D01*
X87375641Y-96986937D01*
X87610673Y-97143980D01*
X87871826Y-97252153D01*
X88149065Y-97307300D01*
X88431735Y-97307300D01*
X88708974Y-97252153D01*
X88970127Y-97143980D01*
X89205159Y-96986937D01*
X89405037Y-96787059D01*
X89560400Y-96554541D01*
X89715763Y-96787059D01*
X89915641Y-96986937D01*
X90150673Y-97143980D01*
X90411826Y-97252153D01*
X90689065Y-97307300D01*
X90971735Y-97307300D01*
X91248974Y-97252153D01*
X91510127Y-97143980D01*
X91745159Y-96986937D01*
X91945037Y-96787059D01*
X92100400Y-96554541D01*
X92255763Y-96787059D01*
X92455641Y-96986937D01*
X92690673Y-97143980D01*
X92951826Y-97252153D01*
X93229065Y-97307300D01*
X93511735Y-97307300D01*
X93788974Y-97252153D01*
X94050127Y-97143980D01*
X94285159Y-96986937D01*
X94485037Y-96787059D01*
X94640400Y-96554541D01*
X94795763Y-96787059D01*
X94995641Y-96986937D01*
X95230673Y-97143980D01*
X95491826Y-97252153D01*
X95769065Y-97307300D01*
X96051735Y-97307300D01*
X96328974Y-97252153D01*
X96590127Y-97143980D01*
X96825159Y-96986937D01*
X97025037Y-96787059D01*
X97180400Y-96554541D01*
X97335763Y-96787059D01*
X97535641Y-96986937D01*
X97770673Y-97143980D01*
X98031826Y-97252153D01*
X98309065Y-97307300D01*
X98591735Y-97307300D01*
X98868974Y-97252153D01*
X99130127Y-97143980D01*
X99365159Y-96986937D01*
X99565037Y-96787059D01*
X99720400Y-96554541D01*
X99875763Y-96787059D01*
X100075641Y-96986937D01*
X100310673Y-97143980D01*
X100571826Y-97252153D01*
X100849065Y-97307300D01*
X101131735Y-97307300D01*
X101408974Y-97252153D01*
X101670127Y-97143980D01*
X101905159Y-96986937D01*
X102105037Y-96787059D01*
X102260400Y-96554541D01*
X102415763Y-96787059D01*
X102615641Y-96986937D01*
X102850673Y-97143980D01*
X103111826Y-97252153D01*
X103389065Y-97307300D01*
X103671735Y-97307300D01*
X103948974Y-97252153D01*
X104210127Y-97143980D01*
X104445159Y-96986937D01*
X104645037Y-96787059D01*
X104800400Y-96554541D01*
X104955763Y-96787059D01*
X105155641Y-96986937D01*
X105390673Y-97143980D01*
X105651826Y-97252153D01*
X105929065Y-97307300D01*
X106211735Y-97307300D01*
X106488974Y-97252153D01*
X106750127Y-97143980D01*
X106985159Y-96986937D01*
X107185037Y-96787059D01*
X107340400Y-96554541D01*
X107495763Y-96787059D01*
X107695641Y-96986937D01*
X107930673Y-97143980D01*
X108191826Y-97252153D01*
X108469065Y-97307300D01*
X108751735Y-97307300D01*
X109028974Y-97252153D01*
X109290127Y-97143980D01*
X109525159Y-96986937D01*
X109725037Y-96787059D01*
X109880400Y-96554541D01*
X110035763Y-96787059D01*
X110235641Y-96986937D01*
X110470673Y-97143980D01*
X110731826Y-97252153D01*
X111009065Y-97307300D01*
X111291735Y-97307300D01*
X111568974Y-97252153D01*
X111830127Y-97143980D01*
X112065159Y-96986937D01*
X112187094Y-96865002D01*
X112877303Y-96865002D01*
X112948886Y-97108971D01*
X113204396Y-97229871D01*
X113478584Y-97298600D01*
X113760912Y-97312517D01*
X114040530Y-97271087D01*
X114306692Y-97175903D01*
X114431914Y-97108971D01*
X114503497Y-96865002D01*
X113690400Y-96051905D01*
X112877303Y-96865002D01*
X112187094Y-96865002D01*
X112265037Y-96787059D01*
X112421315Y-96553172D01*
X112453729Y-96613814D01*
X112697698Y-96685397D01*
X113510795Y-95872300D01*
X113870005Y-95872300D01*
X114683102Y-96685397D01*
X114927071Y-96613814D01*
X115047971Y-96358304D01*
X115116700Y-96084116D01*
X115130617Y-95801788D01*
X115089187Y-95522170D01*
X114994003Y-95256008D01*
X114927071Y-95130786D01*
X114683102Y-95059203D01*
X113870005Y-95872300D01*
X113510795Y-95872300D01*
X112697698Y-95059203D01*
X112453729Y-95130786D01*
X112423206Y-95195292D01*
X112422080Y-95192573D01*
X112265037Y-94957541D01*
X112187094Y-94879598D01*
X112877303Y-94879598D01*
X113690400Y-95692695D01*
X114503497Y-94879598D01*
X114431914Y-94635629D01*
X114176404Y-94514729D01*
X113902216Y-94446000D01*
X113619888Y-94432083D01*
X113340270Y-94473513D01*
X113074108Y-94568697D01*
X112948886Y-94635629D01*
X112877303Y-94879598D01*
X112187094Y-94879598D01*
X112065159Y-94757663D01*
X111830127Y-94600620D01*
X111568974Y-94492447D01*
X111291735Y-94437300D01*
X111009065Y-94437300D01*
X110731826Y-94492447D01*
X110470673Y-94600620D01*
X110235641Y-94757663D01*
X110035763Y-94957541D01*
X109880400Y-95190059D01*
X109725037Y-94957541D01*
X109525159Y-94757663D01*
X109290127Y-94600620D01*
X109028974Y-94492447D01*
X108751735Y-94437300D01*
X108469065Y-94437300D01*
X108191826Y-94492447D01*
X107930673Y-94600620D01*
X107695641Y-94757663D01*
X107495763Y-94957541D01*
X107340400Y-95190059D01*
X107185037Y-94957541D01*
X106985159Y-94757663D01*
X106750127Y-94600620D01*
X106488974Y-94492447D01*
X106211735Y-94437300D01*
X105929065Y-94437300D01*
X105651826Y-94492447D01*
X105390673Y-94600620D01*
X105155641Y-94757663D01*
X104955763Y-94957541D01*
X104800400Y-95190059D01*
X104645037Y-94957541D01*
X104445159Y-94757663D01*
X104210127Y-94600620D01*
X103948974Y-94492447D01*
X103671735Y-94437300D01*
X103389065Y-94437300D01*
X103111826Y-94492447D01*
X102850673Y-94600620D01*
X102615641Y-94757663D01*
X102415763Y-94957541D01*
X102260400Y-95190059D01*
X102105037Y-94957541D01*
X101905159Y-94757663D01*
X101670127Y-94600620D01*
X101408974Y-94492447D01*
X101131735Y-94437300D01*
X100849065Y-94437300D01*
X100571826Y-94492447D01*
X100310673Y-94600620D01*
X100075641Y-94757663D01*
X99875763Y-94957541D01*
X99720400Y-95190059D01*
X99565037Y-94957541D01*
X99365159Y-94757663D01*
X99130127Y-94600620D01*
X98868974Y-94492447D01*
X98591735Y-94437300D01*
X98309065Y-94437300D01*
X98031826Y-94492447D01*
X97770673Y-94600620D01*
X97535641Y-94757663D01*
X97335763Y-94957541D01*
X97180400Y-95190059D01*
X97025037Y-94957541D01*
X96825159Y-94757663D01*
X96590127Y-94600620D01*
X96328974Y-94492447D01*
X96051735Y-94437300D01*
X95769065Y-94437300D01*
X95491826Y-94492447D01*
X95230673Y-94600620D01*
X94995641Y-94757663D01*
X94795763Y-94957541D01*
X94640400Y-95190059D01*
X94485037Y-94957541D01*
X94285159Y-94757663D01*
X94050127Y-94600620D01*
X93788974Y-94492447D01*
X93511735Y-94437300D01*
X93229065Y-94437300D01*
X92951826Y-94492447D01*
X92690673Y-94600620D01*
X92455641Y-94757663D01*
X92255763Y-94957541D01*
X92100400Y-95190059D01*
X91945037Y-94957541D01*
X91745159Y-94757663D01*
X91510127Y-94600620D01*
X91248974Y-94492447D01*
X90971735Y-94437300D01*
X90689065Y-94437300D01*
X90411826Y-94492447D01*
X90150673Y-94600620D01*
X89915641Y-94757663D01*
X89715763Y-94957541D01*
X89560400Y-95190059D01*
X89405037Y-94957541D01*
X89205159Y-94757663D01*
X88970127Y-94600620D01*
X88708974Y-94492447D01*
X88431735Y-94437300D01*
X88149065Y-94437300D01*
X87871826Y-94492447D01*
X87610673Y-94600620D01*
X87375641Y-94757663D01*
X87175763Y-94957541D01*
X87020400Y-95190059D01*
X86865037Y-94957541D01*
X86665159Y-94757663D01*
X86430127Y-94600620D01*
X86168974Y-94492447D01*
X85891735Y-94437300D01*
X85609065Y-94437300D01*
X85331826Y-94492447D01*
X85070673Y-94600620D01*
X84835641Y-94757663D01*
X84635763Y-94957541D01*
X84480400Y-95190059D01*
X84325037Y-94957541D01*
X84125159Y-94757663D01*
X83890127Y-94600620D01*
X83628974Y-94492447D01*
X83351735Y-94437300D01*
X83069065Y-94437300D01*
X82791826Y-94492447D01*
X82530673Y-94600620D01*
X82295641Y-94757663D01*
X82095763Y-94957541D01*
X81940400Y-95190059D01*
X81785037Y-94957541D01*
X81585159Y-94757663D01*
X81350127Y-94600620D01*
X81088974Y-94492447D01*
X80811735Y-94437300D01*
X80529065Y-94437300D01*
X80251826Y-94492447D01*
X79990673Y-94600620D01*
X79755641Y-94757663D01*
X79555763Y-94957541D01*
X79400400Y-95190059D01*
X79245037Y-94957541D01*
X79045159Y-94757663D01*
X78810127Y-94600620D01*
X78548974Y-94492447D01*
X78271735Y-94437300D01*
X77989065Y-94437300D01*
X77711826Y-94492447D01*
X77450673Y-94600620D01*
X77215641Y-94757663D01*
X77015763Y-94957541D01*
X76860400Y-95190059D01*
X76705037Y-94957541D01*
X76505159Y-94757663D01*
X76270127Y-94600620D01*
X76008974Y-94492447D01*
X75731735Y-94437300D01*
X75449065Y-94437300D01*
X75171826Y-94492447D01*
X74910673Y-94600620D01*
X74675641Y-94757663D01*
X74475763Y-94957541D01*
X74320400Y-95190059D01*
X74165037Y-94957541D01*
X73965159Y-94757663D01*
X73730127Y-94600620D01*
X73468974Y-94492447D01*
X73191735Y-94437300D01*
X72909065Y-94437300D01*
X72631826Y-94492447D01*
X72370673Y-94600620D01*
X72135641Y-94757663D01*
X71935763Y-94957541D01*
X71780400Y-95190059D01*
X71625037Y-94957541D01*
X71425159Y-94757663D01*
X71190127Y-94600620D01*
X70928974Y-94492447D01*
X70651735Y-94437300D01*
X70369065Y-94437300D01*
X70091826Y-94492447D01*
X69830673Y-94600620D01*
X69595641Y-94757663D01*
X69395763Y-94957541D01*
X69240400Y-95190059D01*
X69085037Y-94957541D01*
X68885159Y-94757663D01*
X68650127Y-94600620D01*
X68388974Y-94492447D01*
X68111735Y-94437300D01*
X67829065Y-94437300D01*
X67551826Y-94492447D01*
X67290673Y-94600620D01*
X67055641Y-94757663D01*
X66855763Y-94957541D01*
X66700400Y-95190059D01*
X66545037Y-94957541D01*
X66345159Y-94757663D01*
X66110127Y-94600620D01*
X65848974Y-94492447D01*
X65571735Y-94437300D01*
X65289065Y-94437300D01*
X65011826Y-94492447D01*
X64750673Y-94600620D01*
X64515641Y-94757663D01*
X64315763Y-94957541D01*
X64160400Y-95190059D01*
X64005037Y-94957541D01*
X63805159Y-94757663D01*
X63570127Y-94600620D01*
X63308974Y-94492447D01*
X63031735Y-94437300D01*
X62749065Y-94437300D01*
X62471826Y-94492447D01*
X62210673Y-94600620D01*
X61975641Y-94757663D01*
X61775763Y-94957541D01*
X61619485Y-95191428D01*
X61587071Y-95130786D01*
X61343102Y-95059203D01*
X60530005Y-95872300D01*
X60170795Y-95872300D01*
X59357698Y-95059203D01*
X59113729Y-95130786D01*
X58992829Y-95386296D01*
X58924100Y-95660484D01*
X58910183Y-95942812D01*
X55980400Y-95942812D01*
X55980400Y-94879598D01*
X59537303Y-94879598D01*
X60350400Y-95692695D01*
X61163497Y-94879598D01*
X61091914Y-94635629D01*
X60836404Y-94514729D01*
X60562216Y-94446000D01*
X60279888Y-94432083D01*
X60000270Y-94473513D01*
X59734108Y-94568697D01*
X59608886Y-94635629D01*
X59537303Y-94879598D01*
X55980400Y-94879598D01*
X55980400Y-83092300D01*
X118060401Y-83092300D01*
X118060400Y-139612810D01*
%TA.AperFunction,Conductor*%
D18*
G36*
X118060400Y-139612810D02*
G01*
X116193876Y-139612310D01*
X116158900Y-139608865D01*
X116088176Y-139615831D01*
X116019904Y-139622536D01*
X116019813Y-139622564D01*
X116019717Y-139622573D01*
X115952784Y-139642877D01*
X115886057Y-139663099D01*
X115885972Y-139663144D01*
X115885881Y-139663172D01*
X115824288Y-139696094D01*
X115762697Y-139728994D01*
X115762623Y-139729054D01*
X115762538Y-139729100D01*
X115708319Y-139773596D01*
X115694512Y-139784922D01*
X115594528Y-139684938D01*
X115441389Y-139582614D01*
X115271229Y-139512132D01*
X115090589Y-139476200D01*
X114906411Y-139476200D01*
X114725771Y-139512132D01*
X114555611Y-139582614D01*
X114402472Y-139684938D01*
X114272238Y-139815172D01*
X114169914Y-139968311D01*
X114099432Y-140138471D01*
X114063500Y-140319111D01*
X114063500Y-140503289D01*
X114099432Y-140683929D01*
X114169914Y-140854089D01*
X114272238Y-141007228D01*
X114402472Y-141137462D01*
X114555611Y-141239786D01*
X114725771Y-141310268D01*
X114906411Y-141346200D01*
X115090589Y-141346200D01*
X115271229Y-141310268D01*
X115441389Y-141239786D01*
X115448901Y-141234767D01*
X115448900Y-142643176D01*
X115448901Y-142643186D01*
X115448901Y-147615894D01*
X115356889Y-147554414D01*
X115186729Y-147483932D01*
X115006089Y-147448000D01*
X114821911Y-147448000D01*
X114641271Y-147483932D01*
X114471111Y-147554414D01*
X114317972Y-147656738D01*
X114258089Y-147716621D01*
X114252286Y-147702611D01*
X114149962Y-147549472D01*
X114019728Y-147419238D01*
X113866589Y-147316914D01*
X113696429Y-147246432D01*
X113515789Y-147210500D01*
X113331611Y-147210500D01*
X113320177Y-147212774D01*
X113179437Y-147002141D01*
X112979559Y-146802263D01*
X112744527Y-146645220D01*
X112483374Y-146537047D01*
X112206135Y-146481900D01*
X111923465Y-146481900D01*
X111646226Y-146537047D01*
X111385073Y-146645220D01*
X111150041Y-146802263D01*
X110950163Y-147002141D01*
X110793120Y-147237173D01*
X110684947Y-147498326D01*
X110629800Y-147775565D01*
X110629800Y-148058235D01*
X110684947Y-148335474D01*
X110793120Y-148596627D01*
X110950163Y-148831659D01*
X111150041Y-149031537D01*
X111385073Y-149188580D01*
X111646226Y-149296753D01*
X111923465Y-149351900D01*
X112206135Y-149351900D01*
X112483374Y-149296753D01*
X112744527Y-149188580D01*
X112979559Y-149031537D01*
X113020550Y-148990546D01*
X113150971Y-149044568D01*
X113331611Y-149080500D01*
X113515789Y-149080500D01*
X113696429Y-149044568D01*
X113866589Y-148974086D01*
X114019728Y-148871762D01*
X114079611Y-148811879D01*
X114085414Y-148825889D01*
X114187738Y-148979028D01*
X114317972Y-149109262D01*
X114471111Y-149211586D01*
X114641271Y-149282068D01*
X114821911Y-149318000D01*
X115006089Y-149318000D01*
X115186729Y-149282068D01*
X115356889Y-149211586D01*
X115448901Y-149150106D01*
X115448900Y-162995129D01*
X58464900Y-163228261D01*
X58464900Y-161439211D01*
X67035400Y-161439211D01*
X67035400Y-161623389D01*
X67071332Y-161804029D01*
X67141814Y-161974189D01*
X67244138Y-162127328D01*
X67374372Y-162257562D01*
X67527511Y-162359886D01*
X67697671Y-162430368D01*
X67878311Y-162466300D01*
X68062489Y-162466300D01*
X68243129Y-162430368D01*
X68413289Y-162359886D01*
X68566428Y-162257562D01*
X68696662Y-162127328D01*
X68798986Y-161974189D01*
X68869468Y-161804029D01*
X68905400Y-161623389D01*
X68905400Y-161439211D01*
X68869468Y-161258571D01*
X68798986Y-161088411D01*
X68766780Y-161040211D01*
X70451400Y-161040211D01*
X70451400Y-161224389D01*
X70487332Y-161405029D01*
X70557814Y-161575189D01*
X70660138Y-161728328D01*
X70790372Y-161858562D01*
X70943511Y-161960886D01*
X71113671Y-162031368D01*
X71294311Y-162067300D01*
X71478489Y-162067300D01*
X71659129Y-162031368D01*
X71829289Y-161960886D01*
X71982428Y-161858562D01*
X72112662Y-161728328D01*
X72214986Y-161575189D01*
X72285468Y-161405029D01*
X72321400Y-161224389D01*
X72321400Y-161040211D01*
X72297531Y-160920211D01*
X73191400Y-160920211D01*
X73191400Y-161104389D01*
X73227332Y-161285029D01*
X73297814Y-161455189D01*
X73400138Y-161608328D01*
X73530372Y-161738562D01*
X73683511Y-161840886D01*
X73853671Y-161911368D01*
X74034311Y-161947300D01*
X74218489Y-161947300D01*
X74399129Y-161911368D01*
X74569289Y-161840886D01*
X74722428Y-161738562D01*
X74852662Y-161608328D01*
X74954986Y-161455189D01*
X75025468Y-161285029D01*
X75061400Y-161104389D01*
X75061400Y-160920211D01*
X75025468Y-160739571D01*
X75009165Y-160700211D01*
X75841400Y-160700211D01*
X75841400Y-160884389D01*
X75877332Y-161065029D01*
X75947814Y-161235189D01*
X76050138Y-161388328D01*
X76180372Y-161518562D01*
X76333511Y-161620886D01*
X76503671Y-161691368D01*
X76684311Y-161727300D01*
X76868489Y-161727300D01*
X77049129Y-161691368D01*
X77219289Y-161620886D01*
X77372428Y-161518562D01*
X77502662Y-161388328D01*
X77604986Y-161235189D01*
X77675468Y-161065029D01*
X77711400Y-160884389D01*
X77711400Y-160710211D01*
X77971400Y-160710211D01*
X77971400Y-160894389D01*
X78007332Y-161075029D01*
X78077814Y-161245189D01*
X78180138Y-161398328D01*
X78310372Y-161528562D01*
X78463511Y-161630886D01*
X78633671Y-161701368D01*
X78814311Y-161737300D01*
X78998489Y-161737300D01*
X79179129Y-161701368D01*
X79349289Y-161630886D01*
X79478003Y-161544882D01*
X79524314Y-161656689D01*
X79626638Y-161809828D01*
X79756872Y-161940062D01*
X79910011Y-162042386D01*
X80080171Y-162112868D01*
X80260811Y-162148800D01*
X80444989Y-162148800D01*
X80625629Y-162112868D01*
X80795789Y-162042386D01*
X80948928Y-161940062D01*
X81079162Y-161809828D01*
X81181486Y-161656689D01*
X81251968Y-161486529D01*
X81287900Y-161305889D01*
X81287900Y-161121711D01*
X81251968Y-160941071D01*
X81181486Y-160770911D01*
X81079162Y-160617772D01*
X80948928Y-160487538D01*
X80795789Y-160385214D01*
X80648758Y-160324312D01*
X81459899Y-160324312D01*
X81459899Y-160508490D01*
X81495831Y-160689130D01*
X81566313Y-160859290D01*
X81668637Y-161012429D01*
X81798871Y-161142663D01*
X81952010Y-161244987D01*
X82097395Y-161305207D01*
X82120832Y-161423029D01*
X82191314Y-161593189D01*
X82293638Y-161746328D01*
X82423872Y-161876562D01*
X82577011Y-161978886D01*
X82747171Y-162049368D01*
X82927811Y-162085300D01*
X83111989Y-162085300D01*
X83292629Y-162049368D01*
X83462789Y-161978886D01*
X83615928Y-161876562D01*
X83746162Y-161746328D01*
X83848486Y-161593189D01*
X83918968Y-161423029D01*
X83954900Y-161242389D01*
X83954900Y-161058211D01*
X83918968Y-160877571D01*
X83848486Y-160707411D01*
X83746162Y-160554272D01*
X83615928Y-160424038D01*
X83462789Y-160321714D01*
X83317404Y-160261494D01*
X83303034Y-160189253D01*
X84249764Y-160189253D01*
X84249764Y-160373431D01*
X84285696Y-160554071D01*
X84356178Y-160724231D01*
X84458502Y-160877370D01*
X84588736Y-161007604D01*
X84741875Y-161109928D01*
X84912035Y-161180410D01*
X84978919Y-161193714D01*
X84987814Y-161215189D01*
X85090138Y-161368328D01*
X85220372Y-161498562D01*
X85373511Y-161600886D01*
X85543671Y-161671368D01*
X85724311Y-161707300D01*
X85908489Y-161707300D01*
X86089129Y-161671368D01*
X86259289Y-161600886D01*
X86412428Y-161498562D01*
X86542662Y-161368328D01*
X86644986Y-161215189D01*
X86715468Y-161045029D01*
X86751400Y-160864389D01*
X86751400Y-160680211D01*
X86715468Y-160499571D01*
X86644986Y-160329411D01*
X86542662Y-160176272D01*
X86412428Y-160046038D01*
X86259289Y-159943714D01*
X86197480Y-159918112D01*
X86806399Y-159918112D01*
X86806399Y-160102290D01*
X86842331Y-160282930D01*
X86912813Y-160453090D01*
X87015137Y-160606229D01*
X87145371Y-160736463D01*
X87298510Y-160838787D01*
X87455124Y-160903658D01*
X87467332Y-160965029D01*
X87537814Y-161135189D01*
X87640138Y-161288328D01*
X87770372Y-161418562D01*
X87923511Y-161520886D01*
X88093671Y-161591368D01*
X88274311Y-161627300D01*
X88458489Y-161627300D01*
X88639129Y-161591368D01*
X88809289Y-161520886D01*
X88836489Y-161502711D01*
X90593900Y-161502711D01*
X90593900Y-161686889D01*
X90629832Y-161867529D01*
X90700314Y-162037689D01*
X90802638Y-162190828D01*
X90932872Y-162321062D01*
X91086011Y-162423386D01*
X91256171Y-162493868D01*
X91436811Y-162529800D01*
X91620989Y-162529800D01*
X91801629Y-162493868D01*
X91971789Y-162423386D01*
X92021133Y-162390416D01*
X92165511Y-162486886D01*
X92335671Y-162557368D01*
X92516311Y-162593300D01*
X92700489Y-162593300D01*
X92881129Y-162557368D01*
X93051289Y-162486886D01*
X93204428Y-162384562D01*
X93334662Y-162254328D01*
X93436986Y-162101189D01*
X93507468Y-161931029D01*
X93513238Y-161902020D01*
X93546060Y-161908549D01*
X93730238Y-161908549D01*
X93910878Y-161872617D01*
X94081038Y-161802135D01*
X94234177Y-161699811D01*
X94304277Y-161629711D01*
X99166400Y-161629711D01*
X99166400Y-161813889D01*
X99202332Y-161994529D01*
X99272814Y-162164689D01*
X99375138Y-162317828D01*
X99505372Y-162448062D01*
X99658511Y-162550386D01*
X99828671Y-162620868D01*
X100009311Y-162656800D01*
X100193489Y-162656800D01*
X100374129Y-162620868D01*
X100544289Y-162550386D01*
X100697428Y-162448062D01*
X100827662Y-162317828D01*
X100929986Y-162164689D01*
X101000468Y-161994529D01*
X101036400Y-161813889D01*
X101036400Y-161629711D01*
X101000468Y-161449071D01*
X100929986Y-161278911D01*
X100827662Y-161125772D01*
X100697428Y-160995538D01*
X100544289Y-160893214D01*
X100374129Y-160822732D01*
X100193489Y-160786800D01*
X100009311Y-160786800D01*
X99828671Y-160822732D01*
X99658511Y-160893214D01*
X99505372Y-160995538D01*
X99375138Y-161125772D01*
X99272814Y-161278911D01*
X99202332Y-161449071D01*
X99166400Y-161629711D01*
X94304277Y-161629711D01*
X94364411Y-161569577D01*
X94466735Y-161416438D01*
X94537217Y-161246278D01*
X94543523Y-161214578D01*
X94642011Y-161280386D01*
X94812171Y-161350868D01*
X94992811Y-161386800D01*
X95176989Y-161386800D01*
X95357629Y-161350868D01*
X95527789Y-161280386D01*
X95680928Y-161178062D01*
X95811162Y-161047828D01*
X95913486Y-160894689D01*
X95983968Y-160724529D01*
X95998089Y-160653539D01*
X96019281Y-160760078D01*
X96089763Y-160930238D01*
X96192087Y-161083377D01*
X96322321Y-161213611D01*
X96475460Y-161315935D01*
X96645620Y-161386417D01*
X96826260Y-161422349D01*
X97010438Y-161422349D01*
X97191078Y-161386417D01*
X97361238Y-161315935D01*
X97514377Y-161213611D01*
X97644611Y-161083377D01*
X97746935Y-160930238D01*
X97817417Y-160760078D01*
X97853349Y-160579438D01*
X97853349Y-160395260D01*
X97841277Y-160334570D01*
X97851138Y-160349328D01*
X97981372Y-160479562D01*
X98134511Y-160581886D01*
X98304671Y-160652368D01*
X98485311Y-160688300D01*
X98669489Y-160688300D01*
X98850129Y-160652368D01*
X99020289Y-160581886D01*
X99173428Y-160479562D01*
X99303662Y-160349328D01*
X99405986Y-160196189D01*
X99476468Y-160026029D01*
X99512400Y-159845389D01*
X99512400Y-159661211D01*
X99476468Y-159480571D01*
X99405986Y-159310411D01*
X99303662Y-159157272D01*
X99173428Y-159027038D01*
X99020289Y-158924714D01*
X98850129Y-158854232D01*
X98669489Y-158818300D01*
X98485311Y-158818300D01*
X98304671Y-158854232D01*
X98134511Y-158924714D01*
X97981372Y-159027038D01*
X97851138Y-159157272D01*
X97748814Y-159310411D01*
X97678332Y-159480571D01*
X97642400Y-159661211D01*
X97642400Y-159845389D01*
X97654472Y-159906079D01*
X97644611Y-159891321D01*
X97514377Y-159761087D01*
X97361238Y-159658763D01*
X97191078Y-159588281D01*
X97010438Y-159552349D01*
X96826260Y-159552349D01*
X96645620Y-159588281D01*
X96475460Y-159658763D01*
X96322321Y-159761087D01*
X96192087Y-159891321D01*
X96089763Y-160044460D01*
X96019281Y-160214620D01*
X96005160Y-160285610D01*
X95983968Y-160179071D01*
X95913486Y-160008911D01*
X95811162Y-159855772D01*
X95680928Y-159725538D01*
X95527789Y-159623214D01*
X95357629Y-159552732D01*
X95176989Y-159516800D01*
X94992811Y-159516800D01*
X94812171Y-159552732D01*
X94642011Y-159623214D01*
X94488872Y-159725538D01*
X94358638Y-159855772D01*
X94256314Y-160008911D01*
X94185832Y-160179071D01*
X94179526Y-160210771D01*
X94081038Y-160144963D01*
X93910878Y-160074481D01*
X93730238Y-160038549D01*
X93546060Y-160038549D01*
X93365420Y-160074481D01*
X93195260Y-160144963D01*
X93042121Y-160247287D01*
X92911887Y-160377521D01*
X92809563Y-160530660D01*
X92739081Y-160700820D01*
X92733311Y-160729829D01*
X92700489Y-160723300D01*
X92516311Y-160723300D01*
X92430651Y-160740339D01*
X92551112Y-160619878D01*
X92653436Y-160466739D01*
X92723918Y-160296579D01*
X92759850Y-160115939D01*
X92759850Y-159931761D01*
X92723918Y-159751121D01*
X92653436Y-159580961D01*
X92551112Y-159427822D01*
X92420878Y-159297588D01*
X92267739Y-159195264D01*
X92097579Y-159124782D01*
X91916939Y-159088850D01*
X91732761Y-159088850D01*
X91552121Y-159124782D01*
X91381961Y-159195264D01*
X91228822Y-159297588D01*
X91098588Y-159427822D01*
X90996264Y-159580961D01*
X90925782Y-159751121D01*
X90889850Y-159931761D01*
X90889850Y-160115939D01*
X90925782Y-160296579D01*
X90996264Y-160466739D01*
X91098588Y-160619878D01*
X91198380Y-160719670D01*
X91086011Y-160766214D01*
X90932872Y-160868538D01*
X90802638Y-160998772D01*
X90700314Y-161151911D01*
X90629832Y-161322071D01*
X90593900Y-161502711D01*
X88836489Y-161502711D01*
X88962428Y-161418562D01*
X89092662Y-161288328D01*
X89194986Y-161135189D01*
X89265468Y-160965029D01*
X89301400Y-160784389D01*
X89301400Y-160600211D01*
X89265468Y-160419571D01*
X89194986Y-160249411D01*
X89092662Y-160096272D01*
X88962428Y-159966038D01*
X88809289Y-159863714D01*
X88652675Y-159798843D01*
X88640467Y-159737472D01*
X88569985Y-159567312D01*
X88467661Y-159414173D01*
X88337427Y-159283939D01*
X88184288Y-159181615D01*
X88014128Y-159111133D01*
X87833488Y-159075201D01*
X87649310Y-159075201D01*
X87468670Y-159111133D01*
X87298510Y-159181615D01*
X87145371Y-159283939D01*
X87015137Y-159414173D01*
X86912813Y-159567312D01*
X86842331Y-159737472D01*
X86806399Y-159918112D01*
X86197480Y-159918112D01*
X86089129Y-159873232D01*
X86022245Y-159859928D01*
X86013350Y-159838453D01*
X85911026Y-159685314D01*
X85780792Y-159555080D01*
X85627653Y-159452756D01*
X85457493Y-159382274D01*
X85276853Y-159346342D01*
X85092675Y-159346342D01*
X84912035Y-159382274D01*
X84741875Y-159452756D01*
X84588736Y-159555080D01*
X84458502Y-159685314D01*
X84356178Y-159838453D01*
X84285696Y-160008613D01*
X84249764Y-160189253D01*
X83303034Y-160189253D01*
X83293967Y-160143672D01*
X83223485Y-159973512D01*
X83121161Y-159820373D01*
X82990927Y-159690139D01*
X82837788Y-159587815D01*
X82667628Y-159517333D01*
X82486988Y-159481401D01*
X82302810Y-159481401D01*
X82122170Y-159517333D01*
X81952010Y-159587815D01*
X81798871Y-159690139D01*
X81668637Y-159820373D01*
X81566313Y-159973512D01*
X81495831Y-160143672D01*
X81459899Y-160324312D01*
X80648758Y-160324312D01*
X80625629Y-160314732D01*
X80444989Y-160278800D01*
X80260811Y-160278800D01*
X80080171Y-160314732D01*
X79910011Y-160385214D01*
X79781297Y-160471218D01*
X79734986Y-160359411D01*
X79632662Y-160206272D01*
X79502428Y-160076038D01*
X79349289Y-159973714D01*
X79179129Y-159903232D01*
X78998489Y-159867300D01*
X78814311Y-159867300D01*
X78633671Y-159903232D01*
X78463511Y-159973714D01*
X78310372Y-160076038D01*
X78180138Y-160206272D01*
X78077814Y-160359411D01*
X78007332Y-160529571D01*
X77971400Y-160710211D01*
X77711400Y-160710211D01*
X77711400Y-160700211D01*
X77675468Y-160519571D01*
X77604986Y-160349411D01*
X77502662Y-160196272D01*
X77372428Y-160066038D01*
X77219289Y-159963714D01*
X77049129Y-159893232D01*
X76868489Y-159857300D01*
X76684311Y-159857300D01*
X76503671Y-159893232D01*
X76333511Y-159963714D01*
X76180372Y-160066038D01*
X76050138Y-160196272D01*
X75947814Y-160349411D01*
X75877332Y-160519571D01*
X75841400Y-160700211D01*
X75009165Y-160700211D01*
X74954986Y-160569411D01*
X74852662Y-160416272D01*
X74722428Y-160286038D01*
X74569289Y-160183714D01*
X74399129Y-160113232D01*
X74218489Y-160077300D01*
X74034311Y-160077300D01*
X73853671Y-160113232D01*
X73683511Y-160183714D01*
X73530372Y-160286038D01*
X73400138Y-160416272D01*
X73297814Y-160569411D01*
X73227332Y-160739571D01*
X73191400Y-160920211D01*
X72297531Y-160920211D01*
X72285468Y-160859571D01*
X72214986Y-160689411D01*
X72112662Y-160536272D01*
X71982428Y-160406038D01*
X71829289Y-160303714D01*
X71659129Y-160233232D01*
X71478489Y-160197300D01*
X71294311Y-160197300D01*
X71113671Y-160233232D01*
X70943511Y-160303714D01*
X70790372Y-160406038D01*
X70660138Y-160536272D01*
X70557814Y-160689411D01*
X70487332Y-160859571D01*
X70451400Y-161040211D01*
X68766780Y-161040211D01*
X68696662Y-160935272D01*
X68566428Y-160805038D01*
X68413289Y-160702714D01*
X68243129Y-160632232D01*
X68062489Y-160596300D01*
X67878311Y-160596300D01*
X67697671Y-160632232D01*
X67527511Y-160702714D01*
X67374372Y-160805038D01*
X67244138Y-160935272D01*
X67141814Y-161088411D01*
X67071332Y-161258571D01*
X67035400Y-161439211D01*
X58464900Y-161439211D01*
X58464900Y-159240211D01*
X62021400Y-159240211D01*
X62021400Y-159424389D01*
X62057332Y-159605029D01*
X62127814Y-159775189D01*
X62230138Y-159928328D01*
X62360372Y-160058562D01*
X62513511Y-160160886D01*
X62683671Y-160231368D01*
X62864311Y-160267300D01*
X63048489Y-160267300D01*
X63229129Y-160231368D01*
X63399289Y-160160886D01*
X63552428Y-160058562D01*
X63682662Y-159928328D01*
X63784986Y-159775189D01*
X63855468Y-159605029D01*
X63891400Y-159424389D01*
X63891400Y-159290211D01*
X64501400Y-159290211D01*
X64501400Y-159474389D01*
X64537332Y-159655029D01*
X64607814Y-159825189D01*
X64710138Y-159978328D01*
X64840372Y-160108562D01*
X64993511Y-160210886D01*
X65163671Y-160281368D01*
X65344311Y-160317300D01*
X65528489Y-160317300D01*
X65709129Y-160281368D01*
X65879289Y-160210886D01*
X66032428Y-160108562D01*
X66162662Y-159978328D01*
X66264986Y-159825189D01*
X66335468Y-159655029D01*
X66371400Y-159474389D01*
X66371400Y-159290211D01*
X66356780Y-159216711D01*
X69638900Y-159216711D01*
X69638900Y-159400889D01*
X69674832Y-159581529D01*
X69745314Y-159751689D01*
X69847638Y-159904828D01*
X69977872Y-160035062D01*
X70131011Y-160137386D01*
X70301171Y-160207868D01*
X70481811Y-160243800D01*
X70665989Y-160243800D01*
X70846629Y-160207868D01*
X71016789Y-160137386D01*
X71169928Y-160035062D01*
X71300162Y-159904828D01*
X71402486Y-159751689D01*
X71472968Y-159581529D01*
X71508900Y-159400889D01*
X71508900Y-159216711D01*
X71472968Y-159036071D01*
X71402486Y-158865911D01*
X71300162Y-158712772D01*
X71169928Y-158582538D01*
X71016789Y-158480214D01*
X70846629Y-158409732D01*
X70665989Y-158373800D01*
X70481811Y-158373800D01*
X70301171Y-158409732D01*
X70131011Y-158480214D01*
X69977872Y-158582538D01*
X69847638Y-158712772D01*
X69745314Y-158865911D01*
X69674832Y-159036071D01*
X69638900Y-159216711D01*
X66356780Y-159216711D01*
X66335468Y-159109571D01*
X66264986Y-158939411D01*
X66162662Y-158786272D01*
X66032428Y-158656038D01*
X65879289Y-158553714D01*
X65709129Y-158483232D01*
X65528489Y-158447300D01*
X65344311Y-158447300D01*
X65163671Y-158483232D01*
X64993511Y-158553714D01*
X64840372Y-158656038D01*
X64710138Y-158786272D01*
X64607814Y-158939411D01*
X64537332Y-159109571D01*
X64501400Y-159290211D01*
X63891400Y-159290211D01*
X63891400Y-159240211D01*
X63855468Y-159059571D01*
X63784986Y-158889411D01*
X63682662Y-158736272D01*
X63552428Y-158606038D01*
X63399289Y-158503714D01*
X63229129Y-158433232D01*
X63048489Y-158397300D01*
X62864311Y-158397300D01*
X62683671Y-158433232D01*
X62513511Y-158503714D01*
X62360372Y-158606038D01*
X62230138Y-158736272D01*
X62127814Y-158889411D01*
X62057332Y-159059571D01*
X62021400Y-159240211D01*
X58464900Y-159240211D01*
X58464900Y-157952382D01*
X72566399Y-157952382D01*
X72566399Y-158136560D01*
X72602331Y-158317200D01*
X72672813Y-158487360D01*
X72775137Y-158640499D01*
X72905371Y-158770733D01*
X73058510Y-158873057D01*
X73228670Y-158943539D01*
X73409310Y-158979471D01*
X73593488Y-158979471D01*
X73774128Y-158943539D01*
X73944288Y-158873057D01*
X74097427Y-158770733D01*
X74227661Y-158640499D01*
X74329985Y-158487360D01*
X74400467Y-158317200D01*
X74435553Y-158140811D01*
X74718900Y-158140811D01*
X74718900Y-158324989D01*
X74754832Y-158505629D01*
X74825314Y-158675789D01*
X74927638Y-158828928D01*
X75057872Y-158959162D01*
X75211011Y-159061486D01*
X75381171Y-159131968D01*
X75561811Y-159167900D01*
X75745989Y-159167900D01*
X75926629Y-159131968D01*
X76096789Y-159061486D01*
X76249928Y-158959162D01*
X76380162Y-158828928D01*
X76482486Y-158675789D01*
X76552968Y-158505629D01*
X76588900Y-158324989D01*
X76588900Y-158140811D01*
X76552968Y-157960171D01*
X76542091Y-157933911D01*
X78681400Y-157933911D01*
X78681400Y-158118089D01*
X78717332Y-158298729D01*
X78787814Y-158468889D01*
X78890138Y-158622028D01*
X79020372Y-158752262D01*
X79173511Y-158854586D01*
X79343671Y-158925068D01*
X79524311Y-158961000D01*
X79708489Y-158961000D01*
X79889129Y-158925068D01*
X80059289Y-158854586D01*
X80192075Y-158765861D01*
X99926400Y-158765861D01*
X99926400Y-158950039D01*
X99962332Y-159130679D01*
X100032814Y-159300839D01*
X100135138Y-159453978D01*
X100265372Y-159584212D01*
X100418511Y-159686536D01*
X100588671Y-159757018D01*
X100769311Y-159792950D01*
X100953489Y-159792950D01*
X101134129Y-159757018D01*
X101304289Y-159686536D01*
X101457428Y-159584212D01*
X101587662Y-159453978D01*
X101601400Y-159433418D01*
X101601400Y-159544389D01*
X101637332Y-159725029D01*
X101707814Y-159895189D01*
X101810138Y-160048328D01*
X101940372Y-160178562D01*
X102093511Y-160280886D01*
X102263671Y-160351368D01*
X102263981Y-160351430D01*
X102233310Y-160505621D01*
X102233310Y-160689799D01*
X102269242Y-160870439D01*
X102339724Y-161040599D01*
X102442048Y-161193738D01*
X102572282Y-161323972D01*
X102725421Y-161426296D01*
X102895581Y-161496778D01*
X103076221Y-161532710D01*
X103260399Y-161532710D01*
X103441039Y-161496778D01*
X103611199Y-161426296D01*
X103764338Y-161323972D01*
X103818099Y-161270211D01*
X104171400Y-161270211D01*
X104171400Y-161454389D01*
X104207332Y-161635029D01*
X104277814Y-161805189D01*
X104380138Y-161958328D01*
X104510372Y-162088562D01*
X104663511Y-162190886D01*
X104833671Y-162261368D01*
X105014311Y-162297300D01*
X105198489Y-162297300D01*
X105379129Y-162261368D01*
X105549289Y-162190886D01*
X105702428Y-162088562D01*
X105832662Y-161958328D01*
X105934986Y-161805189D01*
X106005468Y-161635029D01*
X106041400Y-161454389D01*
X106041400Y-161270211D01*
X106005468Y-161089571D01*
X105934986Y-160919411D01*
X105917816Y-160893714D01*
X106084049Y-160860648D01*
X106254209Y-160790166D01*
X106407348Y-160687842D01*
X106537582Y-160557608D01*
X106615418Y-160441119D01*
X106637814Y-160495189D01*
X106740138Y-160648328D01*
X106870372Y-160778562D01*
X107023511Y-160880886D01*
X107193671Y-160951368D01*
X107374311Y-160987300D01*
X107558489Y-160987300D01*
X107739129Y-160951368D01*
X107909289Y-160880886D01*
X108062428Y-160778562D01*
X108073600Y-160767390D01*
X108140372Y-160834162D01*
X108293511Y-160936486D01*
X108463671Y-161006968D01*
X108644311Y-161042900D01*
X108828489Y-161042900D01*
X109009129Y-161006968D01*
X109179289Y-160936486D01*
X109332428Y-160834162D01*
X109434428Y-160732162D01*
X109497814Y-160885189D01*
X109600138Y-161038328D01*
X109730372Y-161168562D01*
X109883511Y-161270886D01*
X110053671Y-161341368D01*
X110234311Y-161377300D01*
X110418489Y-161377300D01*
X110599129Y-161341368D01*
X110769289Y-161270886D01*
X110922428Y-161168562D01*
X111052662Y-161038328D01*
X111154986Y-160885189D01*
X111225468Y-160715029D01*
X111261400Y-160534389D01*
X111261400Y-160350211D01*
X111225468Y-160169571D01*
X111154986Y-159999411D01*
X111052662Y-159846272D01*
X110922428Y-159716038D01*
X110769289Y-159613714D01*
X110599129Y-159543232D01*
X110418489Y-159507300D01*
X110234311Y-159507300D01*
X110053671Y-159543232D01*
X109883511Y-159613714D01*
X109730372Y-159716038D01*
X109628372Y-159818038D01*
X109564986Y-159665011D01*
X109462662Y-159511872D01*
X109332428Y-159381638D01*
X109179289Y-159279314D01*
X109009129Y-159208832D01*
X108828489Y-159172900D01*
X108644311Y-159172900D01*
X108463671Y-159208832D01*
X108293511Y-159279314D01*
X108140372Y-159381638D01*
X108129200Y-159392810D01*
X108062428Y-159326038D01*
X107909289Y-159223714D01*
X107739129Y-159153232D01*
X107558489Y-159117300D01*
X107374311Y-159117300D01*
X107193671Y-159153232D01*
X107023511Y-159223714D01*
X106870372Y-159326038D01*
X106740138Y-159456272D01*
X106662302Y-159572761D01*
X106639906Y-159518691D01*
X106537582Y-159365552D01*
X106407348Y-159235318D01*
X106254209Y-159132994D01*
X106084049Y-159062512D01*
X105903409Y-159026580D01*
X105719231Y-159026580D01*
X105538591Y-159062512D01*
X105368431Y-159132994D01*
X105215292Y-159235318D01*
X105085058Y-159365552D01*
X104982734Y-159518691D01*
X104912252Y-159688851D01*
X104876320Y-159869491D01*
X104876320Y-160053669D01*
X104912252Y-160234309D01*
X104982734Y-160404469D01*
X104999904Y-160430166D01*
X104833671Y-160463232D01*
X104663511Y-160533714D01*
X104510372Y-160636038D01*
X104380138Y-160766272D01*
X104277814Y-160919411D01*
X104207332Y-161089571D01*
X104171400Y-161270211D01*
X103818099Y-161270211D01*
X103894572Y-161193738D01*
X103996896Y-161040599D01*
X104067378Y-160870439D01*
X104103310Y-160689799D01*
X104103310Y-160505621D01*
X104067378Y-160324981D01*
X103996896Y-160154821D01*
X103894572Y-160001682D01*
X103764338Y-159871448D01*
X103611199Y-159769124D01*
X103441039Y-159698642D01*
X103440729Y-159698580D01*
X103471400Y-159544389D01*
X103471400Y-159360211D01*
X103435468Y-159179571D01*
X103364986Y-159009411D01*
X103262662Y-158856272D01*
X103132428Y-158726038D01*
X102979289Y-158623714D01*
X102809129Y-158553232D01*
X102628489Y-158517300D01*
X102444311Y-158517300D01*
X102263671Y-158553232D01*
X102093511Y-158623714D01*
X101940372Y-158726038D01*
X101810138Y-158856272D01*
X101796400Y-158876832D01*
X101796400Y-158765861D01*
X101760468Y-158585221D01*
X101689986Y-158415061D01*
X101587662Y-158261922D01*
X101457428Y-158131688D01*
X101304289Y-158029364D01*
X101134129Y-157958882D01*
X100953489Y-157922950D01*
X100769311Y-157922950D01*
X100588671Y-157958882D01*
X100418511Y-158029364D01*
X100265372Y-158131688D01*
X100135138Y-158261922D01*
X100032814Y-158415061D01*
X99962332Y-158585221D01*
X99926400Y-158765861D01*
X80192075Y-158765861D01*
X80212428Y-158752262D01*
X80342662Y-158622028D01*
X80444986Y-158468889D01*
X80515468Y-158298729D01*
X80551400Y-158118089D01*
X80551400Y-157933911D01*
X80515468Y-157753271D01*
X80444986Y-157583111D01*
X80342662Y-157429972D01*
X80212428Y-157299738D01*
X80081435Y-157212211D01*
X98440400Y-157212211D01*
X98440400Y-157396389D01*
X98476332Y-157577029D01*
X98546814Y-157747189D01*
X98649138Y-157900328D01*
X98779372Y-158030562D01*
X98932511Y-158132886D01*
X99102671Y-158203368D01*
X99283311Y-158239300D01*
X99467489Y-158239300D01*
X99648129Y-158203368D01*
X99818289Y-158132886D01*
X99971428Y-158030562D01*
X100101662Y-157900328D01*
X100121585Y-157870511D01*
X110151900Y-157870511D01*
X110151900Y-158054689D01*
X110187832Y-158235329D01*
X110258314Y-158405489D01*
X110360638Y-158558628D01*
X110490872Y-158688862D01*
X110644011Y-158791186D01*
X110814171Y-158861668D01*
X110994811Y-158897600D01*
X111178989Y-158897600D01*
X111359629Y-158861668D01*
X111529789Y-158791186D01*
X111682928Y-158688862D01*
X111813162Y-158558628D01*
X111915486Y-158405489D01*
X111985968Y-158235329D01*
X112021900Y-158054689D01*
X112021900Y-157870511D01*
X111985968Y-157689871D01*
X111915486Y-157519711D01*
X111813162Y-157366572D01*
X111682928Y-157236338D01*
X111529789Y-157134014D01*
X111359629Y-157063532D01*
X111178989Y-157027600D01*
X110994811Y-157027600D01*
X110814171Y-157063532D01*
X110644011Y-157134014D01*
X110490872Y-157236338D01*
X110360638Y-157366572D01*
X110258314Y-157519711D01*
X110187832Y-157689871D01*
X110151900Y-157870511D01*
X100121585Y-157870511D01*
X100203986Y-157747189D01*
X100274468Y-157577029D01*
X100310400Y-157396389D01*
X100310400Y-157212211D01*
X100274468Y-157031571D01*
X100203986Y-156861411D01*
X100101662Y-156708272D01*
X99971428Y-156578038D01*
X99818289Y-156475714D01*
X99648129Y-156405232D01*
X99467489Y-156369300D01*
X99283311Y-156369300D01*
X99102671Y-156405232D01*
X98932511Y-156475714D01*
X98779372Y-156578038D01*
X98649138Y-156708272D01*
X98546814Y-156861411D01*
X98476332Y-157031571D01*
X98440400Y-157212211D01*
X80081435Y-157212211D01*
X80059289Y-157197414D01*
X79889129Y-157126932D01*
X79708489Y-157091000D01*
X79524311Y-157091000D01*
X79343671Y-157126932D01*
X79173511Y-157197414D01*
X79020372Y-157299738D01*
X78890138Y-157429972D01*
X78787814Y-157583111D01*
X78717332Y-157753271D01*
X78681400Y-157933911D01*
X76542091Y-157933911D01*
X76482486Y-157790011D01*
X76380162Y-157636872D01*
X76249928Y-157506638D01*
X76096789Y-157404314D01*
X75926629Y-157333832D01*
X75745989Y-157297900D01*
X75561811Y-157297900D01*
X75381171Y-157333832D01*
X75211011Y-157404314D01*
X75057872Y-157506638D01*
X74927638Y-157636872D01*
X74825314Y-157790011D01*
X74754832Y-157960171D01*
X74718900Y-158140811D01*
X74435553Y-158140811D01*
X74436399Y-158136560D01*
X74436399Y-157952382D01*
X74400467Y-157771742D01*
X74329985Y-157601582D01*
X74227661Y-157448443D01*
X74097427Y-157318209D01*
X73944288Y-157215885D01*
X73774128Y-157145403D01*
X73593488Y-157109471D01*
X73409310Y-157109471D01*
X73228670Y-157145403D01*
X73058510Y-157215885D01*
X72905371Y-157318209D01*
X72775137Y-157448443D01*
X72672813Y-157601582D01*
X72602331Y-157771742D01*
X72566399Y-157952382D01*
X58464900Y-157952382D01*
X58464900Y-156702111D01*
X77258900Y-156702111D01*
X77258900Y-156886289D01*
X77294832Y-157066929D01*
X77365314Y-157237089D01*
X77467638Y-157390228D01*
X77597872Y-157520462D01*
X77751011Y-157622786D01*
X77921171Y-157693268D01*
X78101811Y-157729200D01*
X78285989Y-157729200D01*
X78466629Y-157693268D01*
X78636789Y-157622786D01*
X78789928Y-157520462D01*
X78920162Y-157390228D01*
X79022486Y-157237089D01*
X79092968Y-157066929D01*
X79128900Y-156886289D01*
X79128900Y-156702111D01*
X79092968Y-156521471D01*
X79022486Y-156351311D01*
X78920162Y-156198172D01*
X78789928Y-156067938D01*
X78636789Y-155965614D01*
X78466629Y-155895132D01*
X78285989Y-155859200D01*
X78101811Y-155859200D01*
X77921171Y-155895132D01*
X77751011Y-155965614D01*
X77597872Y-156067938D01*
X77467638Y-156198172D01*
X77365314Y-156351311D01*
X77294832Y-156521471D01*
X77258900Y-156702111D01*
X58464900Y-156702111D01*
X58464900Y-155656761D01*
X67424850Y-155656761D01*
X67424850Y-155840939D01*
X67460782Y-156021579D01*
X67531264Y-156191739D01*
X67633588Y-156344878D01*
X67763822Y-156475112D01*
X67916961Y-156577436D01*
X68087121Y-156647918D01*
X68267761Y-156683850D01*
X68451939Y-156683850D01*
X68632579Y-156647918D01*
X68802739Y-156577436D01*
X68955878Y-156475112D01*
X69086112Y-156344878D01*
X69188436Y-156191739D01*
X69258918Y-156021579D01*
X69294850Y-155840939D01*
X69294850Y-155656761D01*
X69258918Y-155476121D01*
X69188436Y-155305961D01*
X69086112Y-155152822D01*
X68955878Y-155022588D01*
X68802739Y-154920264D01*
X68632579Y-154849782D01*
X68451939Y-154813850D01*
X68267761Y-154813850D01*
X68087121Y-154849782D01*
X67916961Y-154920264D01*
X67763822Y-155022588D01*
X67633588Y-155152822D01*
X67531264Y-155305961D01*
X67460782Y-155476121D01*
X67424850Y-155656761D01*
X58464900Y-155656761D01*
X58464900Y-147775565D01*
X86537900Y-147775565D01*
X86537900Y-148058235D01*
X86593047Y-148335474D01*
X86701220Y-148596627D01*
X86858263Y-148831659D01*
X87058141Y-149031537D01*
X87293173Y-149188580D01*
X87554326Y-149296753D01*
X87831565Y-149351900D01*
X88114235Y-149351900D01*
X88391474Y-149296753D01*
X88652627Y-149188580D01*
X88887659Y-149031537D01*
X89087537Y-148831659D01*
X89244580Y-148596627D01*
X89352753Y-148335474D01*
X89407900Y-148058235D01*
X89407900Y-147775565D01*
X89352753Y-147498326D01*
X89244580Y-147237173D01*
X89087537Y-147002141D01*
X88887659Y-146802263D01*
X88652627Y-146645220D01*
X88391474Y-146537047D01*
X88114235Y-146481900D01*
X87831565Y-146481900D01*
X87554326Y-146537047D01*
X87293173Y-146645220D01*
X87058141Y-146802263D01*
X86858263Y-147002141D01*
X86701220Y-147237173D01*
X86593047Y-147498326D01*
X86537900Y-147775565D01*
X58464900Y-147775565D01*
X58464900Y-142568565D01*
X64897100Y-142568565D01*
X64897100Y-142851235D01*
X64952247Y-143128474D01*
X65060420Y-143389627D01*
X65217463Y-143624659D01*
X65417341Y-143824537D01*
X65652373Y-143981580D01*
X65913526Y-144089753D01*
X66190765Y-144144900D01*
X66473435Y-144144900D01*
X66750674Y-144089753D01*
X67011827Y-143981580D01*
X67246859Y-143824537D01*
X67446737Y-143624659D01*
X67603780Y-143389627D01*
X67711953Y-143128474D01*
X67767100Y-142851235D01*
X67767100Y-142568565D01*
X67711953Y-142291326D01*
X67603780Y-142030173D01*
X67446737Y-141795141D01*
X67246859Y-141595263D01*
X67011827Y-141438220D01*
X66750674Y-141330047D01*
X66473435Y-141274900D01*
X66190765Y-141274900D01*
X65913526Y-141330047D01*
X65652373Y-141438220D01*
X65417341Y-141595263D01*
X65217463Y-141795141D01*
X65060420Y-142030173D01*
X64952247Y-142291326D01*
X64897100Y-142568565D01*
X58464900Y-142568565D01*
X58464900Y-140357069D01*
X58468334Y-140322099D01*
X58461769Y-140255636D01*
X58454627Y-140183116D01*
X58454597Y-140183016D01*
X58454587Y-140182919D01*
X58435303Y-140119415D01*
X58414028Y-140049280D01*
X58413977Y-140049185D01*
X58413950Y-140049095D01*
X58382370Y-139990051D01*
X58348100Y-139925937D01*
X58348035Y-139925858D01*
X58347988Y-139925770D01*
X58304825Y-139873207D01*
X58259375Y-139817825D01*
X58259294Y-139817759D01*
X58259232Y-139817683D01*
X58207504Y-139775256D01*
X58151263Y-139729100D01*
X58151169Y-139729050D01*
X58151095Y-139728989D01*
X58092478Y-139697679D01*
X58027920Y-139663172D01*
X58027819Y-139663141D01*
X58027734Y-139663096D01*
X57963257Y-139643557D01*
X57894084Y-139622573D01*
X57893981Y-139622563D01*
X57893886Y-139622534D01*
X57826798Y-139615946D01*
X57754900Y-139608865D01*
X57719915Y-139612311D01*
X55980400Y-139612800D01*
X55980400Y-138522264D01*
X58253341Y-138522264D01*
X58473307Y-138892301D01*
X58938627Y-139136172D01*
X59442583Y-139284578D01*
X59965808Y-139331815D01*
X60488195Y-139276069D01*
X60989669Y-139119481D01*
X61414693Y-138892301D01*
X61634659Y-138522264D01*
X112863341Y-138522264D01*
X113083307Y-138892301D01*
X113548627Y-139136172D01*
X114052583Y-139284578D01*
X114575808Y-139331815D01*
X115098195Y-139276069D01*
X115599669Y-139119481D01*
X116024693Y-138892301D01*
X116244659Y-138522264D01*
X114554000Y-136831605D01*
X112863341Y-138522264D01*
X61634659Y-138522264D01*
X59944000Y-136831605D01*
X58253341Y-138522264D01*
X55980400Y-138522264D01*
X55980400Y-136673808D01*
X57264185Y-136673808D01*
X57319931Y-137196195D01*
X57476519Y-137697669D01*
X57703699Y-138122693D01*
X58073736Y-138342659D01*
X59764395Y-136652000D01*
X60123605Y-136652000D01*
X61814264Y-138342659D01*
X62184301Y-138122693D01*
X62428172Y-137657373D01*
X62576578Y-137153417D01*
X62619877Y-136673808D01*
X111874185Y-136673808D01*
X111929931Y-137196195D01*
X112086519Y-137697669D01*
X112313699Y-138122693D01*
X112683736Y-138342659D01*
X114374395Y-136652000D01*
X114733605Y-136652000D01*
X116424264Y-138342659D01*
X116794301Y-138122693D01*
X117038172Y-137657373D01*
X117186578Y-137153417D01*
X117233815Y-136630192D01*
X117178069Y-136107805D01*
X117021481Y-135606331D01*
X116794301Y-135181307D01*
X116424264Y-134961341D01*
X114733605Y-136652000D01*
X114374395Y-136652000D01*
X112683736Y-134961341D01*
X112313699Y-135181307D01*
X112069828Y-135646627D01*
X111921422Y-136150583D01*
X111874185Y-136673808D01*
X62619877Y-136673808D01*
X62623815Y-136630192D01*
X62568069Y-136107805D01*
X62411481Y-135606331D01*
X62184301Y-135181307D01*
X61814264Y-134961341D01*
X60123605Y-136652000D01*
X59764395Y-136652000D01*
X58073736Y-134961341D01*
X57703699Y-135181307D01*
X57459828Y-135646627D01*
X57311422Y-136150583D01*
X57264185Y-136673808D01*
X55980400Y-136673808D01*
X55980400Y-134781736D01*
X58253341Y-134781736D01*
X59944000Y-136472395D01*
X61634659Y-134781736D01*
X112863341Y-134781736D01*
X114554000Y-136472395D01*
X116244659Y-134781736D01*
X116024693Y-134411699D01*
X115559373Y-134167828D01*
X115055417Y-134019422D01*
X114532192Y-133972185D01*
X114009805Y-134027931D01*
X113508331Y-134184519D01*
X113083307Y-134411699D01*
X112863341Y-134781736D01*
X61634659Y-134781736D01*
X61414693Y-134411699D01*
X60949373Y-134167828D01*
X60445417Y-134019422D01*
X59922192Y-133972185D01*
X59399805Y-134027931D01*
X58898331Y-134184519D01*
X58473307Y-134411699D01*
X58253341Y-134781736D01*
X55980400Y-134781736D01*
X55980400Y-129909200D01*
X62392928Y-129909200D01*
X62392928Y-131609200D01*
X62405188Y-131733682D01*
X62441498Y-131853380D01*
X62500463Y-131963694D01*
X62579815Y-132060385D01*
X62676506Y-132139737D01*
X62786820Y-132198702D01*
X62906518Y-132235012D01*
X63031000Y-132247272D01*
X64731000Y-132247272D01*
X64855482Y-132235012D01*
X64975180Y-132198702D01*
X65085494Y-132139737D01*
X65182185Y-132060385D01*
X65261537Y-131963694D01*
X65320502Y-131853380D01*
X65342513Y-131780820D01*
X65474368Y-131912675D01*
X65717589Y-132075190D01*
X65987842Y-132187132D01*
X66274740Y-132244200D01*
X66567260Y-132244200D01*
X66854158Y-132187132D01*
X67124411Y-132075190D01*
X67367632Y-131912675D01*
X67574475Y-131705832D01*
X67691000Y-131531440D01*
X67807525Y-131705832D01*
X68014368Y-131912675D01*
X68257589Y-132075190D01*
X68527842Y-132187132D01*
X68814740Y-132244200D01*
X69107260Y-132244200D01*
X69394158Y-132187132D01*
X69664411Y-132075190D01*
X69907632Y-131912675D01*
X70114475Y-131705832D01*
X70231000Y-131531440D01*
X70347525Y-131705832D01*
X70554368Y-131912675D01*
X70797589Y-132075190D01*
X71067842Y-132187132D01*
X71354740Y-132244200D01*
X71647260Y-132244200D01*
X71934158Y-132187132D01*
X72204411Y-132075190D01*
X72447632Y-131912675D01*
X72654475Y-131705832D01*
X72771000Y-131531440D01*
X72887525Y-131705832D01*
X73094368Y-131912675D01*
X73337589Y-132075190D01*
X73607842Y-132187132D01*
X73894740Y-132244200D01*
X74187260Y-132244200D01*
X74474158Y-132187132D01*
X74744411Y-132075190D01*
X74987632Y-131912675D01*
X75194475Y-131705832D01*
X75311000Y-131531440D01*
X75427525Y-131705832D01*
X75634368Y-131912675D01*
X75877589Y-132075190D01*
X76147842Y-132187132D01*
X76434740Y-132244200D01*
X76727260Y-132244200D01*
X77014158Y-132187132D01*
X77284411Y-132075190D01*
X77527632Y-131912675D01*
X77734475Y-131705832D01*
X77851000Y-131531440D01*
X77967525Y-131705832D01*
X78174368Y-131912675D01*
X78417589Y-132075190D01*
X78687842Y-132187132D01*
X78974740Y-132244200D01*
X79267260Y-132244200D01*
X79554158Y-132187132D01*
X79824411Y-132075190D01*
X80067632Y-131912675D01*
X80274475Y-131705832D01*
X80391000Y-131531440D01*
X80507525Y-131705832D01*
X80714368Y-131912675D01*
X80957589Y-132075190D01*
X81227842Y-132187132D01*
X81514740Y-132244200D01*
X81807260Y-132244200D01*
X82094158Y-132187132D01*
X82364411Y-132075190D01*
X82607632Y-131912675D01*
X82814475Y-131705832D01*
X82931000Y-131531440D01*
X83047525Y-131705832D01*
X83254368Y-131912675D01*
X83497589Y-132075190D01*
X83767842Y-132187132D01*
X84054740Y-132244200D01*
X84347260Y-132244200D01*
X84634158Y-132187132D01*
X84904411Y-132075190D01*
X85147632Y-131912675D01*
X85354475Y-131705832D01*
X85471000Y-131531440D01*
X85587525Y-131705832D01*
X85794368Y-131912675D01*
X86037589Y-132075190D01*
X86307842Y-132187132D01*
X86594740Y-132244200D01*
X86887260Y-132244200D01*
X87174158Y-132187132D01*
X87444411Y-132075190D01*
X87687632Y-131912675D01*
X87894475Y-131705832D01*
X88011000Y-131531440D01*
X88127525Y-131705832D01*
X88334368Y-131912675D01*
X88577589Y-132075190D01*
X88847842Y-132187132D01*
X89134740Y-132244200D01*
X89427260Y-132244200D01*
X89714158Y-132187132D01*
X89984411Y-132075190D01*
X90227632Y-131912675D01*
X90434475Y-131705832D01*
X90551000Y-131531440D01*
X90667525Y-131705832D01*
X90874368Y-131912675D01*
X91117589Y-132075190D01*
X91387842Y-132187132D01*
X91674740Y-132244200D01*
X91967260Y-132244200D01*
X92254158Y-132187132D01*
X92524411Y-132075190D01*
X92767632Y-131912675D01*
X92974475Y-131705832D01*
X93091000Y-131531440D01*
X93207525Y-131705832D01*
X93414368Y-131912675D01*
X93657589Y-132075190D01*
X93927842Y-132187132D01*
X94214740Y-132244200D01*
X94507260Y-132244200D01*
X94794158Y-132187132D01*
X95064411Y-132075190D01*
X95307632Y-131912675D01*
X95514475Y-131705832D01*
X95631000Y-131531440D01*
X95747525Y-131705832D01*
X95954368Y-131912675D01*
X96197589Y-132075190D01*
X96467842Y-132187132D01*
X96754740Y-132244200D01*
X97047260Y-132244200D01*
X97334158Y-132187132D01*
X97604411Y-132075190D01*
X97847632Y-131912675D01*
X98054475Y-131705832D01*
X98171000Y-131531440D01*
X98287525Y-131705832D01*
X98494368Y-131912675D01*
X98737589Y-132075190D01*
X99007842Y-132187132D01*
X99294740Y-132244200D01*
X99587260Y-132244200D01*
X99874158Y-132187132D01*
X100144411Y-132075190D01*
X100387632Y-131912675D01*
X100594475Y-131705832D01*
X100711000Y-131531440D01*
X100827525Y-131705832D01*
X101034368Y-131912675D01*
X101277589Y-132075190D01*
X101547842Y-132187132D01*
X101834740Y-132244200D01*
X102127260Y-132244200D01*
X102414158Y-132187132D01*
X102684411Y-132075190D01*
X102927632Y-131912675D01*
X103134475Y-131705832D01*
X103251000Y-131531440D01*
X103367525Y-131705832D01*
X103574368Y-131912675D01*
X103817589Y-132075190D01*
X104087842Y-132187132D01*
X104374740Y-132244200D01*
X104667260Y-132244200D01*
X104954158Y-132187132D01*
X105224411Y-132075190D01*
X105467632Y-131912675D01*
X105674475Y-131705832D01*
X105791000Y-131531440D01*
X105907525Y-131705832D01*
X106114368Y-131912675D01*
X106357589Y-132075190D01*
X106627842Y-132187132D01*
X106914740Y-132244200D01*
X107207260Y-132244200D01*
X107494158Y-132187132D01*
X107764411Y-132075190D01*
X108007632Y-131912675D01*
X108214475Y-131705832D01*
X108331000Y-131531440D01*
X108447525Y-131705832D01*
X108654368Y-131912675D01*
X108897589Y-132075190D01*
X109167842Y-132187132D01*
X109454740Y-132244200D01*
X109747260Y-132244200D01*
X110034158Y-132187132D01*
X110304411Y-132075190D01*
X110547632Y-131912675D01*
X110754475Y-131705832D01*
X110876195Y-131523666D01*
X110945822Y-131640555D01*
X111140731Y-131856788D01*
X111374080Y-132030841D01*
X111636901Y-132156025D01*
X111784110Y-132200676D01*
X112014000Y-132079355D01*
X112014000Y-130886200D01*
X112268000Y-130886200D01*
X112268000Y-132079355D01*
X112497890Y-132200676D01*
X112645099Y-132156025D01*
X112907920Y-132030841D01*
X113141269Y-131856788D01*
X113336178Y-131640555D01*
X113485157Y-131390452D01*
X113582481Y-131116091D01*
X113461814Y-130886200D01*
X112268000Y-130886200D01*
X112014000Y-130886200D01*
X111994000Y-130886200D01*
X111994000Y-130632200D01*
X112014000Y-130632200D01*
X112014000Y-129439045D01*
X112268000Y-129439045D01*
X112268000Y-130632200D01*
X113461814Y-130632200D01*
X113582481Y-130402309D01*
X113485157Y-130127948D01*
X113336178Y-129877845D01*
X113141269Y-129661612D01*
X112907920Y-129487559D01*
X112645099Y-129362375D01*
X112497890Y-129317724D01*
X112268000Y-129439045D01*
X112014000Y-129439045D01*
X111784110Y-129317724D01*
X111636901Y-129362375D01*
X111374080Y-129487559D01*
X111140731Y-129661612D01*
X110945822Y-129877845D01*
X110876195Y-129994734D01*
X110754475Y-129812568D01*
X110547632Y-129605725D01*
X110304411Y-129443210D01*
X110034158Y-129331268D01*
X109747260Y-129274200D01*
X109454740Y-129274200D01*
X109167842Y-129331268D01*
X108897589Y-129443210D01*
X108654368Y-129605725D01*
X108447525Y-129812568D01*
X108331000Y-129986960D01*
X108214475Y-129812568D01*
X108007632Y-129605725D01*
X107764411Y-129443210D01*
X107494158Y-129331268D01*
X107207260Y-129274200D01*
X106914740Y-129274200D01*
X106627842Y-129331268D01*
X106357589Y-129443210D01*
X106114368Y-129605725D01*
X105907525Y-129812568D01*
X105791000Y-129986960D01*
X105674475Y-129812568D01*
X105467632Y-129605725D01*
X105224411Y-129443210D01*
X104954158Y-129331268D01*
X104667260Y-129274200D01*
X104374740Y-129274200D01*
X104087842Y-129331268D01*
X103817589Y-129443210D01*
X103574368Y-129605725D01*
X103367525Y-129812568D01*
X103251000Y-129986960D01*
X103134475Y-129812568D01*
X102927632Y-129605725D01*
X102684411Y-129443210D01*
X102414158Y-129331268D01*
X102127260Y-129274200D01*
X101834740Y-129274200D01*
X101547842Y-129331268D01*
X101277589Y-129443210D01*
X101034368Y-129605725D01*
X100827525Y-129812568D01*
X100711000Y-129986960D01*
X100594475Y-129812568D01*
X100387632Y-129605725D01*
X100144411Y-129443210D01*
X99874158Y-129331268D01*
X99587260Y-129274200D01*
X99294740Y-129274200D01*
X99007842Y-129331268D01*
X98737589Y-129443210D01*
X98494368Y-129605725D01*
X98287525Y-129812568D01*
X98171000Y-129986960D01*
X98054475Y-129812568D01*
X97847632Y-129605725D01*
X97604411Y-129443210D01*
X97334158Y-129331268D01*
X97047260Y-129274200D01*
X96754740Y-129274200D01*
X96467842Y-129331268D01*
X96197589Y-129443210D01*
X95954368Y-129605725D01*
X95747525Y-129812568D01*
X95631000Y-129986960D01*
X95514475Y-129812568D01*
X95307632Y-129605725D01*
X95064411Y-129443210D01*
X94794158Y-129331268D01*
X94507260Y-129274200D01*
X94214740Y-129274200D01*
X93927842Y-129331268D01*
X93657589Y-129443210D01*
X93414368Y-129605725D01*
X93207525Y-129812568D01*
X93091000Y-129986960D01*
X92974475Y-129812568D01*
X92767632Y-129605725D01*
X92524411Y-129443210D01*
X92254158Y-129331268D01*
X91967260Y-129274200D01*
X91674740Y-129274200D01*
X91387842Y-129331268D01*
X91117589Y-129443210D01*
X90874368Y-129605725D01*
X90667525Y-129812568D01*
X90551000Y-129986960D01*
X90434475Y-129812568D01*
X90227632Y-129605725D01*
X89984411Y-129443210D01*
X89714158Y-129331268D01*
X89427260Y-129274200D01*
X89134740Y-129274200D01*
X88847842Y-129331268D01*
X88577589Y-129443210D01*
X88334368Y-129605725D01*
X88127525Y-129812568D01*
X88011000Y-129986960D01*
X87894475Y-129812568D01*
X87687632Y-129605725D01*
X87444411Y-129443210D01*
X87174158Y-129331268D01*
X86887260Y-129274200D01*
X86594740Y-129274200D01*
X86307842Y-129331268D01*
X86037589Y-129443210D01*
X85794368Y-129605725D01*
X85587525Y-129812568D01*
X85471000Y-129986960D01*
X85354475Y-129812568D01*
X85147632Y-129605725D01*
X84904411Y-129443210D01*
X84634158Y-129331268D01*
X84347260Y-129274200D01*
X84054740Y-129274200D01*
X83767842Y-129331268D01*
X83497589Y-129443210D01*
X83254368Y-129605725D01*
X83047525Y-129812568D01*
X82931000Y-129986960D01*
X82814475Y-129812568D01*
X82607632Y-129605725D01*
X82364411Y-129443210D01*
X82094158Y-129331268D01*
X81807260Y-129274200D01*
X81514740Y-129274200D01*
X81227842Y-129331268D01*
X80957589Y-129443210D01*
X80714368Y-129605725D01*
X80507525Y-129812568D01*
X80391000Y-129986960D01*
X80274475Y-129812568D01*
X80067632Y-129605725D01*
X79824411Y-129443210D01*
X79554158Y-129331268D01*
X79267260Y-129274200D01*
X78974740Y-129274200D01*
X78687842Y-129331268D01*
X78417589Y-129443210D01*
X78174368Y-129605725D01*
X77967525Y-129812568D01*
X77851000Y-129986960D01*
X77734475Y-129812568D01*
X77527632Y-129605725D01*
X77284411Y-129443210D01*
X77014158Y-129331268D01*
X76727260Y-129274200D01*
X76434740Y-129274200D01*
X76147842Y-129331268D01*
X75877589Y-129443210D01*
X75634368Y-129605725D01*
X75427525Y-129812568D01*
X75311000Y-129986960D01*
X75194475Y-129812568D01*
X74987632Y-129605725D01*
X74744411Y-129443210D01*
X74474158Y-129331268D01*
X74187260Y-129274200D01*
X73894740Y-129274200D01*
X73607842Y-129331268D01*
X73337589Y-129443210D01*
X73094368Y-129605725D01*
X72887525Y-129812568D01*
X72771000Y-129986960D01*
X72654475Y-129812568D01*
X72447632Y-129605725D01*
X72204411Y-129443210D01*
X71934158Y-129331268D01*
X71647260Y-129274200D01*
X71354740Y-129274200D01*
X71067842Y-129331268D01*
X70797589Y-129443210D01*
X70554368Y-129605725D01*
X70347525Y-129812568D01*
X70231000Y-129986960D01*
X70114475Y-129812568D01*
X69907632Y-129605725D01*
X69664411Y-129443210D01*
X69394158Y-129331268D01*
X69107260Y-129274200D01*
X68814740Y-129274200D01*
X68527842Y-129331268D01*
X68257589Y-129443210D01*
X68014368Y-129605725D01*
X67807525Y-129812568D01*
X67691000Y-129986960D01*
X67574475Y-129812568D01*
X67367632Y-129605725D01*
X67124411Y-129443210D01*
X66854158Y-129331268D01*
X66567260Y-129274200D01*
X66274740Y-129274200D01*
X65987842Y-129331268D01*
X65717589Y-129443210D01*
X65474368Y-129605725D01*
X65342513Y-129737580D01*
X65320502Y-129665020D01*
X65261537Y-129554706D01*
X65182185Y-129458015D01*
X65085494Y-129378663D01*
X64975180Y-129319698D01*
X64855482Y-129283388D01*
X64731000Y-129271128D01*
X63031000Y-129271128D01*
X62906518Y-129283388D01*
X62786820Y-129319698D01*
X62676506Y-129378663D01*
X62579815Y-129458015D01*
X62500463Y-129554706D01*
X62441498Y-129665020D01*
X62405188Y-129784718D01*
X62392928Y-129909200D01*
X55980400Y-129909200D01*
X55980400Y-125944265D01*
X81889700Y-125944265D01*
X81889700Y-126226935D01*
X81944847Y-126504174D01*
X82053020Y-126765327D01*
X82210063Y-127000359D01*
X82409941Y-127200237D01*
X82644973Y-127357280D01*
X82906126Y-127465453D01*
X83183365Y-127520600D01*
X83466035Y-127520600D01*
X83743274Y-127465453D01*
X84004427Y-127357280D01*
X84239459Y-127200237D01*
X84439337Y-127000359D01*
X84596380Y-126765327D01*
X84704553Y-126504174D01*
X84759700Y-126226935D01*
X84759700Y-125944265D01*
X84704553Y-125667026D01*
X84596380Y-125405873D01*
X84439337Y-125170841D01*
X84239459Y-124970963D01*
X84004427Y-124813920D01*
X83743274Y-124705747D01*
X83466035Y-124650600D01*
X83183365Y-124650600D01*
X82906126Y-124705747D01*
X82644973Y-124813920D01*
X82409941Y-124970963D01*
X82210063Y-125170841D01*
X82053020Y-125405873D01*
X81944847Y-125667026D01*
X81889700Y-125944265D01*
X55980400Y-125944265D01*
X55980400Y-120333400D01*
X56309628Y-120333400D01*
X56309628Y-122033400D01*
X56321888Y-122157882D01*
X56358198Y-122277580D01*
X56417163Y-122387894D01*
X56496515Y-122484585D01*
X56593206Y-122563937D01*
X56703520Y-122622902D01*
X56823218Y-122659212D01*
X56947700Y-122671472D01*
X58647700Y-122671472D01*
X58772182Y-122659212D01*
X58891880Y-122622902D01*
X59002194Y-122563937D01*
X59098885Y-122484585D01*
X59178237Y-122387894D01*
X59237202Y-122277580D01*
X59273512Y-122157882D01*
X59285772Y-122033400D01*
X59285772Y-120333400D01*
X59273512Y-120208918D01*
X59237202Y-120089220D01*
X59178237Y-119978906D01*
X59098885Y-119882215D01*
X59002194Y-119802863D01*
X58891880Y-119743898D01*
X58819320Y-119721887D01*
X58951175Y-119590032D01*
X59113690Y-119346811D01*
X59225632Y-119076558D01*
X59282700Y-118789660D01*
X59282700Y-118497140D01*
X59225632Y-118210242D01*
X59113690Y-117939989D01*
X58951175Y-117696768D01*
X58744332Y-117489925D01*
X58501111Y-117327410D01*
X58230858Y-117215468D01*
X57943960Y-117158400D01*
X57651440Y-117158400D01*
X57364542Y-117215468D01*
X57094289Y-117327410D01*
X56851068Y-117489925D01*
X56644225Y-117696768D01*
X56481710Y-117939989D01*
X56369768Y-118210242D01*
X56312700Y-118497140D01*
X56312700Y-118789660D01*
X56369768Y-119076558D01*
X56481710Y-119346811D01*
X56644225Y-119590032D01*
X56776080Y-119721887D01*
X56703520Y-119743898D01*
X56593206Y-119802863D01*
X56496515Y-119882215D01*
X56417163Y-119978906D01*
X56358198Y-120089220D01*
X56321888Y-120208918D01*
X56309628Y-120333400D01*
X55980400Y-120333400D01*
X55980400Y-117133000D01*
X104175928Y-117133000D01*
X104175928Y-118833000D01*
X104188188Y-118957482D01*
X104224498Y-119077180D01*
X104283463Y-119187494D01*
X104362815Y-119284185D01*
X104459506Y-119363537D01*
X104569820Y-119422502D01*
X104642380Y-119444513D01*
X104510525Y-119576368D01*
X104348010Y-119819589D01*
X104236068Y-120089842D01*
X104179000Y-120376740D01*
X104179000Y-120669260D01*
X104236068Y-120956158D01*
X104348010Y-121226411D01*
X104510525Y-121469632D01*
X104717368Y-121676475D01*
X104891760Y-121793000D01*
X104717368Y-121909525D01*
X104510525Y-122116368D01*
X104348010Y-122359589D01*
X104236068Y-122629842D01*
X104179000Y-122916740D01*
X104179000Y-123209260D01*
X104236068Y-123496158D01*
X104348010Y-123766411D01*
X104510525Y-124009632D01*
X104717368Y-124216475D01*
X104960589Y-124378990D01*
X105230842Y-124490932D01*
X105517740Y-124548000D01*
X105810260Y-124548000D01*
X106097158Y-124490932D01*
X106367411Y-124378990D01*
X106610632Y-124216475D01*
X106817475Y-124009632D01*
X106979990Y-123766411D01*
X107091932Y-123496158D01*
X107149000Y-123209260D01*
X107149000Y-122916740D01*
X107091932Y-122629842D01*
X106979990Y-122359589D01*
X106817475Y-122116368D01*
X106610632Y-121909525D01*
X106436240Y-121793000D01*
X106610632Y-121676475D01*
X106817475Y-121469632D01*
X106979990Y-121226411D01*
X107091932Y-120956158D01*
X107149000Y-120669260D01*
X107149000Y-120376740D01*
X107091932Y-120089842D01*
X106979990Y-119819589D01*
X106817475Y-119576368D01*
X106685620Y-119444513D01*
X106758180Y-119422502D01*
X106868494Y-119363537D01*
X106965185Y-119284185D01*
X107044537Y-119187494D01*
X107103502Y-119077180D01*
X107139812Y-118957482D01*
X107152072Y-118833000D01*
X107152072Y-117133000D01*
X107139812Y-117008518D01*
X107103502Y-116888820D01*
X107044537Y-116778506D01*
X106965185Y-116681815D01*
X106868494Y-116602463D01*
X106758180Y-116543498D01*
X106638482Y-116507188D01*
X106514000Y-116494928D01*
X104814000Y-116494928D01*
X104689518Y-116507188D01*
X104569820Y-116543498D01*
X104459506Y-116602463D01*
X104362815Y-116681815D01*
X104283463Y-116778506D01*
X104224498Y-116888820D01*
X104188188Y-117008518D01*
X104175928Y-117133000D01*
X55980400Y-117133000D01*
X55980400Y-114857165D01*
X67259300Y-114857165D01*
X67259300Y-115139835D01*
X67314447Y-115417074D01*
X67422620Y-115678227D01*
X67579663Y-115913259D01*
X67779541Y-116113137D01*
X68014573Y-116270180D01*
X68275726Y-116378353D01*
X68552965Y-116433500D01*
X68835635Y-116433500D01*
X69112874Y-116378353D01*
X69374027Y-116270180D01*
X69609059Y-116113137D01*
X69808937Y-115913259D01*
X69965980Y-115678227D01*
X70074153Y-115417074D01*
X70129300Y-115139835D01*
X70129300Y-114857165D01*
X70098986Y-114704765D01*
X70129500Y-114704765D01*
X70129500Y-114987435D01*
X70184647Y-115264674D01*
X70292820Y-115525827D01*
X70449863Y-115760859D01*
X70649741Y-115960737D01*
X70884773Y-116117780D01*
X71145926Y-116225953D01*
X71423165Y-116281100D01*
X71705835Y-116281100D01*
X71983074Y-116225953D01*
X72244227Y-116117780D01*
X72479259Y-115960737D01*
X72679137Y-115760859D01*
X72836180Y-115525827D01*
X72939551Y-115276265D01*
X79044900Y-115276265D01*
X79044900Y-115558935D01*
X79100047Y-115836174D01*
X79208220Y-116097327D01*
X79365263Y-116332359D01*
X79565141Y-116532237D01*
X79800173Y-116689280D01*
X80061326Y-116797453D01*
X80338565Y-116852600D01*
X80621235Y-116852600D01*
X80898474Y-116797453D01*
X81159627Y-116689280D01*
X81394659Y-116532237D01*
X81594537Y-116332359D01*
X81751580Y-116097327D01*
X81859753Y-115836174D01*
X81914900Y-115558935D01*
X81914900Y-115276265D01*
X81859753Y-114999026D01*
X81751580Y-114737873D01*
X81594537Y-114502841D01*
X81394659Y-114302963D01*
X81159627Y-114145920D01*
X80898474Y-114037747D01*
X80621235Y-113982600D01*
X80338565Y-113982600D01*
X80061326Y-114037747D01*
X79800173Y-114145920D01*
X79565141Y-114302963D01*
X79365263Y-114502841D01*
X79208220Y-114737873D01*
X79100047Y-114999026D01*
X79044900Y-115276265D01*
X72939551Y-115276265D01*
X72944353Y-115264674D01*
X72999500Y-114987435D01*
X72999500Y-114704765D01*
X72944353Y-114427526D01*
X72836180Y-114166373D01*
X72679137Y-113931341D01*
X72479259Y-113731463D01*
X72244227Y-113574420D01*
X71983074Y-113466247D01*
X71705835Y-113411100D01*
X71423165Y-113411100D01*
X71145926Y-113466247D01*
X70884773Y-113574420D01*
X70649741Y-113731463D01*
X70449863Y-113931341D01*
X70292820Y-114166373D01*
X70184647Y-114427526D01*
X70129500Y-114704765D01*
X70098986Y-114704765D01*
X70074153Y-114579926D01*
X69965980Y-114318773D01*
X69808937Y-114083741D01*
X69609059Y-113883863D01*
X69374027Y-113726820D01*
X69112874Y-113618647D01*
X68835635Y-113563500D01*
X68552965Y-113563500D01*
X68275726Y-113618647D01*
X68014573Y-113726820D01*
X67779541Y-113883863D01*
X67579663Y-114083741D01*
X67422620Y-114318773D01*
X67314447Y-114579926D01*
X67259300Y-114857165D01*
X55980400Y-114857165D01*
X55980400Y-109589200D01*
X62392928Y-109589200D01*
X62392928Y-111289200D01*
X62405188Y-111413682D01*
X62441498Y-111533380D01*
X62500463Y-111643694D01*
X62579815Y-111740385D01*
X62676506Y-111819737D01*
X62786820Y-111878702D01*
X62906518Y-111915012D01*
X63031000Y-111927272D01*
X64731000Y-111927272D01*
X64855482Y-111915012D01*
X64975180Y-111878702D01*
X65085494Y-111819737D01*
X65182185Y-111740385D01*
X65261537Y-111643694D01*
X65320502Y-111533380D01*
X65344966Y-111452734D01*
X65420731Y-111536788D01*
X65654080Y-111710841D01*
X65916901Y-111836025D01*
X66064110Y-111880676D01*
X66294000Y-111759355D01*
X66294000Y-110566200D01*
X66274000Y-110566200D01*
X66274000Y-110312200D01*
X66294000Y-110312200D01*
X66294000Y-109119045D01*
X66548000Y-109119045D01*
X66548000Y-110312200D01*
X66568000Y-110312200D01*
X66568000Y-110566200D01*
X66548000Y-110566200D01*
X66548000Y-111759355D01*
X66777890Y-111880676D01*
X66925099Y-111836025D01*
X67187920Y-111710841D01*
X67421269Y-111536788D01*
X67616178Y-111320555D01*
X67685805Y-111203666D01*
X67807525Y-111385832D01*
X68014368Y-111592675D01*
X68257589Y-111755190D01*
X68527842Y-111867132D01*
X68814740Y-111924200D01*
X69107260Y-111924200D01*
X69394158Y-111867132D01*
X69664411Y-111755190D01*
X69907632Y-111592675D01*
X70114475Y-111385832D01*
X70231000Y-111211440D01*
X70347525Y-111385832D01*
X70554368Y-111592675D01*
X70797589Y-111755190D01*
X71067842Y-111867132D01*
X71354740Y-111924200D01*
X71647260Y-111924200D01*
X71934158Y-111867132D01*
X72204411Y-111755190D01*
X72447632Y-111592675D01*
X72654475Y-111385832D01*
X72771000Y-111211440D01*
X72887525Y-111385832D01*
X73094368Y-111592675D01*
X73337589Y-111755190D01*
X73607842Y-111867132D01*
X73894740Y-111924200D01*
X74187260Y-111924200D01*
X74474158Y-111867132D01*
X74744411Y-111755190D01*
X74987632Y-111592675D01*
X75194475Y-111385832D01*
X75311000Y-111211440D01*
X75427525Y-111385832D01*
X75634368Y-111592675D01*
X75877589Y-111755190D01*
X76147842Y-111867132D01*
X76434740Y-111924200D01*
X76727260Y-111924200D01*
X77014158Y-111867132D01*
X77284411Y-111755190D01*
X77527632Y-111592675D01*
X77734475Y-111385832D01*
X77851000Y-111211440D01*
X77967525Y-111385832D01*
X78174368Y-111592675D01*
X78417589Y-111755190D01*
X78687842Y-111867132D01*
X78974740Y-111924200D01*
X79267260Y-111924200D01*
X79554158Y-111867132D01*
X79824411Y-111755190D01*
X80067632Y-111592675D01*
X80274475Y-111385832D01*
X80391000Y-111211440D01*
X80507525Y-111385832D01*
X80714368Y-111592675D01*
X80957589Y-111755190D01*
X81227842Y-111867132D01*
X81514740Y-111924200D01*
X81807260Y-111924200D01*
X82094158Y-111867132D01*
X82364411Y-111755190D01*
X82607632Y-111592675D01*
X82814475Y-111385832D01*
X82931000Y-111211440D01*
X83047525Y-111385832D01*
X83254368Y-111592675D01*
X83497589Y-111755190D01*
X83767842Y-111867132D01*
X84054740Y-111924200D01*
X84347260Y-111924200D01*
X84634158Y-111867132D01*
X84904411Y-111755190D01*
X85147632Y-111592675D01*
X85354475Y-111385832D01*
X85471000Y-111211440D01*
X85587525Y-111385832D01*
X85794368Y-111592675D01*
X86037589Y-111755190D01*
X86307842Y-111867132D01*
X86594740Y-111924200D01*
X86887260Y-111924200D01*
X87174158Y-111867132D01*
X87444411Y-111755190D01*
X87687632Y-111592675D01*
X87894475Y-111385832D01*
X88011000Y-111211440D01*
X88127525Y-111385832D01*
X88334368Y-111592675D01*
X88577589Y-111755190D01*
X88847842Y-111867132D01*
X89134740Y-111924200D01*
X89427260Y-111924200D01*
X89714158Y-111867132D01*
X89984411Y-111755190D01*
X90227632Y-111592675D01*
X90434475Y-111385832D01*
X90551000Y-111211440D01*
X90667525Y-111385832D01*
X90874368Y-111592675D01*
X91117589Y-111755190D01*
X91387842Y-111867132D01*
X91674740Y-111924200D01*
X91967260Y-111924200D01*
X92254158Y-111867132D01*
X92524411Y-111755190D01*
X92767632Y-111592675D01*
X92974475Y-111385832D01*
X93091000Y-111211440D01*
X93207525Y-111385832D01*
X93414368Y-111592675D01*
X93657589Y-111755190D01*
X93927842Y-111867132D01*
X94214740Y-111924200D01*
X94507260Y-111924200D01*
X94794158Y-111867132D01*
X95064411Y-111755190D01*
X95307632Y-111592675D01*
X95514475Y-111385832D01*
X95631000Y-111211440D01*
X95747525Y-111385832D01*
X95954368Y-111592675D01*
X96197589Y-111755190D01*
X96467842Y-111867132D01*
X96754740Y-111924200D01*
X97047260Y-111924200D01*
X97334158Y-111867132D01*
X97604411Y-111755190D01*
X97847632Y-111592675D01*
X98054475Y-111385832D01*
X98176195Y-111203666D01*
X98245822Y-111320555D01*
X98440731Y-111536788D01*
X98674080Y-111710841D01*
X98936901Y-111836025D01*
X99084110Y-111880676D01*
X99314000Y-111759355D01*
X99314000Y-110566200D01*
X99294000Y-110566200D01*
X99294000Y-110312200D01*
X99314000Y-110312200D01*
X99314000Y-109119045D01*
X99568000Y-109119045D01*
X99568000Y-110312200D01*
X99588000Y-110312200D01*
X99588000Y-110566200D01*
X99568000Y-110566200D01*
X99568000Y-111759355D01*
X99797890Y-111880676D01*
X99945099Y-111836025D01*
X100207920Y-111710841D01*
X100441269Y-111536788D01*
X100636178Y-111320555D01*
X100705805Y-111203666D01*
X100827525Y-111385832D01*
X101034368Y-111592675D01*
X101277589Y-111755190D01*
X101547842Y-111867132D01*
X101834740Y-111924200D01*
X102127260Y-111924200D01*
X102414158Y-111867132D01*
X102684411Y-111755190D01*
X102927632Y-111592675D01*
X103134475Y-111385832D01*
X103251000Y-111211440D01*
X103367525Y-111385832D01*
X103574368Y-111592675D01*
X103817589Y-111755190D01*
X104087842Y-111867132D01*
X104374740Y-111924200D01*
X104667260Y-111924200D01*
X104954158Y-111867132D01*
X105224411Y-111755190D01*
X105467632Y-111592675D01*
X105674475Y-111385832D01*
X105791000Y-111211440D01*
X105907525Y-111385832D01*
X106114368Y-111592675D01*
X106357589Y-111755190D01*
X106627842Y-111867132D01*
X106914740Y-111924200D01*
X107207260Y-111924200D01*
X107494158Y-111867132D01*
X107764411Y-111755190D01*
X108007632Y-111592675D01*
X108214475Y-111385832D01*
X108331000Y-111211440D01*
X108447525Y-111385832D01*
X108654368Y-111592675D01*
X108897589Y-111755190D01*
X109167842Y-111867132D01*
X109454740Y-111924200D01*
X109747260Y-111924200D01*
X110034158Y-111867132D01*
X110304411Y-111755190D01*
X110547632Y-111592675D01*
X110754475Y-111385832D01*
X110871000Y-111211440D01*
X110987525Y-111385832D01*
X111194368Y-111592675D01*
X111437589Y-111755190D01*
X111707842Y-111867132D01*
X111994740Y-111924200D01*
X112287260Y-111924200D01*
X112574158Y-111867132D01*
X112844411Y-111755190D01*
X113087632Y-111592675D01*
X113294475Y-111385832D01*
X113456990Y-111142611D01*
X113568932Y-110872358D01*
X113626000Y-110585460D01*
X113626000Y-110292940D01*
X113568932Y-110006042D01*
X113456990Y-109735789D01*
X113294475Y-109492568D01*
X113087632Y-109285725D01*
X112844411Y-109123210D01*
X112574158Y-109011268D01*
X112287260Y-108954200D01*
X111994740Y-108954200D01*
X111707842Y-109011268D01*
X111437589Y-109123210D01*
X111194368Y-109285725D01*
X110987525Y-109492568D01*
X110871000Y-109666960D01*
X110754475Y-109492568D01*
X110547632Y-109285725D01*
X110304411Y-109123210D01*
X110034158Y-109011268D01*
X109747260Y-108954200D01*
X109454740Y-108954200D01*
X109167842Y-109011268D01*
X108897589Y-109123210D01*
X108654368Y-109285725D01*
X108447525Y-109492568D01*
X108331000Y-109666960D01*
X108214475Y-109492568D01*
X108007632Y-109285725D01*
X107764411Y-109123210D01*
X107494158Y-109011268D01*
X107207260Y-108954200D01*
X106914740Y-108954200D01*
X106627842Y-109011268D01*
X106357589Y-109123210D01*
X106114368Y-109285725D01*
X105907525Y-109492568D01*
X105791000Y-109666960D01*
X105674475Y-109492568D01*
X105467632Y-109285725D01*
X105224411Y-109123210D01*
X104954158Y-109011268D01*
X104667260Y-108954200D01*
X104374740Y-108954200D01*
X104087842Y-109011268D01*
X103817589Y-109123210D01*
X103574368Y-109285725D01*
X103367525Y-109492568D01*
X103251000Y-109666960D01*
X103134475Y-109492568D01*
X102927632Y-109285725D01*
X102684411Y-109123210D01*
X102414158Y-109011268D01*
X102127260Y-108954200D01*
X101834740Y-108954200D01*
X101547842Y-109011268D01*
X101277589Y-109123210D01*
X101034368Y-109285725D01*
X100827525Y-109492568D01*
X100705805Y-109674734D01*
X100636178Y-109557845D01*
X100441269Y-109341612D01*
X100207920Y-109167559D01*
X99945099Y-109042375D01*
X99797890Y-108997724D01*
X99568000Y-109119045D01*
X99314000Y-109119045D01*
X99084110Y-108997724D01*
X98936901Y-109042375D01*
X98674080Y-109167559D01*
X98440731Y-109341612D01*
X98245822Y-109557845D01*
X98176195Y-109674734D01*
X98054475Y-109492568D01*
X97847632Y-109285725D01*
X97604411Y-109123210D01*
X97334158Y-109011268D01*
X97047260Y-108954200D01*
X96754740Y-108954200D01*
X96467842Y-109011268D01*
X96197589Y-109123210D01*
X95954368Y-109285725D01*
X95747525Y-109492568D01*
X95631000Y-109666960D01*
X95514475Y-109492568D01*
X95307632Y-109285725D01*
X95064411Y-109123210D01*
X94794158Y-109011268D01*
X94507260Y-108954200D01*
X94214740Y-108954200D01*
X93927842Y-109011268D01*
X93657589Y-109123210D01*
X93414368Y-109285725D01*
X93207525Y-109492568D01*
X93091000Y-109666960D01*
X92974475Y-109492568D01*
X92767632Y-109285725D01*
X92524411Y-109123210D01*
X92254158Y-109011268D01*
X91967260Y-108954200D01*
X91674740Y-108954200D01*
X91387842Y-109011268D01*
X91117589Y-109123210D01*
X90874368Y-109285725D01*
X90667525Y-109492568D01*
X90551000Y-109666960D01*
X90434475Y-109492568D01*
X90227632Y-109285725D01*
X89984411Y-109123210D01*
X89714158Y-109011268D01*
X89427260Y-108954200D01*
X89134740Y-108954200D01*
X88847842Y-109011268D01*
X88577589Y-109123210D01*
X88334368Y-109285725D01*
X88127525Y-109492568D01*
X88011000Y-109666960D01*
X87894475Y-109492568D01*
X87687632Y-109285725D01*
X87444411Y-109123210D01*
X87174158Y-109011268D01*
X86887260Y-108954200D01*
X86594740Y-108954200D01*
X86307842Y-109011268D01*
X86037589Y-109123210D01*
X85794368Y-109285725D01*
X85587525Y-109492568D01*
X85471000Y-109666960D01*
X85354475Y-109492568D01*
X85147632Y-109285725D01*
X84904411Y-109123210D01*
X84634158Y-109011268D01*
X84347260Y-108954200D01*
X84054740Y-108954200D01*
X83767842Y-109011268D01*
X83497589Y-109123210D01*
X83254368Y-109285725D01*
X83047525Y-109492568D01*
X82931000Y-109666960D01*
X82814475Y-109492568D01*
X82607632Y-109285725D01*
X82364411Y-109123210D01*
X82094158Y-109011268D01*
X81807260Y-108954200D01*
X81514740Y-108954200D01*
X81227842Y-109011268D01*
X80957589Y-109123210D01*
X80714368Y-109285725D01*
X80507525Y-109492568D01*
X80391000Y-109666960D01*
X80274475Y-109492568D01*
X80067632Y-109285725D01*
X79824411Y-109123210D01*
X79554158Y-109011268D01*
X79267260Y-108954200D01*
X78974740Y-108954200D01*
X78687842Y-109011268D01*
X78417589Y-109123210D01*
X78174368Y-109285725D01*
X77967525Y-109492568D01*
X77851000Y-109666960D01*
X77734475Y-109492568D01*
X77527632Y-109285725D01*
X77284411Y-109123210D01*
X77014158Y-109011268D01*
X76727260Y-108954200D01*
X76434740Y-108954200D01*
X76147842Y-109011268D01*
X75877589Y-109123210D01*
X75634368Y-109285725D01*
X75427525Y-109492568D01*
X75311000Y-109666960D01*
X75194475Y-109492568D01*
X74987632Y-109285725D01*
X74744411Y-109123210D01*
X74474158Y-109011268D01*
X74187260Y-108954200D01*
X73894740Y-108954200D01*
X73607842Y-109011268D01*
X73337589Y-109123210D01*
X73094368Y-109285725D01*
X72887525Y-109492568D01*
X72771000Y-109666960D01*
X72654475Y-109492568D01*
X72447632Y-109285725D01*
X72204411Y-109123210D01*
X71934158Y-109011268D01*
X71647260Y-108954200D01*
X71354740Y-108954200D01*
X71067842Y-109011268D01*
X70797589Y-109123210D01*
X70554368Y-109285725D01*
X70347525Y-109492568D01*
X70231000Y-109666960D01*
X70114475Y-109492568D01*
X69907632Y-109285725D01*
X69664411Y-109123210D01*
X69394158Y-109011268D01*
X69107260Y-108954200D01*
X68814740Y-108954200D01*
X68527842Y-109011268D01*
X68257589Y-109123210D01*
X68014368Y-109285725D01*
X67807525Y-109492568D01*
X67685805Y-109674734D01*
X67616178Y-109557845D01*
X67421269Y-109341612D01*
X67187920Y-109167559D01*
X66925099Y-109042375D01*
X66777890Y-108997724D01*
X66548000Y-109119045D01*
X66294000Y-109119045D01*
X66064110Y-108997724D01*
X65916901Y-109042375D01*
X65654080Y-109167559D01*
X65420731Y-109341612D01*
X65344966Y-109425666D01*
X65320502Y-109345020D01*
X65261537Y-109234706D01*
X65182185Y-109138015D01*
X65085494Y-109058663D01*
X64975180Y-108999698D01*
X64855482Y-108963388D01*
X64731000Y-108951128D01*
X63031000Y-108951128D01*
X62906518Y-108963388D01*
X62786820Y-108999698D01*
X62676506Y-109058663D01*
X62579815Y-109138015D01*
X62500463Y-109234706D01*
X62441498Y-109345020D01*
X62405188Y-109464718D01*
X62392928Y-109589200D01*
X55980400Y-109589200D01*
X55980400Y-107788264D01*
X58253341Y-107788264D01*
X58473307Y-108158301D01*
X58938627Y-108402172D01*
X59442583Y-108550578D01*
X59965808Y-108597815D01*
X60488195Y-108542069D01*
X60989669Y-108385481D01*
X61414693Y-108158301D01*
X61634659Y-107788264D01*
X112863341Y-107788264D01*
X113083307Y-108158301D01*
X113548627Y-108402172D01*
X114052583Y-108550578D01*
X114575808Y-108597815D01*
X115098195Y-108542069D01*
X115599669Y-108385481D01*
X116024693Y-108158301D01*
X116244659Y-107788264D01*
X114554000Y-106097605D01*
X112863341Y-107788264D01*
X61634659Y-107788264D01*
X59944000Y-106097605D01*
X58253341Y-107788264D01*
X55980400Y-107788264D01*
X55980400Y-105939808D01*
X57264185Y-105939808D01*
X57319931Y-106462195D01*
X57476519Y-106963669D01*
X57703699Y-107388693D01*
X58073736Y-107608659D01*
X59764395Y-105918000D01*
X60123605Y-105918000D01*
X61814264Y-107608659D01*
X62184301Y-107388693D01*
X62428172Y-106923373D01*
X62576578Y-106419417D01*
X62619877Y-105939808D01*
X111874185Y-105939808D01*
X111929931Y-106462195D01*
X112086519Y-106963669D01*
X112313699Y-107388693D01*
X112683736Y-107608659D01*
X114374395Y-105918000D01*
X114733605Y-105918000D01*
X116424264Y-107608659D01*
X116794301Y-107388693D01*
X117038172Y-106923373D01*
X117186578Y-106419417D01*
X117233815Y-105896192D01*
X117178069Y-105373805D01*
X117021481Y-104872331D01*
X116794301Y-104447307D01*
X116424264Y-104227341D01*
X114733605Y-105918000D01*
X114374395Y-105918000D01*
X112683736Y-104227341D01*
X112313699Y-104447307D01*
X112069828Y-104912627D01*
X111921422Y-105416583D01*
X111874185Y-105939808D01*
X62619877Y-105939808D01*
X62623815Y-105896192D01*
X62568069Y-105373805D01*
X62411481Y-104872331D01*
X62184301Y-104447307D01*
X61814264Y-104227341D01*
X60123605Y-105918000D01*
X59764395Y-105918000D01*
X58073736Y-104227341D01*
X57703699Y-104447307D01*
X57459828Y-104912627D01*
X57311422Y-105416583D01*
X57264185Y-105939808D01*
X55980400Y-105939808D01*
X55980400Y-104047736D01*
X58253341Y-104047736D01*
X59944000Y-105738395D01*
X61634659Y-104047736D01*
X112863341Y-104047736D01*
X114554000Y-105738395D01*
X116244659Y-104047736D01*
X116024693Y-103677699D01*
X115559373Y-103433828D01*
X115055417Y-103285422D01*
X114532192Y-103238185D01*
X114009805Y-103293931D01*
X113508331Y-103450519D01*
X113083307Y-103677699D01*
X112863341Y-104047736D01*
X61634659Y-104047736D01*
X61414693Y-103677699D01*
X60949373Y-103433828D01*
X60445417Y-103285422D01*
X59922192Y-103238185D01*
X59399805Y-103293931D01*
X58898331Y-103450519D01*
X58473307Y-103677699D01*
X58253341Y-104047736D01*
X55980400Y-104047736D01*
X55980400Y-101752300D01*
X58912328Y-101752300D01*
X58924588Y-101876782D01*
X58960898Y-101996480D01*
X59019863Y-102106794D01*
X59099215Y-102203485D01*
X59195906Y-102282837D01*
X59306220Y-102341802D01*
X59425918Y-102378112D01*
X59550400Y-102390372D01*
X60064650Y-102387300D01*
X60223400Y-102228550D01*
X60223400Y-101079300D01*
X59074150Y-101079300D01*
X58915400Y-101238050D01*
X58912328Y-101752300D01*
X55980400Y-101752300D01*
X55980400Y-100152300D01*
X58912328Y-100152300D01*
X58915400Y-100666550D01*
X59074150Y-100825300D01*
X60223400Y-100825300D01*
X60223400Y-99676050D01*
X60477400Y-99676050D01*
X60477400Y-100825300D01*
X60497400Y-100825300D01*
X60497400Y-101079300D01*
X60477400Y-101079300D01*
X60477400Y-102228550D01*
X60636150Y-102387300D01*
X61150400Y-102390372D01*
X61274882Y-102378112D01*
X61394580Y-102341802D01*
X61504894Y-102282837D01*
X61601585Y-102203485D01*
X61680937Y-102106794D01*
X61739902Y-101996480D01*
X61776212Y-101876782D01*
X61777043Y-101868339D01*
X61975641Y-102066937D01*
X62210673Y-102223980D01*
X62471826Y-102332153D01*
X62749065Y-102387300D01*
X63031735Y-102387300D01*
X63308974Y-102332153D01*
X63570127Y-102223980D01*
X63805159Y-102066937D01*
X64005037Y-101867059D01*
X64160400Y-101634541D01*
X64315763Y-101867059D01*
X64515641Y-102066937D01*
X64750673Y-102223980D01*
X65011826Y-102332153D01*
X65289065Y-102387300D01*
X65571735Y-102387300D01*
X65848974Y-102332153D01*
X66110127Y-102223980D01*
X66345159Y-102066937D01*
X66545037Y-101867059D01*
X66700400Y-101634541D01*
X66855763Y-101867059D01*
X67055641Y-102066937D01*
X67290673Y-102223980D01*
X67551826Y-102332153D01*
X67829065Y-102387300D01*
X68111735Y-102387300D01*
X68388974Y-102332153D01*
X68650127Y-102223980D01*
X68885159Y-102066937D01*
X69085037Y-101867059D01*
X69240400Y-101634541D01*
X69395763Y-101867059D01*
X69595641Y-102066937D01*
X69830673Y-102223980D01*
X70091826Y-102332153D01*
X70369065Y-102387300D01*
X70651735Y-102387300D01*
X70928974Y-102332153D01*
X71190127Y-102223980D01*
X71425159Y-102066937D01*
X71625037Y-101867059D01*
X71780400Y-101634541D01*
X71935763Y-101867059D01*
X72135641Y-102066937D01*
X72370673Y-102223980D01*
X72631826Y-102332153D01*
X72909065Y-102387300D01*
X73191735Y-102387300D01*
X73468974Y-102332153D01*
X73730127Y-102223980D01*
X73965159Y-102066937D01*
X74165037Y-101867059D01*
X74320400Y-101634541D01*
X74475763Y-101867059D01*
X74675641Y-102066937D01*
X74910673Y-102223980D01*
X75171826Y-102332153D01*
X75449065Y-102387300D01*
X75731735Y-102387300D01*
X76008974Y-102332153D01*
X76270127Y-102223980D01*
X76505159Y-102066937D01*
X76705037Y-101867059D01*
X76860400Y-101634541D01*
X77015763Y-101867059D01*
X77215641Y-102066937D01*
X77450673Y-102223980D01*
X77711826Y-102332153D01*
X77989065Y-102387300D01*
X78271735Y-102387300D01*
X78548974Y-102332153D01*
X78810127Y-102223980D01*
X79045159Y-102066937D01*
X79245037Y-101867059D01*
X79400400Y-101634541D01*
X79555763Y-101867059D01*
X79755641Y-102066937D01*
X79990673Y-102223980D01*
X80251826Y-102332153D01*
X80529065Y-102387300D01*
X80811735Y-102387300D01*
X81088974Y-102332153D01*
X81350127Y-102223980D01*
X81585159Y-102066937D01*
X81785037Y-101867059D01*
X81940400Y-101634541D01*
X82095763Y-101867059D01*
X82295641Y-102066937D01*
X82530673Y-102223980D01*
X82791826Y-102332153D01*
X83069065Y-102387300D01*
X83351735Y-102387300D01*
X83628974Y-102332153D01*
X83890127Y-102223980D01*
X84125159Y-102066937D01*
X84325037Y-101867059D01*
X84480400Y-101634541D01*
X84635763Y-101867059D01*
X84835641Y-102066937D01*
X85070673Y-102223980D01*
X85331826Y-102332153D01*
X85609065Y-102387300D01*
X85891735Y-102387300D01*
X86168974Y-102332153D01*
X86430127Y-102223980D01*
X86665159Y-102066937D01*
X86865037Y-101867059D01*
X87020400Y-101634541D01*
X87175763Y-101867059D01*
X87375641Y-102066937D01*
X87610673Y-102223980D01*
X87871826Y-102332153D01*
X88149065Y-102387300D01*
X88431735Y-102387300D01*
X88708974Y-102332153D01*
X88970127Y-102223980D01*
X89205159Y-102066937D01*
X89405037Y-101867059D01*
X89560400Y-101634541D01*
X89715763Y-101867059D01*
X89915641Y-102066937D01*
X90150673Y-102223980D01*
X90411826Y-102332153D01*
X90689065Y-102387300D01*
X90971735Y-102387300D01*
X91248974Y-102332153D01*
X91510127Y-102223980D01*
X91745159Y-102066937D01*
X91945037Y-101867059D01*
X92100400Y-101634541D01*
X92255763Y-101867059D01*
X92455641Y-102066937D01*
X92690673Y-102223980D01*
X92951826Y-102332153D01*
X93229065Y-102387300D01*
X93511735Y-102387300D01*
X93788974Y-102332153D01*
X94050127Y-102223980D01*
X94285159Y-102066937D01*
X94485037Y-101867059D01*
X94640400Y-101634541D01*
X94795763Y-101867059D01*
X94995641Y-102066937D01*
X95230673Y-102223980D01*
X95491826Y-102332153D01*
X95769065Y-102387300D01*
X96051735Y-102387300D01*
X96328974Y-102332153D01*
X96590127Y-102223980D01*
X96825159Y-102066937D01*
X97025037Y-101867059D01*
X97180400Y-101634541D01*
X97335763Y-101867059D01*
X97535641Y-102066937D01*
X97770673Y-102223980D01*
X98031826Y-102332153D01*
X98309065Y-102387300D01*
X98591735Y-102387300D01*
X98868974Y-102332153D01*
X99130127Y-102223980D01*
X99365159Y-102066937D01*
X99565037Y-101867059D01*
X99720400Y-101634541D01*
X99875763Y-101867059D01*
X100075641Y-102066937D01*
X100310673Y-102223980D01*
X100571826Y-102332153D01*
X100849065Y-102387300D01*
X101131735Y-102387300D01*
X101408974Y-102332153D01*
X101670127Y-102223980D01*
X101905159Y-102066937D01*
X102105037Y-101867059D01*
X102260400Y-101634541D01*
X102415763Y-101867059D01*
X102615641Y-102066937D01*
X102850673Y-102223980D01*
X103111826Y-102332153D01*
X103389065Y-102387300D01*
X103671735Y-102387300D01*
X103948974Y-102332153D01*
X104210127Y-102223980D01*
X104445159Y-102066937D01*
X104645037Y-101867059D01*
X104800400Y-101634541D01*
X104955763Y-101867059D01*
X105155641Y-102066937D01*
X105390673Y-102223980D01*
X105651826Y-102332153D01*
X105929065Y-102387300D01*
X106211735Y-102387300D01*
X106488974Y-102332153D01*
X106750127Y-102223980D01*
X106985159Y-102066937D01*
X107185037Y-101867059D01*
X107340400Y-101634541D01*
X107495763Y-101867059D01*
X107695641Y-102066937D01*
X107930673Y-102223980D01*
X108191826Y-102332153D01*
X108469065Y-102387300D01*
X108751735Y-102387300D01*
X109028974Y-102332153D01*
X109290127Y-102223980D01*
X109525159Y-102066937D01*
X109725037Y-101867059D01*
X109880400Y-101634541D01*
X110035763Y-101867059D01*
X110235641Y-102066937D01*
X110470673Y-102223980D01*
X110731826Y-102332153D01*
X111009065Y-102387300D01*
X111291735Y-102387300D01*
X111568974Y-102332153D01*
X111830127Y-102223980D01*
X112065159Y-102066937D01*
X112187094Y-101945002D01*
X112877303Y-101945002D01*
X112948886Y-102188971D01*
X113204396Y-102309871D01*
X113478584Y-102378600D01*
X113760912Y-102392517D01*
X114040530Y-102351087D01*
X114306692Y-102255903D01*
X114431914Y-102188971D01*
X114503497Y-101945002D01*
X113690400Y-101131905D01*
X112877303Y-101945002D01*
X112187094Y-101945002D01*
X112265037Y-101867059D01*
X112421315Y-101633172D01*
X112453729Y-101693814D01*
X112697698Y-101765397D01*
X113510795Y-100952300D01*
X113870005Y-100952300D01*
X114683102Y-101765397D01*
X114927071Y-101693814D01*
X115047971Y-101438304D01*
X115116700Y-101164116D01*
X115130617Y-100881788D01*
X115089187Y-100602170D01*
X114994003Y-100336008D01*
X114927071Y-100210786D01*
X114683102Y-100139203D01*
X113870005Y-100952300D01*
X113510795Y-100952300D01*
X112697698Y-100139203D01*
X112453729Y-100210786D01*
X112423206Y-100275292D01*
X112422080Y-100272573D01*
X112265037Y-100037541D01*
X112187094Y-99959598D01*
X112877303Y-99959598D01*
X113690400Y-100772695D01*
X114503497Y-99959598D01*
X114431914Y-99715629D01*
X114176404Y-99594729D01*
X113902216Y-99526000D01*
X113619888Y-99512083D01*
X113340270Y-99553513D01*
X113074108Y-99648697D01*
X112948886Y-99715629D01*
X112877303Y-99959598D01*
X112187094Y-99959598D01*
X112065159Y-99837663D01*
X111830127Y-99680620D01*
X111568974Y-99572447D01*
X111291735Y-99517300D01*
X111009065Y-99517300D01*
X110731826Y-99572447D01*
X110470673Y-99680620D01*
X110235641Y-99837663D01*
X110035763Y-100037541D01*
X109880400Y-100270059D01*
X109725037Y-100037541D01*
X109525159Y-99837663D01*
X109290127Y-99680620D01*
X109028974Y-99572447D01*
X108751735Y-99517300D01*
X108469065Y-99517300D01*
X108191826Y-99572447D01*
X107930673Y-99680620D01*
X107695641Y-99837663D01*
X107495763Y-100037541D01*
X107340400Y-100270059D01*
X107185037Y-100037541D01*
X106985159Y-99837663D01*
X106750127Y-99680620D01*
X106488974Y-99572447D01*
X106211735Y-99517300D01*
X105929065Y-99517300D01*
X105651826Y-99572447D01*
X105390673Y-99680620D01*
X105155641Y-99837663D01*
X104955763Y-100037541D01*
X104800400Y-100270059D01*
X104645037Y-100037541D01*
X104445159Y-99837663D01*
X104210127Y-99680620D01*
X103948974Y-99572447D01*
X103671735Y-99517300D01*
X103389065Y-99517300D01*
X103111826Y-99572447D01*
X102850673Y-99680620D01*
X102615641Y-99837663D01*
X102415763Y-100037541D01*
X102260400Y-100270059D01*
X102105037Y-100037541D01*
X101905159Y-99837663D01*
X101670127Y-99680620D01*
X101408974Y-99572447D01*
X101131735Y-99517300D01*
X100849065Y-99517300D01*
X100571826Y-99572447D01*
X100310673Y-99680620D01*
X100075641Y-99837663D01*
X99875763Y-100037541D01*
X99720400Y-100270059D01*
X99565037Y-100037541D01*
X99365159Y-99837663D01*
X99130127Y-99680620D01*
X98868974Y-99572447D01*
X98591735Y-99517300D01*
X98309065Y-99517300D01*
X98031826Y-99572447D01*
X97770673Y-99680620D01*
X97535641Y-99837663D01*
X97335763Y-100037541D01*
X97180400Y-100270059D01*
X97025037Y-100037541D01*
X96825159Y-99837663D01*
X96590127Y-99680620D01*
X96328974Y-99572447D01*
X96051735Y-99517300D01*
X95769065Y-99517300D01*
X95491826Y-99572447D01*
X95230673Y-99680620D01*
X94995641Y-99837663D01*
X94795763Y-100037541D01*
X94640400Y-100270059D01*
X94485037Y-100037541D01*
X94285159Y-99837663D01*
X94050127Y-99680620D01*
X93788974Y-99572447D01*
X93511735Y-99517300D01*
X93229065Y-99517300D01*
X92951826Y-99572447D01*
X92690673Y-99680620D01*
X92455641Y-99837663D01*
X92255763Y-100037541D01*
X92100400Y-100270059D01*
X91945037Y-100037541D01*
X91745159Y-99837663D01*
X91510127Y-99680620D01*
X91248974Y-99572447D01*
X90971735Y-99517300D01*
X90689065Y-99517300D01*
X90411826Y-99572447D01*
X90150673Y-99680620D01*
X89915641Y-99837663D01*
X89715763Y-100037541D01*
X89560400Y-100270059D01*
X89405037Y-100037541D01*
X89205159Y-99837663D01*
X88970127Y-99680620D01*
X88708974Y-99572447D01*
X88431735Y-99517300D01*
X88149065Y-99517300D01*
X87871826Y-99572447D01*
X87610673Y-99680620D01*
X87375641Y-99837663D01*
X87175763Y-100037541D01*
X87020400Y-100270059D01*
X86865037Y-100037541D01*
X86665159Y-99837663D01*
X86430127Y-99680620D01*
X86168974Y-99572447D01*
X85891735Y-99517300D01*
X85609065Y-99517300D01*
X85331826Y-99572447D01*
X85070673Y-99680620D01*
X84835641Y-99837663D01*
X84635763Y-100037541D01*
X84480400Y-100270059D01*
X84325037Y-100037541D01*
X84125159Y-99837663D01*
X83890127Y-99680620D01*
X83628974Y-99572447D01*
X83351735Y-99517300D01*
X83069065Y-99517300D01*
X82791826Y-99572447D01*
X82530673Y-99680620D01*
X82295641Y-99837663D01*
X82095763Y-100037541D01*
X81940400Y-100270059D01*
X81785037Y-100037541D01*
X81585159Y-99837663D01*
X81350127Y-99680620D01*
X81088974Y-99572447D01*
X80811735Y-99517300D01*
X80529065Y-99517300D01*
X80251826Y-99572447D01*
X79990673Y-99680620D01*
X79755641Y-99837663D01*
X79555763Y-100037541D01*
X79400400Y-100270059D01*
X79245037Y-100037541D01*
X79045159Y-99837663D01*
X78810127Y-99680620D01*
X78548974Y-99572447D01*
X78271735Y-99517300D01*
X77989065Y-99517300D01*
X77711826Y-99572447D01*
X77450673Y-99680620D01*
X77215641Y-99837663D01*
X77015763Y-100037541D01*
X76860400Y-100270059D01*
X76705037Y-100037541D01*
X76505159Y-99837663D01*
X76270127Y-99680620D01*
X76008974Y-99572447D01*
X75731735Y-99517300D01*
X75449065Y-99517300D01*
X75171826Y-99572447D01*
X74910673Y-99680620D01*
X74675641Y-99837663D01*
X74475763Y-100037541D01*
X74320400Y-100270059D01*
X74165037Y-100037541D01*
X73965159Y-99837663D01*
X73730127Y-99680620D01*
X73468974Y-99572447D01*
X73191735Y-99517300D01*
X72909065Y-99517300D01*
X72631826Y-99572447D01*
X72370673Y-99680620D01*
X72135641Y-99837663D01*
X71935763Y-100037541D01*
X71780400Y-100270059D01*
X71625037Y-100037541D01*
X71425159Y-99837663D01*
X71190127Y-99680620D01*
X70928974Y-99572447D01*
X70651735Y-99517300D01*
X70369065Y-99517300D01*
X70091826Y-99572447D01*
X69830673Y-99680620D01*
X69595641Y-99837663D01*
X69395763Y-100037541D01*
X69240400Y-100270059D01*
X69085037Y-100037541D01*
X68885159Y-99837663D01*
X68650127Y-99680620D01*
X68388974Y-99572447D01*
X68111735Y-99517300D01*
X67829065Y-99517300D01*
X67551826Y-99572447D01*
X67290673Y-99680620D01*
X67055641Y-99837663D01*
X66855763Y-100037541D01*
X66700400Y-100270059D01*
X66545037Y-100037541D01*
X66345159Y-99837663D01*
X66110127Y-99680620D01*
X65848974Y-99572447D01*
X65571735Y-99517300D01*
X65289065Y-99517300D01*
X65011826Y-99572447D01*
X64750673Y-99680620D01*
X64515641Y-99837663D01*
X64315763Y-100037541D01*
X64160400Y-100270059D01*
X64005037Y-100037541D01*
X63805159Y-99837663D01*
X63570127Y-99680620D01*
X63308974Y-99572447D01*
X63031735Y-99517300D01*
X62749065Y-99517300D01*
X62471826Y-99572447D01*
X62210673Y-99680620D01*
X61975641Y-99837663D01*
X61777043Y-100036261D01*
X61776212Y-100027818D01*
X61739902Y-99908120D01*
X61680937Y-99797806D01*
X61601585Y-99701115D01*
X61504894Y-99621763D01*
X61394580Y-99562798D01*
X61274882Y-99526488D01*
X61150400Y-99514228D01*
X60636150Y-99517300D01*
X60477400Y-99676050D01*
X60223400Y-99676050D01*
X60064650Y-99517300D01*
X59550400Y-99514228D01*
X59425918Y-99526488D01*
X59306220Y-99562798D01*
X59195906Y-99621763D01*
X59099215Y-99701115D01*
X59019863Y-99797806D01*
X58960898Y-99908120D01*
X58924588Y-100027818D01*
X58912328Y-100152300D01*
X55980400Y-100152300D01*
X55980400Y-96865002D01*
X59537303Y-96865002D01*
X59608886Y-97108971D01*
X59864396Y-97229871D01*
X60138584Y-97298600D01*
X60420912Y-97312517D01*
X60700530Y-97271087D01*
X60966692Y-97175903D01*
X61091914Y-97108971D01*
X61163497Y-96865002D01*
X60350400Y-96051905D01*
X59537303Y-96865002D01*
X55980400Y-96865002D01*
X55980400Y-95942812D01*
X58910183Y-95942812D01*
X58951613Y-96222430D01*
X59046797Y-96488592D01*
X59113729Y-96613814D01*
X59357698Y-96685397D01*
X60170795Y-95872300D01*
X60530005Y-95872300D01*
X61343102Y-96685397D01*
X61587071Y-96613814D01*
X61617594Y-96549308D01*
X61618720Y-96552027D01*
X61775763Y-96787059D01*
X61975641Y-96986937D01*
X62210673Y-97143980D01*
X62471826Y-97252153D01*
X62749065Y-97307300D01*
X63031735Y-97307300D01*
X63308974Y-97252153D01*
X63570127Y-97143980D01*
X63805159Y-96986937D01*
X64005037Y-96787059D01*
X64160400Y-96554541D01*
X64315763Y-96787059D01*
X64515641Y-96986937D01*
X64750673Y-97143980D01*
X65011826Y-97252153D01*
X65289065Y-97307300D01*
X65571735Y-97307300D01*
X65848974Y-97252153D01*
X66110127Y-97143980D01*
X66345159Y-96986937D01*
X66545037Y-96787059D01*
X66700400Y-96554541D01*
X66855763Y-96787059D01*
X67055641Y-96986937D01*
X67290673Y-97143980D01*
X67551826Y-97252153D01*
X67829065Y-97307300D01*
X68111735Y-97307300D01*
X68388974Y-97252153D01*
X68650127Y-97143980D01*
X68885159Y-96986937D01*
X69085037Y-96787059D01*
X69240400Y-96554541D01*
X69395763Y-96787059D01*
X69595641Y-96986937D01*
X69830673Y-97143980D01*
X70091826Y-97252153D01*
X70369065Y-97307300D01*
X70651735Y-97307300D01*
X70928974Y-97252153D01*
X71190127Y-97143980D01*
X71425159Y-96986937D01*
X71625037Y-96787059D01*
X71780400Y-96554541D01*
X71935763Y-96787059D01*
X72135641Y-96986937D01*
X72370673Y-97143980D01*
X72631826Y-97252153D01*
X72909065Y-97307300D01*
X73191735Y-97307300D01*
X73468974Y-97252153D01*
X73730127Y-97143980D01*
X73965159Y-96986937D01*
X74165037Y-96787059D01*
X74320400Y-96554541D01*
X74475763Y-96787059D01*
X74675641Y-96986937D01*
X74910673Y-97143980D01*
X75171826Y-97252153D01*
X75449065Y-97307300D01*
X75731735Y-97307300D01*
X76008974Y-97252153D01*
X76270127Y-97143980D01*
X76505159Y-96986937D01*
X76705037Y-96787059D01*
X76860400Y-96554541D01*
X77015763Y-96787059D01*
X77215641Y-96986937D01*
X77450673Y-97143980D01*
X77711826Y-97252153D01*
X77989065Y-97307300D01*
X78271735Y-97307300D01*
X78548974Y-97252153D01*
X78810127Y-97143980D01*
X79045159Y-96986937D01*
X79245037Y-96787059D01*
X79400400Y-96554541D01*
X79555763Y-96787059D01*
X79755641Y-96986937D01*
X79990673Y-97143980D01*
X80251826Y-97252153D01*
X80529065Y-97307300D01*
X80811735Y-97307300D01*
X81088974Y-97252153D01*
X81350127Y-97143980D01*
X81585159Y-96986937D01*
X81785037Y-96787059D01*
X81940400Y-96554541D01*
X82095763Y-96787059D01*
X82295641Y-96986937D01*
X82530673Y-97143980D01*
X82791826Y-97252153D01*
X83069065Y-97307300D01*
X83351735Y-97307300D01*
X83628974Y-97252153D01*
X83890127Y-97143980D01*
X84125159Y-96986937D01*
X84325037Y-96787059D01*
X84480400Y-96554541D01*
X84635763Y-96787059D01*
X84835641Y-96986937D01*
X85070673Y-97143980D01*
X85331826Y-97252153D01*
X85609065Y-97307300D01*
X85891735Y-97307300D01*
X86168974Y-97252153D01*
X86430127Y-97143980D01*
X86665159Y-96986937D01*
X86865037Y-96787059D01*
X87020400Y-96554541D01*
X87175763Y-96787059D01*
X87375641Y-96986937D01*
X87610673Y-97143980D01*
X87871826Y-97252153D01*
X88149065Y-97307300D01*
X88431735Y-97307300D01*
X88708974Y-97252153D01*
X88970127Y-97143980D01*
X89205159Y-96986937D01*
X89405037Y-96787059D01*
X89560400Y-96554541D01*
X89715763Y-96787059D01*
X89915641Y-96986937D01*
X90150673Y-97143980D01*
X90411826Y-97252153D01*
X90689065Y-97307300D01*
X90971735Y-97307300D01*
X91248974Y-97252153D01*
X91510127Y-97143980D01*
X91745159Y-96986937D01*
X91945037Y-96787059D01*
X92100400Y-96554541D01*
X92255763Y-96787059D01*
X92455641Y-96986937D01*
X92690673Y-97143980D01*
X92951826Y-97252153D01*
X93229065Y-97307300D01*
X93511735Y-97307300D01*
X93788974Y-97252153D01*
X94050127Y-97143980D01*
X94285159Y-96986937D01*
X94485037Y-96787059D01*
X94640400Y-96554541D01*
X94795763Y-96787059D01*
X94995641Y-96986937D01*
X95230673Y-97143980D01*
X95491826Y-97252153D01*
X95769065Y-97307300D01*
X96051735Y-97307300D01*
X96328974Y-97252153D01*
X96590127Y-97143980D01*
X96825159Y-96986937D01*
X97025037Y-96787059D01*
X97180400Y-96554541D01*
X97335763Y-96787059D01*
X97535641Y-96986937D01*
X97770673Y-97143980D01*
X98031826Y-97252153D01*
X98309065Y-97307300D01*
X98591735Y-97307300D01*
X98868974Y-97252153D01*
X99130127Y-97143980D01*
X99365159Y-96986937D01*
X99565037Y-96787059D01*
X99720400Y-96554541D01*
X99875763Y-96787059D01*
X100075641Y-96986937D01*
X100310673Y-97143980D01*
X100571826Y-97252153D01*
X100849065Y-97307300D01*
X101131735Y-97307300D01*
X101408974Y-97252153D01*
X101670127Y-97143980D01*
X101905159Y-96986937D01*
X102105037Y-96787059D01*
X102260400Y-96554541D01*
X102415763Y-96787059D01*
X102615641Y-96986937D01*
X102850673Y-97143980D01*
X103111826Y-97252153D01*
X103389065Y-97307300D01*
X103671735Y-97307300D01*
X103948974Y-97252153D01*
X104210127Y-97143980D01*
X104445159Y-96986937D01*
X104645037Y-96787059D01*
X104800400Y-96554541D01*
X104955763Y-96787059D01*
X105155641Y-96986937D01*
X105390673Y-97143980D01*
X105651826Y-97252153D01*
X105929065Y-97307300D01*
X106211735Y-97307300D01*
X106488974Y-97252153D01*
X106750127Y-97143980D01*
X106985159Y-96986937D01*
X107185037Y-96787059D01*
X107340400Y-96554541D01*
X107495763Y-96787059D01*
X107695641Y-96986937D01*
X107930673Y-97143980D01*
X108191826Y-97252153D01*
X108469065Y-97307300D01*
X108751735Y-97307300D01*
X109028974Y-97252153D01*
X109290127Y-97143980D01*
X109525159Y-96986937D01*
X109725037Y-96787059D01*
X109880400Y-96554541D01*
X110035763Y-96787059D01*
X110235641Y-96986937D01*
X110470673Y-97143980D01*
X110731826Y-97252153D01*
X111009065Y-97307300D01*
X111291735Y-97307300D01*
X111568974Y-97252153D01*
X111830127Y-97143980D01*
X112065159Y-96986937D01*
X112187094Y-96865002D01*
X112877303Y-96865002D01*
X112948886Y-97108971D01*
X113204396Y-97229871D01*
X113478584Y-97298600D01*
X113760912Y-97312517D01*
X114040530Y-97271087D01*
X114306692Y-97175903D01*
X114431914Y-97108971D01*
X114503497Y-96865002D01*
X113690400Y-96051905D01*
X112877303Y-96865002D01*
X112187094Y-96865002D01*
X112265037Y-96787059D01*
X112421315Y-96553172D01*
X112453729Y-96613814D01*
X112697698Y-96685397D01*
X113510795Y-95872300D01*
X113870005Y-95872300D01*
X114683102Y-96685397D01*
X114927071Y-96613814D01*
X115047971Y-96358304D01*
X115116700Y-96084116D01*
X115130617Y-95801788D01*
X115089187Y-95522170D01*
X114994003Y-95256008D01*
X114927071Y-95130786D01*
X114683102Y-95059203D01*
X113870005Y-95872300D01*
X113510795Y-95872300D01*
X112697698Y-95059203D01*
X112453729Y-95130786D01*
X112423206Y-95195292D01*
X112422080Y-95192573D01*
X112265037Y-94957541D01*
X112187094Y-94879598D01*
X112877303Y-94879598D01*
X113690400Y-95692695D01*
X114503497Y-94879598D01*
X114431914Y-94635629D01*
X114176404Y-94514729D01*
X113902216Y-94446000D01*
X113619888Y-94432083D01*
X113340270Y-94473513D01*
X113074108Y-94568697D01*
X112948886Y-94635629D01*
X112877303Y-94879598D01*
X112187094Y-94879598D01*
X112065159Y-94757663D01*
X111830127Y-94600620D01*
X111568974Y-94492447D01*
X111291735Y-94437300D01*
X111009065Y-94437300D01*
X110731826Y-94492447D01*
X110470673Y-94600620D01*
X110235641Y-94757663D01*
X110035763Y-94957541D01*
X109880400Y-95190059D01*
X109725037Y-94957541D01*
X109525159Y-94757663D01*
X109290127Y-94600620D01*
X109028974Y-94492447D01*
X108751735Y-94437300D01*
X108469065Y-94437300D01*
X108191826Y-94492447D01*
X107930673Y-94600620D01*
X107695641Y-94757663D01*
X107495763Y-94957541D01*
X107340400Y-95190059D01*
X107185037Y-94957541D01*
X106985159Y-94757663D01*
X106750127Y-94600620D01*
X106488974Y-94492447D01*
X106211735Y-94437300D01*
X105929065Y-94437300D01*
X105651826Y-94492447D01*
X105390673Y-94600620D01*
X105155641Y-94757663D01*
X104955763Y-94957541D01*
X104800400Y-95190059D01*
X104645037Y-94957541D01*
X104445159Y-94757663D01*
X104210127Y-94600620D01*
X103948974Y-94492447D01*
X103671735Y-94437300D01*
X103389065Y-94437300D01*
X103111826Y-94492447D01*
X102850673Y-94600620D01*
X102615641Y-94757663D01*
X102415763Y-94957541D01*
X102260400Y-95190059D01*
X102105037Y-94957541D01*
X101905159Y-94757663D01*
X101670127Y-94600620D01*
X101408974Y-94492447D01*
X101131735Y-94437300D01*
X100849065Y-94437300D01*
X100571826Y-94492447D01*
X100310673Y-94600620D01*
X100075641Y-94757663D01*
X99875763Y-94957541D01*
X99720400Y-95190059D01*
X99565037Y-94957541D01*
X99365159Y-94757663D01*
X99130127Y-94600620D01*
X98868974Y-94492447D01*
X98591735Y-94437300D01*
X98309065Y-94437300D01*
X98031826Y-94492447D01*
X97770673Y-94600620D01*
X97535641Y-94757663D01*
X97335763Y-94957541D01*
X97180400Y-95190059D01*
X97025037Y-94957541D01*
X96825159Y-94757663D01*
X96590127Y-94600620D01*
X96328974Y-94492447D01*
X96051735Y-94437300D01*
X95769065Y-94437300D01*
X95491826Y-94492447D01*
X95230673Y-94600620D01*
X94995641Y-94757663D01*
X94795763Y-94957541D01*
X94640400Y-95190059D01*
X94485037Y-94957541D01*
X94285159Y-94757663D01*
X94050127Y-94600620D01*
X93788974Y-94492447D01*
X93511735Y-94437300D01*
X93229065Y-94437300D01*
X92951826Y-94492447D01*
X92690673Y-94600620D01*
X92455641Y-94757663D01*
X92255763Y-94957541D01*
X92100400Y-95190059D01*
X91945037Y-94957541D01*
X91745159Y-94757663D01*
X91510127Y-94600620D01*
X91248974Y-94492447D01*
X90971735Y-94437300D01*
X90689065Y-94437300D01*
X90411826Y-94492447D01*
X90150673Y-94600620D01*
X89915641Y-94757663D01*
X89715763Y-94957541D01*
X89560400Y-95190059D01*
X89405037Y-94957541D01*
X89205159Y-94757663D01*
X88970127Y-94600620D01*
X88708974Y-94492447D01*
X88431735Y-94437300D01*
X88149065Y-94437300D01*
X87871826Y-94492447D01*
X87610673Y-94600620D01*
X87375641Y-94757663D01*
X87175763Y-94957541D01*
X87020400Y-95190059D01*
X86865037Y-94957541D01*
X86665159Y-94757663D01*
X86430127Y-94600620D01*
X86168974Y-94492447D01*
X85891735Y-94437300D01*
X85609065Y-94437300D01*
X85331826Y-94492447D01*
X85070673Y-94600620D01*
X84835641Y-94757663D01*
X84635763Y-94957541D01*
X84480400Y-95190059D01*
X84325037Y-94957541D01*
X84125159Y-94757663D01*
X83890127Y-94600620D01*
X83628974Y-94492447D01*
X83351735Y-94437300D01*
X83069065Y-94437300D01*
X82791826Y-94492447D01*
X82530673Y-94600620D01*
X82295641Y-94757663D01*
X82095763Y-94957541D01*
X81940400Y-95190059D01*
X81785037Y-94957541D01*
X81585159Y-94757663D01*
X81350127Y-94600620D01*
X81088974Y-94492447D01*
X80811735Y-94437300D01*
X80529065Y-94437300D01*
X80251826Y-94492447D01*
X79990673Y-94600620D01*
X79755641Y-94757663D01*
X79555763Y-94957541D01*
X79400400Y-95190059D01*
X79245037Y-94957541D01*
X79045159Y-94757663D01*
X78810127Y-94600620D01*
X78548974Y-94492447D01*
X78271735Y-94437300D01*
X77989065Y-94437300D01*
X77711826Y-94492447D01*
X77450673Y-94600620D01*
X77215641Y-94757663D01*
X77015763Y-94957541D01*
X76860400Y-95190059D01*
X76705037Y-94957541D01*
X76505159Y-94757663D01*
X76270127Y-94600620D01*
X76008974Y-94492447D01*
X75731735Y-94437300D01*
X75449065Y-94437300D01*
X75171826Y-94492447D01*
X74910673Y-94600620D01*
X74675641Y-94757663D01*
X74475763Y-94957541D01*
X74320400Y-95190059D01*
X74165037Y-94957541D01*
X73965159Y-94757663D01*
X73730127Y-94600620D01*
X73468974Y-94492447D01*
X73191735Y-94437300D01*
X72909065Y-94437300D01*
X72631826Y-94492447D01*
X72370673Y-94600620D01*
X72135641Y-94757663D01*
X71935763Y-94957541D01*
X71780400Y-95190059D01*
X71625037Y-94957541D01*
X71425159Y-94757663D01*
X71190127Y-94600620D01*
X70928974Y-94492447D01*
X70651735Y-94437300D01*
X70369065Y-94437300D01*
X70091826Y-94492447D01*
X69830673Y-94600620D01*
X69595641Y-94757663D01*
X69395763Y-94957541D01*
X69240400Y-95190059D01*
X69085037Y-94957541D01*
X68885159Y-94757663D01*
X68650127Y-94600620D01*
X68388974Y-94492447D01*
X68111735Y-94437300D01*
X67829065Y-94437300D01*
X67551826Y-94492447D01*
X67290673Y-94600620D01*
X67055641Y-94757663D01*
X66855763Y-94957541D01*
X66700400Y-95190059D01*
X66545037Y-94957541D01*
X66345159Y-94757663D01*
X66110127Y-94600620D01*
X65848974Y-94492447D01*
X65571735Y-94437300D01*
X65289065Y-94437300D01*
X65011826Y-94492447D01*
X64750673Y-94600620D01*
X64515641Y-94757663D01*
X64315763Y-94957541D01*
X64160400Y-95190059D01*
X64005037Y-94957541D01*
X63805159Y-94757663D01*
X63570127Y-94600620D01*
X63308974Y-94492447D01*
X63031735Y-94437300D01*
X62749065Y-94437300D01*
X62471826Y-94492447D01*
X62210673Y-94600620D01*
X61975641Y-94757663D01*
X61775763Y-94957541D01*
X61619485Y-95191428D01*
X61587071Y-95130786D01*
X61343102Y-95059203D01*
X60530005Y-95872300D01*
X60170795Y-95872300D01*
X59357698Y-95059203D01*
X59113729Y-95130786D01*
X58992829Y-95386296D01*
X58924100Y-95660484D01*
X58910183Y-95942812D01*
X55980400Y-95942812D01*
X55980400Y-94879598D01*
X59537303Y-94879598D01*
X60350400Y-95692695D01*
X61163497Y-94879598D01*
X61091914Y-94635629D01*
X60836404Y-94514729D01*
X60562216Y-94446000D01*
X60279888Y-94432083D01*
X60000270Y-94473513D01*
X59734108Y-94568697D01*
X59608886Y-94635629D01*
X59537303Y-94879598D01*
X55980400Y-94879598D01*
X55980400Y-83092300D01*
X118060401Y-83092300D01*
X118060400Y-139612810D01*
G37*
%TD.AperFunction*%
%TD*%
M02*
