M48
; DRILL file {KiCad (5.1.9)-1} date 11/26/24 15:48:11
; FORMAT={-:-/ absolute / inch / decimal}
; #@! TF.CreationDate,2024-11-26T15:48:11-08:00
; #@! TF.GenerationSoftware,Kicad,Pcbnew,(5.1.9)-1
; #@! TF.FileFunction,Plated,1,6,PTH
FMAT,2
INCH
T1C0.0157
T2C0.0315
T3C0.0394
T4C0.0433
T5C0.1260
%
G90
G05
T1
X2.3785Y-6.362
X2.4786Y-6.2729
X2.5762Y-6.2749
X2.676Y-6.3595
X2.6913Y-6.1318
X2.7223Y-5.7485
X2.7266Y-5.5926
X2.7785Y-6.272
X2.8105Y-6.3438
X2.8938Y-6.2222
X2.9184Y-6.3391
X2.9785Y-6.2296
X3.0227Y-6.3304
X3.0785Y-6.173
X3.1066Y-6.3308
X3.1345Y-6.2215
X3.1635Y-6.347
X3.2439Y-6.3156
X3.2685Y-6.3445
X3.3537Y-6.3103
X3.3786Y-6.3296
X3.3925Y-5.8715
X3.4544Y-6.2996
X3.479Y-6.3265
X3.6035Y-6.362
X3.6152Y-6.3002
X3.646Y-6.3645
X3.6597Y-5.5615
X3.6865Y-6.3375
X3.711Y-5.7945
X3.7435Y-6.317
X3.8157Y-6.3184
X3.881Y-6.2895
X3.9124Y-6.1931
X3.941Y-6.367
X3.9709Y-6.2542
X4.0369Y-6.2776
X4.0617Y-6.3227
X4.138Y-6.3528
X4.1658Y-6.2977
X4.231Y-6.3013
X4.281Y-6.3035
X4.3436Y-6.3166
X4.3558Y-5.754
X4.3735Y-6.219
X4.4655Y-5.8325
X4.4785Y-6.3595
X4.5242Y-5.8419
X4.5275Y-5.528
T2
X2.2605Y-4.3135
X2.6105Y-5.959
X2.6115Y-5.6185
X2.7045Y-4.5275
X2.8175Y-4.5215
X2.953Y-4.9415
X3.1685Y-4.544
X3.2145Y-4.9225
X3.2805Y-4.964
X3.3515Y-4.6575
X3.4635Y-5.5215
X3.4635Y-5.8235
X3.6115Y-4.9285
X4.412Y-5.8235
X4.4125Y-5.5215
X4.4795Y-6.2855
T3
X2.2755Y-4.671
X2.2755Y-4.771
X2.515Y-4.348
X2.515Y-5.148
X2.615Y-4.348
X2.615Y-5.148
X2.715Y-4.348
X2.715Y-5.148
X2.815Y-4.348
X2.815Y-5.148
X2.915Y-4.348
X2.915Y-5.148
X3.015Y-4.348
X3.015Y-5.148
X3.115Y-4.348
X3.115Y-5.148
X3.215Y-4.348
X3.215Y-5.148
X3.315Y-4.348
X3.315Y-5.148
X3.415Y-4.348
X3.415Y-5.148
X3.515Y-4.348
X3.515Y-5.148
X3.615Y-4.348
X3.615Y-5.148
X3.715Y-4.348
X3.715Y-5.148
X3.815Y-4.348
X3.815Y-5.148
X3.915Y-4.348
X3.915Y-5.148
X4.015Y-4.348
X4.015Y-5.148
X4.115Y-4.348
X4.115Y-5.148
X4.16Y-4.645
X4.16Y-4.745
X4.16Y-4.845
X4.215Y-4.348
X4.215Y-5.148
X4.315Y-4.348
X4.315Y-5.148
X4.415Y-4.348
X4.415Y-5.148
T4
X2.376Y-3.7745
X2.376Y-3.9745
X2.476Y-3.7745
X2.476Y-3.9745
X2.576Y-3.7745
X2.576Y-3.9745
X2.676Y-3.7745
X2.676Y-3.9745
X2.776Y-3.7745
X2.776Y-3.9745
X2.876Y-3.7745
X2.876Y-3.9745
X2.976Y-3.7745
X2.976Y-3.9745
X3.076Y-3.7745
X3.076Y-3.9745
X3.176Y-3.7745
X3.176Y-3.9745
X3.276Y-3.7745
X3.276Y-3.9745
X3.376Y-3.7745
X3.376Y-3.9745
X3.476Y-3.7745
X3.476Y-3.9745
X3.576Y-3.7745
X3.576Y-3.9745
X3.676Y-3.7745
X3.676Y-3.9745
X3.776Y-3.7745
X3.776Y-3.9745
X3.876Y-3.7745
X3.876Y-3.9745
X3.976Y-3.7745
X3.976Y-3.9745
X4.076Y-3.7745
X4.076Y-3.9745
X4.176Y-3.7745
X4.176Y-3.9745
X4.276Y-3.7745
X4.276Y-3.9745
X4.376Y-3.7745
X4.376Y-3.9745
X4.476Y-3.7745
X4.476Y-3.9745
T5
X2.36Y-4.17
X2.36Y-5.38
X4.51Y-4.17
X4.51Y-5.38
T0
M30
