%TF.GenerationSoftware,KiCad,Pcbnew,(5.1.9)-1*%
%TF.CreationDate,2024-11-26T15:48:13-08:00*%
%TF.ProjectId,RADA3K,52414441-334b-42e6-9b69-6361645f7063,rev?*%
%TF.SameCoordinates,Original*%
%TF.FileFunction,Soldermask,Top*%
%TF.FilePolarity,Negative*%
%FSLAX46Y46*%
G04 Gerber Fmt 4.6, Leading zero omitted, Abs format (unit mm)*
G04 Created by KiCad (PCBNEW (5.1.9)-1) date 2024-11-26 15:48:13*
%MOMM*%
%LPD*%
G01*
G04 APERTURE LIST*
%ADD10C,4.464000*%
%ADD11O,2.100000X2.100000*%
%ADD12C,2.000000*%
%ADD13C,0.254000*%
%ADD14C,0.100000*%
G04 APERTURE END LIST*
D10*
%TO.C,GND*%
X59944000Y-136652000D03*
%TD*%
%TO.C,GND*%
X59944000Y-105918000D03*
%TD*%
%TO.C,GND*%
X114554000Y-136652000D03*
%TD*%
%TO.C,J4*%
G36*
G01*
X58847700Y-120333400D02*
X58847700Y-122033400D01*
G75*
G02*
X58647700Y-122233400I-200000J0D01*
G01*
X56947700Y-122233400D01*
G75*
G02*
X56747700Y-122033400I0J200000D01*
G01*
X56747700Y-120333400D01*
G75*
G02*
X56947700Y-120133400I200000J0D01*
G01*
X58647700Y-120133400D01*
G75*
G02*
X58847700Y-120333400I0J-200000D01*
G01*
G37*
D11*
X57797700Y-118643400D03*
%TD*%
%TO.C,C2*%
G36*
G01*
X65732500Y-145374000D02*
X66982500Y-145374000D01*
G75*
G02*
X67182500Y-145574000I0J-200000D01*
G01*
X67182500Y-147074000D01*
G75*
G02*
X66982500Y-147274000I-200000J0D01*
G01*
X65732500Y-147274000D01*
G75*
G02*
X65532500Y-147074000I0J200000D01*
G01*
X65532500Y-145574000D01*
G75*
G02*
X65732500Y-145374000I200000J0D01*
G01*
G37*
G36*
G01*
X65732500Y-147874000D02*
X66982500Y-147874000D01*
G75*
G02*
X67182500Y-148074000I0J-200000D01*
G01*
X67182500Y-149574000D01*
G75*
G02*
X66982500Y-149774000I-200000J0D01*
G01*
X65732500Y-149774000D01*
G75*
G02*
X65532500Y-149574000I0J200000D01*
G01*
X65532500Y-148074000D01*
G75*
G02*
X65732500Y-147874000I200000J0D01*
G01*
G37*
%TD*%
%TO.C,C1*%
G36*
G01*
X60492800Y-159908600D02*
X59242800Y-159908600D01*
G75*
G02*
X59042800Y-159708600I0J200000D01*
G01*
X59042800Y-158208600D01*
G75*
G02*
X59242800Y-158008600I200000J0D01*
G01*
X60492800Y-158008600D01*
G75*
G02*
X60692800Y-158208600I0J-200000D01*
G01*
X60692800Y-159708600D01*
G75*
G02*
X60492800Y-159908600I-200000J0D01*
G01*
G37*
G36*
G01*
X60492800Y-157408600D02*
X59242800Y-157408600D01*
G75*
G02*
X59042800Y-157208600I0J200000D01*
G01*
X59042800Y-155708600D01*
G75*
G02*
X59242800Y-155508600I200000J0D01*
G01*
X60492800Y-155508600D01*
G75*
G02*
X60692800Y-155708600I0J-200000D01*
G01*
X60692800Y-157208600D01*
G75*
G02*
X60492800Y-157408600I-200000J0D01*
G01*
G37*
%TD*%
%TO.C,J1*%
G36*
G01*
X104614000Y-118833000D02*
X104614000Y-117133000D01*
G75*
G02*
X104814000Y-116933000I200000J0D01*
G01*
X106514000Y-116933000D01*
G75*
G02*
X106714000Y-117133000I0J-200000D01*
G01*
X106714000Y-118833000D01*
G75*
G02*
X106514000Y-119033000I-200000J0D01*
G01*
X104814000Y-119033000D01*
G75*
G02*
X104614000Y-118833000I0J200000D01*
G01*
G37*
X105664000Y-120523000D03*
X105664000Y-123063000D03*
%TD*%
%TO.C,J3*%
X112141000Y-110439200D03*
X109601000Y-110439200D03*
X107061000Y-110439200D03*
X104521000Y-110439200D03*
X101981000Y-110439200D03*
X99441000Y-110439200D03*
X96901000Y-110439200D03*
X94361000Y-110439200D03*
X91821000Y-110439200D03*
X89281000Y-110439200D03*
X86741000Y-110439200D03*
X84201000Y-110439200D03*
X81661000Y-110439200D03*
X79121000Y-110439200D03*
X76581000Y-110439200D03*
X74041000Y-110439200D03*
X71501000Y-110439200D03*
X68961000Y-110439200D03*
X66421000Y-110439200D03*
G36*
G01*
X64731000Y-111489200D02*
X63031000Y-111489200D01*
G75*
G02*
X62831000Y-111289200I0J200000D01*
G01*
X62831000Y-109589200D01*
G75*
G02*
X63031000Y-109389200I200000J0D01*
G01*
X64731000Y-109389200D01*
G75*
G02*
X64931000Y-109589200I0J-200000D01*
G01*
X64931000Y-111289200D01*
G75*
G02*
X64731000Y-111489200I-200000J0D01*
G01*
G37*
%TD*%
%TO.C,J2*%
X112141000Y-130759200D03*
X109601000Y-130759200D03*
X107061000Y-130759200D03*
X104521000Y-130759200D03*
X101981000Y-130759200D03*
X99441000Y-130759200D03*
X96901000Y-130759200D03*
X94361000Y-130759200D03*
X91821000Y-130759200D03*
X89281000Y-130759200D03*
X86741000Y-130759200D03*
X84201000Y-130759200D03*
X81661000Y-130759200D03*
X79121000Y-130759200D03*
X76581000Y-130759200D03*
X74041000Y-130759200D03*
X71501000Y-130759200D03*
X68961000Y-130759200D03*
X66421000Y-130759200D03*
G36*
G01*
X64731000Y-131809200D02*
X63031000Y-131809200D01*
G75*
G02*
X62831000Y-131609200I0J200000D01*
G01*
X62831000Y-129909200D01*
G75*
G02*
X63031000Y-129709200I200000J0D01*
G01*
X64731000Y-129709200D01*
G75*
G02*
X64931000Y-129909200I0J-200000D01*
G01*
X64931000Y-131609200D01*
G75*
G02*
X64731000Y-131809200I-200000J0D01*
G01*
G37*
%TD*%
D12*
%TO.C,J5*%
X113690400Y-95872300D03*
X111150400Y-95872300D03*
X108610400Y-95872300D03*
X106070400Y-95872300D03*
X103530400Y-95872300D03*
X100990400Y-95872300D03*
X98450400Y-95872300D03*
X95910400Y-95872300D03*
X93370400Y-95872300D03*
X90830400Y-95872300D03*
X88290400Y-95872300D03*
X85750400Y-95872300D03*
X83210400Y-95872300D03*
X80670400Y-95872300D03*
X78130400Y-95872300D03*
X75590400Y-95872300D03*
X73050400Y-95872300D03*
X70510400Y-95872300D03*
X67970400Y-95872300D03*
X65430400Y-95872300D03*
X62890400Y-95872300D03*
X60350400Y-95872300D03*
X113690400Y-100952300D03*
X111150400Y-100952300D03*
X108610400Y-100952300D03*
X106070400Y-100952300D03*
X103530400Y-100952300D03*
X100990400Y-100952300D03*
X98450400Y-100952300D03*
X95910400Y-100952300D03*
X93370400Y-100952300D03*
X90830400Y-100952300D03*
X88290400Y-100952300D03*
X85750400Y-100952300D03*
X83210400Y-100952300D03*
X80670400Y-100952300D03*
X78130400Y-100952300D03*
X75590400Y-100952300D03*
X73050400Y-100952300D03*
X70510400Y-100952300D03*
X67970400Y-100952300D03*
X65430400Y-100952300D03*
G36*
G01*
X59350400Y-101752300D02*
X59350400Y-100152300D01*
G75*
G02*
X59550400Y-99952300I200000J0D01*
G01*
X61150400Y-99952300D01*
G75*
G02*
X61350400Y-100152300I0J-200000D01*
G01*
X61350400Y-101752300D01*
G75*
G02*
X61150400Y-101952300I-200000J0D01*
G01*
X59550400Y-101952300D01*
G75*
G02*
X59350400Y-101752300I0J200000D01*
G01*
G37*
X62890400Y-100952300D03*
%TD*%
%TO.C,C4*%
G36*
G01*
X112702500Y-145837000D02*
X111452500Y-145837000D01*
G75*
G02*
X111252500Y-145637000I0J200000D01*
G01*
X111252500Y-144137000D01*
G75*
G02*
X111452500Y-143937000I200000J0D01*
G01*
X112702500Y-143937000D01*
G75*
G02*
X112902500Y-144137000I0J-200000D01*
G01*
X112902500Y-145637000D01*
G75*
G02*
X112702500Y-145837000I-200000J0D01*
G01*
G37*
G36*
G01*
X112702500Y-143337000D02*
X111452500Y-143337000D01*
G75*
G02*
X111252500Y-143137000I0J200000D01*
G01*
X111252500Y-141637000D01*
G75*
G02*
X111452500Y-141437000I200000J0D01*
G01*
X112702500Y-141437000D01*
G75*
G02*
X112902500Y-141637000I0J-200000D01*
G01*
X112902500Y-143137000D01*
G75*
G02*
X112702500Y-143337000I-200000J0D01*
G01*
G37*
%TD*%
%TO.C,C3*%
G36*
G01*
X88636000Y-146002100D02*
X87386000Y-146002100D01*
G75*
G02*
X87186000Y-145802100I0J200000D01*
G01*
X87186000Y-144302100D01*
G75*
G02*
X87386000Y-144102100I200000J0D01*
G01*
X88636000Y-144102100D01*
G75*
G02*
X88836000Y-144302100I0J-200000D01*
G01*
X88836000Y-145802100D01*
G75*
G02*
X88636000Y-146002100I-200000J0D01*
G01*
G37*
G36*
G01*
X88636000Y-143502100D02*
X87386000Y-143502100D01*
G75*
G02*
X87186000Y-143302100I0J200000D01*
G01*
X87186000Y-141802100D01*
G75*
G02*
X87386000Y-141602100I200000J0D01*
G01*
X88636000Y-141602100D01*
G75*
G02*
X88836000Y-141802100I0J-200000D01*
G01*
X88836000Y-143302100D01*
G75*
G02*
X88636000Y-143502100I-200000J0D01*
G01*
G37*
%TD*%
D10*
%TO.C,GND*%
X114554000Y-105918000D03*
%TD*%
%TO.C,U1*%
G36*
G01*
X60893800Y-152532900D02*
X60243800Y-152532900D01*
G75*
G02*
X60043800Y-152332900I0J200000D01*
G01*
X60043800Y-150772900D01*
G75*
G02*
X60243800Y-150572900I200000J0D01*
G01*
X60893800Y-150572900D01*
G75*
G02*
X61093800Y-150772900I0J-200000D01*
G01*
X61093800Y-152332900D01*
G75*
G02*
X60893800Y-152532900I-200000J0D01*
G01*
G37*
G36*
G01*
X61843800Y-152532900D02*
X61193800Y-152532900D01*
G75*
G02*
X60993800Y-152332900I0J200000D01*
G01*
X60993800Y-150772900D01*
G75*
G02*
X61193800Y-150572900I200000J0D01*
G01*
X61843800Y-150572900D01*
G75*
G02*
X62043800Y-150772900I0J-200000D01*
G01*
X62043800Y-152332900D01*
G75*
G02*
X61843800Y-152532900I-200000J0D01*
G01*
G37*
G36*
G01*
X62793800Y-152532900D02*
X62143800Y-152532900D01*
G75*
G02*
X61943800Y-152332900I0J200000D01*
G01*
X61943800Y-150772900D01*
G75*
G02*
X62143800Y-150572900I200000J0D01*
G01*
X62793800Y-150572900D01*
G75*
G02*
X62993800Y-150772900I0J-200000D01*
G01*
X62993800Y-152332900D01*
G75*
G02*
X62793800Y-152532900I-200000J0D01*
G01*
G37*
G36*
G01*
X62793800Y-149832900D02*
X62143800Y-149832900D01*
G75*
G02*
X61943800Y-149632900I0J200000D01*
G01*
X61943800Y-148072900D01*
G75*
G02*
X62143800Y-147872900I200000J0D01*
G01*
X62793800Y-147872900D01*
G75*
G02*
X62993800Y-148072900I0J-200000D01*
G01*
X62993800Y-149632900D01*
G75*
G02*
X62793800Y-149832900I-200000J0D01*
G01*
G37*
G36*
G01*
X60893800Y-149832900D02*
X60243800Y-149832900D01*
G75*
G02*
X60043800Y-149632900I0J200000D01*
G01*
X60043800Y-148072900D01*
G75*
G02*
X60243800Y-147872900I200000J0D01*
G01*
X60893800Y-147872900D01*
G75*
G02*
X61093800Y-148072900I0J-200000D01*
G01*
X61093800Y-149632900D01*
G75*
G02*
X60893800Y-149832900I-200000J0D01*
G01*
G37*
%TD*%
%TO.C,U2*%
G36*
G01*
X71378901Y-141133100D02*
X71093899Y-141133100D01*
G75*
G02*
X70893900Y-140933101I0J199999D01*
G01*
X70893900Y-139933099D01*
G75*
G02*
X71093899Y-139733100I199999J0D01*
G01*
X71378901Y-139733100D01*
G75*
G02*
X71578900Y-139933099I0J-199999D01*
G01*
X71578900Y-140933101D01*
G75*
G02*
X71378901Y-141133100I-199999J0D01*
G01*
G37*
G36*
G01*
X71878901Y-141133100D02*
X71593899Y-141133100D01*
G75*
G02*
X71393900Y-140933101I0J199999D01*
G01*
X71393900Y-139933099D01*
G75*
G02*
X71593899Y-139733100I199999J0D01*
G01*
X71878901Y-139733100D01*
G75*
G02*
X72078900Y-139933099I0J-199999D01*
G01*
X72078900Y-140933101D01*
G75*
G02*
X71878901Y-141133100I-199999J0D01*
G01*
G37*
G36*
G01*
X72378901Y-141133100D02*
X72093899Y-141133100D01*
G75*
G02*
X71893900Y-140933101I0J199999D01*
G01*
X71893900Y-139933099D01*
G75*
G02*
X72093899Y-139733100I199999J0D01*
G01*
X72378901Y-139733100D01*
G75*
G02*
X72578900Y-139933099I0J-199999D01*
G01*
X72578900Y-140933101D01*
G75*
G02*
X72378901Y-141133100I-199999J0D01*
G01*
G37*
G36*
G01*
X72878901Y-141133100D02*
X72593899Y-141133100D01*
G75*
G02*
X72393900Y-140933101I0J199999D01*
G01*
X72393900Y-139933099D01*
G75*
G02*
X72593899Y-139733100I199999J0D01*
G01*
X72878901Y-139733100D01*
G75*
G02*
X73078900Y-139933099I0J-199999D01*
G01*
X73078900Y-140933101D01*
G75*
G02*
X72878901Y-141133100I-199999J0D01*
G01*
G37*
G36*
G01*
X73378901Y-141133100D02*
X73093899Y-141133100D01*
G75*
G02*
X72893900Y-140933101I0J199999D01*
G01*
X72893900Y-139933099D01*
G75*
G02*
X73093899Y-139733100I199999J0D01*
G01*
X73378901Y-139733100D01*
G75*
G02*
X73578900Y-139933099I0J-199999D01*
G01*
X73578900Y-140933101D01*
G75*
G02*
X73378901Y-141133100I-199999J0D01*
G01*
G37*
G36*
G01*
X73878901Y-141133100D02*
X73593899Y-141133100D01*
G75*
G02*
X73393900Y-140933101I0J199999D01*
G01*
X73393900Y-139933099D01*
G75*
G02*
X73593899Y-139733100I199999J0D01*
G01*
X73878901Y-139733100D01*
G75*
G02*
X74078900Y-139933099I0J-199999D01*
G01*
X74078900Y-140933101D01*
G75*
G02*
X73878901Y-141133100I-199999J0D01*
G01*
G37*
G36*
G01*
X74378901Y-141133100D02*
X74093899Y-141133100D01*
G75*
G02*
X73893900Y-140933101I0J199999D01*
G01*
X73893900Y-139933099D01*
G75*
G02*
X74093899Y-139733100I199999J0D01*
G01*
X74378901Y-139733100D01*
G75*
G02*
X74578900Y-139933099I0J-199999D01*
G01*
X74578900Y-140933101D01*
G75*
G02*
X74378901Y-141133100I-199999J0D01*
G01*
G37*
G36*
G01*
X74878901Y-141133100D02*
X74593899Y-141133100D01*
G75*
G02*
X74393900Y-140933101I0J199999D01*
G01*
X74393900Y-139933099D01*
G75*
G02*
X74593899Y-139733100I199999J0D01*
G01*
X74878901Y-139733100D01*
G75*
G02*
X75078900Y-139933099I0J-199999D01*
G01*
X75078900Y-140933101D01*
G75*
G02*
X74878901Y-141133100I-199999J0D01*
G01*
G37*
G36*
G01*
X75378901Y-141133100D02*
X75093899Y-141133100D01*
G75*
G02*
X74893900Y-140933101I0J199999D01*
G01*
X74893900Y-139933099D01*
G75*
G02*
X75093899Y-139733100I199999J0D01*
G01*
X75378901Y-139733100D01*
G75*
G02*
X75578900Y-139933099I0J-199999D01*
G01*
X75578900Y-140933101D01*
G75*
G02*
X75378901Y-141133100I-199999J0D01*
G01*
G37*
G36*
G01*
X75878901Y-141133100D02*
X75593899Y-141133100D01*
G75*
G02*
X75393900Y-140933101I0J199999D01*
G01*
X75393900Y-139933099D01*
G75*
G02*
X75593899Y-139733100I199999J0D01*
G01*
X75878901Y-139733100D01*
G75*
G02*
X76078900Y-139933099I0J-199999D01*
G01*
X76078900Y-140933101D01*
G75*
G02*
X75878901Y-141133100I-199999J0D01*
G01*
G37*
G36*
G01*
X76378901Y-141133100D02*
X76093899Y-141133100D01*
G75*
G02*
X75893900Y-140933101I0J199999D01*
G01*
X75893900Y-139933099D01*
G75*
G02*
X76093899Y-139733100I199999J0D01*
G01*
X76378901Y-139733100D01*
G75*
G02*
X76578900Y-139933099I0J-199999D01*
G01*
X76578900Y-140933101D01*
G75*
G02*
X76378901Y-141133100I-199999J0D01*
G01*
G37*
G36*
G01*
X76878901Y-141133100D02*
X76593899Y-141133100D01*
G75*
G02*
X76393900Y-140933101I0J199999D01*
G01*
X76393900Y-139933099D01*
G75*
G02*
X76593899Y-139733100I199999J0D01*
G01*
X76878901Y-139733100D01*
G75*
G02*
X77078900Y-139933099I0J-199999D01*
G01*
X77078900Y-140933101D01*
G75*
G02*
X76878901Y-141133100I-199999J0D01*
G01*
G37*
G36*
G01*
X77378901Y-141133100D02*
X77093899Y-141133100D01*
G75*
G02*
X76893900Y-140933101I0J199999D01*
G01*
X76893900Y-139933099D01*
G75*
G02*
X77093899Y-139733100I199999J0D01*
G01*
X77378901Y-139733100D01*
G75*
G02*
X77578900Y-139933099I0J-199999D01*
G01*
X77578900Y-140933101D01*
G75*
G02*
X77378901Y-141133100I-199999J0D01*
G01*
G37*
G36*
G01*
X77878901Y-141133100D02*
X77593899Y-141133100D01*
G75*
G02*
X77393900Y-140933101I0J199999D01*
G01*
X77393900Y-139933099D01*
G75*
G02*
X77593899Y-139733100I199999J0D01*
G01*
X77878901Y-139733100D01*
G75*
G02*
X78078900Y-139933099I0J-199999D01*
G01*
X78078900Y-140933101D01*
G75*
G02*
X77878901Y-141133100I-199999J0D01*
G01*
G37*
G36*
G01*
X78378901Y-141133100D02*
X78093899Y-141133100D01*
G75*
G02*
X77893900Y-140933101I0J199999D01*
G01*
X77893900Y-139933099D01*
G75*
G02*
X78093899Y-139733100I199999J0D01*
G01*
X78378901Y-139733100D01*
G75*
G02*
X78578900Y-139933099I0J-199999D01*
G01*
X78578900Y-140933101D01*
G75*
G02*
X78378901Y-141133100I-199999J0D01*
G01*
G37*
G36*
G01*
X78878901Y-141133100D02*
X78593899Y-141133100D01*
G75*
G02*
X78393900Y-140933101I0J199999D01*
G01*
X78393900Y-139933099D01*
G75*
G02*
X78593899Y-139733100I199999J0D01*
G01*
X78878901Y-139733100D01*
G75*
G02*
X79078900Y-139933099I0J-199999D01*
G01*
X79078900Y-140933101D01*
G75*
G02*
X78878901Y-141133100I-199999J0D01*
G01*
G37*
G36*
G01*
X79378901Y-141133100D02*
X79093899Y-141133100D01*
G75*
G02*
X78893900Y-140933101I0J199999D01*
G01*
X78893900Y-139933099D01*
G75*
G02*
X79093899Y-139733100I199999J0D01*
G01*
X79378901Y-139733100D01*
G75*
G02*
X79578900Y-139933099I0J-199999D01*
G01*
X79578900Y-140933101D01*
G75*
G02*
X79378901Y-141133100I-199999J0D01*
G01*
G37*
G36*
G01*
X79878901Y-141133100D02*
X79593899Y-141133100D01*
G75*
G02*
X79393900Y-140933101I0J199999D01*
G01*
X79393900Y-139933099D01*
G75*
G02*
X79593899Y-139733100I199999J0D01*
G01*
X79878901Y-139733100D01*
G75*
G02*
X80078900Y-139933099I0J-199999D01*
G01*
X80078900Y-140933101D01*
G75*
G02*
X79878901Y-141133100I-199999J0D01*
G01*
G37*
G36*
G01*
X80378901Y-141133100D02*
X80093899Y-141133100D01*
G75*
G02*
X79893900Y-140933101I0J199999D01*
G01*
X79893900Y-139933099D01*
G75*
G02*
X80093899Y-139733100I199999J0D01*
G01*
X80378901Y-139733100D01*
G75*
G02*
X80578900Y-139933099I0J-199999D01*
G01*
X80578900Y-140933101D01*
G75*
G02*
X80378901Y-141133100I-199999J0D01*
G01*
G37*
G36*
G01*
X80878901Y-141133100D02*
X80593899Y-141133100D01*
G75*
G02*
X80393900Y-140933101I0J199999D01*
G01*
X80393900Y-139933099D01*
G75*
G02*
X80593899Y-139733100I199999J0D01*
G01*
X80878901Y-139733100D01*
G75*
G02*
X81078900Y-139933099I0J-199999D01*
G01*
X81078900Y-140933101D01*
G75*
G02*
X80878901Y-141133100I-199999J0D01*
G01*
G37*
G36*
G01*
X81378901Y-141133100D02*
X81093899Y-141133100D01*
G75*
G02*
X80893900Y-140933101I0J199999D01*
G01*
X80893900Y-139933099D01*
G75*
G02*
X81093899Y-139733100I199999J0D01*
G01*
X81378901Y-139733100D01*
G75*
G02*
X81578900Y-139933099I0J-199999D01*
G01*
X81578900Y-140933101D01*
G75*
G02*
X81378901Y-141133100I-199999J0D01*
G01*
G37*
G36*
G01*
X81878901Y-141133100D02*
X81593899Y-141133100D01*
G75*
G02*
X81393900Y-140933101I0J199999D01*
G01*
X81393900Y-139933099D01*
G75*
G02*
X81593899Y-139733100I199999J0D01*
G01*
X81878901Y-139733100D01*
G75*
G02*
X82078900Y-139933099I0J-199999D01*
G01*
X82078900Y-140933101D01*
G75*
G02*
X81878901Y-141133100I-199999J0D01*
G01*
G37*
G36*
G01*
X82378901Y-141133100D02*
X82093899Y-141133100D01*
G75*
G02*
X81893900Y-140933101I0J199999D01*
G01*
X81893900Y-139933099D01*
G75*
G02*
X82093899Y-139733100I199999J0D01*
G01*
X82378901Y-139733100D01*
G75*
G02*
X82578900Y-139933099I0J-199999D01*
G01*
X82578900Y-140933101D01*
G75*
G02*
X82378901Y-141133100I-199999J0D01*
G01*
G37*
G36*
G01*
X82878901Y-141133100D02*
X82593899Y-141133100D01*
G75*
G02*
X82393900Y-140933101I0J199999D01*
G01*
X82393900Y-139933099D01*
G75*
G02*
X82593899Y-139733100I199999J0D01*
G01*
X82878901Y-139733100D01*
G75*
G02*
X83078900Y-139933099I0J-199999D01*
G01*
X83078900Y-140933101D01*
G75*
G02*
X82878901Y-141133100I-199999J0D01*
G01*
G37*
G36*
G01*
X83378901Y-141133100D02*
X83093899Y-141133100D01*
G75*
G02*
X82893900Y-140933101I0J199999D01*
G01*
X82893900Y-139933099D01*
G75*
G02*
X83093899Y-139733100I199999J0D01*
G01*
X83378901Y-139733100D01*
G75*
G02*
X83578900Y-139933099I0J-199999D01*
G01*
X83578900Y-140933101D01*
G75*
G02*
X83378901Y-141133100I-199999J0D01*
G01*
G37*
G36*
G01*
X83878901Y-141133100D02*
X83593899Y-141133100D01*
G75*
G02*
X83393900Y-140933101I0J199999D01*
G01*
X83393900Y-139933099D01*
G75*
G02*
X83593899Y-139733100I199999J0D01*
G01*
X83878901Y-139733100D01*
G75*
G02*
X84078900Y-139933099I0J-199999D01*
G01*
X84078900Y-140933101D01*
G75*
G02*
X83878901Y-141133100I-199999J0D01*
G01*
G37*
G36*
G01*
X84378901Y-141133100D02*
X84093899Y-141133100D01*
G75*
G02*
X83893900Y-140933101I0J199999D01*
G01*
X83893900Y-139933099D01*
G75*
G02*
X84093899Y-139733100I199999J0D01*
G01*
X84378901Y-139733100D01*
G75*
G02*
X84578900Y-139933099I0J-199999D01*
G01*
X84578900Y-140933101D01*
G75*
G02*
X84378901Y-141133100I-199999J0D01*
G01*
G37*
G36*
G01*
X84878901Y-141133100D02*
X84593899Y-141133100D01*
G75*
G02*
X84393900Y-140933101I0J199999D01*
G01*
X84393900Y-139933099D01*
G75*
G02*
X84593899Y-139733100I199999J0D01*
G01*
X84878901Y-139733100D01*
G75*
G02*
X85078900Y-139933099I0J-199999D01*
G01*
X85078900Y-140933101D01*
G75*
G02*
X84878901Y-141133100I-199999J0D01*
G01*
G37*
G36*
G01*
X84878901Y-148633100D02*
X84593899Y-148633100D01*
G75*
G02*
X84393900Y-148433101I0J199999D01*
G01*
X84393900Y-147433099D01*
G75*
G02*
X84593899Y-147233100I199999J0D01*
G01*
X84878901Y-147233100D01*
G75*
G02*
X85078900Y-147433099I0J-199999D01*
G01*
X85078900Y-148433101D01*
G75*
G02*
X84878901Y-148633100I-199999J0D01*
G01*
G37*
G36*
G01*
X84378901Y-148633100D02*
X84093899Y-148633100D01*
G75*
G02*
X83893900Y-148433101I0J199999D01*
G01*
X83893900Y-147433099D01*
G75*
G02*
X84093899Y-147233100I199999J0D01*
G01*
X84378901Y-147233100D01*
G75*
G02*
X84578900Y-147433099I0J-199999D01*
G01*
X84578900Y-148433101D01*
G75*
G02*
X84378901Y-148633100I-199999J0D01*
G01*
G37*
G36*
G01*
X83878901Y-148633100D02*
X83593899Y-148633100D01*
G75*
G02*
X83393900Y-148433101I0J199999D01*
G01*
X83393900Y-147433099D01*
G75*
G02*
X83593899Y-147233100I199999J0D01*
G01*
X83878901Y-147233100D01*
G75*
G02*
X84078900Y-147433099I0J-199999D01*
G01*
X84078900Y-148433101D01*
G75*
G02*
X83878901Y-148633100I-199999J0D01*
G01*
G37*
G36*
G01*
X83378901Y-148633100D02*
X83093899Y-148633100D01*
G75*
G02*
X82893900Y-148433101I0J199999D01*
G01*
X82893900Y-147433099D01*
G75*
G02*
X83093899Y-147233100I199999J0D01*
G01*
X83378901Y-147233100D01*
G75*
G02*
X83578900Y-147433099I0J-199999D01*
G01*
X83578900Y-148433101D01*
G75*
G02*
X83378901Y-148633100I-199999J0D01*
G01*
G37*
G36*
G01*
X82878901Y-148633100D02*
X82593899Y-148633100D01*
G75*
G02*
X82393900Y-148433101I0J199999D01*
G01*
X82393900Y-147433099D01*
G75*
G02*
X82593899Y-147233100I199999J0D01*
G01*
X82878901Y-147233100D01*
G75*
G02*
X83078900Y-147433099I0J-199999D01*
G01*
X83078900Y-148433101D01*
G75*
G02*
X82878901Y-148633100I-199999J0D01*
G01*
G37*
G36*
G01*
X82378901Y-148633100D02*
X82093899Y-148633100D01*
G75*
G02*
X81893900Y-148433101I0J199999D01*
G01*
X81893900Y-147433099D01*
G75*
G02*
X82093899Y-147233100I199999J0D01*
G01*
X82378901Y-147233100D01*
G75*
G02*
X82578900Y-147433099I0J-199999D01*
G01*
X82578900Y-148433101D01*
G75*
G02*
X82378901Y-148633100I-199999J0D01*
G01*
G37*
G36*
G01*
X81878901Y-148633100D02*
X81593899Y-148633100D01*
G75*
G02*
X81393900Y-148433101I0J199999D01*
G01*
X81393900Y-147433099D01*
G75*
G02*
X81593899Y-147233100I199999J0D01*
G01*
X81878901Y-147233100D01*
G75*
G02*
X82078900Y-147433099I0J-199999D01*
G01*
X82078900Y-148433101D01*
G75*
G02*
X81878901Y-148633100I-199999J0D01*
G01*
G37*
G36*
G01*
X81378901Y-148633100D02*
X81093899Y-148633100D01*
G75*
G02*
X80893900Y-148433101I0J199999D01*
G01*
X80893900Y-147433099D01*
G75*
G02*
X81093899Y-147233100I199999J0D01*
G01*
X81378901Y-147233100D01*
G75*
G02*
X81578900Y-147433099I0J-199999D01*
G01*
X81578900Y-148433101D01*
G75*
G02*
X81378901Y-148633100I-199999J0D01*
G01*
G37*
G36*
G01*
X80878901Y-148633100D02*
X80593899Y-148633100D01*
G75*
G02*
X80393900Y-148433101I0J199999D01*
G01*
X80393900Y-147433099D01*
G75*
G02*
X80593899Y-147233100I199999J0D01*
G01*
X80878901Y-147233100D01*
G75*
G02*
X81078900Y-147433099I0J-199999D01*
G01*
X81078900Y-148433101D01*
G75*
G02*
X80878901Y-148633100I-199999J0D01*
G01*
G37*
G36*
G01*
X80378901Y-148633100D02*
X80093899Y-148633100D01*
G75*
G02*
X79893900Y-148433101I0J199999D01*
G01*
X79893900Y-147433099D01*
G75*
G02*
X80093899Y-147233100I199999J0D01*
G01*
X80378901Y-147233100D01*
G75*
G02*
X80578900Y-147433099I0J-199999D01*
G01*
X80578900Y-148433101D01*
G75*
G02*
X80378901Y-148633100I-199999J0D01*
G01*
G37*
G36*
G01*
X79878901Y-148633100D02*
X79593899Y-148633100D01*
G75*
G02*
X79393900Y-148433101I0J199999D01*
G01*
X79393900Y-147433099D01*
G75*
G02*
X79593899Y-147233100I199999J0D01*
G01*
X79878901Y-147233100D01*
G75*
G02*
X80078900Y-147433099I0J-199999D01*
G01*
X80078900Y-148433101D01*
G75*
G02*
X79878901Y-148633100I-199999J0D01*
G01*
G37*
G36*
G01*
X79378901Y-148633100D02*
X79093899Y-148633100D01*
G75*
G02*
X78893900Y-148433101I0J199999D01*
G01*
X78893900Y-147433099D01*
G75*
G02*
X79093899Y-147233100I199999J0D01*
G01*
X79378901Y-147233100D01*
G75*
G02*
X79578900Y-147433099I0J-199999D01*
G01*
X79578900Y-148433101D01*
G75*
G02*
X79378901Y-148633100I-199999J0D01*
G01*
G37*
G36*
G01*
X78878901Y-148633100D02*
X78593899Y-148633100D01*
G75*
G02*
X78393900Y-148433101I0J199999D01*
G01*
X78393900Y-147433099D01*
G75*
G02*
X78593899Y-147233100I199999J0D01*
G01*
X78878901Y-147233100D01*
G75*
G02*
X79078900Y-147433099I0J-199999D01*
G01*
X79078900Y-148433101D01*
G75*
G02*
X78878901Y-148633100I-199999J0D01*
G01*
G37*
G36*
G01*
X78378901Y-148633100D02*
X78093899Y-148633100D01*
G75*
G02*
X77893900Y-148433101I0J199999D01*
G01*
X77893900Y-147433099D01*
G75*
G02*
X78093899Y-147233100I199999J0D01*
G01*
X78378901Y-147233100D01*
G75*
G02*
X78578900Y-147433099I0J-199999D01*
G01*
X78578900Y-148433101D01*
G75*
G02*
X78378901Y-148633100I-199999J0D01*
G01*
G37*
G36*
G01*
X77878901Y-148633100D02*
X77593899Y-148633100D01*
G75*
G02*
X77393900Y-148433101I0J199999D01*
G01*
X77393900Y-147433099D01*
G75*
G02*
X77593899Y-147233100I199999J0D01*
G01*
X77878901Y-147233100D01*
G75*
G02*
X78078900Y-147433099I0J-199999D01*
G01*
X78078900Y-148433101D01*
G75*
G02*
X77878901Y-148633100I-199999J0D01*
G01*
G37*
G36*
G01*
X77378901Y-148633100D02*
X77093899Y-148633100D01*
G75*
G02*
X76893900Y-148433101I0J199999D01*
G01*
X76893900Y-147433099D01*
G75*
G02*
X77093899Y-147233100I199999J0D01*
G01*
X77378901Y-147233100D01*
G75*
G02*
X77578900Y-147433099I0J-199999D01*
G01*
X77578900Y-148433101D01*
G75*
G02*
X77378901Y-148633100I-199999J0D01*
G01*
G37*
G36*
G01*
X76878901Y-148633100D02*
X76593899Y-148633100D01*
G75*
G02*
X76393900Y-148433101I0J199999D01*
G01*
X76393900Y-147433099D01*
G75*
G02*
X76593899Y-147233100I199999J0D01*
G01*
X76878901Y-147233100D01*
G75*
G02*
X77078900Y-147433099I0J-199999D01*
G01*
X77078900Y-148433101D01*
G75*
G02*
X76878901Y-148633100I-199999J0D01*
G01*
G37*
G36*
G01*
X76378901Y-148633100D02*
X76093899Y-148633100D01*
G75*
G02*
X75893900Y-148433101I0J199999D01*
G01*
X75893900Y-147433099D01*
G75*
G02*
X76093899Y-147233100I199999J0D01*
G01*
X76378901Y-147233100D01*
G75*
G02*
X76578900Y-147433099I0J-199999D01*
G01*
X76578900Y-148433101D01*
G75*
G02*
X76378901Y-148633100I-199999J0D01*
G01*
G37*
G36*
G01*
X75878901Y-148633100D02*
X75593899Y-148633100D01*
G75*
G02*
X75393900Y-148433101I0J199999D01*
G01*
X75393900Y-147433099D01*
G75*
G02*
X75593899Y-147233100I199999J0D01*
G01*
X75878901Y-147233100D01*
G75*
G02*
X76078900Y-147433099I0J-199999D01*
G01*
X76078900Y-148433101D01*
G75*
G02*
X75878901Y-148633100I-199999J0D01*
G01*
G37*
G36*
G01*
X75378901Y-148633100D02*
X75093899Y-148633100D01*
G75*
G02*
X74893900Y-148433101I0J199999D01*
G01*
X74893900Y-147433099D01*
G75*
G02*
X75093899Y-147233100I199999J0D01*
G01*
X75378901Y-147233100D01*
G75*
G02*
X75578900Y-147433099I0J-199999D01*
G01*
X75578900Y-148433101D01*
G75*
G02*
X75378901Y-148633100I-199999J0D01*
G01*
G37*
G36*
G01*
X74878901Y-148633100D02*
X74593899Y-148633100D01*
G75*
G02*
X74393900Y-148433101I0J199999D01*
G01*
X74393900Y-147433099D01*
G75*
G02*
X74593899Y-147233100I199999J0D01*
G01*
X74878901Y-147233100D01*
G75*
G02*
X75078900Y-147433099I0J-199999D01*
G01*
X75078900Y-148433101D01*
G75*
G02*
X74878901Y-148633100I-199999J0D01*
G01*
G37*
G36*
G01*
X74378901Y-148633100D02*
X74093899Y-148633100D01*
G75*
G02*
X73893900Y-148433101I0J199999D01*
G01*
X73893900Y-147433099D01*
G75*
G02*
X74093899Y-147233100I199999J0D01*
G01*
X74378901Y-147233100D01*
G75*
G02*
X74578900Y-147433099I0J-199999D01*
G01*
X74578900Y-148433101D01*
G75*
G02*
X74378901Y-148633100I-199999J0D01*
G01*
G37*
G36*
G01*
X73878901Y-148633100D02*
X73593899Y-148633100D01*
G75*
G02*
X73393900Y-148433101I0J199999D01*
G01*
X73393900Y-147433099D01*
G75*
G02*
X73593899Y-147233100I199999J0D01*
G01*
X73878901Y-147233100D01*
G75*
G02*
X74078900Y-147433099I0J-199999D01*
G01*
X74078900Y-148433101D01*
G75*
G02*
X73878901Y-148633100I-199999J0D01*
G01*
G37*
G36*
G01*
X73378901Y-148633100D02*
X73093899Y-148633100D01*
G75*
G02*
X72893900Y-148433101I0J199999D01*
G01*
X72893900Y-147433099D01*
G75*
G02*
X73093899Y-147233100I199999J0D01*
G01*
X73378901Y-147233100D01*
G75*
G02*
X73578900Y-147433099I0J-199999D01*
G01*
X73578900Y-148433101D01*
G75*
G02*
X73378901Y-148633100I-199999J0D01*
G01*
G37*
G36*
G01*
X72878901Y-148633100D02*
X72593899Y-148633100D01*
G75*
G02*
X72393900Y-148433101I0J199999D01*
G01*
X72393900Y-147433099D01*
G75*
G02*
X72593899Y-147233100I199999J0D01*
G01*
X72878901Y-147233100D01*
G75*
G02*
X73078900Y-147433099I0J-199999D01*
G01*
X73078900Y-148433101D01*
G75*
G02*
X72878901Y-148633100I-199999J0D01*
G01*
G37*
G36*
G01*
X72378901Y-148633100D02*
X72093899Y-148633100D01*
G75*
G02*
X71893900Y-148433101I0J199999D01*
G01*
X71893900Y-147433099D01*
G75*
G02*
X72093899Y-147233100I199999J0D01*
G01*
X72378901Y-147233100D01*
G75*
G02*
X72578900Y-147433099I0J-199999D01*
G01*
X72578900Y-148433101D01*
G75*
G02*
X72378901Y-148633100I-199999J0D01*
G01*
G37*
G36*
G01*
X71878901Y-148633100D02*
X71593899Y-148633100D01*
G75*
G02*
X71393900Y-148433101I0J199999D01*
G01*
X71393900Y-147433099D01*
G75*
G02*
X71593899Y-147233100I199999J0D01*
G01*
X71878901Y-147233100D01*
G75*
G02*
X72078900Y-147433099I0J-199999D01*
G01*
X72078900Y-148433101D01*
G75*
G02*
X71878901Y-148633100I-199999J0D01*
G01*
G37*
G36*
G01*
X71378901Y-148633100D02*
X71093899Y-148633100D01*
G75*
G02*
X70893900Y-148433101I0J199999D01*
G01*
X70893900Y-147433099D01*
G75*
G02*
X71093899Y-147233100I199999J0D01*
G01*
X71378901Y-147233100D01*
G75*
G02*
X71578900Y-147433099I0J-199999D01*
G01*
X71578900Y-148433101D01*
G75*
G02*
X71378901Y-148633100I-199999J0D01*
G01*
G37*
%TD*%
%TO.C,U3*%
G36*
G01*
X95378901Y-141133100D02*
X95093899Y-141133100D01*
G75*
G02*
X94893900Y-140933101I0J199999D01*
G01*
X94893900Y-139933099D01*
G75*
G02*
X95093899Y-139733100I199999J0D01*
G01*
X95378901Y-139733100D01*
G75*
G02*
X95578900Y-139933099I0J-199999D01*
G01*
X95578900Y-140933101D01*
G75*
G02*
X95378901Y-141133100I-199999J0D01*
G01*
G37*
G36*
G01*
X95878901Y-141133100D02*
X95593899Y-141133100D01*
G75*
G02*
X95393900Y-140933101I0J199999D01*
G01*
X95393900Y-139933099D01*
G75*
G02*
X95593899Y-139733100I199999J0D01*
G01*
X95878901Y-139733100D01*
G75*
G02*
X96078900Y-139933099I0J-199999D01*
G01*
X96078900Y-140933101D01*
G75*
G02*
X95878901Y-141133100I-199999J0D01*
G01*
G37*
G36*
G01*
X96378901Y-141133100D02*
X96093899Y-141133100D01*
G75*
G02*
X95893900Y-140933101I0J199999D01*
G01*
X95893900Y-139933099D01*
G75*
G02*
X96093899Y-139733100I199999J0D01*
G01*
X96378901Y-139733100D01*
G75*
G02*
X96578900Y-139933099I0J-199999D01*
G01*
X96578900Y-140933101D01*
G75*
G02*
X96378901Y-141133100I-199999J0D01*
G01*
G37*
G36*
G01*
X96878901Y-141133100D02*
X96593899Y-141133100D01*
G75*
G02*
X96393900Y-140933101I0J199999D01*
G01*
X96393900Y-139933099D01*
G75*
G02*
X96593899Y-139733100I199999J0D01*
G01*
X96878901Y-139733100D01*
G75*
G02*
X97078900Y-139933099I0J-199999D01*
G01*
X97078900Y-140933101D01*
G75*
G02*
X96878901Y-141133100I-199999J0D01*
G01*
G37*
G36*
G01*
X97378901Y-141133100D02*
X97093899Y-141133100D01*
G75*
G02*
X96893900Y-140933101I0J199999D01*
G01*
X96893900Y-139933099D01*
G75*
G02*
X97093899Y-139733100I199999J0D01*
G01*
X97378901Y-139733100D01*
G75*
G02*
X97578900Y-139933099I0J-199999D01*
G01*
X97578900Y-140933101D01*
G75*
G02*
X97378901Y-141133100I-199999J0D01*
G01*
G37*
G36*
G01*
X97878901Y-141133100D02*
X97593899Y-141133100D01*
G75*
G02*
X97393900Y-140933101I0J199999D01*
G01*
X97393900Y-139933099D01*
G75*
G02*
X97593899Y-139733100I199999J0D01*
G01*
X97878901Y-139733100D01*
G75*
G02*
X98078900Y-139933099I0J-199999D01*
G01*
X98078900Y-140933101D01*
G75*
G02*
X97878901Y-141133100I-199999J0D01*
G01*
G37*
G36*
G01*
X98378901Y-141133100D02*
X98093899Y-141133100D01*
G75*
G02*
X97893900Y-140933101I0J199999D01*
G01*
X97893900Y-139933099D01*
G75*
G02*
X98093899Y-139733100I199999J0D01*
G01*
X98378901Y-139733100D01*
G75*
G02*
X98578900Y-139933099I0J-199999D01*
G01*
X98578900Y-140933101D01*
G75*
G02*
X98378901Y-141133100I-199999J0D01*
G01*
G37*
G36*
G01*
X98878901Y-141133100D02*
X98593899Y-141133100D01*
G75*
G02*
X98393900Y-140933101I0J199999D01*
G01*
X98393900Y-139933099D01*
G75*
G02*
X98593899Y-139733100I199999J0D01*
G01*
X98878901Y-139733100D01*
G75*
G02*
X99078900Y-139933099I0J-199999D01*
G01*
X99078900Y-140933101D01*
G75*
G02*
X98878901Y-141133100I-199999J0D01*
G01*
G37*
G36*
G01*
X99378901Y-141133100D02*
X99093899Y-141133100D01*
G75*
G02*
X98893900Y-140933101I0J199999D01*
G01*
X98893900Y-139933099D01*
G75*
G02*
X99093899Y-139733100I199999J0D01*
G01*
X99378901Y-139733100D01*
G75*
G02*
X99578900Y-139933099I0J-199999D01*
G01*
X99578900Y-140933101D01*
G75*
G02*
X99378901Y-141133100I-199999J0D01*
G01*
G37*
G36*
G01*
X99878901Y-141133100D02*
X99593899Y-141133100D01*
G75*
G02*
X99393900Y-140933101I0J199999D01*
G01*
X99393900Y-139933099D01*
G75*
G02*
X99593899Y-139733100I199999J0D01*
G01*
X99878901Y-139733100D01*
G75*
G02*
X100078900Y-139933099I0J-199999D01*
G01*
X100078900Y-140933101D01*
G75*
G02*
X99878901Y-141133100I-199999J0D01*
G01*
G37*
G36*
G01*
X100378901Y-141133100D02*
X100093899Y-141133100D01*
G75*
G02*
X99893900Y-140933101I0J199999D01*
G01*
X99893900Y-139933099D01*
G75*
G02*
X100093899Y-139733100I199999J0D01*
G01*
X100378901Y-139733100D01*
G75*
G02*
X100578900Y-139933099I0J-199999D01*
G01*
X100578900Y-140933101D01*
G75*
G02*
X100378901Y-141133100I-199999J0D01*
G01*
G37*
G36*
G01*
X100878901Y-141133100D02*
X100593899Y-141133100D01*
G75*
G02*
X100393900Y-140933101I0J199999D01*
G01*
X100393900Y-139933099D01*
G75*
G02*
X100593899Y-139733100I199999J0D01*
G01*
X100878901Y-139733100D01*
G75*
G02*
X101078900Y-139933099I0J-199999D01*
G01*
X101078900Y-140933101D01*
G75*
G02*
X100878901Y-141133100I-199999J0D01*
G01*
G37*
G36*
G01*
X101378901Y-141133100D02*
X101093899Y-141133100D01*
G75*
G02*
X100893900Y-140933101I0J199999D01*
G01*
X100893900Y-139933099D01*
G75*
G02*
X101093899Y-139733100I199999J0D01*
G01*
X101378901Y-139733100D01*
G75*
G02*
X101578900Y-139933099I0J-199999D01*
G01*
X101578900Y-140933101D01*
G75*
G02*
X101378901Y-141133100I-199999J0D01*
G01*
G37*
G36*
G01*
X101878901Y-141133100D02*
X101593899Y-141133100D01*
G75*
G02*
X101393900Y-140933101I0J199999D01*
G01*
X101393900Y-139933099D01*
G75*
G02*
X101593899Y-139733100I199999J0D01*
G01*
X101878901Y-139733100D01*
G75*
G02*
X102078900Y-139933099I0J-199999D01*
G01*
X102078900Y-140933101D01*
G75*
G02*
X101878901Y-141133100I-199999J0D01*
G01*
G37*
G36*
G01*
X102378901Y-141133100D02*
X102093899Y-141133100D01*
G75*
G02*
X101893900Y-140933101I0J199999D01*
G01*
X101893900Y-139933099D01*
G75*
G02*
X102093899Y-139733100I199999J0D01*
G01*
X102378901Y-139733100D01*
G75*
G02*
X102578900Y-139933099I0J-199999D01*
G01*
X102578900Y-140933101D01*
G75*
G02*
X102378901Y-141133100I-199999J0D01*
G01*
G37*
G36*
G01*
X102878901Y-141133100D02*
X102593899Y-141133100D01*
G75*
G02*
X102393900Y-140933101I0J199999D01*
G01*
X102393900Y-139933099D01*
G75*
G02*
X102593899Y-139733100I199999J0D01*
G01*
X102878901Y-139733100D01*
G75*
G02*
X103078900Y-139933099I0J-199999D01*
G01*
X103078900Y-140933101D01*
G75*
G02*
X102878901Y-141133100I-199999J0D01*
G01*
G37*
G36*
G01*
X103378901Y-141133100D02*
X103093899Y-141133100D01*
G75*
G02*
X102893900Y-140933101I0J199999D01*
G01*
X102893900Y-139933099D01*
G75*
G02*
X103093899Y-139733100I199999J0D01*
G01*
X103378901Y-139733100D01*
G75*
G02*
X103578900Y-139933099I0J-199999D01*
G01*
X103578900Y-140933101D01*
G75*
G02*
X103378901Y-141133100I-199999J0D01*
G01*
G37*
G36*
G01*
X103878901Y-141133100D02*
X103593899Y-141133100D01*
G75*
G02*
X103393900Y-140933101I0J199999D01*
G01*
X103393900Y-139933099D01*
G75*
G02*
X103593899Y-139733100I199999J0D01*
G01*
X103878901Y-139733100D01*
G75*
G02*
X104078900Y-139933099I0J-199999D01*
G01*
X104078900Y-140933101D01*
G75*
G02*
X103878901Y-141133100I-199999J0D01*
G01*
G37*
G36*
G01*
X104378901Y-141133100D02*
X104093899Y-141133100D01*
G75*
G02*
X103893900Y-140933101I0J199999D01*
G01*
X103893900Y-139933099D01*
G75*
G02*
X104093899Y-139733100I199999J0D01*
G01*
X104378901Y-139733100D01*
G75*
G02*
X104578900Y-139933099I0J-199999D01*
G01*
X104578900Y-140933101D01*
G75*
G02*
X104378901Y-141133100I-199999J0D01*
G01*
G37*
G36*
G01*
X104878901Y-141133100D02*
X104593899Y-141133100D01*
G75*
G02*
X104393900Y-140933101I0J199999D01*
G01*
X104393900Y-139933099D01*
G75*
G02*
X104593899Y-139733100I199999J0D01*
G01*
X104878901Y-139733100D01*
G75*
G02*
X105078900Y-139933099I0J-199999D01*
G01*
X105078900Y-140933101D01*
G75*
G02*
X104878901Y-141133100I-199999J0D01*
G01*
G37*
G36*
G01*
X105378901Y-141133100D02*
X105093899Y-141133100D01*
G75*
G02*
X104893900Y-140933101I0J199999D01*
G01*
X104893900Y-139933099D01*
G75*
G02*
X105093899Y-139733100I199999J0D01*
G01*
X105378901Y-139733100D01*
G75*
G02*
X105578900Y-139933099I0J-199999D01*
G01*
X105578900Y-140933101D01*
G75*
G02*
X105378901Y-141133100I-199999J0D01*
G01*
G37*
G36*
G01*
X105878901Y-141133100D02*
X105593899Y-141133100D01*
G75*
G02*
X105393900Y-140933101I0J199999D01*
G01*
X105393900Y-139933099D01*
G75*
G02*
X105593899Y-139733100I199999J0D01*
G01*
X105878901Y-139733100D01*
G75*
G02*
X106078900Y-139933099I0J-199999D01*
G01*
X106078900Y-140933101D01*
G75*
G02*
X105878901Y-141133100I-199999J0D01*
G01*
G37*
G36*
G01*
X106378901Y-141133100D02*
X106093899Y-141133100D01*
G75*
G02*
X105893900Y-140933101I0J199999D01*
G01*
X105893900Y-139933099D01*
G75*
G02*
X106093899Y-139733100I199999J0D01*
G01*
X106378901Y-139733100D01*
G75*
G02*
X106578900Y-139933099I0J-199999D01*
G01*
X106578900Y-140933101D01*
G75*
G02*
X106378901Y-141133100I-199999J0D01*
G01*
G37*
G36*
G01*
X106878901Y-141133100D02*
X106593899Y-141133100D01*
G75*
G02*
X106393900Y-140933101I0J199999D01*
G01*
X106393900Y-139933099D01*
G75*
G02*
X106593899Y-139733100I199999J0D01*
G01*
X106878901Y-139733100D01*
G75*
G02*
X107078900Y-139933099I0J-199999D01*
G01*
X107078900Y-140933101D01*
G75*
G02*
X106878901Y-141133100I-199999J0D01*
G01*
G37*
G36*
G01*
X107378901Y-141133100D02*
X107093899Y-141133100D01*
G75*
G02*
X106893900Y-140933101I0J199999D01*
G01*
X106893900Y-139933099D01*
G75*
G02*
X107093899Y-139733100I199999J0D01*
G01*
X107378901Y-139733100D01*
G75*
G02*
X107578900Y-139933099I0J-199999D01*
G01*
X107578900Y-140933101D01*
G75*
G02*
X107378901Y-141133100I-199999J0D01*
G01*
G37*
G36*
G01*
X107878901Y-141133100D02*
X107593899Y-141133100D01*
G75*
G02*
X107393900Y-140933101I0J199999D01*
G01*
X107393900Y-139933099D01*
G75*
G02*
X107593899Y-139733100I199999J0D01*
G01*
X107878901Y-139733100D01*
G75*
G02*
X108078900Y-139933099I0J-199999D01*
G01*
X108078900Y-140933101D01*
G75*
G02*
X107878901Y-141133100I-199999J0D01*
G01*
G37*
G36*
G01*
X108378901Y-141133100D02*
X108093899Y-141133100D01*
G75*
G02*
X107893900Y-140933101I0J199999D01*
G01*
X107893900Y-139933099D01*
G75*
G02*
X108093899Y-139733100I199999J0D01*
G01*
X108378901Y-139733100D01*
G75*
G02*
X108578900Y-139933099I0J-199999D01*
G01*
X108578900Y-140933101D01*
G75*
G02*
X108378901Y-141133100I-199999J0D01*
G01*
G37*
G36*
G01*
X108878901Y-141133100D02*
X108593899Y-141133100D01*
G75*
G02*
X108393900Y-140933101I0J199999D01*
G01*
X108393900Y-139933099D01*
G75*
G02*
X108593899Y-139733100I199999J0D01*
G01*
X108878901Y-139733100D01*
G75*
G02*
X109078900Y-139933099I0J-199999D01*
G01*
X109078900Y-140933101D01*
G75*
G02*
X108878901Y-141133100I-199999J0D01*
G01*
G37*
G36*
G01*
X108878901Y-148633100D02*
X108593899Y-148633100D01*
G75*
G02*
X108393900Y-148433101I0J199999D01*
G01*
X108393900Y-147433099D01*
G75*
G02*
X108593899Y-147233100I199999J0D01*
G01*
X108878901Y-147233100D01*
G75*
G02*
X109078900Y-147433099I0J-199999D01*
G01*
X109078900Y-148433101D01*
G75*
G02*
X108878901Y-148633100I-199999J0D01*
G01*
G37*
G36*
G01*
X108378901Y-148633100D02*
X108093899Y-148633100D01*
G75*
G02*
X107893900Y-148433101I0J199999D01*
G01*
X107893900Y-147433099D01*
G75*
G02*
X108093899Y-147233100I199999J0D01*
G01*
X108378901Y-147233100D01*
G75*
G02*
X108578900Y-147433099I0J-199999D01*
G01*
X108578900Y-148433101D01*
G75*
G02*
X108378901Y-148633100I-199999J0D01*
G01*
G37*
G36*
G01*
X107878901Y-148633100D02*
X107593899Y-148633100D01*
G75*
G02*
X107393900Y-148433101I0J199999D01*
G01*
X107393900Y-147433099D01*
G75*
G02*
X107593899Y-147233100I199999J0D01*
G01*
X107878901Y-147233100D01*
G75*
G02*
X108078900Y-147433099I0J-199999D01*
G01*
X108078900Y-148433101D01*
G75*
G02*
X107878901Y-148633100I-199999J0D01*
G01*
G37*
G36*
G01*
X107378901Y-148633100D02*
X107093899Y-148633100D01*
G75*
G02*
X106893900Y-148433101I0J199999D01*
G01*
X106893900Y-147433099D01*
G75*
G02*
X107093899Y-147233100I199999J0D01*
G01*
X107378901Y-147233100D01*
G75*
G02*
X107578900Y-147433099I0J-199999D01*
G01*
X107578900Y-148433101D01*
G75*
G02*
X107378901Y-148633100I-199999J0D01*
G01*
G37*
G36*
G01*
X106878901Y-148633100D02*
X106593899Y-148633100D01*
G75*
G02*
X106393900Y-148433101I0J199999D01*
G01*
X106393900Y-147433099D01*
G75*
G02*
X106593899Y-147233100I199999J0D01*
G01*
X106878901Y-147233100D01*
G75*
G02*
X107078900Y-147433099I0J-199999D01*
G01*
X107078900Y-148433101D01*
G75*
G02*
X106878901Y-148633100I-199999J0D01*
G01*
G37*
G36*
G01*
X106378901Y-148633100D02*
X106093899Y-148633100D01*
G75*
G02*
X105893900Y-148433101I0J199999D01*
G01*
X105893900Y-147433099D01*
G75*
G02*
X106093899Y-147233100I199999J0D01*
G01*
X106378901Y-147233100D01*
G75*
G02*
X106578900Y-147433099I0J-199999D01*
G01*
X106578900Y-148433101D01*
G75*
G02*
X106378901Y-148633100I-199999J0D01*
G01*
G37*
G36*
G01*
X105878901Y-148633100D02*
X105593899Y-148633100D01*
G75*
G02*
X105393900Y-148433101I0J199999D01*
G01*
X105393900Y-147433099D01*
G75*
G02*
X105593899Y-147233100I199999J0D01*
G01*
X105878901Y-147233100D01*
G75*
G02*
X106078900Y-147433099I0J-199999D01*
G01*
X106078900Y-148433101D01*
G75*
G02*
X105878901Y-148633100I-199999J0D01*
G01*
G37*
G36*
G01*
X105378901Y-148633100D02*
X105093899Y-148633100D01*
G75*
G02*
X104893900Y-148433101I0J199999D01*
G01*
X104893900Y-147433099D01*
G75*
G02*
X105093899Y-147233100I199999J0D01*
G01*
X105378901Y-147233100D01*
G75*
G02*
X105578900Y-147433099I0J-199999D01*
G01*
X105578900Y-148433101D01*
G75*
G02*
X105378901Y-148633100I-199999J0D01*
G01*
G37*
G36*
G01*
X104878901Y-148633100D02*
X104593899Y-148633100D01*
G75*
G02*
X104393900Y-148433101I0J199999D01*
G01*
X104393900Y-147433099D01*
G75*
G02*
X104593899Y-147233100I199999J0D01*
G01*
X104878901Y-147233100D01*
G75*
G02*
X105078900Y-147433099I0J-199999D01*
G01*
X105078900Y-148433101D01*
G75*
G02*
X104878901Y-148633100I-199999J0D01*
G01*
G37*
G36*
G01*
X104378901Y-148633100D02*
X104093899Y-148633100D01*
G75*
G02*
X103893900Y-148433101I0J199999D01*
G01*
X103893900Y-147433099D01*
G75*
G02*
X104093899Y-147233100I199999J0D01*
G01*
X104378901Y-147233100D01*
G75*
G02*
X104578900Y-147433099I0J-199999D01*
G01*
X104578900Y-148433101D01*
G75*
G02*
X104378901Y-148633100I-199999J0D01*
G01*
G37*
G36*
G01*
X103878901Y-148633100D02*
X103593899Y-148633100D01*
G75*
G02*
X103393900Y-148433101I0J199999D01*
G01*
X103393900Y-147433099D01*
G75*
G02*
X103593899Y-147233100I199999J0D01*
G01*
X103878901Y-147233100D01*
G75*
G02*
X104078900Y-147433099I0J-199999D01*
G01*
X104078900Y-148433101D01*
G75*
G02*
X103878901Y-148633100I-199999J0D01*
G01*
G37*
G36*
G01*
X103378901Y-148633100D02*
X103093899Y-148633100D01*
G75*
G02*
X102893900Y-148433101I0J199999D01*
G01*
X102893900Y-147433099D01*
G75*
G02*
X103093899Y-147233100I199999J0D01*
G01*
X103378901Y-147233100D01*
G75*
G02*
X103578900Y-147433099I0J-199999D01*
G01*
X103578900Y-148433101D01*
G75*
G02*
X103378901Y-148633100I-199999J0D01*
G01*
G37*
G36*
G01*
X102878901Y-148633100D02*
X102593899Y-148633100D01*
G75*
G02*
X102393900Y-148433101I0J199999D01*
G01*
X102393900Y-147433099D01*
G75*
G02*
X102593899Y-147233100I199999J0D01*
G01*
X102878901Y-147233100D01*
G75*
G02*
X103078900Y-147433099I0J-199999D01*
G01*
X103078900Y-148433101D01*
G75*
G02*
X102878901Y-148633100I-199999J0D01*
G01*
G37*
G36*
G01*
X102378901Y-148633100D02*
X102093899Y-148633100D01*
G75*
G02*
X101893900Y-148433101I0J199999D01*
G01*
X101893900Y-147433099D01*
G75*
G02*
X102093899Y-147233100I199999J0D01*
G01*
X102378901Y-147233100D01*
G75*
G02*
X102578900Y-147433099I0J-199999D01*
G01*
X102578900Y-148433101D01*
G75*
G02*
X102378901Y-148633100I-199999J0D01*
G01*
G37*
G36*
G01*
X101878901Y-148633100D02*
X101593899Y-148633100D01*
G75*
G02*
X101393900Y-148433101I0J199999D01*
G01*
X101393900Y-147433099D01*
G75*
G02*
X101593899Y-147233100I199999J0D01*
G01*
X101878901Y-147233100D01*
G75*
G02*
X102078900Y-147433099I0J-199999D01*
G01*
X102078900Y-148433101D01*
G75*
G02*
X101878901Y-148633100I-199999J0D01*
G01*
G37*
G36*
G01*
X101378901Y-148633100D02*
X101093899Y-148633100D01*
G75*
G02*
X100893900Y-148433101I0J199999D01*
G01*
X100893900Y-147433099D01*
G75*
G02*
X101093899Y-147233100I199999J0D01*
G01*
X101378901Y-147233100D01*
G75*
G02*
X101578900Y-147433099I0J-199999D01*
G01*
X101578900Y-148433101D01*
G75*
G02*
X101378901Y-148633100I-199999J0D01*
G01*
G37*
G36*
G01*
X100878901Y-148633100D02*
X100593899Y-148633100D01*
G75*
G02*
X100393900Y-148433101I0J199999D01*
G01*
X100393900Y-147433099D01*
G75*
G02*
X100593899Y-147233100I199999J0D01*
G01*
X100878901Y-147233100D01*
G75*
G02*
X101078900Y-147433099I0J-199999D01*
G01*
X101078900Y-148433101D01*
G75*
G02*
X100878901Y-148633100I-199999J0D01*
G01*
G37*
G36*
G01*
X100378901Y-148633100D02*
X100093899Y-148633100D01*
G75*
G02*
X99893900Y-148433101I0J199999D01*
G01*
X99893900Y-147433099D01*
G75*
G02*
X100093899Y-147233100I199999J0D01*
G01*
X100378901Y-147233100D01*
G75*
G02*
X100578900Y-147433099I0J-199999D01*
G01*
X100578900Y-148433101D01*
G75*
G02*
X100378901Y-148633100I-199999J0D01*
G01*
G37*
G36*
G01*
X99878901Y-148633100D02*
X99593899Y-148633100D01*
G75*
G02*
X99393900Y-148433101I0J199999D01*
G01*
X99393900Y-147433099D01*
G75*
G02*
X99593899Y-147233100I199999J0D01*
G01*
X99878901Y-147233100D01*
G75*
G02*
X100078900Y-147433099I0J-199999D01*
G01*
X100078900Y-148433101D01*
G75*
G02*
X99878901Y-148633100I-199999J0D01*
G01*
G37*
G36*
G01*
X99378901Y-148633100D02*
X99093899Y-148633100D01*
G75*
G02*
X98893900Y-148433101I0J199999D01*
G01*
X98893900Y-147433099D01*
G75*
G02*
X99093899Y-147233100I199999J0D01*
G01*
X99378901Y-147233100D01*
G75*
G02*
X99578900Y-147433099I0J-199999D01*
G01*
X99578900Y-148433101D01*
G75*
G02*
X99378901Y-148633100I-199999J0D01*
G01*
G37*
G36*
G01*
X98878901Y-148633100D02*
X98593899Y-148633100D01*
G75*
G02*
X98393900Y-148433101I0J199999D01*
G01*
X98393900Y-147433099D01*
G75*
G02*
X98593899Y-147233100I199999J0D01*
G01*
X98878901Y-147233100D01*
G75*
G02*
X99078900Y-147433099I0J-199999D01*
G01*
X99078900Y-148433101D01*
G75*
G02*
X98878901Y-148633100I-199999J0D01*
G01*
G37*
G36*
G01*
X98378901Y-148633100D02*
X98093899Y-148633100D01*
G75*
G02*
X97893900Y-148433101I0J199999D01*
G01*
X97893900Y-147433099D01*
G75*
G02*
X98093899Y-147233100I199999J0D01*
G01*
X98378901Y-147233100D01*
G75*
G02*
X98578900Y-147433099I0J-199999D01*
G01*
X98578900Y-148433101D01*
G75*
G02*
X98378901Y-148633100I-199999J0D01*
G01*
G37*
G36*
G01*
X97878901Y-148633100D02*
X97593899Y-148633100D01*
G75*
G02*
X97393900Y-148433101I0J199999D01*
G01*
X97393900Y-147433099D01*
G75*
G02*
X97593899Y-147233100I199999J0D01*
G01*
X97878901Y-147233100D01*
G75*
G02*
X98078900Y-147433099I0J-199999D01*
G01*
X98078900Y-148433101D01*
G75*
G02*
X97878901Y-148633100I-199999J0D01*
G01*
G37*
G36*
G01*
X97378901Y-148633100D02*
X97093899Y-148633100D01*
G75*
G02*
X96893900Y-148433101I0J199999D01*
G01*
X96893900Y-147433099D01*
G75*
G02*
X97093899Y-147233100I199999J0D01*
G01*
X97378901Y-147233100D01*
G75*
G02*
X97578900Y-147433099I0J-199999D01*
G01*
X97578900Y-148433101D01*
G75*
G02*
X97378901Y-148633100I-199999J0D01*
G01*
G37*
G36*
G01*
X96878901Y-148633100D02*
X96593899Y-148633100D01*
G75*
G02*
X96393900Y-148433101I0J199999D01*
G01*
X96393900Y-147433099D01*
G75*
G02*
X96593899Y-147233100I199999J0D01*
G01*
X96878901Y-147233100D01*
G75*
G02*
X97078900Y-147433099I0J-199999D01*
G01*
X97078900Y-148433101D01*
G75*
G02*
X96878901Y-148633100I-199999J0D01*
G01*
G37*
G36*
G01*
X96378901Y-148633100D02*
X96093899Y-148633100D01*
G75*
G02*
X95893900Y-148433101I0J199999D01*
G01*
X95893900Y-147433099D01*
G75*
G02*
X96093899Y-147233100I199999J0D01*
G01*
X96378901Y-147233100D01*
G75*
G02*
X96578900Y-147433099I0J-199999D01*
G01*
X96578900Y-148433101D01*
G75*
G02*
X96378901Y-148633100I-199999J0D01*
G01*
G37*
G36*
G01*
X95878901Y-148633100D02*
X95593899Y-148633100D01*
G75*
G02*
X95393900Y-148433101I0J199999D01*
G01*
X95393900Y-147433099D01*
G75*
G02*
X95593899Y-147233100I199999J0D01*
G01*
X95878901Y-147233100D01*
G75*
G02*
X96078900Y-147433099I0J-199999D01*
G01*
X96078900Y-148433101D01*
G75*
G02*
X95878901Y-148633100I-199999J0D01*
G01*
G37*
G36*
G01*
X95378901Y-148633100D02*
X95093899Y-148633100D01*
G75*
G02*
X94893900Y-148433101I0J199999D01*
G01*
X94893900Y-147433099D01*
G75*
G02*
X95093899Y-147233100I199999J0D01*
G01*
X95378901Y-147233100D01*
G75*
G02*
X95578900Y-147433099I0J-199999D01*
G01*
X95578900Y-148433101D01*
G75*
G02*
X95378901Y-148633100I-199999J0D01*
G01*
G37*
%TD*%
D13*
X116066012Y-172402664D02*
X57797346Y-172478535D01*
X57772655Y-163626800D01*
X116115383Y-163626800D01*
X116066012Y-172402664D01*
D14*
G36*
X116066012Y-172402664D02*
G01*
X57797346Y-172478535D01*
X57772655Y-163626800D01*
X116115383Y-163626800D01*
X116066012Y-172402664D01*
G37*
M02*
