%TF.GenerationSoftware,KiCad,Pcbnew,(5.1.9)-1*%
%TF.CreationDate,2024-11-26T15:48:13-08:00*%
%TF.ProjectId,RADA3K,52414441-334b-42e6-9b69-6361645f7063,rev?*%
%TF.SameCoordinates,Original*%
%TF.FileFunction,Legend,Top*%
%TF.FilePolarity,Positive*%
%FSLAX46Y46*%
G04 Gerber Fmt 4.6, Leading zero omitted, Abs format (unit mm)*
G04 Created by KiCad (PCBNEW (5.1.9)-1) date 2024-11-26 15:48:13*
%MOMM*%
%LPD*%
G01*
G04 APERTURE LIST*
%ADD10C,0.150000*%
%ADD11C,0.120000*%
G04 APERTURE END LIST*
D10*
X67077757Y-127237371D02*
X65934900Y-127665942D01*
X67077757Y-128094514D01*
X67792042Y-127665942D02*
X68934900Y-127665942D01*
X69649185Y-126737371D02*
X69649185Y-127951657D01*
X69720614Y-128094514D01*
X69792042Y-128165942D01*
X69934900Y-128237371D01*
X70220614Y-128237371D01*
X70363471Y-128165942D01*
X70434900Y-128094514D01*
X70506328Y-127951657D01*
X70506328Y-126737371D01*
X71149185Y-128165942D02*
X71363471Y-128237371D01*
X71720614Y-128237371D01*
X71863471Y-128165942D01*
X71934900Y-128094514D01*
X72006328Y-127951657D01*
X72006328Y-127808800D01*
X71934900Y-127665942D01*
X71863471Y-127594514D01*
X71720614Y-127523085D01*
X71434900Y-127451657D01*
X71292042Y-127380228D01*
X71220614Y-127308800D01*
X71149185Y-127165942D01*
X71149185Y-127023085D01*
X71220614Y-126880228D01*
X71292042Y-126808800D01*
X71434900Y-126737371D01*
X71792042Y-126737371D01*
X72006328Y-126808800D01*
X73149185Y-127451657D02*
X73363471Y-127523085D01*
X73434900Y-127594514D01*
X73506328Y-127737371D01*
X73506328Y-127951657D01*
X73434900Y-128094514D01*
X73363471Y-128165942D01*
X73220614Y-128237371D01*
X72649185Y-128237371D01*
X72649185Y-126737371D01*
X73149185Y-126737371D01*
X73292042Y-126808800D01*
X73363471Y-126880228D01*
X73434900Y-127023085D01*
X73434900Y-127165942D01*
X73363471Y-127308800D01*
X73292042Y-127380228D01*
X73149185Y-127451657D01*
X72649185Y-127451657D01*
X100050642Y-127580942D02*
X99150642Y-127580942D01*
X99793500Y-127280942D01*
X99150642Y-126980942D01*
X100050642Y-126980942D01*
X99150642Y-126552371D02*
X99879214Y-126552371D01*
X99964928Y-126509514D01*
X100007785Y-126466657D01*
X100050642Y-126380942D01*
X100050642Y-126209514D01*
X100007785Y-126123800D01*
X99964928Y-126080942D01*
X99879214Y-126038085D01*
X99150642Y-126038085D01*
X100007785Y-125652371D02*
X100050642Y-125523800D01*
X100050642Y-125309514D01*
X100007785Y-125223800D01*
X99964928Y-125180942D01*
X99879214Y-125138085D01*
X99793500Y-125138085D01*
X99707785Y-125180942D01*
X99664928Y-125223800D01*
X99622071Y-125309514D01*
X99579214Y-125480942D01*
X99536357Y-125566657D01*
X99493500Y-125609514D01*
X99407785Y-125652371D01*
X99322071Y-125652371D01*
X99236357Y-125609514D01*
X99193500Y-125566657D01*
X99150642Y-125480942D01*
X99150642Y-125266657D01*
X99193500Y-125138085D01*
X99150642Y-124880942D02*
X99150642Y-124366657D01*
X100050642Y-124623800D02*
X99150642Y-124623800D01*
X99579214Y-123080942D02*
X99622071Y-122952371D01*
X99664928Y-122909514D01*
X99750642Y-122866657D01*
X99879214Y-122866657D01*
X99964928Y-122909514D01*
X100007785Y-122952371D01*
X100050642Y-123038085D01*
X100050642Y-123380942D01*
X99150642Y-123380942D01*
X99150642Y-123080942D01*
X99193500Y-122995228D01*
X99236357Y-122952371D01*
X99322071Y-122909514D01*
X99407785Y-122909514D01*
X99493500Y-122952371D01*
X99536357Y-122995228D01*
X99579214Y-123080942D01*
X99579214Y-123380942D01*
X99579214Y-122480942D02*
X99579214Y-122180942D01*
X100050642Y-122052371D02*
X100050642Y-122480942D01*
X99150642Y-122480942D01*
X99150642Y-122052371D01*
X99964928Y-120466657D02*
X100007785Y-120509514D01*
X100050642Y-120638085D01*
X100050642Y-120723800D01*
X100007785Y-120852371D01*
X99922071Y-120938085D01*
X99836357Y-120980942D01*
X99664928Y-121023800D01*
X99536357Y-121023800D01*
X99364928Y-120980942D01*
X99279214Y-120938085D01*
X99193500Y-120852371D01*
X99150642Y-120723800D01*
X99150642Y-120638085D01*
X99193500Y-120509514D01*
X99236357Y-120466657D01*
X99150642Y-119909514D02*
X99150642Y-119738085D01*
X99193500Y-119652371D01*
X99279214Y-119566657D01*
X99450642Y-119523800D01*
X99750642Y-119523800D01*
X99922071Y-119566657D01*
X100007785Y-119652371D01*
X100050642Y-119738085D01*
X100050642Y-119909514D01*
X100007785Y-119995228D01*
X99922071Y-120080942D01*
X99750642Y-120123800D01*
X99450642Y-120123800D01*
X99279214Y-120080942D01*
X99193500Y-119995228D01*
X99150642Y-119909514D01*
X100050642Y-119138085D02*
X99150642Y-119138085D01*
X100050642Y-118623800D01*
X99150642Y-118623800D01*
X100050642Y-118195228D02*
X99150642Y-118195228D01*
X100050642Y-117680942D01*
X99150642Y-117680942D01*
X99579214Y-117252371D02*
X99579214Y-116952371D01*
X100050642Y-116823800D02*
X100050642Y-117252371D01*
X99150642Y-117252371D01*
X99150642Y-116823800D01*
X99964928Y-115923800D02*
X100007785Y-115966657D01*
X100050642Y-116095228D01*
X100050642Y-116180942D01*
X100007785Y-116309514D01*
X99922071Y-116395228D01*
X99836357Y-116438085D01*
X99664928Y-116480942D01*
X99536357Y-116480942D01*
X99364928Y-116438085D01*
X99279214Y-116395228D01*
X99193500Y-116309514D01*
X99150642Y-116180942D01*
X99150642Y-116095228D01*
X99193500Y-115966657D01*
X99236357Y-115923800D01*
X99150642Y-115666657D02*
X99150642Y-115152371D01*
X100050642Y-115409514D02*
X99150642Y-115409514D01*
X99579214Y-114852371D02*
X99579214Y-114552371D01*
X100050642Y-114423800D02*
X100050642Y-114852371D01*
X99150642Y-114852371D01*
X99150642Y-114423800D01*
X100050642Y-114038085D02*
X99150642Y-114038085D01*
X99150642Y-113823800D01*
X99193500Y-113695228D01*
X99279214Y-113609514D01*
X99364928Y-113566657D01*
X99536357Y-113523800D01*
X99664928Y-113523800D01*
X99836357Y-113566657D01*
X99922071Y-113609514D01*
X100007785Y-113695228D01*
X100050642Y-113823800D01*
X100050642Y-114038085D01*
X101079214Y-128395228D02*
X101079214Y-128695228D01*
X101550642Y-128695228D02*
X100650642Y-128695228D01*
X100650642Y-128266657D01*
X100650642Y-127752371D02*
X100650642Y-127580942D01*
X100693500Y-127495228D01*
X100779214Y-127409514D01*
X100950642Y-127366657D01*
X101250642Y-127366657D01*
X101422071Y-127409514D01*
X101507785Y-127495228D01*
X101550642Y-127580942D01*
X101550642Y-127752371D01*
X101507785Y-127838085D01*
X101422071Y-127923800D01*
X101250642Y-127966657D01*
X100950642Y-127966657D01*
X100779214Y-127923800D01*
X100693500Y-127838085D01*
X100650642Y-127752371D01*
X101550642Y-126466657D02*
X101122071Y-126766657D01*
X101550642Y-126980942D02*
X100650642Y-126980942D01*
X100650642Y-126638085D01*
X100693500Y-126552371D01*
X100736357Y-126509514D01*
X100822071Y-126466657D01*
X100950642Y-126466657D01*
X101036357Y-126509514D01*
X101079214Y-126552371D01*
X101122071Y-126638085D01*
X101122071Y-126980942D01*
X101550642Y-125395228D02*
X100650642Y-125395228D01*
X100650642Y-125052371D01*
X100693500Y-124966657D01*
X100736357Y-124923800D01*
X100822071Y-124880942D01*
X100950642Y-124880942D01*
X101036357Y-124923800D01*
X101079214Y-124966657D01*
X101122071Y-125052371D01*
X101122071Y-125395228D01*
X101550642Y-123980942D02*
X101122071Y-124280942D01*
X101550642Y-124495228D02*
X100650642Y-124495228D01*
X100650642Y-124152371D01*
X100693500Y-124066657D01*
X100736357Y-124023800D01*
X100822071Y-123980942D01*
X100950642Y-123980942D01*
X101036357Y-124023800D01*
X101079214Y-124066657D01*
X101122071Y-124152371D01*
X101122071Y-124495228D01*
X100650642Y-123423800D02*
X100650642Y-123252371D01*
X100693500Y-123166657D01*
X100779214Y-123080942D01*
X100950642Y-123038085D01*
X101250642Y-123038085D01*
X101422071Y-123080942D01*
X101507785Y-123166657D01*
X101550642Y-123252371D01*
X101550642Y-123423800D01*
X101507785Y-123509514D01*
X101422071Y-123595228D01*
X101250642Y-123638085D01*
X100950642Y-123638085D01*
X100779214Y-123595228D01*
X100693500Y-123509514D01*
X100650642Y-123423800D01*
X101550642Y-122652371D02*
X100650642Y-122652371D01*
X100650642Y-122309514D01*
X100693500Y-122223800D01*
X100736357Y-122180942D01*
X100822071Y-122138085D01*
X100950642Y-122138085D01*
X101036357Y-122180942D01*
X101079214Y-122223800D01*
X101122071Y-122309514D01*
X101122071Y-122652371D01*
X101079214Y-121752371D02*
X101079214Y-121452371D01*
X101550642Y-121323800D02*
X101550642Y-121752371D01*
X100650642Y-121752371D01*
X100650642Y-121323800D01*
X101550642Y-120423800D02*
X101122071Y-120723800D01*
X101550642Y-120938085D02*
X100650642Y-120938085D01*
X100650642Y-120595228D01*
X100693500Y-120509514D01*
X100736357Y-120466657D01*
X100822071Y-120423800D01*
X100950642Y-120423800D01*
X101036357Y-120466657D01*
X101079214Y-120509514D01*
X101122071Y-120595228D01*
X101122071Y-120938085D01*
X100650642Y-119180942D02*
X100650642Y-119009514D01*
X100693500Y-118923800D01*
X100779214Y-118838085D01*
X100950642Y-118795228D01*
X101250642Y-118795228D01*
X101422071Y-118838085D01*
X101507785Y-118923800D01*
X101550642Y-119009514D01*
X101550642Y-119180942D01*
X101507785Y-119266657D01*
X101422071Y-119352371D01*
X101250642Y-119395228D01*
X100950642Y-119395228D01*
X100779214Y-119352371D01*
X100693500Y-119266657D01*
X100650642Y-119180942D01*
X101550642Y-118409514D02*
X100650642Y-118409514D01*
X100650642Y-118066657D01*
X100693500Y-117980942D01*
X100736357Y-117938085D01*
X100822071Y-117895228D01*
X100950642Y-117895228D01*
X101036357Y-117938085D01*
X101079214Y-117980942D01*
X101122071Y-118066657D01*
X101122071Y-118409514D01*
X101079214Y-117509514D02*
X101079214Y-117209514D01*
X101550642Y-117080942D02*
X101550642Y-117509514D01*
X100650642Y-117509514D01*
X100650642Y-117080942D01*
X101550642Y-116180942D02*
X101122071Y-116480942D01*
X101550642Y-116695228D02*
X100650642Y-116695228D01*
X100650642Y-116352371D01*
X100693500Y-116266657D01*
X100736357Y-116223800D01*
X100822071Y-116180942D01*
X100950642Y-116180942D01*
X101036357Y-116223800D01*
X101079214Y-116266657D01*
X101122071Y-116352371D01*
X101122071Y-116695228D01*
X101293500Y-115838085D02*
X101293500Y-115409514D01*
X101550642Y-115923800D02*
X100650642Y-115623800D01*
X101550642Y-115323800D01*
X100650642Y-115152371D02*
X100650642Y-114638085D01*
X101550642Y-114895228D02*
X100650642Y-114895228D01*
X101550642Y-114338085D02*
X100650642Y-114338085D01*
X100650642Y-113738085D02*
X100650642Y-113566657D01*
X100693500Y-113480942D01*
X100779214Y-113395228D01*
X100950642Y-113352371D01*
X101250642Y-113352371D01*
X101422071Y-113395228D01*
X101507785Y-113480942D01*
X101550642Y-113566657D01*
X101550642Y-113738085D01*
X101507785Y-113823800D01*
X101422071Y-113909514D01*
X101250642Y-113952371D01*
X100950642Y-113952371D01*
X100779214Y-113909514D01*
X100693500Y-113823800D01*
X100650642Y-113738085D01*
X101550642Y-112966657D02*
X100650642Y-112966657D01*
X101550642Y-112452371D01*
X100650642Y-112452371D01*
X60454604Y-127664542D02*
X60454604Y-127512161D01*
X60492700Y-127435971D01*
X60568890Y-127359780D01*
X60721271Y-127321685D01*
X60987938Y-127321685D01*
X61140319Y-127359780D01*
X61216509Y-127435971D01*
X61254604Y-127512161D01*
X61254604Y-127664542D01*
X61216509Y-127740733D01*
X61140319Y-127816923D01*
X60987938Y-127855019D01*
X60721271Y-127855019D01*
X60568890Y-127816923D01*
X60492700Y-127740733D01*
X60454604Y-127664542D01*
X61254604Y-126978828D02*
X60454604Y-126978828D01*
X61254604Y-126521685D01*
X60454604Y-126521685D01*
X60835557Y-125531209D02*
X60835557Y-124921685D01*
X61064128Y-124921685D02*
X61064128Y-125531209D01*
X60835557Y-123931209D02*
X60835557Y-123664542D01*
X61254604Y-123550257D02*
X61254604Y-123931209D01*
X60454604Y-123931209D01*
X60454604Y-123550257D01*
X60454604Y-123283590D02*
X61254604Y-122750257D01*
X60454604Y-122750257D02*
X61254604Y-123283590D01*
X61254604Y-122445495D02*
X60454604Y-122445495D01*
X60454604Y-122140733D01*
X60492700Y-122064542D01*
X60530795Y-122026447D01*
X60606985Y-121988352D01*
X60721271Y-121988352D01*
X60797461Y-122026447D01*
X60835557Y-122064542D01*
X60873652Y-122140733D01*
X60873652Y-122445495D01*
X61254604Y-121035971D02*
X60454604Y-121035971D01*
X60454604Y-120731209D01*
X60492700Y-120655019D01*
X60530795Y-120616923D01*
X60606985Y-120578828D01*
X60721271Y-120578828D01*
X60797461Y-120616923D01*
X60835557Y-120655019D01*
X60873652Y-120731209D01*
X60873652Y-121035971D01*
X60454604Y-120083590D02*
X60454604Y-119931209D01*
X60492700Y-119855019D01*
X60568890Y-119778828D01*
X60721271Y-119740733D01*
X60987938Y-119740733D01*
X61140319Y-119778828D01*
X61216509Y-119855019D01*
X61254604Y-119931209D01*
X61254604Y-120083590D01*
X61216509Y-120159780D01*
X61140319Y-120235971D01*
X60987938Y-120274066D01*
X60721271Y-120274066D01*
X60568890Y-120235971D01*
X60492700Y-120159780D01*
X60454604Y-120083590D01*
X61254604Y-118940733D02*
X60873652Y-119207400D01*
X61254604Y-119397876D02*
X60454604Y-119397876D01*
X60454604Y-119093114D01*
X60492700Y-119016923D01*
X60530795Y-118978828D01*
X60606985Y-118940733D01*
X60721271Y-118940733D01*
X60797461Y-118978828D01*
X60835557Y-119016923D01*
X60873652Y-119093114D01*
X60873652Y-119397876D01*
X60454604Y-118712161D02*
X60454604Y-118255019D01*
X61254604Y-118483590D02*
X60454604Y-118483590D01*
X61254604Y-117378828D02*
X60454604Y-117378828D01*
X60454604Y-117074066D01*
X60492700Y-116997876D01*
X60530795Y-116959780D01*
X60606985Y-116921685D01*
X60721271Y-116921685D01*
X60797461Y-116959780D01*
X60835557Y-116997876D01*
X60873652Y-117074066D01*
X60873652Y-117378828D01*
X60454604Y-116655019D02*
X61254604Y-116464542D01*
X60683176Y-116312161D01*
X61254604Y-116159780D01*
X60454604Y-115969304D01*
X61254604Y-115207400D02*
X60873652Y-115474066D01*
X61254604Y-115664542D02*
X60454604Y-115664542D01*
X60454604Y-115359780D01*
X60492700Y-115283590D01*
X60530795Y-115245495D01*
X60606985Y-115207400D01*
X60721271Y-115207400D01*
X60797461Y-115245495D01*
X60835557Y-115283590D01*
X60873652Y-115359780D01*
X60873652Y-115664542D01*
X61804604Y-127664542D02*
X61804604Y-127512161D01*
X61842700Y-127435971D01*
X61918890Y-127359780D01*
X62071271Y-127321685D01*
X62337938Y-127321685D01*
X62490319Y-127359780D01*
X62566509Y-127435971D01*
X62604604Y-127512161D01*
X62604604Y-127664542D01*
X62566509Y-127740733D01*
X62490319Y-127816923D01*
X62337938Y-127855019D01*
X62071271Y-127855019D01*
X61918890Y-127816923D01*
X61842700Y-127740733D01*
X61804604Y-127664542D01*
X62185557Y-126712161D02*
X62185557Y-126978828D01*
X62604604Y-126978828D02*
X61804604Y-126978828D01*
X61804604Y-126597876D01*
X62185557Y-126026447D02*
X62185557Y-126293114D01*
X62604604Y-126293114D02*
X61804604Y-126293114D01*
X61804604Y-125912161D01*
X62185557Y-124997876D02*
X62185557Y-124388352D01*
X62414128Y-124388352D02*
X62414128Y-124997876D01*
X61804604Y-123397876D02*
X62452223Y-123397876D01*
X62528414Y-123359780D01*
X62566509Y-123321685D01*
X62604604Y-123245495D01*
X62604604Y-123093114D01*
X62566509Y-123016923D01*
X62528414Y-122978828D01*
X62452223Y-122940733D01*
X61804604Y-122940733D01*
X62566509Y-122597876D02*
X62604604Y-122483590D01*
X62604604Y-122293114D01*
X62566509Y-122216923D01*
X62528414Y-122178828D01*
X62452223Y-122140733D01*
X62376033Y-122140733D01*
X62299842Y-122178828D01*
X62261747Y-122216923D01*
X62223652Y-122293114D01*
X62185557Y-122445495D01*
X62147461Y-122521685D01*
X62109366Y-122559780D01*
X62033176Y-122597876D01*
X61956985Y-122597876D01*
X61880795Y-122559780D01*
X61842700Y-122521685D01*
X61804604Y-122445495D01*
X61804604Y-122255019D01*
X61842700Y-122140733D01*
X62185557Y-121531209D02*
X62223652Y-121416923D01*
X62261747Y-121378828D01*
X62337938Y-121340733D01*
X62452223Y-121340733D01*
X62528414Y-121378828D01*
X62566509Y-121416923D01*
X62604604Y-121493114D01*
X62604604Y-121797876D01*
X61804604Y-121797876D01*
X61804604Y-121531209D01*
X61842700Y-121455019D01*
X61880795Y-121416923D01*
X61956985Y-121378828D01*
X62033176Y-121378828D01*
X62109366Y-121416923D01*
X62147461Y-121455019D01*
X62185557Y-121531209D01*
X62185557Y-121797876D01*
X61766509Y-120426447D02*
X62795080Y-121112161D01*
X62185557Y-119893114D02*
X62185557Y-120159780D01*
X62604604Y-120159780D02*
X61804604Y-120159780D01*
X61804604Y-119778828D01*
X62604604Y-119093114D02*
X62604604Y-119474066D01*
X61804604Y-119474066D01*
X62376033Y-118864542D02*
X62376033Y-118483590D01*
X62604604Y-118940733D02*
X61804604Y-118674066D01*
X62604604Y-118407400D01*
X62566509Y-118178828D02*
X62604604Y-118064542D01*
X62604604Y-117874066D01*
X62566509Y-117797876D01*
X62528414Y-117759780D01*
X62452223Y-117721685D01*
X62376033Y-117721685D01*
X62299842Y-117759780D01*
X62261747Y-117797876D01*
X62223652Y-117874066D01*
X62185557Y-118026447D01*
X62147461Y-118102638D01*
X62109366Y-118140733D01*
X62033176Y-118178828D01*
X61956985Y-118178828D01*
X61880795Y-118140733D01*
X61842700Y-118102638D01*
X61804604Y-118026447D01*
X61804604Y-117835971D01*
X61842700Y-117721685D01*
X62604604Y-117378828D02*
X61804604Y-117378828D01*
X62185557Y-117378828D02*
X62185557Y-116921685D01*
X62604604Y-116921685D02*
X61804604Y-116921685D01*
X62604604Y-115931209D02*
X61804604Y-115931209D01*
X62376033Y-115664542D01*
X61804604Y-115397876D01*
X62604604Y-115397876D01*
X61804604Y-114864542D02*
X61804604Y-114712161D01*
X61842700Y-114635971D01*
X61918890Y-114559780D01*
X62071271Y-114521685D01*
X62337938Y-114521685D01*
X62490319Y-114559780D01*
X62566509Y-114635971D01*
X62604604Y-114712161D01*
X62604604Y-114864542D01*
X62566509Y-114940733D01*
X62490319Y-115016923D01*
X62337938Y-115055019D01*
X62071271Y-115055019D01*
X61918890Y-115016923D01*
X61842700Y-114940733D01*
X61804604Y-114864542D01*
X62604604Y-114178828D02*
X61804604Y-114178828D01*
X61804604Y-113988352D01*
X61842700Y-113874066D01*
X61918890Y-113797876D01*
X61995080Y-113759780D01*
X62147461Y-113721685D01*
X62261747Y-113721685D01*
X62414128Y-113759780D01*
X62490319Y-113797876D01*
X62566509Y-113874066D01*
X62604604Y-113988352D01*
X62604604Y-114178828D01*
X62185557Y-113378828D02*
X62185557Y-113112161D01*
X62604604Y-112997876D02*
X62604604Y-113378828D01*
X61804604Y-113378828D01*
X61804604Y-112997876D01*
X63954604Y-127816923D02*
X63154604Y-127816923D01*
X63954604Y-127359780D01*
X63154604Y-127359780D01*
X63535557Y-126978828D02*
X63535557Y-126712161D01*
X63954604Y-126597876D02*
X63954604Y-126978828D01*
X63154604Y-126978828D01*
X63154604Y-126597876D01*
X63154604Y-126369304D02*
X63954604Y-126102638D01*
X63154604Y-125835971D01*
X63535557Y-125569304D02*
X63535557Y-125302638D01*
X63954604Y-125188352D02*
X63954604Y-125569304D01*
X63154604Y-125569304D01*
X63154604Y-125188352D01*
X63954604Y-124388352D02*
X63573652Y-124655019D01*
X63954604Y-124845495D02*
X63154604Y-124845495D01*
X63154604Y-124540733D01*
X63192700Y-124464542D01*
X63230795Y-124426447D01*
X63306985Y-124388352D01*
X63421271Y-124388352D01*
X63497461Y-124426447D01*
X63535557Y-124464542D01*
X63573652Y-124540733D01*
X63573652Y-124845495D01*
X63878414Y-122978828D02*
X63916509Y-123016923D01*
X63954604Y-123131209D01*
X63954604Y-123207400D01*
X63916509Y-123321685D01*
X63840319Y-123397876D01*
X63764128Y-123435971D01*
X63611747Y-123474066D01*
X63497461Y-123474066D01*
X63345080Y-123435971D01*
X63268890Y-123397876D01*
X63192700Y-123321685D01*
X63154604Y-123207400D01*
X63154604Y-123131209D01*
X63192700Y-123016923D01*
X63230795Y-122978828D01*
X63154604Y-122483590D02*
X63154604Y-122331209D01*
X63192700Y-122255019D01*
X63268890Y-122178828D01*
X63421271Y-122140733D01*
X63687938Y-122140733D01*
X63840319Y-122178828D01*
X63916509Y-122255019D01*
X63954604Y-122331209D01*
X63954604Y-122483590D01*
X63916509Y-122559780D01*
X63840319Y-122635971D01*
X63687938Y-122674066D01*
X63421271Y-122674066D01*
X63268890Y-122635971D01*
X63192700Y-122559780D01*
X63154604Y-122483590D01*
X63954604Y-121797876D02*
X63154604Y-121797876D01*
X63954604Y-121340733D01*
X63154604Y-121340733D01*
X63954604Y-120959780D02*
X63154604Y-120959780D01*
X63954604Y-120502638D01*
X63154604Y-120502638D01*
X63535557Y-120121685D02*
X63535557Y-119855019D01*
X63954604Y-119740733D02*
X63954604Y-120121685D01*
X63154604Y-120121685D01*
X63154604Y-119740733D01*
X63878414Y-118940733D02*
X63916509Y-118978828D01*
X63954604Y-119093114D01*
X63954604Y-119169304D01*
X63916509Y-119283590D01*
X63840319Y-119359780D01*
X63764128Y-119397876D01*
X63611747Y-119435971D01*
X63497461Y-119435971D01*
X63345080Y-119397876D01*
X63268890Y-119359780D01*
X63192700Y-119283590D01*
X63154604Y-119169304D01*
X63154604Y-119093114D01*
X63192700Y-118978828D01*
X63230795Y-118940733D01*
X63154604Y-118712161D02*
X63154604Y-118255019D01*
X63954604Y-118483590D02*
X63154604Y-118483590D01*
X63535557Y-117112161D02*
X63573652Y-116997876D01*
X63611747Y-116959780D01*
X63687938Y-116921685D01*
X63802223Y-116921685D01*
X63878414Y-116959780D01*
X63916509Y-116997876D01*
X63954604Y-117074066D01*
X63954604Y-117378828D01*
X63154604Y-117378828D01*
X63154604Y-117112161D01*
X63192700Y-117035971D01*
X63230795Y-116997876D01*
X63306985Y-116959780D01*
X63383176Y-116959780D01*
X63459366Y-116997876D01*
X63497461Y-117035971D01*
X63535557Y-117112161D01*
X63535557Y-117378828D01*
X63154604Y-116426447D02*
X63154604Y-116274066D01*
X63192700Y-116197876D01*
X63268890Y-116121685D01*
X63421271Y-116083590D01*
X63687938Y-116083590D01*
X63840319Y-116121685D01*
X63916509Y-116197876D01*
X63954604Y-116274066D01*
X63954604Y-116426447D01*
X63916509Y-116502638D01*
X63840319Y-116578828D01*
X63687938Y-116616923D01*
X63421271Y-116616923D01*
X63268890Y-116578828D01*
X63192700Y-116502638D01*
X63154604Y-116426447D01*
X63154604Y-115855019D02*
X63154604Y-115397876D01*
X63954604Y-115626447D02*
X63154604Y-115626447D01*
X63954604Y-115131209D02*
X63154604Y-115131209D01*
X63535557Y-115131209D02*
X63535557Y-114674066D01*
X63954604Y-114674066D02*
X63154604Y-114674066D01*
X63878414Y-114293114D02*
X63916509Y-114255019D01*
X63954604Y-114293114D01*
X63916509Y-114331209D01*
X63878414Y-114293114D01*
X63954604Y-114293114D01*
X63649842Y-114293114D02*
X63192700Y-114331209D01*
X63154604Y-114293114D01*
X63192700Y-114255019D01*
X63649842Y-114293114D01*
X63154604Y-114293114D01*
X105396328Y-127016771D02*
X105896328Y-128516771D01*
X106396328Y-127016771D01*
X106896328Y-128516771D02*
X106896328Y-127016771D01*
X107610614Y-128516771D02*
X107610614Y-127016771D01*
X107967757Y-127016771D01*
X108182042Y-127088200D01*
X108324900Y-127231057D01*
X108396328Y-127373914D01*
X108467757Y-127659628D01*
X108467757Y-127873914D01*
X108396328Y-128159628D01*
X108324900Y-128302485D01*
X108182042Y-128445342D01*
X107967757Y-128516771D01*
X107610614Y-128516771D01*
X109110614Y-127731057D02*
X109610614Y-127731057D01*
X109824900Y-128516771D02*
X109110614Y-128516771D01*
X109110614Y-127016771D01*
X109824900Y-127016771D01*
X110753471Y-127016771D02*
X111039185Y-127016771D01*
X111182042Y-127088200D01*
X111324900Y-127231057D01*
X111396328Y-127516771D01*
X111396328Y-128016771D01*
X111324900Y-128302485D01*
X111182042Y-128445342D01*
X111039185Y-128516771D01*
X110753471Y-128516771D01*
X110610614Y-128445342D01*
X110467757Y-128302485D01*
X110396328Y-128016771D01*
X110396328Y-127516771D01*
X110467757Y-127231057D01*
X110610614Y-127088200D01*
X110753471Y-127016771D01*
X112039185Y-127945342D02*
X113182042Y-127945342D01*
X113896328Y-127516771D02*
X115039185Y-127945342D01*
X113896328Y-128373914D01*
X110192976Y-122209019D02*
X110954880Y-122209019D01*
X111669166Y-122113780D02*
X111192976Y-122113780D01*
X111192976Y-121113780D01*
X112192976Y-121113780D02*
X112383452Y-121113780D01*
X112478690Y-121161400D01*
X112573928Y-121256638D01*
X112621547Y-121447114D01*
X112621547Y-121780447D01*
X112573928Y-121970923D01*
X112478690Y-122066161D01*
X112383452Y-122113780D01*
X112192976Y-122113780D01*
X112097738Y-122066161D01*
X112002500Y-121970923D01*
X111954880Y-121780447D01*
X111954880Y-121447114D01*
X112002500Y-121256638D01*
X112097738Y-121161400D01*
X112192976Y-121113780D01*
X113621547Y-122113780D02*
X113288214Y-121637590D01*
X113050119Y-122113780D02*
X113050119Y-121113780D01*
X113431071Y-121113780D01*
X113526309Y-121161400D01*
X113573928Y-121209019D01*
X113621547Y-121304257D01*
X113621547Y-121447114D01*
X113573928Y-121542352D01*
X113526309Y-121589971D01*
X113431071Y-121637590D01*
X113050119Y-121637590D01*
X114002500Y-121828066D02*
X114478690Y-121828066D01*
X113907261Y-122113780D02*
X114240595Y-121113780D01*
X114573928Y-122113780D01*
X114907261Y-122113780D02*
X114907261Y-121113780D01*
X115240595Y-121828066D01*
X115573928Y-121113780D01*
X115573928Y-122113780D01*
X110258042Y-119694419D02*
X111019947Y-119694419D01*
X111258042Y-119599180D02*
X111258042Y-118599180D01*
X111258042Y-119075371D02*
X111829471Y-119075371D01*
X111829471Y-119599180D02*
X111829471Y-118599180D01*
X112305661Y-119599180D02*
X112305661Y-118599180D01*
X113353280Y-119599180D02*
X113019947Y-119122990D01*
X112781852Y-119599180D02*
X112781852Y-118599180D01*
X113162804Y-118599180D01*
X113258042Y-118646800D01*
X113305661Y-118694419D01*
X113353280Y-118789657D01*
X113353280Y-118932514D01*
X113305661Y-119027752D01*
X113258042Y-119075371D01*
X113162804Y-119122990D01*
X112781852Y-119122990D01*
X113734233Y-119313466D02*
X114210423Y-119313466D01*
X113638995Y-119599180D02*
X113972328Y-118599180D01*
X114305661Y-119599180D01*
X114638995Y-119599180D02*
X114638995Y-118599180D01*
X114972328Y-119313466D01*
X115305661Y-118599180D01*
X115305661Y-119599180D01*
X110200976Y-117052819D02*
X110962880Y-117052819D01*
X111772404Y-116862342D02*
X111724785Y-116909961D01*
X111581928Y-116957580D01*
X111486690Y-116957580D01*
X111343833Y-116909961D01*
X111248595Y-116814723D01*
X111200976Y-116719485D01*
X111153357Y-116529009D01*
X111153357Y-116386152D01*
X111200976Y-116195676D01*
X111248595Y-116100438D01*
X111343833Y-116005200D01*
X111486690Y-115957580D01*
X111581928Y-115957580D01*
X111724785Y-116005200D01*
X111772404Y-116052819D01*
X112200976Y-116957580D02*
X112200976Y-115957580D01*
X112200976Y-116433771D02*
X112772404Y-116433771D01*
X112772404Y-116957580D02*
X112772404Y-115957580D01*
X113200976Y-116671866D02*
X113677166Y-116671866D01*
X113105738Y-116957580D02*
X113439071Y-115957580D01*
X113772404Y-116957580D01*
X114677166Y-116957580D02*
X114343833Y-116481390D01*
X114105738Y-116957580D02*
X114105738Y-115957580D01*
X114486690Y-115957580D01*
X114581928Y-116005200D01*
X114629547Y-116052819D01*
X114677166Y-116148057D01*
X114677166Y-116290914D01*
X114629547Y-116386152D01*
X114581928Y-116433771D01*
X114486690Y-116481390D01*
X114105738Y-116481390D01*
X115105738Y-116433771D02*
X115439071Y-116433771D01*
X115581928Y-116957580D02*
X115105738Y-116957580D01*
X115105738Y-115957580D01*
X115581928Y-115957580D01*
X116010500Y-116957580D02*
X116010500Y-115957580D01*
X116581928Y-116957580D01*
X116581928Y-115957580D01*
X76809485Y-104040942D02*
X76761866Y-104088561D01*
X76619009Y-104136180D01*
X76523771Y-104136180D01*
X76380914Y-104088561D01*
X76285676Y-103993323D01*
X76238057Y-103898085D01*
X76190438Y-103707609D01*
X76190438Y-103564752D01*
X76238057Y-103374276D01*
X76285676Y-103279038D01*
X76380914Y-103183800D01*
X76523771Y-103136180D01*
X76619009Y-103136180D01*
X76761866Y-103183800D01*
X76809485Y-103231419D01*
X77666628Y-103136180D02*
X77476152Y-103136180D01*
X77380914Y-103183800D01*
X77333295Y-103231419D01*
X77238057Y-103374276D01*
X77190438Y-103564752D01*
X77190438Y-103945704D01*
X77238057Y-104040942D01*
X77285676Y-104088561D01*
X77380914Y-104136180D01*
X77571390Y-104136180D01*
X77666628Y-104088561D01*
X77714247Y-104040942D01*
X77761866Y-103945704D01*
X77761866Y-103707609D01*
X77714247Y-103612371D01*
X77666628Y-103564752D01*
X77571390Y-103517133D01*
X77380914Y-103517133D01*
X77285676Y-103564752D01*
X77238057Y-103612371D01*
X77190438Y-103707609D01*
X78619009Y-103469514D02*
X78619009Y-104136180D01*
X78380914Y-103088561D02*
X78142819Y-103802847D01*
X78761866Y-103802847D01*
X79761866Y-103136180D02*
X80333295Y-103136180D01*
X80047580Y-104136180D02*
X80047580Y-103136180D01*
X81095199Y-104136180D02*
X81095199Y-103612371D01*
X81047580Y-103517133D01*
X80952342Y-103469514D01*
X80761866Y-103469514D01*
X80666628Y-103517133D01*
X81095199Y-104088561D02*
X80999961Y-104136180D01*
X80761866Y-104136180D01*
X80666628Y-104088561D01*
X80619009Y-103993323D01*
X80619009Y-103898085D01*
X80666628Y-103802847D01*
X80761866Y-103755228D01*
X80999961Y-103755228D01*
X81095199Y-103707609D01*
X81571390Y-103469514D02*
X81571390Y-104136180D01*
X81571390Y-103564752D02*
X81619009Y-103517133D01*
X81714247Y-103469514D01*
X81857104Y-103469514D01*
X81952342Y-103517133D01*
X81999961Y-103612371D01*
X81999961Y-104136180D01*
X82904723Y-103469514D02*
X82904723Y-104279038D01*
X82857104Y-104374276D01*
X82809485Y-104421895D01*
X82714247Y-104469514D01*
X82571390Y-104469514D01*
X82476152Y-104421895D01*
X82904723Y-104088561D02*
X82809485Y-104136180D01*
X82619009Y-104136180D01*
X82523771Y-104088561D01*
X82476152Y-104040942D01*
X82428533Y-103945704D01*
X82428533Y-103659990D01*
X82476152Y-103564752D01*
X82523771Y-103517133D01*
X82619009Y-103469514D01*
X82809485Y-103469514D01*
X82904723Y-103517133D01*
X84142819Y-104136180D02*
X84142819Y-103136180D01*
X84714247Y-104136180D01*
X84714247Y-103136180D01*
X85619009Y-104136180D02*
X85619009Y-103612371D01*
X85571390Y-103517133D01*
X85476152Y-103469514D01*
X85285676Y-103469514D01*
X85190438Y-103517133D01*
X85619009Y-104088561D02*
X85523771Y-104136180D01*
X85285676Y-104136180D01*
X85190438Y-104088561D01*
X85142819Y-103993323D01*
X85142819Y-103898085D01*
X85190438Y-103802847D01*
X85285676Y-103755228D01*
X85523771Y-103755228D01*
X85619009Y-103707609D01*
X86095200Y-103469514D02*
X86095200Y-104136180D01*
X86095200Y-103564752D02*
X86142819Y-103517133D01*
X86238057Y-103469514D01*
X86380914Y-103469514D01*
X86476152Y-103517133D01*
X86523771Y-103612371D01*
X86523771Y-104136180D01*
X87142819Y-104136180D02*
X87047580Y-104088561D01*
X86999961Y-104040942D01*
X86952342Y-103945704D01*
X86952342Y-103659990D01*
X86999961Y-103564752D01*
X87047580Y-103517133D01*
X87142819Y-103469514D01*
X87285676Y-103469514D01*
X87380914Y-103517133D01*
X87428533Y-103564752D01*
X87476152Y-103659990D01*
X87476152Y-103945704D01*
X87428533Y-104040942D01*
X87380914Y-104088561D01*
X87285676Y-104136180D01*
X87142819Y-104136180D01*
X88619009Y-103231419D02*
X88666628Y-103183800D01*
X88761866Y-103136180D01*
X88999961Y-103136180D01*
X89095199Y-103183800D01*
X89142819Y-103231419D01*
X89190438Y-103326657D01*
X89190438Y-103421895D01*
X89142819Y-103564752D01*
X88571390Y-104136180D01*
X89190438Y-104136180D01*
X89809485Y-103136180D02*
X89904723Y-103136180D01*
X89999961Y-103183800D01*
X90047580Y-103231419D01*
X90095199Y-103326657D01*
X90142819Y-103517133D01*
X90142819Y-103755228D01*
X90095199Y-103945704D01*
X90047580Y-104040942D01*
X89999961Y-104088561D01*
X89904723Y-104136180D01*
X89809485Y-104136180D01*
X89714247Y-104088561D01*
X89666628Y-104040942D01*
X89619009Y-103945704D01*
X89571390Y-103755228D01*
X89571390Y-103517133D01*
X89619009Y-103326657D01*
X89666628Y-103231419D01*
X89714247Y-103183800D01*
X89809485Y-103136180D01*
X90571390Y-104136180D02*
X90571390Y-103136180D01*
X91142819Y-104136180D02*
X90714247Y-103564752D01*
X91142819Y-103136180D02*
X90571390Y-103707609D01*
X92904723Y-104040942D02*
X92857104Y-104088561D01*
X92714247Y-104136180D01*
X92619009Y-104136180D01*
X92476152Y-104088561D01*
X92380914Y-103993323D01*
X92333295Y-103898085D01*
X92285676Y-103707609D01*
X92285676Y-103564752D01*
X92333295Y-103374276D01*
X92380914Y-103279038D01*
X92476152Y-103183800D01*
X92619009Y-103136180D01*
X92714247Y-103136180D01*
X92857104Y-103183800D01*
X92904723Y-103231419D01*
X93761866Y-104136180D02*
X93761866Y-103612371D01*
X93714247Y-103517133D01*
X93619009Y-103469514D01*
X93428533Y-103469514D01*
X93333295Y-103517133D01*
X93761866Y-104088561D02*
X93666628Y-104136180D01*
X93428533Y-104136180D01*
X93333295Y-104088561D01*
X93285676Y-103993323D01*
X93285676Y-103898085D01*
X93333295Y-103802847D01*
X93428533Y-103755228D01*
X93666628Y-103755228D01*
X93761866Y-103707609D01*
X94238057Y-104136180D02*
X94238057Y-103469514D01*
X94238057Y-103659990D02*
X94285676Y-103564752D01*
X94333295Y-103517133D01*
X94428533Y-103469514D01*
X94523771Y-103469514D01*
X94857104Y-104136180D02*
X94857104Y-103469514D01*
X94857104Y-103659990D02*
X94904723Y-103564752D01*
X94952342Y-103517133D01*
X95047580Y-103469514D01*
X95142819Y-103469514D01*
X95476152Y-104136180D02*
X95476152Y-103469514D01*
X95476152Y-103136180D02*
X95428533Y-103183800D01*
X95476152Y-103231419D01*
X95523771Y-103183800D01*
X95476152Y-103136180D01*
X95476152Y-103231419D01*
X96333295Y-104088561D02*
X96238057Y-104136180D01*
X96047580Y-104136180D01*
X95952342Y-104088561D01*
X95904723Y-103993323D01*
X95904723Y-103612371D01*
X95952342Y-103517133D01*
X96047580Y-103469514D01*
X96238057Y-103469514D01*
X96333295Y-103517133D01*
X96380914Y-103612371D01*
X96380914Y-103707609D01*
X95904723Y-103802847D01*
X96809485Y-104136180D02*
X96809485Y-103469514D01*
X96809485Y-103659990D02*
X96857104Y-103564752D01*
X96904723Y-103517133D01*
X96999961Y-103469514D01*
X97095199Y-103469514D01*
X98047580Y-103136180D02*
X98380914Y-104136180D01*
X98714247Y-103136180D01*
X99571390Y-104136180D02*
X98999961Y-104136180D01*
X99285676Y-104136180D02*
X99285676Y-103136180D01*
X99190438Y-103279038D01*
X99095200Y-103374276D01*
X98999961Y-103421895D01*
X99999961Y-104040942D02*
X100047580Y-104088561D01*
X99999961Y-104136180D01*
X99952342Y-104088561D01*
X99999961Y-104040942D01*
X99999961Y-104136180D01*
X100904723Y-103469514D02*
X100904723Y-104136180D01*
X100666628Y-103088561D02*
X100428533Y-103802847D01*
X101047580Y-103802847D01*
X79857104Y-106167133D02*
X79809485Y-106119514D01*
X79714247Y-105976657D01*
X79666628Y-105881419D01*
X79619009Y-105738561D01*
X79571390Y-105500466D01*
X79571390Y-105309990D01*
X79619009Y-105071895D01*
X79666628Y-104929038D01*
X79714247Y-104833800D01*
X79809485Y-104690942D01*
X79857104Y-104643323D01*
X80666628Y-105738561D02*
X80571390Y-105786180D01*
X80380914Y-105786180D01*
X80285676Y-105738561D01*
X80238057Y-105690942D01*
X80190438Y-105595704D01*
X80190438Y-105309990D01*
X80238057Y-105214752D01*
X80285676Y-105167133D01*
X80380914Y-105119514D01*
X80571390Y-105119514D01*
X80666628Y-105167133D01*
X80999961Y-106167133D02*
X81047580Y-106119514D01*
X81142819Y-105976657D01*
X81190438Y-105881419D01*
X81238057Y-105738561D01*
X81285676Y-105500466D01*
X81285676Y-105309990D01*
X81238057Y-105071895D01*
X81190438Y-104929038D01*
X81142819Y-104833800D01*
X81047580Y-104690942D01*
X80999961Y-104643323D01*
X82476152Y-104881419D02*
X82523771Y-104833800D01*
X82619009Y-104786180D01*
X82857104Y-104786180D01*
X82952342Y-104833800D01*
X82999961Y-104881419D01*
X83047580Y-104976657D01*
X83047580Y-105071895D01*
X82999961Y-105214752D01*
X82428533Y-105786180D01*
X83047580Y-105786180D01*
X83666628Y-104786180D02*
X83761866Y-104786180D01*
X83857104Y-104833800D01*
X83904723Y-104881419D01*
X83952342Y-104976657D01*
X83999961Y-105167133D01*
X83999961Y-105405228D01*
X83952342Y-105595704D01*
X83904723Y-105690942D01*
X83857104Y-105738561D01*
X83761866Y-105786180D01*
X83666628Y-105786180D01*
X83571390Y-105738561D01*
X83523771Y-105690942D01*
X83476152Y-105595704D01*
X83428533Y-105405228D01*
X83428533Y-105167133D01*
X83476152Y-104976657D01*
X83523771Y-104881419D01*
X83571390Y-104833800D01*
X83666628Y-104786180D01*
X84380914Y-104881419D02*
X84428533Y-104833800D01*
X84523771Y-104786180D01*
X84761866Y-104786180D01*
X84857104Y-104833800D01*
X84904723Y-104881419D01*
X84952342Y-104976657D01*
X84952342Y-105071895D01*
X84904723Y-105214752D01*
X84333295Y-105786180D01*
X84952342Y-105786180D01*
X85857104Y-104786180D02*
X85380914Y-104786180D01*
X85333295Y-105262371D01*
X85380914Y-105214752D01*
X85476152Y-105167133D01*
X85714247Y-105167133D01*
X85809485Y-105214752D01*
X85857104Y-105262371D01*
X85904723Y-105357609D01*
X85904723Y-105595704D01*
X85857104Y-105690942D01*
X85809485Y-105738561D01*
X85714247Y-105786180D01*
X85476152Y-105786180D01*
X85380914Y-105738561D01*
X85333295Y-105690942D01*
X87428533Y-105262371D02*
X87571390Y-105309990D01*
X87619009Y-105357609D01*
X87666628Y-105452847D01*
X87666628Y-105595704D01*
X87619009Y-105690942D01*
X87571390Y-105738561D01*
X87476152Y-105786180D01*
X87095200Y-105786180D01*
X87095200Y-104786180D01*
X87428533Y-104786180D01*
X87523771Y-104833800D01*
X87571390Y-104881419D01*
X87619009Y-104976657D01*
X87619009Y-105071895D01*
X87571390Y-105167133D01*
X87523771Y-105214752D01*
X87428533Y-105262371D01*
X87095200Y-105262371D01*
X88571390Y-105786180D02*
X88095200Y-105786180D01*
X88095200Y-104786180D01*
X89095200Y-104786180D02*
X89285676Y-104786180D01*
X89380914Y-104833800D01*
X89476152Y-104929038D01*
X89523771Y-105119514D01*
X89523771Y-105452847D01*
X89476152Y-105643323D01*
X89380914Y-105738561D01*
X89285676Y-105786180D01*
X89095200Y-105786180D01*
X88999961Y-105738561D01*
X88904723Y-105643323D01*
X88857104Y-105452847D01*
X88857104Y-105119514D01*
X88904723Y-104929038D01*
X88999961Y-104833800D01*
X89095200Y-104786180D01*
X90142819Y-104786180D02*
X90333295Y-104786180D01*
X90428533Y-104833800D01*
X90523771Y-104929038D01*
X90571390Y-105119514D01*
X90571390Y-105452847D01*
X90523771Y-105643323D01*
X90428533Y-105738561D01*
X90333295Y-105786180D01*
X90142819Y-105786180D01*
X90047580Y-105738561D01*
X89952342Y-105643323D01*
X89904723Y-105452847D01*
X89904723Y-105119514D01*
X89952342Y-104929038D01*
X90047580Y-104833800D01*
X90142819Y-104786180D01*
X90999961Y-105786180D02*
X90999961Y-104786180D01*
X91238057Y-104786180D01*
X91380914Y-104833800D01*
X91476152Y-104929038D01*
X91523771Y-105024276D01*
X91571390Y-105214752D01*
X91571390Y-105357609D01*
X91523771Y-105548085D01*
X91476152Y-105643323D01*
X91380914Y-105738561D01*
X91238057Y-105786180D01*
X90999961Y-105786180D01*
X91999961Y-105786180D02*
X91999961Y-104786180D01*
X92333295Y-105500466D01*
X92666628Y-104786180D01*
X92666628Y-105786180D01*
X93333295Y-104786180D02*
X93523771Y-104786180D01*
X93619009Y-104833800D01*
X93714247Y-104929038D01*
X93761866Y-105119514D01*
X93761866Y-105452847D01*
X93714247Y-105643323D01*
X93619009Y-105738561D01*
X93523771Y-105786180D01*
X93333295Y-105786180D01*
X93238057Y-105738561D01*
X93142819Y-105643323D01*
X93095200Y-105452847D01*
X93095200Y-105119514D01*
X93142819Y-104929038D01*
X93238057Y-104833800D01*
X93333295Y-104786180D01*
X94142819Y-105738561D02*
X94285676Y-105786180D01*
X94523771Y-105786180D01*
X94619009Y-105738561D01*
X94666628Y-105690942D01*
X94714247Y-105595704D01*
X94714247Y-105500466D01*
X94666628Y-105405228D01*
X94619009Y-105357609D01*
X94523771Y-105309990D01*
X94333295Y-105262371D01*
X94238057Y-105214752D01*
X94190438Y-105167133D01*
X94142819Y-105071895D01*
X94142819Y-104976657D01*
X94190438Y-104881419D01*
X94238057Y-104833800D01*
X94333295Y-104786180D01*
X94571390Y-104786180D01*
X94714247Y-104833800D01*
X95142819Y-105786180D02*
X95142819Y-104786180D01*
X95142819Y-105262371D02*
X95714247Y-105262371D01*
X95714247Y-105786180D02*
X95714247Y-104786180D01*
X96190438Y-105262371D02*
X96523771Y-105262371D01*
X96666628Y-105786180D02*
X96190438Y-105786180D01*
X96190438Y-104786180D01*
X96666628Y-104786180D01*
X97666628Y-105786180D02*
X97333295Y-105309990D01*
X97095200Y-105786180D02*
X97095200Y-104786180D01*
X97476152Y-104786180D01*
X97571390Y-104833800D01*
X97619009Y-104881419D01*
X97666628Y-104976657D01*
X97666628Y-105119514D01*
X97619009Y-105214752D01*
X97571390Y-105262371D01*
X97476152Y-105309990D01*
X97095200Y-105309990D01*
X76190438Y-107436180D02*
X76190438Y-106436180D01*
X76619009Y-107436180D02*
X76619009Y-106912371D01*
X76571390Y-106817133D01*
X76476152Y-106769514D01*
X76333295Y-106769514D01*
X76238057Y-106817133D01*
X76190438Y-106864752D01*
X76952342Y-106769514D02*
X77333295Y-106769514D01*
X77095200Y-106436180D02*
X77095200Y-107293323D01*
X77142819Y-107388561D01*
X77238057Y-107436180D01*
X77333295Y-107436180D01*
X77523771Y-106769514D02*
X77904723Y-106769514D01*
X77666628Y-106436180D02*
X77666628Y-107293323D01*
X77714247Y-107388561D01*
X77809485Y-107436180D01*
X77904723Y-107436180D01*
X78238057Y-106769514D02*
X78238057Y-107769514D01*
X78238057Y-106817133D02*
X78333295Y-106769514D01*
X78523771Y-106769514D01*
X78619009Y-106817133D01*
X78666628Y-106864752D01*
X78714247Y-106959990D01*
X78714247Y-107245704D01*
X78666628Y-107340942D01*
X78619009Y-107388561D01*
X78523771Y-107436180D01*
X78333295Y-107436180D01*
X78238057Y-107388561D01*
X79095200Y-107388561D02*
X79190438Y-107436180D01*
X79380914Y-107436180D01*
X79476152Y-107388561D01*
X79523771Y-107293323D01*
X79523771Y-107245704D01*
X79476152Y-107150466D01*
X79380914Y-107102847D01*
X79238057Y-107102847D01*
X79142819Y-107055228D01*
X79095200Y-106959990D01*
X79095200Y-106912371D01*
X79142819Y-106817133D01*
X79238057Y-106769514D01*
X79380914Y-106769514D01*
X79476152Y-106817133D01*
X79952342Y-107340942D02*
X79999961Y-107388561D01*
X79952342Y-107436180D01*
X79904723Y-107388561D01*
X79952342Y-107340942D01*
X79952342Y-107436180D01*
X79952342Y-106817133D02*
X79999961Y-106864752D01*
X79952342Y-106912371D01*
X79904723Y-106864752D01*
X79952342Y-106817133D01*
X79952342Y-106912371D01*
X81142819Y-106388561D02*
X80285676Y-107674276D01*
X82190438Y-106388561D02*
X81333295Y-107674276D01*
X82952342Y-106769514D02*
X82952342Y-107579038D01*
X82904723Y-107674276D01*
X82857104Y-107721895D01*
X82761866Y-107769514D01*
X82619009Y-107769514D01*
X82523771Y-107721895D01*
X82952342Y-107388561D02*
X82857104Y-107436180D01*
X82666628Y-107436180D01*
X82571390Y-107388561D01*
X82523771Y-107340942D01*
X82476152Y-107245704D01*
X82476152Y-106959990D01*
X82523771Y-106864752D01*
X82571390Y-106817133D01*
X82666628Y-106769514D01*
X82857104Y-106769514D01*
X82952342Y-106817133D01*
X83428533Y-107436180D02*
X83428533Y-106769514D01*
X83428533Y-106436180D02*
X83380914Y-106483800D01*
X83428533Y-106531419D01*
X83476152Y-106483800D01*
X83428533Y-106436180D01*
X83428533Y-106531419D01*
X83761866Y-106769514D02*
X84142819Y-106769514D01*
X83904723Y-106436180D02*
X83904723Y-107293323D01*
X83952342Y-107388561D01*
X84047580Y-107436180D01*
X84142819Y-107436180D01*
X84476152Y-107436180D02*
X84476152Y-106436180D01*
X84904723Y-107436180D02*
X84904723Y-106912371D01*
X84857104Y-106817133D01*
X84761866Y-106769514D01*
X84619009Y-106769514D01*
X84523771Y-106817133D01*
X84476152Y-106864752D01*
X85809485Y-106769514D02*
X85809485Y-107436180D01*
X85380914Y-106769514D02*
X85380914Y-107293323D01*
X85428533Y-107388561D01*
X85523771Y-107436180D01*
X85666628Y-107436180D01*
X85761866Y-107388561D01*
X85809485Y-107340942D01*
X86285676Y-107436180D02*
X86285676Y-106436180D01*
X86285676Y-106817133D02*
X86380914Y-106769514D01*
X86571390Y-106769514D01*
X86666628Y-106817133D01*
X86714247Y-106864752D01*
X86761866Y-106959990D01*
X86761866Y-107245704D01*
X86714247Y-107340942D01*
X86666628Y-107388561D01*
X86571390Y-107436180D01*
X86380914Y-107436180D01*
X86285676Y-107388561D01*
X87190438Y-107340942D02*
X87238057Y-107388561D01*
X87190438Y-107436180D01*
X87142819Y-107388561D01*
X87190438Y-107340942D01*
X87190438Y-107436180D01*
X88095200Y-107388561D02*
X87999961Y-107436180D01*
X87809485Y-107436180D01*
X87714247Y-107388561D01*
X87666628Y-107340942D01*
X87619009Y-107245704D01*
X87619009Y-106959990D01*
X87666628Y-106864752D01*
X87714247Y-106817133D01*
X87809485Y-106769514D01*
X87999961Y-106769514D01*
X88095200Y-106817133D01*
X88666628Y-107436180D02*
X88571390Y-107388561D01*
X88523771Y-107340942D01*
X88476152Y-107245704D01*
X88476152Y-106959990D01*
X88523771Y-106864752D01*
X88571390Y-106817133D01*
X88666628Y-106769514D01*
X88809485Y-106769514D01*
X88904723Y-106817133D01*
X88952342Y-106864752D01*
X88999961Y-106959990D01*
X88999961Y-107245704D01*
X88952342Y-107340942D01*
X88904723Y-107388561D01*
X88809485Y-107436180D01*
X88666628Y-107436180D01*
X89428533Y-107436180D02*
X89428533Y-106769514D01*
X89428533Y-106864752D02*
X89476152Y-106817133D01*
X89571390Y-106769514D01*
X89714247Y-106769514D01*
X89809485Y-106817133D01*
X89857104Y-106912371D01*
X89857104Y-107436180D01*
X89857104Y-106912371D02*
X89904723Y-106817133D01*
X89999961Y-106769514D01*
X90142819Y-106769514D01*
X90238057Y-106817133D01*
X90285676Y-106912371D01*
X90285676Y-107436180D01*
X91476152Y-106388561D02*
X90619009Y-107674276D01*
X92142819Y-106912371D02*
X92285676Y-106959990D01*
X92333295Y-107007609D01*
X92380914Y-107102847D01*
X92380914Y-107245704D01*
X92333295Y-107340942D01*
X92285676Y-107388561D01*
X92190438Y-107436180D01*
X91809485Y-107436180D01*
X91809485Y-106436180D01*
X92142819Y-106436180D01*
X92238057Y-106483800D01*
X92285676Y-106531419D01*
X92333295Y-106626657D01*
X92333295Y-106721895D01*
X92285676Y-106817133D01*
X92238057Y-106864752D01*
X92142819Y-106912371D01*
X91809485Y-106912371D01*
X92952342Y-107436180D02*
X92857104Y-107388561D01*
X92809485Y-107293323D01*
X92809485Y-106436180D01*
X93476152Y-107436180D02*
X93380914Y-107388561D01*
X93333295Y-107340942D01*
X93285676Y-107245704D01*
X93285676Y-106959990D01*
X93333295Y-106864752D01*
X93380914Y-106817133D01*
X93476152Y-106769514D01*
X93619009Y-106769514D01*
X93714247Y-106817133D01*
X93761866Y-106864752D01*
X93809485Y-106959990D01*
X93809485Y-107245704D01*
X93761866Y-107340942D01*
X93714247Y-107388561D01*
X93619009Y-107436180D01*
X93476152Y-107436180D01*
X94380914Y-107436180D02*
X94285676Y-107388561D01*
X94238057Y-107340942D01*
X94190438Y-107245704D01*
X94190438Y-106959990D01*
X94238057Y-106864752D01*
X94285676Y-106817133D01*
X94380914Y-106769514D01*
X94523771Y-106769514D01*
X94619009Y-106817133D01*
X94666628Y-106864752D01*
X94714247Y-106959990D01*
X94714247Y-107245704D01*
X94666628Y-107340942D01*
X94619009Y-107388561D01*
X94523771Y-107436180D01*
X94380914Y-107436180D01*
X95571390Y-107436180D02*
X95571390Y-106436180D01*
X95571390Y-107388561D02*
X95476152Y-107436180D01*
X95285676Y-107436180D01*
X95190438Y-107388561D01*
X95142819Y-107340942D01*
X95095199Y-107245704D01*
X95095199Y-106959990D01*
X95142819Y-106864752D01*
X95190438Y-106817133D01*
X95285676Y-106769514D01*
X95476152Y-106769514D01*
X95571390Y-106817133D01*
X96047580Y-107436180D02*
X96047580Y-106769514D01*
X96047580Y-106864752D02*
X96095199Y-106817133D01*
X96190438Y-106769514D01*
X96333295Y-106769514D01*
X96428533Y-106817133D01*
X96476152Y-106912371D01*
X96476152Y-107436180D01*
X96476152Y-106912371D02*
X96523771Y-106817133D01*
X96619009Y-106769514D01*
X96761866Y-106769514D01*
X96857104Y-106817133D01*
X96904723Y-106912371D01*
X96904723Y-107436180D01*
X97523771Y-107436180D02*
X97428533Y-107388561D01*
X97380914Y-107340942D01*
X97333295Y-107245704D01*
X97333295Y-106959990D01*
X97380914Y-106864752D01*
X97428533Y-106817133D01*
X97523771Y-106769514D01*
X97666628Y-106769514D01*
X97761866Y-106817133D01*
X97809485Y-106864752D01*
X97857104Y-106959990D01*
X97857104Y-107245704D01*
X97809485Y-107340942D01*
X97761866Y-107388561D01*
X97666628Y-107436180D01*
X97523771Y-107436180D01*
X98238057Y-107388561D02*
X98333295Y-107436180D01*
X98523771Y-107436180D01*
X98619009Y-107388561D01*
X98666628Y-107293323D01*
X98666628Y-107245704D01*
X98619009Y-107150466D01*
X98523771Y-107102847D01*
X98380914Y-107102847D01*
X98285676Y-107055228D01*
X98238057Y-106959990D01*
X98238057Y-106912371D01*
X98285676Y-106817133D01*
X98380914Y-106769514D01*
X98523771Y-106769514D01*
X98619009Y-106817133D01*
X99095199Y-107436180D02*
X99095199Y-106436180D01*
X99523771Y-107436180D02*
X99523771Y-106912371D01*
X99476152Y-106817133D01*
X99380914Y-106769514D01*
X99238057Y-106769514D01*
X99142819Y-106817133D01*
X99095199Y-106864752D01*
X100380914Y-107388561D02*
X100285676Y-107436180D01*
X100095199Y-107436180D01*
X99999961Y-107388561D01*
X99952342Y-107293323D01*
X99952342Y-106912371D01*
X99999961Y-106817133D01*
X100095199Y-106769514D01*
X100285676Y-106769514D01*
X100380914Y-106817133D01*
X100428533Y-106912371D01*
X100428533Y-107007609D01*
X99952342Y-107102847D01*
X100857104Y-107436180D02*
X100857104Y-106769514D01*
X100857104Y-106959990D02*
X100904723Y-106864752D01*
X100952342Y-106817133D01*
X101047580Y-106769514D01*
X101142819Y-106769514D01*
D11*
%TO.C,GND*%
X62230000Y-136652000D02*
G75*
G03*
X62230000Y-136652000I-2286000J0D01*
G01*
X62230000Y-105918000D02*
G75*
G03*
X62230000Y-105918000I-2286000J0D01*
G01*
X116840000Y-136652000D02*
G75*
G03*
X116840000Y-136652000I-2286000J0D01*
G01*
%TO.C,J4*%
X59127700Y-122513400D02*
X57797700Y-122513400D01*
X59127700Y-121183400D02*
X59127700Y-122513400D01*
X59127700Y-119913400D02*
X56467700Y-119913400D01*
X56467700Y-119913400D02*
X56467700Y-117313400D01*
X59127700Y-119913400D02*
X59127700Y-117313400D01*
X59127700Y-117313400D02*
X56467700Y-117313400D01*
%TO.C,C2*%
X67207500Y-148074000D02*
X67207500Y-147074000D01*
X65507500Y-147074000D02*
X65507500Y-148074000D01*
%TO.C,C1*%
X59017800Y-157208600D02*
X59017800Y-158208600D01*
X60717800Y-158208600D02*
X60717800Y-157208600D01*
%TO.C,J1*%
X104394000Y-116713000D02*
X105664000Y-116713000D01*
X104394000Y-117983000D02*
X104394000Y-116713000D01*
X106706929Y-123443000D02*
X107104000Y-123443000D01*
X106706929Y-122683000D02*
X107104000Y-122683000D01*
X115764000Y-123443000D02*
X109764000Y-123443000D01*
X115764000Y-122683000D02*
X115764000Y-123443000D01*
X109764000Y-122683000D02*
X115764000Y-122683000D01*
X107104000Y-121793000D02*
X109764000Y-121793000D01*
X106706929Y-120903000D02*
X107104000Y-120903000D01*
X106706929Y-120143000D02*
X107104000Y-120143000D01*
X115764000Y-120903000D02*
X109764000Y-120903000D01*
X115764000Y-120143000D02*
X115764000Y-120903000D01*
X109764000Y-120143000D02*
X115764000Y-120143000D01*
X107104000Y-119253000D02*
X109764000Y-119253000D01*
X106774000Y-118363000D02*
X107104000Y-118363000D01*
X106774000Y-117603000D02*
X107104000Y-117603000D01*
X109764000Y-118263000D02*
X115764000Y-118263000D01*
X109764000Y-118143000D02*
X115764000Y-118143000D01*
X109764000Y-118023000D02*
X115764000Y-118023000D01*
X109764000Y-117903000D02*
X115764000Y-117903000D01*
X109764000Y-117783000D02*
X115764000Y-117783000D01*
X109764000Y-117663000D02*
X115764000Y-117663000D01*
X115764000Y-118363000D02*
X109764000Y-118363000D01*
X115764000Y-117603000D02*
X115764000Y-118363000D01*
X109764000Y-117603000D02*
X115764000Y-117603000D01*
X109764000Y-116653000D02*
X107104000Y-116653000D01*
X109764000Y-124393000D02*
X109764000Y-116653000D01*
X107104000Y-124393000D02*
X109764000Y-124393000D01*
X107104000Y-116653000D02*
X107104000Y-124393000D01*
%TO.C,J3*%
X65151000Y-111769200D02*
X65151000Y-109109200D01*
X65151000Y-111769200D02*
X113471000Y-111769200D01*
X113471000Y-111769200D02*
X113471000Y-109109200D01*
X65151000Y-109109200D02*
X113471000Y-109109200D01*
X62551000Y-109109200D02*
X63881000Y-109109200D01*
X62551000Y-110439200D02*
X62551000Y-109109200D01*
%TO.C,J2*%
X65151000Y-132089200D02*
X65151000Y-129429200D01*
X65151000Y-132089200D02*
X113471000Y-132089200D01*
X113471000Y-132089200D02*
X113471000Y-129429200D01*
X65151000Y-129429200D02*
X113471000Y-129429200D01*
X62551000Y-129429200D02*
X63881000Y-129429200D01*
X62551000Y-130759200D02*
X62551000Y-129429200D01*
%TO.C,C4*%
X111227500Y-143137000D02*
X111227500Y-144137000D01*
X112927500Y-144137000D02*
X112927500Y-143137000D01*
%TO.C,C3*%
X87161000Y-143302100D02*
X87161000Y-144302100D01*
X88861000Y-144302100D02*
X88861000Y-143302100D01*
%TO.C,GND*%
X116840000Y-105918000D02*
G75*
G03*
X116840000Y-105918000I-2286000J0D01*
G01*
%TO.C,U1*%
X59908800Y-149302900D02*
X59908800Y-151752900D01*
X63128800Y-151102900D02*
X63128800Y-149302900D01*
%TO.C,U2*%
X71741610Y-146723100D02*
G75*
G03*
X71741610Y-146723100I-359210J0D01*
G01*
D10*
X85111400Y-147358100D02*
X85111400Y-141008100D01*
X70786400Y-148433100D02*
X70786400Y-141008100D01*
X85111400Y-147358100D02*
X85103900Y-147358100D01*
X85111400Y-141008100D02*
X85103900Y-141008100D01*
X70861400Y-141008100D02*
X70868900Y-141008100D01*
D11*
%TO.C,U3*%
X95741610Y-146723100D02*
G75*
G03*
X95741610Y-146723100I-359210J0D01*
G01*
D10*
X109111400Y-147358100D02*
X109111400Y-141008100D01*
X94786400Y-148433100D02*
X94786400Y-141008100D01*
X109111400Y-147358100D02*
X109103900Y-147358100D01*
X109111400Y-141008100D02*
X109103900Y-141008100D01*
X94861400Y-141008100D02*
X94868900Y-141008100D01*
%TO.C,J4*%
X58761380Y-125148933D02*
X59475666Y-125148933D01*
X59618523Y-125196552D01*
X59713761Y-125291790D01*
X59761380Y-125434647D01*
X59761380Y-125529885D01*
X59094714Y-124244171D02*
X59761380Y-124244171D01*
X58713761Y-124482266D02*
X59428047Y-124720361D01*
X59428047Y-124101314D01*
%TO.C,C2*%
X68464642Y-147740666D02*
X68512261Y-147788285D01*
X68559880Y-147931142D01*
X68559880Y-148026380D01*
X68512261Y-148169238D01*
X68417023Y-148264476D01*
X68321785Y-148312095D01*
X68131309Y-148359714D01*
X67988452Y-148359714D01*
X67797976Y-148312095D01*
X67702738Y-148264476D01*
X67607500Y-148169238D01*
X67559880Y-148026380D01*
X67559880Y-147931142D01*
X67607500Y-147788285D01*
X67655119Y-147740666D01*
X67655119Y-147359714D02*
X67607500Y-147312095D01*
X67559880Y-147216857D01*
X67559880Y-146978761D01*
X67607500Y-146883523D01*
X67655119Y-146835904D01*
X67750357Y-146788285D01*
X67845595Y-146788285D01*
X67988452Y-146835904D01*
X68559880Y-147407333D01*
X68559880Y-146788285D01*
%TO.C,C1*%
X59361342Y-161558266D02*
X59408961Y-161605885D01*
X59456580Y-161748742D01*
X59456580Y-161843980D01*
X59408961Y-161986838D01*
X59313723Y-162082076D01*
X59218485Y-162129695D01*
X59028009Y-162177314D01*
X58885152Y-162177314D01*
X58694676Y-162129695D01*
X58599438Y-162082076D01*
X58504200Y-161986838D01*
X58456580Y-161843980D01*
X58456580Y-161748742D01*
X58504200Y-161605885D01*
X58551819Y-161558266D01*
X59456580Y-160605885D02*
X59456580Y-161177314D01*
X59456580Y-160891600D02*
X58456580Y-160891600D01*
X58599438Y-160986838D01*
X58694676Y-161082076D01*
X58742295Y-161177314D01*
%TO.C,J1*%
X105317966Y-125093480D02*
X105317966Y-125807766D01*
X105270347Y-125950623D01*
X105175109Y-126045861D01*
X105032252Y-126093480D01*
X104937014Y-126093480D01*
X106317966Y-126093480D02*
X105746538Y-126093480D01*
X106032252Y-126093480D02*
X106032252Y-125093480D01*
X105937014Y-125236338D01*
X105841776Y-125331576D01*
X105746538Y-125379195D01*
%TO.C,J3*%
X60105966Y-110145580D02*
X60105966Y-110859866D01*
X60058347Y-111002723D01*
X59963109Y-111097961D01*
X59820252Y-111145580D01*
X59725014Y-111145580D01*
X60486919Y-110145580D02*
X61105966Y-110145580D01*
X60772633Y-110526533D01*
X60915490Y-110526533D01*
X61010728Y-110574152D01*
X61058347Y-110621771D01*
X61105966Y-110717009D01*
X61105966Y-110955104D01*
X61058347Y-111050342D01*
X61010728Y-111097961D01*
X60915490Y-111145580D01*
X60629776Y-111145580D01*
X60534538Y-111097961D01*
X60486919Y-111050342D01*
%TO.C,J2*%
X60258366Y-130363980D02*
X60258366Y-131078266D01*
X60210747Y-131221123D01*
X60115509Y-131316361D01*
X59972652Y-131363980D01*
X59877414Y-131363980D01*
X60686938Y-130459219D02*
X60734557Y-130411600D01*
X60829795Y-130363980D01*
X61067890Y-130363980D01*
X61163128Y-130411600D01*
X61210747Y-130459219D01*
X61258366Y-130554457D01*
X61258366Y-130649695D01*
X61210747Y-130792552D01*
X60639319Y-131363980D01*
X61258366Y-131363980D01*
%TO.C,J5*%
X57592980Y-98555133D02*
X58307266Y-98555133D01*
X58450123Y-98602752D01*
X58545361Y-98697990D01*
X58592980Y-98840847D01*
X58592980Y-98936085D01*
X57592980Y-97602752D02*
X57592980Y-98078942D01*
X58069171Y-98126561D01*
X58021552Y-98078942D01*
X57973933Y-97983704D01*
X57973933Y-97745609D01*
X58021552Y-97650371D01*
X58069171Y-97602752D01*
X58164409Y-97555133D01*
X58402504Y-97555133D01*
X58497742Y-97602752D01*
X58545361Y-97650371D01*
X58592980Y-97745609D01*
X58592980Y-97983704D01*
X58545361Y-98078942D01*
X58497742Y-98126561D01*
%TO.C,C4*%
X110796342Y-143790966D02*
X110843961Y-143838585D01*
X110891580Y-143981442D01*
X110891580Y-144076680D01*
X110843961Y-144219538D01*
X110748723Y-144314776D01*
X110653485Y-144362395D01*
X110463009Y-144410014D01*
X110320152Y-144410014D01*
X110129676Y-144362395D01*
X110034438Y-144314776D01*
X109939200Y-144219538D01*
X109891580Y-144076680D01*
X109891580Y-143981442D01*
X109939200Y-143838585D01*
X109986819Y-143790966D01*
X110224914Y-142933823D02*
X110891580Y-142933823D01*
X109843961Y-143171919D02*
X110558247Y-143410014D01*
X110558247Y-142790966D01*
%TO.C,C3*%
X86806042Y-144019566D02*
X86853661Y-144067185D01*
X86901280Y-144210042D01*
X86901280Y-144305280D01*
X86853661Y-144448138D01*
X86758423Y-144543376D01*
X86663185Y-144590995D01*
X86472709Y-144638614D01*
X86329852Y-144638614D01*
X86139376Y-144590995D01*
X86044138Y-144543376D01*
X85948900Y-144448138D01*
X85901280Y-144305280D01*
X85901280Y-144210042D01*
X85948900Y-144067185D01*
X85996519Y-144019566D01*
X85901280Y-143686233D02*
X85901280Y-143067185D01*
X86282233Y-143400519D01*
X86282233Y-143257661D01*
X86329852Y-143162423D01*
X86377471Y-143114804D01*
X86472709Y-143067185D01*
X86710804Y-143067185D01*
X86806042Y-143114804D01*
X86853661Y-143162423D01*
X86901280Y-143257661D01*
X86901280Y-143543376D01*
X86853661Y-143638614D01*
X86806042Y-143686233D01*
%TO.C,U1*%
X63574680Y-152552304D02*
X64384204Y-152552304D01*
X64479442Y-152504685D01*
X64527061Y-152457066D01*
X64574680Y-152361828D01*
X64574680Y-152171352D01*
X64527061Y-152076114D01*
X64479442Y-152028495D01*
X64384204Y-151980876D01*
X63574680Y-151980876D01*
X64574680Y-150980876D02*
X64574680Y-151552304D01*
X64574680Y-151266590D02*
X63574680Y-151266590D01*
X63717538Y-151361828D01*
X63812776Y-151457066D01*
X63860395Y-151552304D01*
%TO.C,U2*%
X69031380Y-144360804D02*
X69840904Y-144360804D01*
X69936142Y-144313185D01*
X69983761Y-144265566D01*
X70031380Y-144170328D01*
X70031380Y-143979852D01*
X69983761Y-143884614D01*
X69936142Y-143836995D01*
X69840904Y-143789376D01*
X69031380Y-143789376D01*
X69126619Y-143360804D02*
X69079000Y-143313185D01*
X69031380Y-143217947D01*
X69031380Y-142979852D01*
X69079000Y-142884614D01*
X69126619Y-142836995D01*
X69221857Y-142789376D01*
X69317095Y-142789376D01*
X69459952Y-142836995D01*
X70031380Y-143408423D01*
X70031380Y-142789376D01*
%TO.C,U3*%
X93043880Y-144322704D02*
X93853404Y-144322704D01*
X93948642Y-144275085D01*
X93996261Y-144227466D01*
X94043880Y-144132228D01*
X94043880Y-143941752D01*
X93996261Y-143846514D01*
X93948642Y-143798895D01*
X93853404Y-143751276D01*
X93043880Y-143751276D01*
X93043880Y-143370323D02*
X93043880Y-142751276D01*
X93424833Y-143084609D01*
X93424833Y-142941752D01*
X93472452Y-142846514D01*
X93520071Y-142798895D01*
X93615309Y-142751276D01*
X93853404Y-142751276D01*
X93948642Y-142798895D01*
X93996261Y-142846514D01*
X94043880Y-142941752D01*
X94043880Y-143227466D01*
X93996261Y-143322704D01*
X93948642Y-143370323D01*
%TD*%
M02*
