%TF.GenerationSoftware,KiCad,Pcbnew,(5.1.9)-1*%
%TF.CreationDate,2024-11-26T15:48:13-08:00*%
%TF.ProjectId,RADA3K,52414441-334b-42e6-9b69-6361645f7063,rev?*%
%TF.SameCoordinates,Original*%
%TF.FileFunction,Soldermask,Bot*%
%TF.FilePolarity,Negative*%
%FSLAX46Y46*%
G04 Gerber Fmt 4.6, Leading zero omitted, Abs format (unit mm)*
G04 Created by KiCad (PCBNEW (5.1.9)-1) date 2024-11-26 15:48:13*
%MOMM*%
%LPD*%
G01*
G04 APERTURE LIST*
%ADD10C,4.464000*%
%ADD11O,2.100000X2.100000*%
%ADD12C,2.000000*%
%ADD13C,0.254000*%
%ADD14C,0.100000*%
G04 APERTURE END LIST*
D10*
%TO.C,GND*%
X59944000Y-136652000D03*
%TD*%
%TO.C,GND*%
X59944000Y-105918000D03*
%TD*%
%TO.C,GND*%
X114554000Y-136652000D03*
%TD*%
%TO.C,J4*%
G36*
G01*
X58847700Y-120333400D02*
X58847700Y-122033400D01*
G75*
G02*
X58647700Y-122233400I-200000J0D01*
G01*
X56947700Y-122233400D01*
G75*
G02*
X56747700Y-122033400I0J200000D01*
G01*
X56747700Y-120333400D01*
G75*
G02*
X56947700Y-120133400I200000J0D01*
G01*
X58647700Y-120133400D01*
G75*
G02*
X58847700Y-120333400I0J-200000D01*
G01*
G37*
D11*
X57797700Y-118643400D03*
%TD*%
%TO.C,C5*%
G36*
G01*
X86667700Y-114513200D02*
X86667700Y-115763200D01*
G75*
G02*
X86467700Y-115963200I-200000J0D01*
G01*
X84967700Y-115963200D01*
G75*
G02*
X84767700Y-115763200I0J200000D01*
G01*
X84767700Y-114513200D01*
G75*
G02*
X84967700Y-114313200I200000J0D01*
G01*
X86467700Y-114313200D01*
G75*
G02*
X86667700Y-114513200I0J-200000D01*
G01*
G37*
G36*
G01*
X84167700Y-114513200D02*
X84167700Y-115763200D01*
G75*
G02*
X83967700Y-115963200I-200000J0D01*
G01*
X82467700Y-115963200D01*
G75*
G02*
X82267700Y-115763200I0J200000D01*
G01*
X82267700Y-114513200D01*
G75*
G02*
X82467700Y-114313200I200000J0D01*
G01*
X83967700Y-114313200D01*
G75*
G02*
X84167700Y-114513200I0J-200000D01*
G01*
G37*
%TD*%
%TO.C,C6*%
G36*
G01*
X82432800Y-123700700D02*
X82432800Y-122450700D01*
G75*
G02*
X82632800Y-122250700I200000J0D01*
G01*
X84132800Y-122250700D01*
G75*
G02*
X84332800Y-122450700I0J-200000D01*
G01*
X84332800Y-123700700D01*
G75*
G02*
X84132800Y-123900700I-200000J0D01*
G01*
X82632800Y-123900700D01*
G75*
G02*
X82432800Y-123700700I0J200000D01*
G01*
G37*
G36*
G01*
X84932800Y-123700700D02*
X84932800Y-122450700D01*
G75*
G02*
X85132800Y-122250700I200000J0D01*
G01*
X86632800Y-122250700D01*
G75*
G02*
X86832800Y-122450700I0J-200000D01*
G01*
X86832800Y-123700700D01*
G75*
G02*
X86632800Y-123900700I-200000J0D01*
G01*
X85132800Y-123900700D01*
G75*
G02*
X84932800Y-123700700I0J200000D01*
G01*
G37*
%TD*%
%TO.C,Y1*%
G36*
G01*
X76471700Y-124629500D02*
X76471700Y-123529500D01*
G75*
G02*
X76671700Y-123329500I200000J0D01*
G01*
X77971700Y-123329500D01*
G75*
G02*
X78171700Y-123529500I0J-200000D01*
G01*
X78171700Y-124629500D01*
G75*
G02*
X77971700Y-124829500I-200000J0D01*
G01*
X76671700Y-124829500D01*
G75*
G02*
X76471700Y-124629500I0J200000D01*
G01*
G37*
G36*
G01*
X78571700Y-124629500D02*
X78571700Y-123529500D01*
G75*
G02*
X78771700Y-123329500I200000J0D01*
G01*
X80071700Y-123329500D01*
G75*
G02*
X80271700Y-123529500I0J-200000D01*
G01*
X80271700Y-124629500D01*
G75*
G02*
X80071700Y-124829500I-200000J0D01*
G01*
X78771700Y-124829500D01*
G75*
G02*
X78571700Y-124629500I0J200000D01*
G01*
G37*
G36*
G01*
X78571700Y-126279500D02*
X78571700Y-125179500D01*
G75*
G02*
X78771700Y-124979500I200000J0D01*
G01*
X80071700Y-124979500D01*
G75*
G02*
X80271700Y-125179500I0J-200000D01*
G01*
X80271700Y-126279500D01*
G75*
G02*
X80071700Y-126479500I-200000J0D01*
G01*
X78771700Y-126479500D01*
G75*
G02*
X78571700Y-126279500I0J200000D01*
G01*
G37*
G36*
G01*
X76471700Y-126279500D02*
X76471700Y-125179500D01*
G75*
G02*
X76671700Y-124979500I200000J0D01*
G01*
X77971700Y-124979500D01*
G75*
G02*
X78171700Y-125179500I0J-200000D01*
G01*
X78171700Y-126279500D01*
G75*
G02*
X77971700Y-126479500I-200000J0D01*
G01*
X76671700Y-126479500D01*
G75*
G02*
X76471700Y-126279500I0J200000D01*
G01*
G37*
%TD*%
%TO.C,U4*%
G36*
G01*
X79151000Y-120022000D02*
X79151000Y-119722000D01*
G75*
G02*
X79351000Y-119522000I200000J0D01*
G01*
X80751000Y-119522000D01*
G75*
G02*
X80951000Y-119722000I0J-200000D01*
G01*
X80951000Y-120022000D01*
G75*
G02*
X80751000Y-120222000I-200000J0D01*
G01*
X79351000Y-120222000D01*
G75*
G02*
X79151000Y-120022000I0J200000D01*
G01*
G37*
G36*
G01*
X79151000Y-119522000D02*
X79151000Y-119222000D01*
G75*
G02*
X79351000Y-119022000I200000J0D01*
G01*
X80751000Y-119022000D01*
G75*
G02*
X80951000Y-119222000I0J-200000D01*
G01*
X80951000Y-119522000D01*
G75*
G02*
X80751000Y-119722000I-200000J0D01*
G01*
X79351000Y-119722000D01*
G75*
G02*
X79151000Y-119522000I0J200000D01*
G01*
G37*
G36*
G01*
X79151000Y-119022000D02*
X79151000Y-118722000D01*
G75*
G02*
X79351000Y-118522000I200000J0D01*
G01*
X80751000Y-118522000D01*
G75*
G02*
X80951000Y-118722000I0J-200000D01*
G01*
X80951000Y-119022000D01*
G75*
G02*
X80751000Y-119222000I-200000J0D01*
G01*
X79351000Y-119222000D01*
G75*
G02*
X79151000Y-119022000I0J200000D01*
G01*
G37*
G36*
G01*
X79151000Y-118522000D02*
X79151000Y-118222000D01*
G75*
G02*
X79351000Y-118022000I200000J0D01*
G01*
X80751000Y-118022000D01*
G75*
G02*
X80951000Y-118222000I0J-200000D01*
G01*
X80951000Y-118522000D01*
G75*
G02*
X80751000Y-118722000I-200000J0D01*
G01*
X79351000Y-118722000D01*
G75*
G02*
X79151000Y-118522000I0J200000D01*
G01*
G37*
G36*
G01*
X79151000Y-118022000D02*
X79151000Y-117722000D01*
G75*
G02*
X79351000Y-117522000I200000J0D01*
G01*
X80751000Y-117522000D01*
G75*
G02*
X80951000Y-117722000I0J-200000D01*
G01*
X80951000Y-118022000D01*
G75*
G02*
X80751000Y-118222000I-200000J0D01*
G01*
X79351000Y-118222000D01*
G75*
G02*
X79151000Y-118022000I0J200000D01*
G01*
G37*
G36*
G01*
X74751000Y-118022000D02*
X74751000Y-117722000D01*
G75*
G02*
X74951000Y-117522000I200000J0D01*
G01*
X76351000Y-117522000D01*
G75*
G02*
X76551000Y-117722000I0J-200000D01*
G01*
X76551000Y-118022000D01*
G75*
G02*
X76351000Y-118222000I-200000J0D01*
G01*
X74951000Y-118222000D01*
G75*
G02*
X74751000Y-118022000I0J200000D01*
G01*
G37*
G36*
G01*
X74751000Y-118522000D02*
X74751000Y-118222000D01*
G75*
G02*
X74951000Y-118022000I200000J0D01*
G01*
X76351000Y-118022000D01*
G75*
G02*
X76551000Y-118222000I0J-200000D01*
G01*
X76551000Y-118522000D01*
G75*
G02*
X76351000Y-118722000I-200000J0D01*
G01*
X74951000Y-118722000D01*
G75*
G02*
X74751000Y-118522000I0J200000D01*
G01*
G37*
G36*
G01*
X74751000Y-119022000D02*
X74751000Y-118722000D01*
G75*
G02*
X74951000Y-118522000I200000J0D01*
G01*
X76351000Y-118522000D01*
G75*
G02*
X76551000Y-118722000I0J-200000D01*
G01*
X76551000Y-119022000D01*
G75*
G02*
X76351000Y-119222000I-200000J0D01*
G01*
X74951000Y-119222000D01*
G75*
G02*
X74751000Y-119022000I0J200000D01*
G01*
G37*
G36*
G01*
X74751000Y-119522000D02*
X74751000Y-119222000D01*
G75*
G02*
X74951000Y-119022000I200000J0D01*
G01*
X76351000Y-119022000D01*
G75*
G02*
X76551000Y-119222000I0J-200000D01*
G01*
X76551000Y-119522000D01*
G75*
G02*
X76351000Y-119722000I-200000J0D01*
G01*
X74951000Y-119722000D01*
G75*
G02*
X74751000Y-119522000I0J200000D01*
G01*
G37*
G36*
G01*
X74751000Y-120022000D02*
X74751000Y-119722000D01*
G75*
G02*
X74951000Y-119522000I200000J0D01*
G01*
X76351000Y-119522000D01*
G75*
G02*
X76551000Y-119722000I0J-200000D01*
G01*
X76551000Y-120022000D01*
G75*
G02*
X76351000Y-120222000I-200000J0D01*
G01*
X74951000Y-120222000D01*
G75*
G02*
X74751000Y-120022000I0J200000D01*
G01*
G37*
%TD*%
%TO.C,R1*%
G36*
G01*
X69192200Y-119293100D02*
X67892200Y-119293100D01*
G75*
G02*
X67692200Y-119093100I0J200000D01*
G01*
X67692200Y-118393100D01*
G75*
G02*
X67892200Y-118193100I200000J0D01*
G01*
X69192200Y-118193100D01*
G75*
G02*
X69392200Y-118393100I0J-200000D01*
G01*
X69392200Y-119093100D01*
G75*
G02*
X69192200Y-119293100I-200000J0D01*
G01*
G37*
G36*
G01*
X69192200Y-117393100D02*
X67892200Y-117393100D01*
G75*
G02*
X67692200Y-117193100I0J200000D01*
G01*
X67692200Y-116493100D01*
G75*
G02*
X67892200Y-116293100I200000J0D01*
G01*
X69192200Y-116293100D01*
G75*
G02*
X69392200Y-116493100I0J-200000D01*
G01*
X69392200Y-117193100D01*
G75*
G02*
X69192200Y-117393100I-200000J0D01*
G01*
G37*
%TD*%
%TO.C,R2*%
G36*
G01*
X72291000Y-119293100D02*
X70991000Y-119293100D01*
G75*
G02*
X70791000Y-119093100I0J200000D01*
G01*
X70791000Y-118393100D01*
G75*
G02*
X70991000Y-118193100I200000J0D01*
G01*
X72291000Y-118193100D01*
G75*
G02*
X72491000Y-118393100I0J-200000D01*
G01*
X72491000Y-119093100D01*
G75*
G02*
X72291000Y-119293100I-200000J0D01*
G01*
G37*
G36*
G01*
X72291000Y-117393100D02*
X70991000Y-117393100D01*
G75*
G02*
X70791000Y-117193100I0J200000D01*
G01*
X70791000Y-116493100D01*
G75*
G02*
X70991000Y-116293100I200000J0D01*
G01*
X72291000Y-116293100D01*
G75*
G02*
X72491000Y-116493100I0J-200000D01*
G01*
X72491000Y-117193100D01*
G75*
G02*
X72291000Y-117393100I-200000J0D01*
G01*
G37*
%TD*%
%TO.C,J1*%
G36*
G01*
X104614000Y-118833000D02*
X104614000Y-117133000D01*
G75*
G02*
X104814000Y-116933000I200000J0D01*
G01*
X106514000Y-116933000D01*
G75*
G02*
X106714000Y-117133000I0J-200000D01*
G01*
X106714000Y-118833000D01*
G75*
G02*
X106514000Y-119033000I-200000J0D01*
G01*
X104814000Y-119033000D01*
G75*
G02*
X104614000Y-118833000I0J200000D01*
G01*
G37*
X105664000Y-120523000D03*
X105664000Y-123063000D03*
%TD*%
%TO.C,J3*%
X112141000Y-110439200D03*
X109601000Y-110439200D03*
X107061000Y-110439200D03*
X104521000Y-110439200D03*
X101981000Y-110439200D03*
X99441000Y-110439200D03*
X96901000Y-110439200D03*
X94361000Y-110439200D03*
X91821000Y-110439200D03*
X89281000Y-110439200D03*
X86741000Y-110439200D03*
X84201000Y-110439200D03*
X81661000Y-110439200D03*
X79121000Y-110439200D03*
X76581000Y-110439200D03*
X74041000Y-110439200D03*
X71501000Y-110439200D03*
X68961000Y-110439200D03*
X66421000Y-110439200D03*
G36*
G01*
X64731000Y-111489200D02*
X63031000Y-111489200D01*
G75*
G02*
X62831000Y-111289200I0J200000D01*
G01*
X62831000Y-109589200D01*
G75*
G02*
X63031000Y-109389200I200000J0D01*
G01*
X64731000Y-109389200D01*
G75*
G02*
X64931000Y-109589200I0J-200000D01*
G01*
X64931000Y-111289200D01*
G75*
G02*
X64731000Y-111489200I-200000J0D01*
G01*
G37*
%TD*%
%TO.C,J2*%
X112141000Y-130759200D03*
X109601000Y-130759200D03*
X107061000Y-130759200D03*
X104521000Y-130759200D03*
X101981000Y-130759200D03*
X99441000Y-130759200D03*
X96901000Y-130759200D03*
X94361000Y-130759200D03*
X91821000Y-130759200D03*
X89281000Y-130759200D03*
X86741000Y-130759200D03*
X84201000Y-130759200D03*
X81661000Y-130759200D03*
X79121000Y-130759200D03*
X76581000Y-130759200D03*
X74041000Y-130759200D03*
X71501000Y-130759200D03*
X68961000Y-130759200D03*
X66421000Y-130759200D03*
G36*
G01*
X64731000Y-131809200D02*
X63031000Y-131809200D01*
G75*
G02*
X62831000Y-131609200I0J200000D01*
G01*
X62831000Y-129909200D01*
G75*
G02*
X63031000Y-129709200I200000J0D01*
G01*
X64731000Y-129709200D01*
G75*
G02*
X64931000Y-129909200I0J-200000D01*
G01*
X64931000Y-131609200D01*
G75*
G02*
X64731000Y-131809200I-200000J0D01*
G01*
G37*
%TD*%
D12*
%TO.C,J5*%
X113690400Y-95872300D03*
X111150400Y-95872300D03*
X108610400Y-95872300D03*
X106070400Y-95872300D03*
X103530400Y-95872300D03*
X100990400Y-95872300D03*
X98450400Y-95872300D03*
X95910400Y-95872300D03*
X93370400Y-95872300D03*
X90830400Y-95872300D03*
X88290400Y-95872300D03*
X85750400Y-95872300D03*
X83210400Y-95872300D03*
X80670400Y-95872300D03*
X78130400Y-95872300D03*
X75590400Y-95872300D03*
X73050400Y-95872300D03*
X70510400Y-95872300D03*
X67970400Y-95872300D03*
X65430400Y-95872300D03*
X62890400Y-95872300D03*
X60350400Y-95872300D03*
X113690400Y-100952300D03*
X111150400Y-100952300D03*
X108610400Y-100952300D03*
X106070400Y-100952300D03*
X103530400Y-100952300D03*
X100990400Y-100952300D03*
X98450400Y-100952300D03*
X95910400Y-100952300D03*
X93370400Y-100952300D03*
X90830400Y-100952300D03*
X88290400Y-100952300D03*
X85750400Y-100952300D03*
X83210400Y-100952300D03*
X80670400Y-100952300D03*
X78130400Y-100952300D03*
X75590400Y-100952300D03*
X73050400Y-100952300D03*
X70510400Y-100952300D03*
X67970400Y-100952300D03*
X65430400Y-100952300D03*
G36*
G01*
X59350400Y-101752300D02*
X59350400Y-100152300D01*
G75*
G02*
X59550400Y-99952300I200000J0D01*
G01*
X61150400Y-99952300D01*
G75*
G02*
X61350400Y-100152300I0J-200000D01*
G01*
X61350400Y-101752300D01*
G75*
G02*
X61150400Y-101952300I-200000J0D01*
G01*
X59550400Y-101952300D01*
G75*
G02*
X59350400Y-101752300I0J200000D01*
G01*
G37*
X62890400Y-100952300D03*
%TD*%
D10*
%TO.C,GND*%
X114554000Y-105918000D03*
%TD*%
D13*
X116051882Y-172389800D02*
X57835800Y-172389800D01*
X57835800Y-163652145D01*
X116002514Y-163626855D01*
X116051882Y-172389800D01*
D14*
G36*
X116051882Y-172389800D02*
G01*
X57835800Y-172389800D01*
X57835800Y-163652145D01*
X116002514Y-163626855D01*
X116051882Y-172389800D01*
G37*
M02*
