%TF.GenerationSoftware,KiCad,Pcbnew,(5.1.9)-1*%
%TF.CreationDate,2025-02-14T08:16:11-08:00*%
%TF.ProjectId,RADA3K,52414441-334b-42e6-9b69-6361645f7063,rev?*%
%TF.SameCoordinates,Original*%
%TF.FileFunction,Legend,Bot*%
%TF.FilePolarity,Positive*%
%FSLAX46Y46*%
G04 Gerber Fmt 4.6, Leading zero omitted, Abs format (unit mm)*
G04 Created by KiCad (PCBNEW (5.1.9)-1) date 2025-02-14 08:16:11*
%MOMM*%
%LPD*%
G01*
G04 APERTURE LIST*
%ADD10C,0.150000*%
%ADD11C,0.500000*%
G04 APERTURE END LIST*
D10*
X105159714Y-96787761D02*
X105016857Y-96835380D01*
X104778761Y-96835380D01*
X104683523Y-96787761D01*
X104635904Y-96740142D01*
X104588285Y-96644904D01*
X104588285Y-96549666D01*
X104635904Y-96454428D01*
X104683523Y-96406809D01*
X104778761Y-96359190D01*
X104969238Y-96311571D01*
X105064476Y-96263952D01*
X105112095Y-96216333D01*
X105159714Y-96121095D01*
X105159714Y-96025857D01*
X105112095Y-95930619D01*
X105064476Y-95883000D01*
X104969238Y-95835380D01*
X104731142Y-95835380D01*
X104588285Y-95883000D01*
X104159714Y-96311571D02*
X103826380Y-96311571D01*
X103683523Y-96835380D02*
X104159714Y-96835380D01*
X104159714Y-95835380D01*
X103683523Y-95835380D01*
X103254952Y-96835380D02*
X103254952Y-95835380D01*
X102683523Y-96835380D01*
X102683523Y-95835380D01*
X102207333Y-96835380D02*
X102207333Y-95835380D01*
X101969238Y-95835380D01*
X101826380Y-95883000D01*
X101731142Y-95978238D01*
X101683523Y-96073476D01*
X101635904Y-96263952D01*
X101635904Y-96406809D01*
X101683523Y-96597285D01*
X101731142Y-96692523D01*
X101826380Y-96787761D01*
X101969238Y-96835380D01*
X102207333Y-96835380D01*
X101254952Y-96787761D02*
X101112095Y-96835380D01*
X100874000Y-96835380D01*
X100778761Y-96787761D01*
X100731142Y-96740142D01*
X100683523Y-96644904D01*
X100683523Y-96549666D01*
X100731142Y-96454428D01*
X100778761Y-96406809D01*
X100874000Y-96359190D01*
X101064476Y-96311571D01*
X101159714Y-96263952D01*
X101207333Y-96216333D01*
X101254952Y-96121095D01*
X101254952Y-96025857D01*
X101207333Y-95930619D01*
X101159714Y-95883000D01*
X101064476Y-95835380D01*
X100826380Y-95835380D01*
X100683523Y-95883000D01*
X98969238Y-95883000D02*
X99064476Y-95835380D01*
X99207333Y-95835380D01*
X99350190Y-95883000D01*
X99445428Y-95978238D01*
X99493047Y-96073476D01*
X99540666Y-96263952D01*
X99540666Y-96406809D01*
X99493047Y-96597285D01*
X99445428Y-96692523D01*
X99350190Y-96787761D01*
X99207333Y-96835380D01*
X99112095Y-96835380D01*
X98969238Y-96787761D01*
X98921619Y-96740142D01*
X98921619Y-96406809D01*
X99112095Y-96406809D01*
X97921619Y-96835380D02*
X98254952Y-96359190D01*
X98493047Y-96835380D02*
X98493047Y-95835380D01*
X98112095Y-95835380D01*
X98016857Y-95883000D01*
X97969238Y-95930619D01*
X97921619Y-96025857D01*
X97921619Y-96168714D01*
X97969238Y-96263952D01*
X98016857Y-96311571D01*
X98112095Y-96359190D01*
X98493047Y-96359190D01*
X97493047Y-96311571D02*
X97159714Y-96311571D01*
X97016857Y-96835380D02*
X97493047Y-96835380D01*
X97493047Y-95835380D01*
X97016857Y-95835380D01*
X96588285Y-96311571D02*
X96254952Y-96311571D01*
X96112095Y-96835380D02*
X96588285Y-96835380D01*
X96588285Y-95835380D01*
X96112095Y-95835380D01*
X95826380Y-95835380D02*
X95254952Y-95835380D01*
X95540666Y-96835380D02*
X95540666Y-95835380D01*
X95016857Y-95835380D02*
X94350190Y-95835380D01*
X95016857Y-96835380D01*
X94350190Y-96835380D01*
X93350190Y-95835380D02*
X92778761Y-95835380D01*
X93064476Y-96835380D02*
X93064476Y-95835380D01*
X92254952Y-95835380D02*
X92064476Y-95835380D01*
X91969238Y-95883000D01*
X91874000Y-95978238D01*
X91826380Y-96168714D01*
X91826380Y-96502047D01*
X91874000Y-96692523D01*
X91969238Y-96787761D01*
X92064476Y-96835380D01*
X92254952Y-96835380D01*
X92350190Y-96787761D01*
X92445428Y-96692523D01*
X92493047Y-96502047D01*
X92493047Y-96168714D01*
X92445428Y-95978238D01*
X92350190Y-95883000D01*
X92254952Y-95835380D01*
X90064476Y-96740142D02*
X90112095Y-96787761D01*
X90254952Y-96835380D01*
X90350190Y-96835380D01*
X90493047Y-96787761D01*
X90588285Y-96692523D01*
X90635904Y-96597285D01*
X90683523Y-96406809D01*
X90683523Y-96263952D01*
X90635904Y-96073476D01*
X90588285Y-95978238D01*
X90493047Y-95883000D01*
X90350190Y-95835380D01*
X90254952Y-95835380D01*
X90112095Y-95883000D01*
X90064476Y-95930619D01*
X89207333Y-95835380D02*
X89397809Y-95835380D01*
X89493047Y-95883000D01*
X89540666Y-95930619D01*
X89635904Y-96073476D01*
X89683523Y-96263952D01*
X89683523Y-96644904D01*
X89635904Y-96740142D01*
X89588285Y-96787761D01*
X89493047Y-96835380D01*
X89302571Y-96835380D01*
X89207333Y-96787761D01*
X89159714Y-96740142D01*
X89112095Y-96644904D01*
X89112095Y-96406809D01*
X89159714Y-96311571D01*
X89207333Y-96263952D01*
X89302571Y-96216333D01*
X89493047Y-96216333D01*
X89588285Y-96263952D01*
X89635904Y-96311571D01*
X89683523Y-96406809D01*
X88254952Y-96168714D02*
X88254952Y-96835380D01*
X88493047Y-95787761D02*
X88731142Y-96502047D01*
X88112095Y-96502047D01*
X86969238Y-96835380D02*
X86969238Y-95835380D01*
X86969238Y-96311571D02*
X86397809Y-96311571D01*
X86397809Y-96835380D02*
X86397809Y-95835380D01*
X85969238Y-96549666D02*
X85493047Y-96549666D01*
X86064476Y-96835380D02*
X85731142Y-95835380D01*
X85397809Y-96835380D01*
X84493047Y-96740142D02*
X84540666Y-96787761D01*
X84683523Y-96835380D01*
X84778761Y-96835380D01*
X84921619Y-96787761D01*
X85016857Y-96692523D01*
X85064476Y-96597285D01*
X85112095Y-96406809D01*
X85112095Y-96263952D01*
X85064476Y-96073476D01*
X85016857Y-95978238D01*
X84921619Y-95883000D01*
X84778761Y-95835380D01*
X84683523Y-95835380D01*
X84540666Y-95883000D01*
X84493047Y-95930619D01*
X84064476Y-96835380D02*
X84064476Y-95835380D01*
X83493047Y-96835380D02*
X83921619Y-96263952D01*
X83493047Y-95835380D02*
X84064476Y-96406809D01*
X83064476Y-96311571D02*
X82731142Y-96311571D01*
X82588285Y-96835380D02*
X83064476Y-96835380D01*
X83064476Y-95835380D01*
X82588285Y-95835380D01*
X81588285Y-96835380D02*
X81921619Y-96359190D01*
X82159714Y-96835380D02*
X82159714Y-95835380D01*
X81778761Y-95835380D01*
X81683523Y-95883000D01*
X81635904Y-95930619D01*
X81588285Y-96025857D01*
X81588285Y-96168714D01*
X81635904Y-96263952D01*
X81683523Y-96311571D01*
X81778761Y-96359190D01*
X82159714Y-96359190D01*
X81207333Y-96787761D02*
X81064476Y-96835380D01*
X80826380Y-96835380D01*
X80731142Y-96787761D01*
X80683523Y-96740142D01*
X80635904Y-96644904D01*
X80635904Y-96549666D01*
X80683523Y-96454428D01*
X80731142Y-96406809D01*
X80826380Y-96359190D01*
X81016857Y-96311571D01*
X81112095Y-96263952D01*
X81159714Y-96216333D01*
X81207333Y-96121095D01*
X81207333Y-96025857D01*
X81159714Y-95930619D01*
X81112095Y-95883000D01*
X81016857Y-95835380D01*
X80778761Y-95835380D01*
X80635904Y-95883000D01*
X79540666Y-95835380D02*
X79302571Y-96835380D01*
X79112095Y-96121095D01*
X78921619Y-96835380D01*
X78683523Y-95835380D01*
X78112095Y-95835380D02*
X77921619Y-95835380D01*
X77826380Y-95883000D01*
X77731142Y-95978238D01*
X77683523Y-96168714D01*
X77683523Y-96502047D01*
X77731142Y-96692523D01*
X77826380Y-96787761D01*
X77921619Y-96835380D01*
X78112095Y-96835380D01*
X78207333Y-96787761D01*
X78302571Y-96692523D01*
X78350190Y-96502047D01*
X78350190Y-96168714D01*
X78302571Y-95978238D01*
X78207333Y-95883000D01*
X78112095Y-95835380D01*
X76683523Y-96835380D02*
X77016857Y-96359190D01*
X77254952Y-96835380D02*
X77254952Y-95835380D01*
X76874000Y-95835380D01*
X76778761Y-95883000D01*
X76731142Y-95930619D01*
X76683523Y-96025857D01*
X76683523Y-96168714D01*
X76731142Y-96263952D01*
X76778761Y-96311571D01*
X76874000Y-96359190D01*
X77254952Y-96359190D01*
X75778761Y-96835380D02*
X76254952Y-96835380D01*
X76254952Y-95835380D01*
X75445428Y-96835380D02*
X75445428Y-95835380D01*
X75207333Y-95835380D01*
X75064476Y-95883000D01*
X74969238Y-95978238D01*
X74921619Y-96073476D01*
X74874000Y-96263952D01*
X74874000Y-96406809D01*
X74921619Y-96597285D01*
X74969238Y-96692523D01*
X75064476Y-96787761D01*
X75207333Y-96835380D01*
X75445428Y-96835380D01*
X73778761Y-95835380D02*
X73540666Y-96835380D01*
X73350190Y-96121095D01*
X73159714Y-96835380D01*
X72921619Y-95835380D01*
X72540666Y-96835380D02*
X72540666Y-95835380D01*
X72064476Y-96835380D02*
X72064476Y-95835380D01*
X71826380Y-95835380D01*
X71683523Y-95883000D01*
X71588285Y-95978238D01*
X71540666Y-96073476D01*
X71493047Y-96263952D01*
X71493047Y-96406809D01*
X71540666Y-96597285D01*
X71588285Y-96692523D01*
X71683523Y-96787761D01*
X71826380Y-96835380D01*
X72064476Y-96835380D01*
X71064476Y-96311571D02*
X70731142Y-96311571D01*
X70588285Y-96835380D02*
X71064476Y-96835380D01*
X71064476Y-95835380D01*
X70588285Y-95835380D01*
D11*
X108038285Y-91867285D02*
X107466857Y-92057761D01*
X107276380Y-92248238D01*
X107085904Y-92629190D01*
X107085904Y-93200619D01*
X107276380Y-93581571D01*
X107466857Y-93772047D01*
X107847809Y-93962523D01*
X109371619Y-93962523D01*
X109371619Y-89962523D01*
X108038285Y-89962523D01*
X107657333Y-90153000D01*
X107466857Y-90343476D01*
X107276380Y-90724428D01*
X107276380Y-91105380D01*
X107466857Y-91486333D01*
X107657333Y-91676809D01*
X108038285Y-91867285D01*
X109371619Y-91867285D01*
X103466857Y-93962523D02*
X105371619Y-93962523D01*
X105371619Y-89962523D01*
X101371619Y-89962523D02*
X100609714Y-89962523D01*
X100228761Y-90153000D01*
X99847809Y-90533952D01*
X99657333Y-91295857D01*
X99657333Y-92629190D01*
X99847809Y-93391095D01*
X100228761Y-93772047D01*
X100609714Y-93962523D01*
X101371619Y-93962523D01*
X101752571Y-93772047D01*
X102133523Y-93391095D01*
X102324000Y-92629190D01*
X102324000Y-91295857D01*
X102133523Y-90533952D01*
X101752571Y-90153000D01*
X101371619Y-89962523D01*
X97181142Y-89962523D02*
X96419238Y-89962523D01*
X96038285Y-90153000D01*
X95657333Y-90533952D01*
X95466857Y-91295857D01*
X95466857Y-92629190D01*
X95657333Y-93391095D01*
X96038285Y-93772047D01*
X96419238Y-93962523D01*
X97181142Y-93962523D01*
X97562095Y-93772047D01*
X97943047Y-93391095D01*
X98133523Y-92629190D01*
X98133523Y-91295857D01*
X97943047Y-90533952D01*
X97562095Y-90153000D01*
X97181142Y-89962523D01*
X93752571Y-93962523D02*
X93752571Y-89962523D01*
X92800190Y-89962523D01*
X92228761Y-90153000D01*
X91847809Y-90533952D01*
X91657333Y-90914904D01*
X91466857Y-91676809D01*
X91466857Y-92248238D01*
X91657333Y-93010142D01*
X91847809Y-93391095D01*
X92228761Y-93772047D01*
X92800190Y-93962523D01*
X93752571Y-93962523D01*
X89752571Y-93962523D02*
X89752571Y-89962523D01*
X88419238Y-92819666D01*
X87085904Y-89962523D01*
X87085904Y-93962523D01*
X84419238Y-89962523D02*
X83657333Y-89962523D01*
X83276380Y-90153000D01*
X82895428Y-90533952D01*
X82704952Y-91295857D01*
X82704952Y-92629190D01*
X82895428Y-93391095D01*
X83276380Y-93772047D01*
X83657333Y-93962523D01*
X84419238Y-93962523D01*
X84800190Y-93772047D01*
X85181142Y-93391095D01*
X85371619Y-92629190D01*
X85371619Y-91295857D01*
X85181142Y-90533952D01*
X84800190Y-90153000D01*
X84419238Y-89962523D01*
X81181142Y-93772047D02*
X80609714Y-93962523D01*
X79657333Y-93962523D01*
X79276380Y-93772047D01*
X79085904Y-93581571D01*
X78895428Y-93200619D01*
X78895428Y-92819666D01*
X79085904Y-92438714D01*
X79276380Y-92248238D01*
X79657333Y-92057761D01*
X80419238Y-91867285D01*
X80800190Y-91676809D01*
X80990666Y-91486333D01*
X81181142Y-91105380D01*
X81181142Y-90724428D01*
X80990666Y-90343476D01*
X80800190Y-90153000D01*
X80419238Y-89962523D01*
X79466857Y-89962523D01*
X78895428Y-90153000D01*
X77181142Y-93962523D02*
X77181142Y-89962523D01*
X77181142Y-91867285D02*
X74895428Y-91867285D01*
X74895428Y-93962523D02*
X74895428Y-89962523D01*
X72990666Y-91867285D02*
X71657333Y-91867285D01*
X71085904Y-93962523D02*
X72990666Y-93962523D01*
X72990666Y-89962523D01*
X71085904Y-89962523D01*
X67085904Y-93962523D02*
X68419238Y-92057761D01*
X69371619Y-93962523D02*
X69371619Y-89962523D01*
X67847809Y-89962523D01*
X67466857Y-90153000D01*
X67276380Y-90343476D01*
X67085904Y-90724428D01*
X67085904Y-91295857D01*
X67276380Y-91676809D01*
X67466857Y-91867285D01*
X67847809Y-92057761D01*
X69371619Y-92057761D01*
M02*
