%TF.GenerationSoftware,KiCad,Pcbnew,(5.1.9)-1*%
%TF.CreationDate,2025-02-14T08:16:11-08:00*%
%TF.ProjectId,RADA3K,52414441-334b-42e6-9b69-6361645f7063,rev?*%
%TF.SameCoordinates,Original*%
%TF.FileFunction,Legend,Top*%
%TF.FilePolarity,Positive*%
%FSLAX46Y46*%
G04 Gerber Fmt 4.6, Leading zero omitted, Abs format (unit mm)*
G04 Created by KiCad (PCBNEW (5.1.9)-1) date 2025-02-14 08:16:11*
%MOMM*%
%LPD*%
G01*
G04 APERTURE LIST*
%ADD10C,0.150000*%
%ADD11C,0.200000*%
%ADD12C,0.010000*%
%ADD13C,0.120000*%
G04 APERTURE END LIST*
D10*
X115820000Y-86440000D02*
X115820000Y-82710000D01*
X115960000Y-86440000D02*
G75*
G03*
X115960000Y-86440000I-130000J0D01*
G01*
X92430000Y-136780000D02*
X92430000Y-137320000D01*
X90930000Y-136790000D02*
X90930000Y-138010000D01*
X89420000Y-136820000D02*
X89420000Y-139430000D01*
X88100000Y-136920000D02*
X88100000Y-139780000D01*
X86500000Y-136970000D02*
X86500000Y-139800000D01*
X85000000Y-137020000D02*
X85000000Y-139880000D01*
X83590000Y-138880000D02*
X83590000Y-136950000D01*
X82170000Y-137380000D02*
X82170000Y-136820000D01*
X75610000Y-134560000D02*
X75610000Y-135060000D01*
X108770000Y-106990000D02*
X108770000Y-109500000D01*
X103510000Y-106990000D02*
X108770000Y-106990000D01*
X103510000Y-101360000D02*
X103510000Y-106990000D01*
X103640000Y-101360000D02*
G75*
G03*
X103640000Y-101360000I-130000J0D01*
G01*
X74240000Y-86390000D02*
X74240000Y-85410000D01*
X78490000Y-86390000D02*
X74240000Y-86390000D01*
X94850000Y-139430000D02*
X94850000Y-140210000D01*
X89420000Y-139430000D02*
X94850000Y-139430000D01*
X89420000Y-130620000D02*
X89420000Y-134810000D01*
X103410000Y-138010000D02*
X103410000Y-140160000D01*
X90930000Y-138010000D02*
X103410000Y-138010000D01*
X90930000Y-130420000D02*
X90930000Y-134690000D01*
X106060000Y-137320000D02*
X106060000Y-139990000D01*
X92430000Y-137320000D02*
X106060000Y-137320000D01*
X92430000Y-130690000D02*
X92430000Y-134810000D01*
X107840000Y-135220000D02*
X107840000Y-140010000D01*
X95520000Y-135220000D02*
X107840000Y-135220000D01*
X93870000Y-135220000D02*
X94510000Y-135220000D01*
X93870000Y-130570000D02*
X93870000Y-135220000D01*
X109290000Y-134120000D02*
X109290000Y-140040000D01*
X95310000Y-134120000D02*
X109290000Y-134120000D01*
X95310000Y-130320000D02*
X95310000Y-134120000D01*
X88050000Y-130350000D02*
X88050000Y-134690000D01*
X86520000Y-130220000D02*
X86520000Y-134590000D01*
X85030000Y-130630000D02*
X85030000Y-135160000D01*
X82100000Y-138910000D02*
X82100000Y-139990000D01*
X83560000Y-138910000D02*
X82100000Y-138910000D01*
X83560000Y-130810000D02*
X83560000Y-135050000D01*
X79650000Y-137420000D02*
X79650000Y-139950000D01*
X82160000Y-137420000D02*
X79650000Y-137420000D01*
X82160000Y-130440000D02*
X82160000Y-135130000D01*
X77690000Y-136770000D02*
X77690000Y-139950000D01*
X80630000Y-130530000D02*
X80630000Y-135020000D01*
X72960000Y-138400000D02*
X72960000Y-139760000D01*
X75610000Y-138400000D02*
X72960000Y-138400000D01*
X75610000Y-137360000D02*
X75610000Y-138400000D01*
X79120000Y-134560000D02*
X75610000Y-134560000D01*
X79120000Y-130300000D02*
X79120000Y-134560000D01*
X71040000Y-137070000D02*
X71040000Y-139780000D01*
X74040000Y-137070000D02*
X71040000Y-137070000D01*
X74040000Y-133140000D02*
X74040000Y-137070000D01*
X77570000Y-133140000D02*
X74040000Y-133140000D01*
X77570000Y-130180000D02*
X77570000Y-133140000D01*
X68200000Y-135280000D02*
X68200000Y-139750000D01*
X71970000Y-135280000D02*
X68200000Y-135280000D01*
X71970000Y-127430000D02*
X71970000Y-135280000D01*
X74740000Y-127430000D02*
X71970000Y-127430000D01*
X65510000Y-133120000D02*
X65510000Y-139650000D01*
X70920000Y-133120000D02*
X65510000Y-133120000D01*
X70920000Y-126250000D02*
X70920000Y-133120000D01*
X75200000Y-126250000D02*
X70920000Y-126250000D01*
X55940000Y-131980000D02*
X55500000Y-131980000D01*
X70190000Y-131980000D02*
X55940000Y-131980000D01*
X70190000Y-124850000D02*
X70190000Y-131980000D01*
X74770000Y-124850000D02*
X70190000Y-124850000D01*
X74530000Y-123740000D02*
X69690000Y-123740000D01*
X74770000Y-122550000D02*
X69720000Y-122550000D01*
X72370000Y-122060000D02*
X69730000Y-122060000D01*
X72370000Y-121250000D02*
X72370000Y-122060000D01*
X74670000Y-121250000D02*
X72370000Y-121250000D01*
X71790000Y-120890000D02*
X69670000Y-120890000D01*
X71790000Y-119840000D02*
X71790000Y-120890000D01*
X74820000Y-119840000D02*
X71790000Y-119840000D01*
X70780000Y-120190000D02*
X69700000Y-120190000D01*
X70780000Y-118760000D02*
X70780000Y-120190000D01*
X74720000Y-118760000D02*
X70780000Y-118760000D01*
X74930000Y-117540000D02*
X69880000Y-117540000D01*
X75060000Y-116160000D02*
X69960000Y-116160000D01*
X70750000Y-102740000D02*
X55830000Y-102740000D01*
X70750000Y-114900000D02*
X70750000Y-102740000D01*
X74640000Y-114900000D02*
X70750000Y-114900000D01*
X71800000Y-100690000D02*
X55580000Y-100690000D01*
X71800000Y-113570000D02*
X71800000Y-100690000D01*
X74560000Y-113570000D02*
X71800000Y-113570000D01*
X98280000Y-122420000D02*
X104230000Y-122420000D01*
X98660000Y-123720000D02*
X104390000Y-123720000D01*
X98220000Y-124930000D02*
X104430000Y-124930000D01*
X103390000Y-130660000D02*
X104430000Y-130660000D01*
X103390000Y-126130000D02*
X103390000Y-130660000D01*
X98520000Y-126130000D02*
X103390000Y-126130000D01*
X101910000Y-133020000D02*
X118450000Y-133020000D01*
X101910000Y-127480000D02*
X101910000Y-133020000D01*
X98610000Y-127480000D02*
X101910000Y-127480000D01*
X98630000Y-121240000D02*
X104340000Y-121240000D01*
X98850000Y-119980000D02*
X104390000Y-119980000D01*
X98390000Y-118600000D02*
X104320000Y-118600000D01*
X98660000Y-117370000D02*
X104390000Y-117370000D01*
X103450000Y-114340000D02*
X104290000Y-114340000D01*
X103450000Y-116280000D02*
X103450000Y-114340000D01*
X98630000Y-116280000D02*
X103450000Y-116280000D01*
X102620000Y-113060000D02*
X104340000Y-113060000D01*
X102620000Y-114850000D02*
X102620000Y-113060000D01*
X98580000Y-114850000D02*
X102620000Y-114850000D01*
X101660000Y-111900000D02*
X104390000Y-111900000D01*
X101660000Y-113620000D02*
X101660000Y-111900000D01*
X98530000Y-113620000D02*
X101660000Y-113620000D01*
X76630000Y-90630000D02*
X55570000Y-90630000D01*
X76630000Y-102710000D02*
X76630000Y-90630000D01*
X74710000Y-93170000D02*
X55580000Y-93170000D01*
X74710000Y-104090000D02*
X74710000Y-93170000D01*
X73390000Y-95120000D02*
X55600000Y-95120000D01*
X73390000Y-105520000D02*
X73390000Y-95120000D01*
X94940000Y-90040000D02*
X94940000Y-85800000D01*
X86600000Y-90040000D02*
X94940000Y-90040000D01*
X86600000Y-110560000D02*
X86600000Y-90040000D01*
X97670000Y-92470000D02*
X97670000Y-85830000D01*
X88010000Y-92470000D02*
X97670000Y-92470000D01*
X88010000Y-110710000D02*
X88010000Y-92470000D01*
X100110000Y-86450000D02*
X118200000Y-86450000D01*
X100110000Y-94030000D02*
X100110000Y-86450000D01*
X89500000Y-94030000D02*
X100110000Y-94030000D01*
X89500000Y-110620000D02*
X89500000Y-94030000D01*
X102690000Y-88130000D02*
X118220000Y-88130000D01*
X102690000Y-96320000D02*
X102690000Y-88130000D01*
X91000000Y-96320000D02*
X102690000Y-96320000D01*
X91000000Y-110440000D02*
X91000000Y-96320000D01*
X105090000Y-89640000D02*
X118200000Y-89640000D01*
X105090000Y-97970000D02*
X105090000Y-89640000D01*
X92370000Y-97970000D02*
X105090000Y-97970000D01*
X92370000Y-110470000D02*
X92370000Y-97970000D01*
X107430000Y-91820000D02*
X118200000Y-91820000D01*
X107430000Y-99750000D02*
X107430000Y-91820000D01*
X109270000Y-93750000D02*
X118200000Y-93750000D01*
X109270000Y-101330000D02*
X109270000Y-93750000D01*
X93810000Y-99780000D02*
X107390000Y-99780000D01*
X93810000Y-110530000D02*
X93810000Y-99780000D01*
X95360000Y-101350000D02*
X109270000Y-101350000D01*
X95360000Y-110640000D02*
X95360000Y-101350000D01*
X82290000Y-97990000D02*
X82290000Y-85810000D01*
X85000000Y-97990000D02*
X82290000Y-97990000D01*
X85000000Y-110850000D02*
X85000000Y-97990000D01*
X80310000Y-99430000D02*
X80310000Y-85780000D01*
X83510000Y-99430000D02*
X80310000Y-99430000D01*
X83510000Y-110500000D02*
X83510000Y-99430000D01*
X78500000Y-101060000D02*
X78500000Y-86400000D01*
X82130000Y-101060000D02*
X78500000Y-101060000D01*
X82130000Y-110490000D02*
X82130000Y-101060000D01*
X80650000Y-102710000D02*
X76630000Y-102710000D01*
X80650000Y-103120000D02*
X80650000Y-102710000D01*
X80650000Y-110280000D02*
X80650000Y-103120000D01*
X79090000Y-104100000D02*
X74710000Y-104100000D01*
X79090000Y-104550000D02*
X79090000Y-104100000D01*
X79090000Y-110480000D02*
X79090000Y-104550000D01*
X77620000Y-105520000D02*
X73390000Y-105520000D01*
X77620000Y-110330000D02*
X77620000Y-105520000D01*
D11*
X75715714Y-135522857D02*
X75715714Y-136494285D01*
X75658571Y-136608571D01*
X75601428Y-136665714D01*
X75487142Y-136722857D01*
X75315714Y-136722857D01*
X75201428Y-136665714D01*
X75715714Y-136265714D02*
X75601428Y-136322857D01*
X75372857Y-136322857D01*
X75258571Y-136265714D01*
X75201428Y-136208571D01*
X75144285Y-136094285D01*
X75144285Y-135751428D01*
X75201428Y-135637142D01*
X75258571Y-135580000D01*
X75372857Y-135522857D01*
X75601428Y-135522857D01*
X75715714Y-135580000D01*
X76287142Y-136322857D02*
X76287142Y-135522857D01*
X76287142Y-135122857D02*
X76230000Y-135180000D01*
X76287142Y-135237142D01*
X76344285Y-135180000D01*
X76287142Y-135122857D01*
X76287142Y-135237142D01*
X76687142Y-135522857D02*
X77144285Y-135522857D01*
X76858571Y-135122857D02*
X76858571Y-136151428D01*
X76915714Y-136265714D01*
X77030000Y-136322857D01*
X77144285Y-136322857D01*
X77544285Y-136322857D02*
X77544285Y-135122857D01*
X78058571Y-136322857D02*
X78058571Y-135694285D01*
X78001428Y-135580000D01*
X77887142Y-135522857D01*
X77715714Y-135522857D01*
X77601428Y-135580000D01*
X77544285Y-135637142D01*
X79144285Y-135522857D02*
X79144285Y-136322857D01*
X78630000Y-135522857D02*
X78630000Y-136151428D01*
X78687142Y-136265714D01*
X78801428Y-136322857D01*
X78972857Y-136322857D01*
X79087142Y-136265714D01*
X79144285Y-136208571D01*
X79715714Y-136322857D02*
X79715714Y-135122857D01*
X79715714Y-135580000D02*
X79830000Y-135522857D01*
X80058571Y-135522857D01*
X80172857Y-135580000D01*
X80230000Y-135637142D01*
X80287142Y-135751428D01*
X80287142Y-136094285D01*
X80230000Y-136208571D01*
X80172857Y-136265714D01*
X80058571Y-136322857D01*
X79830000Y-136322857D01*
X79715714Y-136265714D01*
X80801428Y-136208571D02*
X80858571Y-136265714D01*
X80801428Y-136322857D01*
X80744285Y-136265714D01*
X80801428Y-136208571D01*
X80801428Y-136322857D01*
X81887142Y-136265714D02*
X81772857Y-136322857D01*
X81544285Y-136322857D01*
X81430000Y-136265714D01*
X81372857Y-136208571D01*
X81315714Y-136094285D01*
X81315714Y-135751428D01*
X81372857Y-135637142D01*
X81430000Y-135580000D01*
X81544285Y-135522857D01*
X81772857Y-135522857D01*
X81887142Y-135580000D01*
X82572857Y-136322857D02*
X82458571Y-136265714D01*
X82401428Y-136208571D01*
X82344285Y-136094285D01*
X82344285Y-135751428D01*
X82401428Y-135637142D01*
X82458571Y-135580000D01*
X82572857Y-135522857D01*
X82744285Y-135522857D01*
X82858571Y-135580000D01*
X82915714Y-135637142D01*
X82972857Y-135751428D01*
X82972857Y-136094285D01*
X82915714Y-136208571D01*
X82858571Y-136265714D01*
X82744285Y-136322857D01*
X82572857Y-136322857D01*
X83487142Y-136322857D02*
X83487142Y-135522857D01*
X83487142Y-135637142D02*
X83544285Y-135580000D01*
X83658571Y-135522857D01*
X83830000Y-135522857D01*
X83944285Y-135580000D01*
X84001428Y-135694285D01*
X84001428Y-136322857D01*
X84001428Y-135694285D02*
X84058571Y-135580000D01*
X84172857Y-135522857D01*
X84344285Y-135522857D01*
X84458571Y-135580000D01*
X84515714Y-135694285D01*
X84515714Y-136322857D01*
X85944285Y-135065714D02*
X84915714Y-136608571D01*
X86344285Y-136322857D02*
X86344285Y-135122857D01*
X86344285Y-135580000D02*
X86458571Y-135522857D01*
X86687142Y-135522857D01*
X86801428Y-135580000D01*
X86858571Y-135637142D01*
X86915714Y-135751428D01*
X86915714Y-136094285D01*
X86858571Y-136208571D01*
X86801428Y-136265714D01*
X86687142Y-136322857D01*
X86458571Y-136322857D01*
X86344285Y-136265714D01*
X87601428Y-136322857D02*
X87487142Y-136265714D01*
X87430000Y-136151428D01*
X87430000Y-135122857D01*
X88230000Y-136322857D02*
X88115714Y-136265714D01*
X88058571Y-136208571D01*
X88001428Y-136094285D01*
X88001428Y-135751428D01*
X88058571Y-135637142D01*
X88115714Y-135580000D01*
X88230000Y-135522857D01*
X88401428Y-135522857D01*
X88515714Y-135580000D01*
X88572857Y-135637142D01*
X88630000Y-135751428D01*
X88630000Y-136094285D01*
X88572857Y-136208571D01*
X88515714Y-136265714D01*
X88401428Y-136322857D01*
X88230000Y-136322857D01*
X89315714Y-136322857D02*
X89201428Y-136265714D01*
X89144285Y-136208571D01*
X89087142Y-136094285D01*
X89087142Y-135751428D01*
X89144285Y-135637142D01*
X89201428Y-135580000D01*
X89315714Y-135522857D01*
X89487142Y-135522857D01*
X89601428Y-135580000D01*
X89658571Y-135637142D01*
X89715714Y-135751428D01*
X89715714Y-136094285D01*
X89658571Y-136208571D01*
X89601428Y-136265714D01*
X89487142Y-136322857D01*
X89315714Y-136322857D01*
X90744285Y-136322857D02*
X90744285Y-135122857D01*
X90744285Y-136265714D02*
X90630000Y-136322857D01*
X90401428Y-136322857D01*
X90287142Y-136265714D01*
X90230000Y-136208571D01*
X90172857Y-136094285D01*
X90172857Y-135751428D01*
X90230000Y-135637142D01*
X90287142Y-135580000D01*
X90401428Y-135522857D01*
X90630000Y-135522857D01*
X90744285Y-135580000D01*
X91315714Y-136322857D02*
X91315714Y-135522857D01*
X91315714Y-135637142D02*
X91372857Y-135580000D01*
X91487142Y-135522857D01*
X91658571Y-135522857D01*
X91772857Y-135580000D01*
X91830000Y-135694285D01*
X91830000Y-136322857D01*
X91830000Y-135694285D02*
X91887142Y-135580000D01*
X92001428Y-135522857D01*
X92172857Y-135522857D01*
X92287142Y-135580000D01*
X92344285Y-135694285D01*
X92344285Y-136322857D01*
X93087142Y-136322857D02*
X92972857Y-136265714D01*
X92915714Y-136208571D01*
X92858571Y-136094285D01*
X92858571Y-135751428D01*
X92915714Y-135637142D01*
X92972857Y-135580000D01*
X93087142Y-135522857D01*
X93258571Y-135522857D01*
X93372857Y-135580000D01*
X93430000Y-135637142D01*
X93487142Y-135751428D01*
X93487142Y-136094285D01*
X93430000Y-136208571D01*
X93372857Y-136265714D01*
X93258571Y-136322857D01*
X93087142Y-136322857D01*
X93944285Y-136265714D02*
X94058571Y-136322857D01*
X94287142Y-136322857D01*
X94401428Y-136265714D01*
X94458571Y-136151428D01*
X94458571Y-136094285D01*
X94401428Y-135980000D01*
X94287142Y-135922857D01*
X94115714Y-135922857D01*
X94001428Y-135865714D01*
X93944285Y-135751428D01*
X93944285Y-135694285D01*
X94001428Y-135580000D01*
X94115714Y-135522857D01*
X94287142Y-135522857D01*
X94401428Y-135580000D01*
X94972857Y-136322857D02*
X94972857Y-135122857D01*
X95487142Y-136322857D02*
X95487142Y-135694285D01*
X95430000Y-135580000D01*
X95315714Y-135522857D01*
X95144285Y-135522857D01*
X95030000Y-135580000D01*
X94972857Y-135637142D01*
X96515714Y-136265714D02*
X96401428Y-136322857D01*
X96172857Y-136322857D01*
X96058571Y-136265714D01*
X96001428Y-136151428D01*
X96001428Y-135694285D01*
X96058571Y-135580000D01*
X96172857Y-135522857D01*
X96401428Y-135522857D01*
X96515714Y-135580000D01*
X96572857Y-135694285D01*
X96572857Y-135808571D01*
X96001428Y-135922857D01*
X97087142Y-136322857D02*
X97087142Y-135522857D01*
X97087142Y-135751428D02*
X97144285Y-135637142D01*
X97201428Y-135580000D01*
X97315714Y-135522857D01*
X97430000Y-135522857D01*
X62700952Y-85158095D02*
X62700952Y-83858095D01*
X63319999Y-85158095D02*
X63319999Y-83858095D01*
X64062857Y-85158095D01*
X64062857Y-83858095D01*
X64496190Y-83858095D02*
X65239047Y-83858095D01*
X64867619Y-85158095D02*
X64867619Y-83858095D01*
X65672380Y-84477142D02*
X66105714Y-84477142D01*
X66291428Y-85158095D02*
X65672380Y-85158095D01*
X65672380Y-83858095D01*
X66291428Y-83858095D01*
X67529523Y-83920000D02*
X67405714Y-83858095D01*
X67220000Y-83858095D01*
X67034285Y-83920000D01*
X66910476Y-84043809D01*
X66848571Y-84167619D01*
X66786666Y-84415238D01*
X66786666Y-84600952D01*
X66848571Y-84848571D01*
X66910476Y-84972380D01*
X67034285Y-85096190D01*
X67220000Y-85158095D01*
X67343809Y-85158095D01*
X67529523Y-85096190D01*
X67591428Y-85034285D01*
X67591428Y-84600952D01*
X67343809Y-84600952D01*
X68891428Y-85158095D02*
X68458095Y-84539047D01*
X68148571Y-85158095D02*
X68148571Y-83858095D01*
X68643809Y-83858095D01*
X68767619Y-83920000D01*
X68829523Y-83981904D01*
X68891428Y-84105714D01*
X68891428Y-84291428D01*
X68829523Y-84415238D01*
X68767619Y-84477142D01*
X68643809Y-84539047D01*
X68148571Y-84539047D01*
X69386666Y-84786666D02*
X70005714Y-84786666D01*
X69262857Y-85158095D02*
X69696190Y-83858095D01*
X70129523Y-85158095D01*
X70377142Y-83858095D02*
X71120000Y-83858095D01*
X70748571Y-85158095D02*
X70748571Y-83858095D01*
X71553333Y-84477142D02*
X71986666Y-84477142D01*
X72172380Y-85158095D02*
X71553333Y-85158095D01*
X71553333Y-83858095D01*
X72172380Y-83858095D01*
X72729523Y-85158095D02*
X72729523Y-83858095D01*
X73039047Y-83858095D01*
X73224761Y-83920000D01*
X73348571Y-84043809D01*
X73410476Y-84167619D01*
X73472380Y-84415238D01*
X73472380Y-84600952D01*
X73410476Y-84848571D01*
X73348571Y-84972380D01*
X73224761Y-85096190D01*
X73039047Y-85158095D01*
X72729523Y-85158095D01*
X74958095Y-85096190D02*
X75143809Y-85158095D01*
X75453333Y-85158095D01*
X75577142Y-85096190D01*
X75639047Y-85034285D01*
X75700952Y-84910476D01*
X75700952Y-84786666D01*
X75639047Y-84662857D01*
X75577142Y-84600952D01*
X75453333Y-84539047D01*
X75205714Y-84477142D01*
X75081904Y-84415238D01*
X75020000Y-84353333D01*
X74958095Y-84229523D01*
X74958095Y-84105714D01*
X75020000Y-83981904D01*
X75081904Y-83920000D01*
X75205714Y-83858095D01*
X75515238Y-83858095D01*
X75700952Y-83920000D01*
X76505714Y-84539047D02*
X76505714Y-85158095D01*
X76072380Y-83858095D02*
X76505714Y-84539047D01*
X76939047Y-83858095D01*
X77310476Y-85096190D02*
X77496190Y-85158095D01*
X77805714Y-85158095D01*
X77929523Y-85096190D01*
X77991428Y-85034285D01*
X78053333Y-84910476D01*
X78053333Y-84786666D01*
X77991428Y-84662857D01*
X77929523Y-84600952D01*
X77805714Y-84539047D01*
X77558095Y-84477142D01*
X77434285Y-84415238D01*
X77372380Y-84353333D01*
X77310476Y-84229523D01*
X77310476Y-84105714D01*
X77372380Y-83981904D01*
X77434285Y-83920000D01*
X77558095Y-83858095D01*
X77867619Y-83858095D01*
X78053333Y-83920000D01*
X78424761Y-83858095D02*
X79167619Y-83858095D01*
X78796190Y-85158095D02*
X78796190Y-83858095D01*
X79600952Y-84477142D02*
X80034285Y-84477142D01*
X80220000Y-85158095D02*
X79600952Y-85158095D01*
X79600952Y-83858095D01*
X80220000Y-83858095D01*
X80777142Y-85158095D02*
X80777142Y-83858095D01*
X81210476Y-84786666D01*
X81643809Y-83858095D01*
X81643809Y-85158095D01*
X83686666Y-84477142D02*
X83253333Y-84477142D01*
X83253333Y-85158095D02*
X83253333Y-83858095D01*
X83872380Y-83858095D01*
X84615238Y-83858095D02*
X84862857Y-83858095D01*
X84986666Y-83920000D01*
X85110476Y-84043809D01*
X85172380Y-84291428D01*
X85172380Y-84724761D01*
X85110476Y-84972380D01*
X84986666Y-85096190D01*
X84862857Y-85158095D01*
X84615238Y-85158095D01*
X84491428Y-85096190D01*
X84367619Y-84972380D01*
X84305714Y-84724761D01*
X84305714Y-84291428D01*
X84367619Y-84043809D01*
X84491428Y-83920000D01*
X84615238Y-83858095D01*
X86472380Y-85158095D02*
X86039047Y-84539047D01*
X85729523Y-85158095D02*
X85729523Y-83858095D01*
X86224761Y-83858095D01*
X86348571Y-83920000D01*
X86410476Y-83981904D01*
X86472380Y-84105714D01*
X86472380Y-84291428D01*
X86410476Y-84415238D01*
X86348571Y-84477142D01*
X86224761Y-84539047D01*
X85729523Y-84539047D01*
X88020000Y-84477142D02*
X88453333Y-84477142D01*
X88639047Y-85158095D02*
X88020000Y-85158095D01*
X88020000Y-83858095D01*
X88639047Y-83858095D01*
X89196190Y-85158095D02*
X89196190Y-83858095D01*
X89939047Y-85158095D01*
X89939047Y-83858095D01*
X90558095Y-85158095D02*
X90558095Y-83858095D01*
X90558095Y-84477142D02*
X91300952Y-84477142D01*
X91300952Y-85158095D02*
X91300952Y-83858095D01*
X91858095Y-84786666D02*
X92477142Y-84786666D01*
X91734285Y-85158095D02*
X92167619Y-83858095D01*
X92600952Y-85158095D01*
X93034285Y-85158095D02*
X93034285Y-83858095D01*
X93777142Y-85158095D01*
X93777142Y-83858095D01*
X95139047Y-85034285D02*
X95077142Y-85096190D01*
X94891428Y-85158095D01*
X94767619Y-85158095D01*
X94581904Y-85096190D01*
X94458095Y-84972380D01*
X94396190Y-84848571D01*
X94334285Y-84600952D01*
X94334285Y-84415238D01*
X94396190Y-84167619D01*
X94458095Y-84043809D01*
X94581904Y-83920000D01*
X94767619Y-83858095D01*
X94891428Y-83858095D01*
X95077142Y-83920000D01*
X95139047Y-83981904D01*
X95696190Y-85158095D02*
X95696190Y-83858095D01*
X96315238Y-85158095D02*
X96315238Y-83858095D01*
X97058095Y-85158095D01*
X97058095Y-83858095D01*
X98358095Y-83920000D02*
X98234285Y-83858095D01*
X98048571Y-83858095D01*
X97862857Y-83920000D01*
X97739047Y-84043809D01*
X97677142Y-84167619D01*
X97615238Y-84415238D01*
X97615238Y-84600952D01*
X97677142Y-84848571D01*
X97739047Y-84972380D01*
X97862857Y-85096190D01*
X98048571Y-85158095D01*
X98172380Y-85158095D01*
X98358095Y-85096190D01*
X98420000Y-85034285D01*
X98420000Y-84600952D01*
X98172380Y-84600952D01*
X99781904Y-83858095D02*
X100215238Y-85158095D01*
X100648571Y-83858095D01*
X101081904Y-85158095D02*
X101081904Y-83858095D01*
X102443809Y-85034285D02*
X102381904Y-85096190D01*
X102196190Y-85158095D01*
X102072380Y-85158095D01*
X101886666Y-85096190D01*
X101762857Y-84972380D01*
X101700952Y-84848571D01*
X101639047Y-84600952D01*
X101639047Y-84415238D01*
X101700952Y-84167619D01*
X101762857Y-84043809D01*
X101886666Y-83920000D01*
X102072380Y-83858095D01*
X102196190Y-83858095D01*
X102381904Y-83920000D01*
X102443809Y-83981904D01*
X104239047Y-83858095D02*
X104486666Y-83858095D01*
X104610476Y-83920000D01*
X104734285Y-84043809D01*
X104796190Y-84291428D01*
X104796190Y-84724761D01*
X104734285Y-84972380D01*
X104610476Y-85096190D01*
X104486666Y-85158095D01*
X104239047Y-85158095D01*
X104115238Y-85096190D01*
X103991428Y-84972380D01*
X103929523Y-84724761D01*
X103929523Y-84291428D01*
X103991428Y-84043809D01*
X104115238Y-83920000D01*
X104239047Y-83858095D01*
X105353333Y-83858095D02*
X105353333Y-84910476D01*
X105415238Y-85034285D01*
X105477142Y-85096190D01*
X105600952Y-85158095D01*
X105848571Y-85158095D01*
X105972380Y-85096190D01*
X106034285Y-85034285D01*
X106096190Y-84910476D01*
X106096190Y-83858095D01*
X106529523Y-83858095D02*
X107272380Y-83858095D01*
X106900952Y-85158095D02*
X106900952Y-83858095D01*
X107705714Y-85158095D02*
X107705714Y-83858095D01*
X108200952Y-83858095D01*
X108324761Y-83920000D01*
X108386666Y-83981904D01*
X108448571Y-84105714D01*
X108448571Y-84291428D01*
X108386666Y-84415238D01*
X108324761Y-84477142D01*
X108200952Y-84539047D01*
X107705714Y-84539047D01*
X109005714Y-83858095D02*
X109005714Y-84910476D01*
X109067619Y-85034285D01*
X109129523Y-85096190D01*
X109253333Y-85158095D01*
X109500952Y-85158095D01*
X109624761Y-85096190D01*
X109686666Y-85034285D01*
X109748571Y-84910476D01*
X109748571Y-83858095D01*
X110181904Y-83858095D02*
X110924761Y-83858095D01*
X110553333Y-85158095D02*
X110553333Y-83858095D01*
D12*
%TO.C,G\u002A\u002A\u002A*%
G36*
X77914667Y-130915334D02*
G01*
X77237333Y-130915334D01*
X77237333Y-129052667D01*
X77914667Y-129052667D01*
X77914667Y-130915334D01*
G37*
X77914667Y-130915334D02*
X77237333Y-130915334D01*
X77237333Y-129052667D01*
X77914667Y-129052667D01*
X77914667Y-130915334D01*
G36*
X79420364Y-129962834D02*
G01*
X79396333Y-130873000D01*
X78676667Y-130925070D01*
X78676667Y-129052667D01*
X79444395Y-129052667D01*
X79420364Y-129962834D01*
G37*
X79420364Y-129962834D02*
X79396333Y-130873000D01*
X78676667Y-130925070D01*
X78676667Y-129052667D01*
X79444395Y-129052667D01*
X79420364Y-129962834D01*
G36*
X80591637Y-129060814D02*
G01*
X80714526Y-129104631D01*
X80787164Y-129213177D01*
X80822635Y-129415513D01*
X80834028Y-129740702D01*
X80834749Y-130006105D01*
X80833832Y-130873000D01*
X80517249Y-130899278D01*
X80200667Y-130925555D01*
X80200667Y-129989111D01*
X80201787Y-129581171D01*
X80209432Y-129313168D01*
X80230029Y-129155706D01*
X80270005Y-129079388D01*
X80335788Y-129054818D01*
X80405408Y-129052667D01*
X80591637Y-129060814D01*
G37*
X80591637Y-129060814D02*
X80714526Y-129104631D01*
X80787164Y-129213177D01*
X80822635Y-129415513D01*
X80834028Y-129740702D01*
X80834749Y-130006105D01*
X80833832Y-130873000D01*
X80517249Y-130899278D01*
X80200667Y-130925555D01*
X80200667Y-129989111D01*
X80201787Y-129581171D01*
X80209432Y-129313168D01*
X80230029Y-129155706D01*
X80270005Y-129079388D01*
X80335788Y-129054818D01*
X80405408Y-129052667D01*
X80591637Y-129060814D01*
G36*
X81915167Y-129053327D02*
G01*
X82118742Y-129093028D01*
X82260674Y-129224380D01*
X82349396Y-129467468D01*
X82393344Y-129842376D01*
X82402000Y-130212546D01*
X82402000Y-130915334D01*
X81640000Y-130915334D01*
X81640000Y-129052667D01*
X81915167Y-129053327D01*
G37*
X81915167Y-129053327D02*
X82118742Y-129093028D01*
X82260674Y-129224380D01*
X82349396Y-129467468D01*
X82393344Y-129842376D01*
X82402000Y-130212546D01*
X82402000Y-130915334D01*
X81640000Y-130915334D01*
X81640000Y-129052667D01*
X81915167Y-129053327D01*
G36*
X83841333Y-130915334D02*
G01*
X83164000Y-130915334D01*
X83164000Y-129052667D01*
X83841333Y-129052667D01*
X83841333Y-130915334D01*
G37*
X83841333Y-130915334D02*
X83164000Y-130915334D01*
X83164000Y-129052667D01*
X83841333Y-129052667D01*
X83841333Y-130915334D01*
G36*
X85145561Y-129134252D02*
G01*
X85371487Y-129220149D01*
X85347244Y-130046575D01*
X85323000Y-130873000D01*
X84963167Y-130899035D01*
X84603333Y-130925070D01*
X84603333Y-130036907D01*
X84606291Y-129636092D01*
X84618693Y-129373141D01*
X84645836Y-129216636D01*
X84693014Y-129135159D01*
X84761484Y-129098549D01*
X84956877Y-129090125D01*
X85145561Y-129134252D01*
G37*
X85145561Y-129134252D02*
X85371487Y-129220149D01*
X85347244Y-130046575D01*
X85323000Y-130873000D01*
X84963167Y-130899035D01*
X84603333Y-130925070D01*
X84603333Y-130036907D01*
X84606291Y-129636092D01*
X84618693Y-129373141D01*
X84645836Y-129216636D01*
X84693014Y-129135159D01*
X84761484Y-129098549D01*
X84956877Y-129090125D01*
X85145561Y-129134252D01*
G36*
X86391917Y-129084417D02*
G01*
X86599507Y-129121628D01*
X86729887Y-129137331D01*
X86730583Y-129137334D01*
X86760994Y-129216157D01*
X86785355Y-129429312D01*
X86800753Y-129741827D01*
X86804667Y-130026334D01*
X86804667Y-130915334D01*
X86127333Y-130915334D01*
X86127333Y-129031500D01*
X86391917Y-129084417D01*
G37*
X86391917Y-129084417D02*
X86599507Y-129121628D01*
X86729887Y-129137331D01*
X86730583Y-129137334D01*
X86760994Y-129216157D01*
X86785355Y-129429312D01*
X86800753Y-129741827D01*
X86804667Y-130026334D01*
X86804667Y-130915334D01*
X86127333Y-130915334D01*
X86127333Y-129031500D01*
X86391917Y-129084417D01*
G36*
X87926500Y-129137466D02*
G01*
X88286333Y-129137599D01*
X88286333Y-130873000D01*
X87986974Y-130898196D01*
X87771221Y-130899441D01*
X87635601Y-130869416D01*
X87627140Y-130862919D01*
X87601369Y-130757276D01*
X87581066Y-130522045D01*
X87568920Y-130196952D01*
X87566667Y-129969889D01*
X87566667Y-129137334D01*
X87926500Y-129137466D01*
G37*
X87926500Y-129137466D02*
X88286333Y-129137599D01*
X88286333Y-130873000D01*
X87986974Y-130898196D01*
X87771221Y-130899441D01*
X87635601Y-130869416D01*
X87627140Y-130862919D01*
X87601369Y-130757276D01*
X87581066Y-130522045D01*
X87568920Y-130196952D01*
X87566667Y-129969889D01*
X87566667Y-129137334D01*
X87926500Y-129137466D01*
G36*
X89365833Y-129068965D02*
G01*
X89725667Y-129095000D01*
X89773729Y-130915334D01*
X89006000Y-130915334D01*
X89006000Y-129042931D01*
X89365833Y-129068965D01*
G37*
X89365833Y-129068965D02*
X89725667Y-129095000D01*
X89773729Y-130915334D01*
X89006000Y-130915334D01*
X89006000Y-129042931D01*
X89365833Y-129068965D01*
G36*
X91194751Y-129984000D02*
G01*
X91215163Y-130915334D01*
X90530000Y-130915334D01*
X90530000Y-129052667D01*
X91174340Y-129052667D01*
X91194751Y-129984000D01*
G37*
X91194751Y-129984000D02*
X91215163Y-130915334D01*
X90530000Y-130915334D01*
X90530000Y-129052667D01*
X91174340Y-129052667D01*
X91194751Y-129984000D01*
G36*
X92329167Y-129068965D02*
G01*
X92689000Y-129095000D01*
X92689000Y-130873000D01*
X92329167Y-130899035D01*
X91969333Y-130925070D01*
X91969333Y-129042931D01*
X92329167Y-129068965D01*
G37*
X92329167Y-129068965D02*
X92689000Y-129095000D01*
X92689000Y-130873000D01*
X92329167Y-130899035D01*
X91969333Y-130925070D01*
X91969333Y-129042931D01*
X92329167Y-129068965D01*
G36*
X93937524Y-129066330D02*
G01*
X94045927Y-129124906D01*
X94114166Y-129254774D01*
X94151403Y-129482316D01*
X94166804Y-129833912D01*
X94169510Y-130174500D01*
X94170667Y-130915334D01*
X93493333Y-130915334D01*
X93493333Y-129052667D01*
X93779792Y-129052667D01*
X93937524Y-129066330D01*
G37*
X93937524Y-129066330D02*
X94045927Y-129124906D01*
X94114166Y-129254774D01*
X94151403Y-129482316D01*
X94166804Y-129833912D01*
X94169510Y-130174500D01*
X94170667Y-130915334D01*
X93493333Y-130915334D01*
X93493333Y-129052667D01*
X93779792Y-129052667D01*
X93937524Y-129066330D01*
G36*
X95123167Y-129083969D02*
G01*
X95344806Y-129126398D01*
X95464795Y-129136177D01*
X95532694Y-129151631D01*
X95574957Y-129216697D01*
X95595960Y-129361317D01*
X95600079Y-129615431D01*
X95591795Y-130005167D01*
X95567667Y-130873000D01*
X95250167Y-130899278D01*
X94932667Y-130925555D01*
X94932667Y-129979236D01*
X94933761Y-129569103D01*
X94940968Y-129300654D01*
X94960170Y-129146241D01*
X94997250Y-129078217D01*
X95058092Y-129068933D01*
X95123167Y-129083969D01*
G37*
X95123167Y-129083969D02*
X95344806Y-129126398D01*
X95464795Y-129136177D01*
X95532694Y-129151631D01*
X95574957Y-129216697D01*
X95595960Y-129361317D01*
X95600079Y-129615431D01*
X95591795Y-130005167D01*
X95567667Y-130873000D01*
X95250167Y-130899278D01*
X94932667Y-130925555D01*
X94932667Y-129979236D01*
X94933761Y-129569103D01*
X94940968Y-129300654D01*
X94960170Y-129146241D01*
X94997250Y-129078217D01*
X95058092Y-129068933D01*
X95123167Y-129083969D01*
G36*
X87764375Y-112204445D02*
G01*
X88981122Y-112205742D01*
X90140807Y-112207833D01*
X91232586Y-112210662D01*
X92245619Y-112214171D01*
X93169061Y-112218303D01*
X93992071Y-112223000D01*
X94703807Y-112228206D01*
X95293425Y-112233864D01*
X95750085Y-112239915D01*
X96062942Y-112246303D01*
X96221155Y-112252970D01*
X96238075Y-112255392D01*
X96333528Y-112363083D01*
X96370848Y-112604323D01*
X96372000Y-112676068D01*
X96356480Y-112914281D01*
X96305315Y-113006312D01*
X96262728Y-113003421D01*
X96186542Y-113028101D01*
X96167209Y-113195284D01*
X96169088Y-113238911D01*
X96184863Y-113427240D01*
X96202419Y-113515429D01*
X96204031Y-113516334D01*
X96216196Y-113593429D01*
X96228805Y-113794496D01*
X96238159Y-114045500D01*
X96235286Y-114319510D01*
X96213134Y-114510730D01*
X96180491Y-114574667D01*
X96151341Y-114629665D01*
X96174139Y-114680500D01*
X96220458Y-114821987D01*
X96244957Y-115021535D01*
X96244900Y-115212155D01*
X96217552Y-115326855D01*
X96200935Y-115336667D01*
X96183450Y-115412579D01*
X96193257Y-115610387D01*
X96223344Y-115852470D01*
X96260261Y-116240197D01*
X96231345Y-116518960D01*
X96199403Y-116614547D01*
X96140796Y-116825382D01*
X96185592Y-116966559D01*
X96194907Y-116978318D01*
X96249460Y-117132307D01*
X96225000Y-117391607D01*
X96210085Y-117462272D01*
X96169694Y-117762250D01*
X96215038Y-117933797D01*
X96217907Y-117937364D01*
X96263230Y-118029686D01*
X96215129Y-118046000D01*
X96162090Y-118111855D01*
X96186924Y-118236500D01*
X96203889Y-118369935D01*
X96217291Y-118641648D01*
X96227226Y-119024551D01*
X96233790Y-119491554D01*
X96237079Y-120015567D01*
X96237191Y-120569502D01*
X96234220Y-121126269D01*
X96228263Y-121658778D01*
X96219418Y-122139941D01*
X96207779Y-122542667D01*
X96193444Y-122839868D01*
X96176508Y-123004454D01*
X96169893Y-123025866D01*
X96164441Y-123136546D01*
X96186240Y-123158182D01*
X96220533Y-123260505D01*
X96230620Y-123467716D01*
X96218450Y-123717398D01*
X96185969Y-123947138D01*
X96158502Y-124046898D01*
X96169307Y-124206197D01*
X96211573Y-124279732D01*
X96256731Y-124376962D01*
X96224402Y-124396000D01*
X96181436Y-124471724D01*
X96193662Y-124680491D01*
X96203729Y-124740479D01*
X96225439Y-125060101D01*
X96196357Y-125393860D01*
X96187540Y-125437372D01*
X96149250Y-125691523D01*
X96182232Y-125810223D01*
X96201379Y-125820793D01*
X96245960Y-125888077D01*
X96192855Y-125974155D01*
X96135412Y-126106378D01*
X96189321Y-126194522D01*
X96276114Y-126381188D01*
X96266797Y-126605681D01*
X96193110Y-126742356D01*
X96145053Y-126882806D01*
X96164846Y-126943302D01*
X96216549Y-127103876D01*
X96237902Y-127289352D01*
X96231190Y-127433703D01*
X96170515Y-127503974D01*
X96011992Y-127526747D01*
X95842833Y-127528673D01*
X95440667Y-127528667D01*
X95440667Y-127147667D01*
X95779333Y-127147667D01*
X95821667Y-127190000D01*
X95864000Y-127147667D01*
X95821667Y-127105334D01*
X95779333Y-127147667D01*
X95440667Y-127147667D01*
X95440667Y-127063000D01*
X95948667Y-127063000D01*
X95991000Y-127105334D01*
X96033333Y-127063000D01*
X95991000Y-127020667D01*
X95948667Y-127063000D01*
X95440667Y-127063000D01*
X95440667Y-125877667D01*
X95948667Y-125877667D01*
X95991000Y-125920000D01*
X96033333Y-125877667D01*
X95991000Y-125835334D01*
X95948667Y-125877667D01*
X95440667Y-125877667D01*
X95440667Y-125793000D01*
X95779333Y-125793000D01*
X95821667Y-125835334D01*
X95864000Y-125793000D01*
X95821667Y-125750667D01*
X95779333Y-125793000D01*
X95440667Y-125793000D01*
X95440667Y-124523000D01*
X95948667Y-124523000D01*
X95991000Y-124565334D01*
X96033333Y-124523000D01*
X95991000Y-124480667D01*
X95948667Y-124523000D01*
X95440667Y-124523000D01*
X95440667Y-123761000D01*
X95948667Y-123761000D01*
X95991000Y-123803334D01*
X96033333Y-123761000D01*
X95991000Y-123718667D01*
X95948667Y-123761000D01*
X95440667Y-123761000D01*
X95440667Y-123676334D01*
X95779333Y-123676334D01*
X95821667Y-123718667D01*
X95864000Y-123676334D01*
X95821667Y-123634000D01*
X95779333Y-123676334D01*
X95440667Y-123676334D01*
X95440667Y-123591667D01*
X95948667Y-123591667D01*
X95991000Y-123634000D01*
X96033333Y-123591667D01*
X95991000Y-123549334D01*
X95948667Y-123591667D01*
X95440667Y-123591667D01*
X95440667Y-122914334D01*
X95779333Y-122914334D01*
X95821667Y-122956667D01*
X95864000Y-122914334D01*
X95821667Y-122872000D01*
X95779333Y-122914334D01*
X95440667Y-122914334D01*
X95440667Y-121559667D01*
X95779333Y-121559667D01*
X95821667Y-121602000D01*
X95864000Y-121559667D01*
X95821667Y-121517334D01*
X95779333Y-121559667D01*
X95440667Y-121559667D01*
X95440667Y-120797667D01*
X95779333Y-120797667D01*
X95821667Y-120840000D01*
X95864000Y-120797667D01*
X95821667Y-120755334D01*
X95779333Y-120797667D01*
X95440667Y-120797667D01*
X95440667Y-120628334D01*
X95779333Y-120628334D01*
X95821667Y-120670667D01*
X95864000Y-120628334D01*
X95821667Y-120586000D01*
X95779333Y-120628334D01*
X95440667Y-120628334D01*
X95440667Y-118342334D01*
X95948667Y-118342334D01*
X95991000Y-118384667D01*
X96033333Y-118342334D01*
X95991000Y-118300000D01*
X95948667Y-118342334D01*
X95440667Y-118342334D01*
X95440667Y-118173000D01*
X95948667Y-118173000D01*
X95991000Y-118215334D01*
X96033333Y-118173000D01*
X95991000Y-118130667D01*
X95948667Y-118173000D01*
X95440667Y-118173000D01*
X95440667Y-116649000D01*
X95948667Y-116649000D01*
X95991000Y-116691334D01*
X96033333Y-116649000D01*
X95991000Y-116606667D01*
X95948667Y-116649000D01*
X95440667Y-116649000D01*
X95440667Y-116056334D01*
X95948667Y-116056334D01*
X95991000Y-116098667D01*
X96033333Y-116056334D01*
X95991000Y-116014000D01*
X95948667Y-116056334D01*
X95440667Y-116056334D01*
X95440667Y-115463667D01*
X95948667Y-115463667D01*
X95991000Y-115506000D01*
X96033333Y-115463667D01*
X95991000Y-115421334D01*
X95948667Y-115463667D01*
X95440667Y-115463667D01*
X95440667Y-114701667D01*
X95948667Y-114701667D01*
X95991000Y-114744000D01*
X96033333Y-114701667D01*
X95991000Y-114659334D01*
X95948667Y-114701667D01*
X95440667Y-114701667D01*
X95440667Y-113939667D01*
X95948667Y-113939667D01*
X95991000Y-113982000D01*
X96033333Y-113939667D01*
X95991000Y-113897334D01*
X95948667Y-113939667D01*
X95440667Y-113939667D01*
X95440667Y-113770334D01*
X95948667Y-113770334D01*
X95991000Y-113812667D01*
X96033333Y-113770334D01*
X95991000Y-113728000D01*
X95948667Y-113770334D01*
X95440667Y-113770334D01*
X95440667Y-113050667D01*
X93048833Y-113030224D01*
X92545565Y-113026562D01*
X91894569Y-113022843D01*
X91117453Y-113019143D01*
X90235823Y-113015536D01*
X89271285Y-113012098D01*
X88245445Y-113008904D01*
X88034118Y-113008334D01*
X95948667Y-113008334D01*
X95991000Y-113050667D01*
X96033333Y-113008334D01*
X95991000Y-112966000D01*
X95948667Y-113008334D01*
X88034118Y-113008334D01*
X87179910Y-113006030D01*
X86096286Y-113003549D01*
X85016180Y-113001539D01*
X84645667Y-113000964D01*
X83646872Y-112999471D01*
X82694086Y-112997992D01*
X81801398Y-112996553D01*
X80982902Y-112995178D01*
X80252687Y-112993894D01*
X79624845Y-112992725D01*
X79113467Y-112991696D01*
X78732644Y-112990834D01*
X78496467Y-112990163D01*
X78422667Y-112989799D01*
X78072159Y-112987405D01*
X77858340Y-112997887D01*
X77748565Y-113033441D01*
X77710189Y-113106261D01*
X77710569Y-113228544D01*
X77712146Y-113255245D01*
X77728203Y-113436748D01*
X77746048Y-113516190D01*
X77746698Y-113516334D01*
X77758863Y-113593429D01*
X77771472Y-113794496D01*
X77780826Y-114045500D01*
X77777953Y-114319510D01*
X77755801Y-114510730D01*
X77723158Y-114574667D01*
X77694008Y-114629665D01*
X77716806Y-114680500D01*
X77763125Y-114821987D01*
X77787624Y-115021535D01*
X77787567Y-115212155D01*
X77760219Y-115326855D01*
X77743602Y-115336667D01*
X77726116Y-115412579D01*
X77735924Y-115610387D01*
X77766010Y-115852470D01*
X77802928Y-116240197D01*
X77774012Y-116518960D01*
X77742069Y-116614547D01*
X77683463Y-116825382D01*
X77728258Y-116966559D01*
X77737574Y-116978318D01*
X77792126Y-117132307D01*
X77767666Y-117391607D01*
X77752751Y-117462272D01*
X77712361Y-117762250D01*
X77757704Y-117933797D01*
X77760574Y-117937364D01*
X77805896Y-118029686D01*
X77757796Y-118046000D01*
X77704756Y-118111855D01*
X77729590Y-118236500D01*
X77746556Y-118369935D01*
X77759958Y-118641648D01*
X77769893Y-119024551D01*
X77776457Y-119491554D01*
X77779746Y-120015567D01*
X77779857Y-120569502D01*
X77776886Y-121126269D01*
X77770930Y-121658778D01*
X77762084Y-122139941D01*
X77750446Y-122542667D01*
X77736110Y-122839868D01*
X77719175Y-123004454D01*
X77712559Y-123025866D01*
X77707108Y-123136546D01*
X77728907Y-123158182D01*
X77763200Y-123260505D01*
X77773287Y-123467716D01*
X77761116Y-123717398D01*
X77728636Y-123947138D01*
X77701169Y-124046898D01*
X77711973Y-124206197D01*
X77754239Y-124279732D01*
X77799398Y-124376962D01*
X77767069Y-124396000D01*
X77724103Y-124471724D01*
X77736328Y-124680491D01*
X77746396Y-124740479D01*
X77768105Y-125060101D01*
X77739024Y-125393860D01*
X77730206Y-125437372D01*
X77691916Y-125691523D01*
X77724899Y-125810223D01*
X77744046Y-125820793D01*
X77788627Y-125888077D01*
X77735522Y-125974155D01*
X77678079Y-126106378D01*
X77731988Y-126194522D01*
X77818780Y-126381188D01*
X77809464Y-126605681D01*
X77735777Y-126742356D01*
X77688788Y-126887000D01*
X77710210Y-126947666D01*
X77765669Y-127116000D01*
X77783266Y-127272543D01*
X77766736Y-127407514D01*
X77680499Y-127481797D01*
X77480433Y-127526321D01*
X77406667Y-127536532D01*
X77439145Y-127543194D01*
X77630883Y-127549824D01*
X77971805Y-127556353D01*
X78451837Y-127562713D01*
X79060904Y-127568833D01*
X79788933Y-127574644D01*
X80625847Y-127580078D01*
X81561573Y-127585065D01*
X82586037Y-127589537D01*
X83689163Y-127593423D01*
X84860878Y-127596655D01*
X86091107Y-127599164D01*
X86656500Y-127600032D01*
X88137405Y-127602106D01*
X89458143Y-127604127D01*
X90627881Y-127606270D01*
X91655786Y-127608711D01*
X92551023Y-127611628D01*
X93322760Y-127615196D01*
X93980163Y-127619592D01*
X94532398Y-127624992D01*
X94988632Y-127631572D01*
X95358032Y-127639510D01*
X95649764Y-127648980D01*
X95872994Y-127660161D01*
X96036890Y-127673227D01*
X96150617Y-127688355D01*
X96223342Y-127705723D01*
X96264232Y-127725505D01*
X96282454Y-127747879D01*
X96287172Y-127773020D01*
X96287333Y-127785324D01*
X96222829Y-127950810D01*
X96139167Y-128011849D01*
X95972235Y-128112548D01*
X95817225Y-128249507D01*
X95643451Y-128432631D01*
X87181225Y-128408672D01*
X85994586Y-128405378D01*
X84853247Y-128402336D01*
X83768926Y-128399571D01*
X82753345Y-128397108D01*
X81818221Y-128394970D01*
X80975275Y-128393182D01*
X80236225Y-128391768D01*
X79612791Y-128390751D01*
X79116692Y-128390157D01*
X78759648Y-128390010D01*
X78553377Y-128390333D01*
X78507333Y-128390749D01*
X78263093Y-128396164D01*
X78023974Y-128399766D01*
X77852162Y-128420495D01*
X77793252Y-128467167D01*
X77796138Y-128473707D01*
X77744695Y-128512051D01*
X77566253Y-128537817D01*
X77369330Y-128544667D01*
X76898667Y-128544667D01*
X76898667Y-128417667D01*
X77576000Y-128417667D01*
X77618333Y-128460000D01*
X77660667Y-128417667D01*
X77618333Y-128375334D01*
X77576000Y-128417667D01*
X76898667Y-128417667D01*
X76898667Y-128079000D01*
X82994667Y-128079000D01*
X83037000Y-128121334D01*
X83079333Y-128079000D01*
X83037000Y-128036667D01*
X82994667Y-128079000D01*
X76898667Y-128079000D01*
X76898667Y-127147667D01*
X77322000Y-127147667D01*
X77364333Y-127190000D01*
X77406667Y-127147667D01*
X77364333Y-127105334D01*
X77322000Y-127147667D01*
X76898667Y-127147667D01*
X76898667Y-127063000D01*
X77491333Y-127063000D01*
X77533667Y-127105334D01*
X77576000Y-127063000D01*
X77533667Y-127020667D01*
X77491333Y-127063000D01*
X76898667Y-127063000D01*
X76898667Y-125877667D01*
X77491333Y-125877667D01*
X77533667Y-125920000D01*
X77576000Y-125877667D01*
X77533667Y-125835334D01*
X77491333Y-125877667D01*
X76898667Y-125877667D01*
X76898667Y-125793000D01*
X77322000Y-125793000D01*
X77364333Y-125835334D01*
X77406667Y-125793000D01*
X77364333Y-125750667D01*
X77322000Y-125793000D01*
X76898667Y-125793000D01*
X76898667Y-124523000D01*
X77491333Y-124523000D01*
X77533667Y-124565334D01*
X77576000Y-124523000D01*
X77533667Y-124480667D01*
X77491333Y-124523000D01*
X76898667Y-124523000D01*
X76898667Y-123761000D01*
X77491333Y-123761000D01*
X77533667Y-123803334D01*
X77576000Y-123761000D01*
X77533667Y-123718667D01*
X77491333Y-123761000D01*
X76898667Y-123761000D01*
X76898667Y-123676334D01*
X77322000Y-123676334D01*
X77364333Y-123718667D01*
X77406667Y-123676334D01*
X77364333Y-123634000D01*
X77322000Y-123676334D01*
X76898667Y-123676334D01*
X76898667Y-123591667D01*
X77491333Y-123591667D01*
X77533667Y-123634000D01*
X77576000Y-123591667D01*
X77533667Y-123549334D01*
X77491333Y-123591667D01*
X76898667Y-123591667D01*
X76898667Y-122914334D01*
X77322000Y-122914334D01*
X77364333Y-122956667D01*
X77406667Y-122914334D01*
X77364333Y-122872000D01*
X77322000Y-122914334D01*
X76898667Y-122914334D01*
X76898667Y-121559667D01*
X77322000Y-121559667D01*
X77364333Y-121602000D01*
X77406667Y-121559667D01*
X77364333Y-121517334D01*
X77322000Y-121559667D01*
X76898667Y-121559667D01*
X76898667Y-120797667D01*
X77322000Y-120797667D01*
X77364333Y-120840000D01*
X77406667Y-120797667D01*
X77364333Y-120755334D01*
X77322000Y-120797667D01*
X76898667Y-120797667D01*
X76898667Y-120628334D01*
X77322000Y-120628334D01*
X77364333Y-120670667D01*
X77406667Y-120628334D01*
X77364333Y-120586000D01*
X77322000Y-120628334D01*
X76898667Y-120628334D01*
X76898667Y-118342334D01*
X77491333Y-118342334D01*
X77533667Y-118384667D01*
X77576000Y-118342334D01*
X77533667Y-118300000D01*
X77491333Y-118342334D01*
X76898667Y-118342334D01*
X76898667Y-118173000D01*
X77491333Y-118173000D01*
X77533667Y-118215334D01*
X77576000Y-118173000D01*
X77533667Y-118130667D01*
X77491333Y-118173000D01*
X76898667Y-118173000D01*
X76898667Y-116649000D01*
X77491333Y-116649000D01*
X77533667Y-116691334D01*
X77576000Y-116649000D01*
X77533667Y-116606667D01*
X77491333Y-116649000D01*
X76898667Y-116649000D01*
X76898667Y-116056334D01*
X77491333Y-116056334D01*
X77533667Y-116098667D01*
X77576000Y-116056334D01*
X77533667Y-116014000D01*
X77491333Y-116056334D01*
X76898667Y-116056334D01*
X76898667Y-115463667D01*
X77491333Y-115463667D01*
X77533667Y-115506000D01*
X77576000Y-115463667D01*
X77533667Y-115421334D01*
X77491333Y-115463667D01*
X76898667Y-115463667D01*
X76898667Y-114701667D01*
X77491333Y-114701667D01*
X77533667Y-114744000D01*
X77576000Y-114701667D01*
X77533667Y-114659334D01*
X77491333Y-114701667D01*
X76898667Y-114701667D01*
X76898667Y-113939667D01*
X77491333Y-113939667D01*
X77533667Y-113982000D01*
X77576000Y-113939667D01*
X77533667Y-113897334D01*
X77491333Y-113939667D01*
X76898667Y-113939667D01*
X76898667Y-113770334D01*
X77491333Y-113770334D01*
X77533667Y-113812667D01*
X77576000Y-113770334D01*
X77533667Y-113728000D01*
X77491333Y-113770334D01*
X76898667Y-113770334D01*
X76898667Y-113008334D01*
X77491333Y-113008334D01*
X77533667Y-113050667D01*
X77576000Y-113008334D01*
X77533667Y-112966000D01*
X77491333Y-113008334D01*
X76898667Y-113008334D01*
X76898667Y-112669667D01*
X82910000Y-112669667D01*
X82952333Y-112712000D01*
X82994667Y-112669667D01*
X82952333Y-112627334D01*
X82910000Y-112669667D01*
X76898667Y-112669667D01*
X76898667Y-112204000D01*
X86501408Y-112204000D01*
X87764375Y-112204445D01*
G37*
X87764375Y-112204445D02*
X88981122Y-112205742D01*
X90140807Y-112207833D01*
X91232586Y-112210662D01*
X92245619Y-112214171D01*
X93169061Y-112218303D01*
X93992071Y-112223000D01*
X94703807Y-112228206D01*
X95293425Y-112233864D01*
X95750085Y-112239915D01*
X96062942Y-112246303D01*
X96221155Y-112252970D01*
X96238075Y-112255392D01*
X96333528Y-112363083D01*
X96370848Y-112604323D01*
X96372000Y-112676068D01*
X96356480Y-112914281D01*
X96305315Y-113006312D01*
X96262728Y-113003421D01*
X96186542Y-113028101D01*
X96167209Y-113195284D01*
X96169088Y-113238911D01*
X96184863Y-113427240D01*
X96202419Y-113515429D01*
X96204031Y-113516334D01*
X96216196Y-113593429D01*
X96228805Y-113794496D01*
X96238159Y-114045500D01*
X96235286Y-114319510D01*
X96213134Y-114510730D01*
X96180491Y-114574667D01*
X96151341Y-114629665D01*
X96174139Y-114680500D01*
X96220458Y-114821987D01*
X96244957Y-115021535D01*
X96244900Y-115212155D01*
X96217552Y-115326855D01*
X96200935Y-115336667D01*
X96183450Y-115412579D01*
X96193257Y-115610387D01*
X96223344Y-115852470D01*
X96260261Y-116240197D01*
X96231345Y-116518960D01*
X96199403Y-116614547D01*
X96140796Y-116825382D01*
X96185592Y-116966559D01*
X96194907Y-116978318D01*
X96249460Y-117132307D01*
X96225000Y-117391607D01*
X96210085Y-117462272D01*
X96169694Y-117762250D01*
X96215038Y-117933797D01*
X96217907Y-117937364D01*
X96263230Y-118029686D01*
X96215129Y-118046000D01*
X96162090Y-118111855D01*
X96186924Y-118236500D01*
X96203889Y-118369935D01*
X96217291Y-118641648D01*
X96227226Y-119024551D01*
X96233790Y-119491554D01*
X96237079Y-120015567D01*
X96237191Y-120569502D01*
X96234220Y-121126269D01*
X96228263Y-121658778D01*
X96219418Y-122139941D01*
X96207779Y-122542667D01*
X96193444Y-122839868D01*
X96176508Y-123004454D01*
X96169893Y-123025866D01*
X96164441Y-123136546D01*
X96186240Y-123158182D01*
X96220533Y-123260505D01*
X96230620Y-123467716D01*
X96218450Y-123717398D01*
X96185969Y-123947138D01*
X96158502Y-124046898D01*
X96169307Y-124206197D01*
X96211573Y-124279732D01*
X96256731Y-124376962D01*
X96224402Y-124396000D01*
X96181436Y-124471724D01*
X96193662Y-124680491D01*
X96203729Y-124740479D01*
X96225439Y-125060101D01*
X96196357Y-125393860D01*
X96187540Y-125437372D01*
X96149250Y-125691523D01*
X96182232Y-125810223D01*
X96201379Y-125820793D01*
X96245960Y-125888077D01*
X96192855Y-125974155D01*
X96135412Y-126106378D01*
X96189321Y-126194522D01*
X96276114Y-126381188D01*
X96266797Y-126605681D01*
X96193110Y-126742356D01*
X96145053Y-126882806D01*
X96164846Y-126943302D01*
X96216549Y-127103876D01*
X96237902Y-127289352D01*
X96231190Y-127433703D01*
X96170515Y-127503974D01*
X96011992Y-127526747D01*
X95842833Y-127528673D01*
X95440667Y-127528667D01*
X95440667Y-127147667D01*
X95779333Y-127147667D01*
X95821667Y-127190000D01*
X95864000Y-127147667D01*
X95821667Y-127105334D01*
X95779333Y-127147667D01*
X95440667Y-127147667D01*
X95440667Y-127063000D01*
X95948667Y-127063000D01*
X95991000Y-127105334D01*
X96033333Y-127063000D01*
X95991000Y-127020667D01*
X95948667Y-127063000D01*
X95440667Y-127063000D01*
X95440667Y-125877667D01*
X95948667Y-125877667D01*
X95991000Y-125920000D01*
X96033333Y-125877667D01*
X95991000Y-125835334D01*
X95948667Y-125877667D01*
X95440667Y-125877667D01*
X95440667Y-125793000D01*
X95779333Y-125793000D01*
X95821667Y-125835334D01*
X95864000Y-125793000D01*
X95821667Y-125750667D01*
X95779333Y-125793000D01*
X95440667Y-125793000D01*
X95440667Y-124523000D01*
X95948667Y-124523000D01*
X95991000Y-124565334D01*
X96033333Y-124523000D01*
X95991000Y-124480667D01*
X95948667Y-124523000D01*
X95440667Y-124523000D01*
X95440667Y-123761000D01*
X95948667Y-123761000D01*
X95991000Y-123803334D01*
X96033333Y-123761000D01*
X95991000Y-123718667D01*
X95948667Y-123761000D01*
X95440667Y-123761000D01*
X95440667Y-123676334D01*
X95779333Y-123676334D01*
X95821667Y-123718667D01*
X95864000Y-123676334D01*
X95821667Y-123634000D01*
X95779333Y-123676334D01*
X95440667Y-123676334D01*
X95440667Y-123591667D01*
X95948667Y-123591667D01*
X95991000Y-123634000D01*
X96033333Y-123591667D01*
X95991000Y-123549334D01*
X95948667Y-123591667D01*
X95440667Y-123591667D01*
X95440667Y-122914334D01*
X95779333Y-122914334D01*
X95821667Y-122956667D01*
X95864000Y-122914334D01*
X95821667Y-122872000D01*
X95779333Y-122914334D01*
X95440667Y-122914334D01*
X95440667Y-121559667D01*
X95779333Y-121559667D01*
X95821667Y-121602000D01*
X95864000Y-121559667D01*
X95821667Y-121517334D01*
X95779333Y-121559667D01*
X95440667Y-121559667D01*
X95440667Y-120797667D01*
X95779333Y-120797667D01*
X95821667Y-120840000D01*
X95864000Y-120797667D01*
X95821667Y-120755334D01*
X95779333Y-120797667D01*
X95440667Y-120797667D01*
X95440667Y-120628334D01*
X95779333Y-120628334D01*
X95821667Y-120670667D01*
X95864000Y-120628334D01*
X95821667Y-120586000D01*
X95779333Y-120628334D01*
X95440667Y-120628334D01*
X95440667Y-118342334D01*
X95948667Y-118342334D01*
X95991000Y-118384667D01*
X96033333Y-118342334D01*
X95991000Y-118300000D01*
X95948667Y-118342334D01*
X95440667Y-118342334D01*
X95440667Y-118173000D01*
X95948667Y-118173000D01*
X95991000Y-118215334D01*
X96033333Y-118173000D01*
X95991000Y-118130667D01*
X95948667Y-118173000D01*
X95440667Y-118173000D01*
X95440667Y-116649000D01*
X95948667Y-116649000D01*
X95991000Y-116691334D01*
X96033333Y-116649000D01*
X95991000Y-116606667D01*
X95948667Y-116649000D01*
X95440667Y-116649000D01*
X95440667Y-116056334D01*
X95948667Y-116056334D01*
X95991000Y-116098667D01*
X96033333Y-116056334D01*
X95991000Y-116014000D01*
X95948667Y-116056334D01*
X95440667Y-116056334D01*
X95440667Y-115463667D01*
X95948667Y-115463667D01*
X95991000Y-115506000D01*
X96033333Y-115463667D01*
X95991000Y-115421334D01*
X95948667Y-115463667D01*
X95440667Y-115463667D01*
X95440667Y-114701667D01*
X95948667Y-114701667D01*
X95991000Y-114744000D01*
X96033333Y-114701667D01*
X95991000Y-114659334D01*
X95948667Y-114701667D01*
X95440667Y-114701667D01*
X95440667Y-113939667D01*
X95948667Y-113939667D01*
X95991000Y-113982000D01*
X96033333Y-113939667D01*
X95991000Y-113897334D01*
X95948667Y-113939667D01*
X95440667Y-113939667D01*
X95440667Y-113770334D01*
X95948667Y-113770334D01*
X95991000Y-113812667D01*
X96033333Y-113770334D01*
X95991000Y-113728000D01*
X95948667Y-113770334D01*
X95440667Y-113770334D01*
X95440667Y-113050667D01*
X93048833Y-113030224D01*
X92545565Y-113026562D01*
X91894569Y-113022843D01*
X91117453Y-113019143D01*
X90235823Y-113015536D01*
X89271285Y-113012098D01*
X88245445Y-113008904D01*
X88034118Y-113008334D01*
X95948667Y-113008334D01*
X95991000Y-113050667D01*
X96033333Y-113008334D01*
X95991000Y-112966000D01*
X95948667Y-113008334D01*
X88034118Y-113008334D01*
X87179910Y-113006030D01*
X86096286Y-113003549D01*
X85016180Y-113001539D01*
X84645667Y-113000964D01*
X83646872Y-112999471D01*
X82694086Y-112997992D01*
X81801398Y-112996553D01*
X80982902Y-112995178D01*
X80252687Y-112993894D01*
X79624845Y-112992725D01*
X79113467Y-112991696D01*
X78732644Y-112990834D01*
X78496467Y-112990163D01*
X78422667Y-112989799D01*
X78072159Y-112987405D01*
X77858340Y-112997887D01*
X77748565Y-113033441D01*
X77710189Y-113106261D01*
X77710569Y-113228544D01*
X77712146Y-113255245D01*
X77728203Y-113436748D01*
X77746048Y-113516190D01*
X77746698Y-113516334D01*
X77758863Y-113593429D01*
X77771472Y-113794496D01*
X77780826Y-114045500D01*
X77777953Y-114319510D01*
X77755801Y-114510730D01*
X77723158Y-114574667D01*
X77694008Y-114629665D01*
X77716806Y-114680500D01*
X77763125Y-114821987D01*
X77787624Y-115021535D01*
X77787567Y-115212155D01*
X77760219Y-115326855D01*
X77743602Y-115336667D01*
X77726116Y-115412579D01*
X77735924Y-115610387D01*
X77766010Y-115852470D01*
X77802928Y-116240197D01*
X77774012Y-116518960D01*
X77742069Y-116614547D01*
X77683463Y-116825382D01*
X77728258Y-116966559D01*
X77737574Y-116978318D01*
X77792126Y-117132307D01*
X77767666Y-117391607D01*
X77752751Y-117462272D01*
X77712361Y-117762250D01*
X77757704Y-117933797D01*
X77760574Y-117937364D01*
X77805896Y-118029686D01*
X77757796Y-118046000D01*
X77704756Y-118111855D01*
X77729590Y-118236500D01*
X77746556Y-118369935D01*
X77759958Y-118641648D01*
X77769893Y-119024551D01*
X77776457Y-119491554D01*
X77779746Y-120015567D01*
X77779857Y-120569502D01*
X77776886Y-121126269D01*
X77770930Y-121658778D01*
X77762084Y-122139941D01*
X77750446Y-122542667D01*
X77736110Y-122839868D01*
X77719175Y-123004454D01*
X77712559Y-123025866D01*
X77707108Y-123136546D01*
X77728907Y-123158182D01*
X77763200Y-123260505D01*
X77773287Y-123467716D01*
X77761116Y-123717398D01*
X77728636Y-123947138D01*
X77701169Y-124046898D01*
X77711973Y-124206197D01*
X77754239Y-124279732D01*
X77799398Y-124376962D01*
X77767069Y-124396000D01*
X77724103Y-124471724D01*
X77736328Y-124680491D01*
X77746396Y-124740479D01*
X77768105Y-125060101D01*
X77739024Y-125393860D01*
X77730206Y-125437372D01*
X77691916Y-125691523D01*
X77724899Y-125810223D01*
X77744046Y-125820793D01*
X77788627Y-125888077D01*
X77735522Y-125974155D01*
X77678079Y-126106378D01*
X77731988Y-126194522D01*
X77818780Y-126381188D01*
X77809464Y-126605681D01*
X77735777Y-126742356D01*
X77688788Y-126887000D01*
X77710210Y-126947666D01*
X77765669Y-127116000D01*
X77783266Y-127272543D01*
X77766736Y-127407514D01*
X77680499Y-127481797D01*
X77480433Y-127526321D01*
X77406667Y-127536532D01*
X77439145Y-127543194D01*
X77630883Y-127549824D01*
X77971805Y-127556353D01*
X78451837Y-127562713D01*
X79060904Y-127568833D01*
X79788933Y-127574644D01*
X80625847Y-127580078D01*
X81561573Y-127585065D01*
X82586037Y-127589537D01*
X83689163Y-127593423D01*
X84860878Y-127596655D01*
X86091107Y-127599164D01*
X86656500Y-127600032D01*
X88137405Y-127602106D01*
X89458143Y-127604127D01*
X90627881Y-127606270D01*
X91655786Y-127608711D01*
X92551023Y-127611628D01*
X93322760Y-127615196D01*
X93980163Y-127619592D01*
X94532398Y-127624992D01*
X94988632Y-127631572D01*
X95358032Y-127639510D01*
X95649764Y-127648980D01*
X95872994Y-127660161D01*
X96036890Y-127673227D01*
X96150617Y-127688355D01*
X96223342Y-127705723D01*
X96264232Y-127725505D01*
X96282454Y-127747879D01*
X96287172Y-127773020D01*
X96287333Y-127785324D01*
X96222829Y-127950810D01*
X96139167Y-128011849D01*
X95972235Y-128112548D01*
X95817225Y-128249507D01*
X95643451Y-128432631D01*
X87181225Y-128408672D01*
X85994586Y-128405378D01*
X84853247Y-128402336D01*
X83768926Y-128399571D01*
X82753345Y-128397108D01*
X81818221Y-128394970D01*
X80975275Y-128393182D01*
X80236225Y-128391768D01*
X79612791Y-128390751D01*
X79116692Y-128390157D01*
X78759648Y-128390010D01*
X78553377Y-128390333D01*
X78507333Y-128390749D01*
X78263093Y-128396164D01*
X78023974Y-128399766D01*
X77852162Y-128420495D01*
X77793252Y-128467167D01*
X77796138Y-128473707D01*
X77744695Y-128512051D01*
X77566253Y-128537817D01*
X77369330Y-128544667D01*
X76898667Y-128544667D01*
X76898667Y-128417667D01*
X77576000Y-128417667D01*
X77618333Y-128460000D01*
X77660667Y-128417667D01*
X77618333Y-128375334D01*
X77576000Y-128417667D01*
X76898667Y-128417667D01*
X76898667Y-128079000D01*
X82994667Y-128079000D01*
X83037000Y-128121334D01*
X83079333Y-128079000D01*
X83037000Y-128036667D01*
X82994667Y-128079000D01*
X76898667Y-128079000D01*
X76898667Y-127147667D01*
X77322000Y-127147667D01*
X77364333Y-127190000D01*
X77406667Y-127147667D01*
X77364333Y-127105334D01*
X77322000Y-127147667D01*
X76898667Y-127147667D01*
X76898667Y-127063000D01*
X77491333Y-127063000D01*
X77533667Y-127105334D01*
X77576000Y-127063000D01*
X77533667Y-127020667D01*
X77491333Y-127063000D01*
X76898667Y-127063000D01*
X76898667Y-125877667D01*
X77491333Y-125877667D01*
X77533667Y-125920000D01*
X77576000Y-125877667D01*
X77533667Y-125835334D01*
X77491333Y-125877667D01*
X76898667Y-125877667D01*
X76898667Y-125793000D01*
X77322000Y-125793000D01*
X77364333Y-125835334D01*
X77406667Y-125793000D01*
X77364333Y-125750667D01*
X77322000Y-125793000D01*
X76898667Y-125793000D01*
X76898667Y-124523000D01*
X77491333Y-124523000D01*
X77533667Y-124565334D01*
X77576000Y-124523000D01*
X77533667Y-124480667D01*
X77491333Y-124523000D01*
X76898667Y-124523000D01*
X76898667Y-123761000D01*
X77491333Y-123761000D01*
X77533667Y-123803334D01*
X77576000Y-123761000D01*
X77533667Y-123718667D01*
X77491333Y-123761000D01*
X76898667Y-123761000D01*
X76898667Y-123676334D01*
X77322000Y-123676334D01*
X77364333Y-123718667D01*
X77406667Y-123676334D01*
X77364333Y-123634000D01*
X77322000Y-123676334D01*
X76898667Y-123676334D01*
X76898667Y-123591667D01*
X77491333Y-123591667D01*
X77533667Y-123634000D01*
X77576000Y-123591667D01*
X77533667Y-123549334D01*
X77491333Y-123591667D01*
X76898667Y-123591667D01*
X76898667Y-122914334D01*
X77322000Y-122914334D01*
X77364333Y-122956667D01*
X77406667Y-122914334D01*
X77364333Y-122872000D01*
X77322000Y-122914334D01*
X76898667Y-122914334D01*
X76898667Y-121559667D01*
X77322000Y-121559667D01*
X77364333Y-121602000D01*
X77406667Y-121559667D01*
X77364333Y-121517334D01*
X77322000Y-121559667D01*
X76898667Y-121559667D01*
X76898667Y-120797667D01*
X77322000Y-120797667D01*
X77364333Y-120840000D01*
X77406667Y-120797667D01*
X77364333Y-120755334D01*
X77322000Y-120797667D01*
X76898667Y-120797667D01*
X76898667Y-120628334D01*
X77322000Y-120628334D01*
X77364333Y-120670667D01*
X77406667Y-120628334D01*
X77364333Y-120586000D01*
X77322000Y-120628334D01*
X76898667Y-120628334D01*
X76898667Y-118342334D01*
X77491333Y-118342334D01*
X77533667Y-118384667D01*
X77576000Y-118342334D01*
X77533667Y-118300000D01*
X77491333Y-118342334D01*
X76898667Y-118342334D01*
X76898667Y-118173000D01*
X77491333Y-118173000D01*
X77533667Y-118215334D01*
X77576000Y-118173000D01*
X77533667Y-118130667D01*
X77491333Y-118173000D01*
X76898667Y-118173000D01*
X76898667Y-116649000D01*
X77491333Y-116649000D01*
X77533667Y-116691334D01*
X77576000Y-116649000D01*
X77533667Y-116606667D01*
X77491333Y-116649000D01*
X76898667Y-116649000D01*
X76898667Y-116056334D01*
X77491333Y-116056334D01*
X77533667Y-116098667D01*
X77576000Y-116056334D01*
X77533667Y-116014000D01*
X77491333Y-116056334D01*
X76898667Y-116056334D01*
X76898667Y-115463667D01*
X77491333Y-115463667D01*
X77533667Y-115506000D01*
X77576000Y-115463667D01*
X77533667Y-115421334D01*
X77491333Y-115463667D01*
X76898667Y-115463667D01*
X76898667Y-114701667D01*
X77491333Y-114701667D01*
X77533667Y-114744000D01*
X77576000Y-114701667D01*
X77533667Y-114659334D01*
X77491333Y-114701667D01*
X76898667Y-114701667D01*
X76898667Y-113939667D01*
X77491333Y-113939667D01*
X77533667Y-113982000D01*
X77576000Y-113939667D01*
X77533667Y-113897334D01*
X77491333Y-113939667D01*
X76898667Y-113939667D01*
X76898667Y-113770334D01*
X77491333Y-113770334D01*
X77533667Y-113812667D01*
X77576000Y-113770334D01*
X77533667Y-113728000D01*
X77491333Y-113770334D01*
X76898667Y-113770334D01*
X76898667Y-113008334D01*
X77491333Y-113008334D01*
X77533667Y-113050667D01*
X77576000Y-113008334D01*
X77533667Y-112966000D01*
X77491333Y-113008334D01*
X76898667Y-113008334D01*
X76898667Y-112669667D01*
X82910000Y-112669667D01*
X82952333Y-112712000D01*
X82994667Y-112669667D01*
X82952333Y-112627334D01*
X82910000Y-112669667D01*
X76898667Y-112669667D01*
X76898667Y-112204000D01*
X86501408Y-112204000D01*
X87764375Y-112204445D01*
G36*
X76475333Y-127698000D02*
G01*
X75468392Y-127698000D01*
X75029199Y-127694587D01*
X74731333Y-127681991D01*
X74546877Y-127656681D01*
X74447920Y-127615125D01*
X74410058Y-127564075D01*
X74368708Y-127372789D01*
X74358667Y-127225409D01*
X74358667Y-127020667D01*
X76475333Y-127020667D01*
X76475333Y-127698000D01*
G37*
X76475333Y-127698000D02*
X75468392Y-127698000D01*
X75029199Y-127694587D01*
X74731333Y-127681991D01*
X74546877Y-127656681D01*
X74447920Y-127615125D01*
X74410058Y-127564075D01*
X74368708Y-127372789D01*
X74358667Y-127225409D01*
X74358667Y-127020667D01*
X76475333Y-127020667D01*
X76475333Y-127698000D01*
G36*
X97899003Y-127083902D02*
G01*
X98875672Y-127125251D01*
X98842240Y-127411626D01*
X98808807Y-127698000D01*
X96798559Y-127698000D01*
X96743636Y-127479168D01*
X96720470Y-127306567D01*
X96766073Y-127186718D01*
X96901472Y-127112427D01*
X97147694Y-127076500D01*
X97525767Y-127071744D01*
X97899003Y-127083902D01*
G37*
X97899003Y-127083902D02*
X98875672Y-127125251D01*
X98842240Y-127411626D01*
X98808807Y-127698000D01*
X96798559Y-127698000D01*
X96743636Y-127479168D01*
X96720470Y-127306567D01*
X96766073Y-127186718D01*
X96901472Y-127112427D01*
X97147694Y-127076500D01*
X97525767Y-127071744D01*
X97899003Y-127083902D01*
G36*
X79290908Y-126203558D02*
G01*
X79484988Y-126327384D01*
X79624022Y-126550851D01*
X79689493Y-126814154D01*
X79662886Y-127057490D01*
X79591067Y-127173067D01*
X79449878Y-127234146D01*
X79211373Y-127270372D01*
X79093338Y-127274667D01*
X78845117Y-127263678D01*
X78707045Y-127210628D01*
X78620358Y-127085392D01*
X78590420Y-127016852D01*
X78544019Y-126718904D01*
X78635160Y-126456430D01*
X78832262Y-126266096D01*
X79103745Y-126184568D01*
X79290908Y-126203558D01*
G37*
X79290908Y-126203558D02*
X79484988Y-126327384D01*
X79624022Y-126550851D01*
X79689493Y-126814154D01*
X79662886Y-127057490D01*
X79591067Y-127173067D01*
X79449878Y-127234146D01*
X79211373Y-127270372D01*
X79093338Y-127274667D01*
X78845117Y-127263678D01*
X78707045Y-127210628D01*
X78620358Y-127085392D01*
X78590420Y-127016852D01*
X78544019Y-126718904D01*
X78635160Y-126456430D01*
X78832262Y-126266096D01*
X79103745Y-126184568D01*
X79290908Y-126203558D01*
G36*
X94668375Y-126276585D02*
G01*
X94795894Y-126361154D01*
X94894653Y-126552281D01*
X94975233Y-126765268D01*
X95016080Y-126912631D01*
X95017333Y-126927233D01*
X94943375Y-127090562D01*
X94756376Y-127207308D01*
X94508656Y-127267372D01*
X94252528Y-127260657D01*
X94040312Y-127177063D01*
X93984991Y-127126500D01*
X93818791Y-126870678D01*
X93806215Y-126651724D01*
X93929032Y-126457171D01*
X94157697Y-126301155D01*
X94443745Y-126258667D01*
X94668375Y-126276585D01*
G37*
X94668375Y-126276585D02*
X94795894Y-126361154D01*
X94894653Y-126552281D01*
X94975233Y-126765268D01*
X95016080Y-126912631D01*
X95017333Y-126927233D01*
X94943375Y-127090562D01*
X94756376Y-127207308D01*
X94508656Y-127267372D01*
X94252528Y-127260657D01*
X94040312Y-127177063D01*
X93984991Y-127126500D01*
X93818791Y-126870678D01*
X93806215Y-126651724D01*
X93929032Y-126457171D01*
X94157697Y-126301155D01*
X94443745Y-126258667D01*
X94668375Y-126276585D01*
G36*
X76475333Y-126428000D02*
G01*
X74358667Y-126428000D01*
X74358667Y-125835334D01*
X76475333Y-125835334D01*
X76475333Y-126428000D01*
G37*
X76475333Y-126428000D02*
X74358667Y-126428000D01*
X74358667Y-125835334D01*
X76475333Y-125835334D01*
X76475333Y-126428000D01*
G36*
X97922049Y-125756630D02*
G01*
X98263084Y-125772501D01*
X98511733Y-125795253D01*
X98562750Y-125803584D01*
X98745059Y-125862044D01*
X98816716Y-125977667D01*
X98827333Y-126142250D01*
X98827333Y-126428000D01*
X96795333Y-126428000D01*
X96795333Y-125750667D01*
X97546750Y-125750667D01*
X97922049Y-125756630D01*
G37*
X97922049Y-125756630D02*
X98263084Y-125772501D01*
X98511733Y-125795253D01*
X98562750Y-125803584D01*
X98745059Y-125862044D01*
X98816716Y-125977667D01*
X98827333Y-126142250D01*
X98827333Y-126428000D01*
X96795333Y-126428000D01*
X96795333Y-125750667D01*
X97546750Y-125750667D01*
X97922049Y-125756630D01*
G36*
X84371196Y-116204936D02*
G01*
X84894429Y-116274981D01*
X85324302Y-116401323D01*
X85696332Y-116591814D01*
X85762288Y-116635145D01*
X86142940Y-116988465D01*
X86442840Y-117458432D01*
X86638447Y-118002320D01*
X86693975Y-118326304D01*
X86743690Y-118808000D01*
X84095333Y-118808000D01*
X84095333Y-118302979D01*
X84086130Y-118008242D01*
X84049064Y-117834908D01*
X83969951Y-117735601D01*
X83915290Y-117701602D01*
X83695249Y-117649498D01*
X83534290Y-117696808D01*
X83448034Y-117743806D01*
X83390820Y-117812225D01*
X83356698Y-117933667D01*
X83339715Y-118139735D01*
X83333920Y-118462032D01*
X83333333Y-118763852D01*
X83336373Y-119147580D01*
X83344638Y-119460287D01*
X83356845Y-119668580D01*
X83370827Y-119739334D01*
X83460503Y-119700310D01*
X83638654Y-119602889D01*
X83704881Y-119564359D01*
X84083517Y-119414511D01*
X84546332Y-119338864D01*
X85021975Y-119344657D01*
X85321654Y-119400290D01*
X85797706Y-119614937D01*
X86202262Y-119955145D01*
X86498472Y-120384884D01*
X86604222Y-120654408D01*
X86660687Y-120953485D01*
X86697807Y-121369121D01*
X86716495Y-121864551D01*
X86717663Y-122403013D01*
X86702221Y-122947743D01*
X86671081Y-123461978D01*
X86625155Y-123908955D01*
X86565353Y-124251909D01*
X86510847Y-124421078D01*
X86238304Y-124819956D01*
X85837282Y-125172779D01*
X85348209Y-125445549D01*
X85242445Y-125487857D01*
X84806676Y-125605574D01*
X84269860Y-125683434D01*
X83696593Y-125716746D01*
X83151469Y-125700821D01*
X82843703Y-125662002D01*
X82185666Y-125472144D01*
X81640498Y-125156973D01*
X81204099Y-124713616D01*
X80975938Y-124353667D01*
X80751000Y-123930334D01*
X80751000Y-122547640D01*
X83284227Y-122547640D01*
X83292666Y-123001552D01*
X83310579Y-123417759D01*
X83337783Y-123761811D01*
X83374097Y-123999256D01*
X83407200Y-124086654D01*
X83601984Y-124206915D01*
X83833889Y-124205956D01*
X84017882Y-124090973D01*
X84060099Y-123957273D01*
X84093736Y-123690989D01*
X84118573Y-123326496D01*
X84134390Y-122898168D01*
X84140967Y-122440380D01*
X84138084Y-121987507D01*
X84125520Y-121573924D01*
X84103057Y-121234005D01*
X84070473Y-121002126D01*
X84038183Y-120918663D01*
X83858445Y-120836006D01*
X83621003Y-120827700D01*
X83420313Y-120893796D01*
X83390483Y-120918317D01*
X83348832Y-121043980D01*
X83317562Y-121304195D01*
X83296493Y-121664511D01*
X83285441Y-122090476D01*
X83284227Y-122547640D01*
X80751000Y-122547640D01*
X80751000Y-121051667D01*
X80752048Y-120189438D01*
X80757080Y-119478330D01*
X80768930Y-118900134D01*
X80790430Y-118436642D01*
X80824414Y-118069645D01*
X80873714Y-117780935D01*
X80941164Y-117552304D01*
X81029596Y-117365541D01*
X81141843Y-117202440D01*
X81280740Y-117044792D01*
X81392094Y-116931176D01*
X81807188Y-116600694D01*
X82301172Y-116370901D01*
X82896931Y-116234443D01*
X83617352Y-116183964D01*
X83719084Y-116183333D01*
X84371196Y-116204936D01*
G37*
X84371196Y-116204936D02*
X84894429Y-116274981D01*
X85324302Y-116401323D01*
X85696332Y-116591814D01*
X85762288Y-116635145D01*
X86142940Y-116988465D01*
X86442840Y-117458432D01*
X86638447Y-118002320D01*
X86693975Y-118326304D01*
X86743690Y-118808000D01*
X84095333Y-118808000D01*
X84095333Y-118302979D01*
X84086130Y-118008242D01*
X84049064Y-117834908D01*
X83969951Y-117735601D01*
X83915290Y-117701602D01*
X83695249Y-117649498D01*
X83534290Y-117696808D01*
X83448034Y-117743806D01*
X83390820Y-117812225D01*
X83356698Y-117933667D01*
X83339715Y-118139735D01*
X83333920Y-118462032D01*
X83333333Y-118763852D01*
X83336373Y-119147580D01*
X83344638Y-119460287D01*
X83356845Y-119668580D01*
X83370827Y-119739334D01*
X83460503Y-119700310D01*
X83638654Y-119602889D01*
X83704881Y-119564359D01*
X84083517Y-119414511D01*
X84546332Y-119338864D01*
X85021975Y-119344657D01*
X85321654Y-119400290D01*
X85797706Y-119614937D01*
X86202262Y-119955145D01*
X86498472Y-120384884D01*
X86604222Y-120654408D01*
X86660687Y-120953485D01*
X86697807Y-121369121D01*
X86716495Y-121864551D01*
X86717663Y-122403013D01*
X86702221Y-122947743D01*
X86671081Y-123461978D01*
X86625155Y-123908955D01*
X86565353Y-124251909D01*
X86510847Y-124421078D01*
X86238304Y-124819956D01*
X85837282Y-125172779D01*
X85348209Y-125445549D01*
X85242445Y-125487857D01*
X84806676Y-125605574D01*
X84269860Y-125683434D01*
X83696593Y-125716746D01*
X83151469Y-125700821D01*
X82843703Y-125662002D01*
X82185666Y-125472144D01*
X81640498Y-125156973D01*
X81204099Y-124713616D01*
X80975938Y-124353667D01*
X80751000Y-123930334D01*
X80751000Y-122547640D01*
X83284227Y-122547640D01*
X83292666Y-123001552D01*
X83310579Y-123417759D01*
X83337783Y-123761811D01*
X83374097Y-123999256D01*
X83407200Y-124086654D01*
X83601984Y-124206915D01*
X83833889Y-124205956D01*
X84017882Y-124090973D01*
X84060099Y-123957273D01*
X84093736Y-123690989D01*
X84118573Y-123326496D01*
X84134390Y-122898168D01*
X84140967Y-122440380D01*
X84138084Y-121987507D01*
X84125520Y-121573924D01*
X84103057Y-121234005D01*
X84070473Y-121002126D01*
X84038183Y-120918663D01*
X83858445Y-120836006D01*
X83621003Y-120827700D01*
X83420313Y-120893796D01*
X83390483Y-120918317D01*
X83348832Y-121043980D01*
X83317562Y-121304195D01*
X83296493Y-121664511D01*
X83285441Y-122090476D01*
X83284227Y-122547640D01*
X80751000Y-122547640D01*
X80751000Y-121051667D01*
X80752048Y-120189438D01*
X80757080Y-119478330D01*
X80768930Y-118900134D01*
X80790430Y-118436642D01*
X80824414Y-118069645D01*
X80873714Y-117780935D01*
X80941164Y-117552304D01*
X81029596Y-117365541D01*
X81141843Y-117202440D01*
X81280740Y-117044792D01*
X81392094Y-116931176D01*
X81807188Y-116600694D01*
X82301172Y-116370901D01*
X82896931Y-116234443D01*
X83617352Y-116183964D01*
X83719084Y-116183333D01*
X84371196Y-116204936D01*
G36*
X92562000Y-122279334D02*
G01*
X93239333Y-122279334D01*
X93239333Y-123972667D01*
X92562000Y-123972667D01*
X92562000Y-125496667D01*
X91289343Y-125496667D01*
X90789979Y-125494340D01*
X90434919Y-125485671D01*
X90199174Y-125468129D01*
X90057757Y-125439180D01*
X89985680Y-125396293D01*
X89965193Y-125362480D01*
X89946783Y-125215690D01*
X89946448Y-124954552D01*
X89964089Y-124633076D01*
X89966602Y-124602474D01*
X90019503Y-123976655D01*
X88560251Y-123953494D01*
X87101000Y-123930334D01*
X87076094Y-123212304D01*
X87074218Y-122782845D01*
X87110693Y-122420917D01*
X87123691Y-122364000D01*
X88931421Y-122364000D01*
X90022000Y-122364000D01*
X90022000Y-120571889D01*
X90020458Y-120044322D01*
X90016145Y-119581535D01*
X90009532Y-119207522D01*
X90001089Y-118946278D01*
X89991288Y-118821798D01*
X89987546Y-118815056D01*
X89954601Y-118905321D01*
X89887743Y-119129023D01*
X89795682Y-119455717D01*
X89687128Y-119854957D01*
X89647515Y-120003683D01*
X89515947Y-120487354D01*
X89377885Y-120973205D01*
X89248948Y-121407521D01*
X89144753Y-121736592D01*
X89136679Y-121760516D01*
X88931421Y-122364000D01*
X87123691Y-122364000D01*
X87197497Y-122040833D01*
X87277292Y-121772971D01*
X87384440Y-121441849D01*
X87528145Y-121013417D01*
X87700295Y-120510459D01*
X87892776Y-119955758D01*
X88097476Y-119372099D01*
X88306280Y-118782264D01*
X88511076Y-118209038D01*
X88703750Y-117675204D01*
X88876189Y-117203546D01*
X89020279Y-116816847D01*
X89127908Y-116537892D01*
X89190961Y-116389463D01*
X89199941Y-116373834D01*
X89280092Y-116334184D01*
X89462335Y-116304771D01*
X89762634Y-116284612D01*
X90196951Y-116272725D01*
X90781249Y-116268131D01*
X90921367Y-116268000D01*
X92562000Y-116268000D01*
X92562000Y-122279334D01*
G37*
X92562000Y-122279334D02*
X93239333Y-122279334D01*
X93239333Y-123972667D01*
X92562000Y-123972667D01*
X92562000Y-125496667D01*
X91289343Y-125496667D01*
X90789979Y-125494340D01*
X90434919Y-125485671D01*
X90199174Y-125468129D01*
X90057757Y-125439180D01*
X89985680Y-125396293D01*
X89965193Y-125362480D01*
X89946783Y-125215690D01*
X89946448Y-124954552D01*
X89964089Y-124633076D01*
X89966602Y-124602474D01*
X90019503Y-123976655D01*
X88560251Y-123953494D01*
X87101000Y-123930334D01*
X87076094Y-123212304D01*
X87074218Y-122782845D01*
X87110693Y-122420917D01*
X87123691Y-122364000D01*
X88931421Y-122364000D01*
X90022000Y-122364000D01*
X90022000Y-120571889D01*
X90020458Y-120044322D01*
X90016145Y-119581535D01*
X90009532Y-119207522D01*
X90001089Y-118946278D01*
X89991288Y-118821798D01*
X89987546Y-118815056D01*
X89954601Y-118905321D01*
X89887743Y-119129023D01*
X89795682Y-119455717D01*
X89687128Y-119854957D01*
X89647515Y-120003683D01*
X89515947Y-120487354D01*
X89377885Y-120973205D01*
X89248948Y-121407521D01*
X89144753Y-121736592D01*
X89136679Y-121760516D01*
X88931421Y-122364000D01*
X87123691Y-122364000D01*
X87197497Y-122040833D01*
X87277292Y-121772971D01*
X87384440Y-121441849D01*
X87528145Y-121013417D01*
X87700295Y-120510459D01*
X87892776Y-119955758D01*
X88097476Y-119372099D01*
X88306280Y-118782264D01*
X88511076Y-118209038D01*
X88703750Y-117675204D01*
X88876189Y-117203546D01*
X89020279Y-116816847D01*
X89127908Y-116537892D01*
X89190961Y-116389463D01*
X89199941Y-116373834D01*
X89280092Y-116334184D01*
X89462335Y-116304771D01*
X89762634Y-116284612D01*
X90196951Y-116272725D01*
X90781249Y-116268131D01*
X90921367Y-116268000D01*
X92562000Y-116268000D01*
X92562000Y-122279334D01*
G36*
X76475333Y-125158000D02*
G01*
X74358667Y-125158000D01*
X74358667Y-124565334D01*
X76475333Y-124565334D01*
X76475333Y-125158000D01*
G37*
X76475333Y-125158000D02*
X74358667Y-125158000D01*
X74358667Y-124565334D01*
X76475333Y-124565334D01*
X76475333Y-125158000D01*
G36*
X98827333Y-125158000D02*
G01*
X97825444Y-125158000D01*
X97429378Y-125153485D01*
X97097223Y-125141202D01*
X96864448Y-125123042D01*
X96767111Y-125101556D01*
X96725752Y-124983132D01*
X96710667Y-124805222D01*
X96710667Y-124565334D01*
X98827333Y-124565334D01*
X98827333Y-125158000D01*
G37*
X98827333Y-125158000D02*
X97825444Y-125158000D01*
X97429378Y-125153485D01*
X97097223Y-125141202D01*
X96864448Y-125123042D01*
X96767111Y-125101556D01*
X96725752Y-124983132D01*
X96710667Y-124805222D01*
X96710667Y-124565334D01*
X98827333Y-124565334D01*
X98827333Y-125158000D01*
G36*
X76475333Y-123888000D02*
G01*
X75607500Y-123889156D01*
X75220827Y-123894509D01*
X74881171Y-123907984D01*
X74635069Y-123927287D01*
X74549167Y-123941364D01*
X74428493Y-123957845D01*
X74373560Y-123894027D01*
X74358981Y-123710270D01*
X74358667Y-123643875D01*
X74358667Y-123295334D01*
X76475333Y-123295334D01*
X76475333Y-123888000D01*
G37*
X76475333Y-123888000D02*
X75607500Y-123889156D01*
X75220827Y-123894509D01*
X74881171Y-123907984D01*
X74635069Y-123927287D01*
X74549167Y-123941364D01*
X74428493Y-123957845D01*
X74373560Y-123894027D01*
X74358981Y-123710270D01*
X74358667Y-123643875D01*
X74358667Y-123295334D01*
X76475333Y-123295334D01*
X76475333Y-123888000D01*
G36*
X98231925Y-123299960D02*
G01*
X98553851Y-123315098D01*
X98744774Y-123342634D01*
X98823748Y-123384456D01*
X98828489Y-123401167D01*
X98850337Y-123564506D01*
X98880697Y-123697500D01*
X98897038Y-123776110D01*
X98878802Y-123829432D01*
X98799784Y-123862373D01*
X98633779Y-123879843D01*
X98354581Y-123886748D01*
X97935986Y-123887997D01*
X97863541Y-123888000D01*
X97421434Y-123886312D01*
X97121362Y-123878482D01*
X96936042Y-123860362D01*
X96838187Y-123827802D01*
X96800513Y-123776656D01*
X96795333Y-123725592D01*
X96768467Y-123512987D01*
X96743941Y-123429258D01*
X96740313Y-123373552D01*
X96796519Y-123335629D01*
X96937567Y-123312194D01*
X97188466Y-123299951D01*
X97574223Y-123295602D01*
X97759941Y-123295334D01*
X98231925Y-123299960D01*
G37*
X98231925Y-123299960D02*
X98553851Y-123315098D01*
X98744774Y-123342634D01*
X98823748Y-123384456D01*
X98828489Y-123401167D01*
X98850337Y-123564506D01*
X98880697Y-123697500D01*
X98897038Y-123776110D01*
X98878802Y-123829432D01*
X98799784Y-123862373D01*
X98633779Y-123879843D01*
X98354581Y-123886748D01*
X97935986Y-123887997D01*
X97863541Y-123888000D01*
X97421434Y-123886312D01*
X97121362Y-123878482D01*
X96936042Y-123860362D01*
X96838187Y-123827802D01*
X96800513Y-123776656D01*
X96795333Y-123725592D01*
X96768467Y-123512987D01*
X96743941Y-123429258D01*
X96740313Y-123373552D01*
X96796519Y-123335629D01*
X96937567Y-123312194D01*
X97188466Y-123299951D01*
X97574223Y-123295602D01*
X97759941Y-123295334D01*
X98231925Y-123299960D01*
G36*
X76475333Y-122702667D02*
G01*
X74358667Y-122702667D01*
X74358667Y-122025334D01*
X76475333Y-122025334D01*
X76475333Y-122702667D01*
G37*
X76475333Y-122702667D02*
X74358667Y-122702667D01*
X74358667Y-122025334D01*
X76475333Y-122025334D01*
X76475333Y-122702667D01*
G36*
X97846421Y-122043518D02*
G01*
X98197704Y-122067576D01*
X98511913Y-122100488D01*
X98743323Y-122139202D01*
X98842707Y-122176174D01*
X98872257Y-122309639D01*
X98832575Y-122477213D01*
X98746858Y-122702667D01*
X97785207Y-122702667D01*
X97399243Y-122699194D01*
X97079444Y-122689765D01*
X96861421Y-122675865D01*
X96781704Y-122660815D01*
X96763151Y-122556116D01*
X96777324Y-122363653D01*
X96855643Y-122152522D01*
X97027352Y-122054993D01*
X97215522Y-122034175D01*
X97503786Y-122031367D01*
X97846421Y-122043518D01*
G37*
X97846421Y-122043518D02*
X98197704Y-122067576D01*
X98511913Y-122100488D01*
X98743323Y-122139202D01*
X98842707Y-122176174D01*
X98872257Y-122309639D01*
X98832575Y-122477213D01*
X98746858Y-122702667D01*
X97785207Y-122702667D01*
X97399243Y-122699194D01*
X97079444Y-122689765D01*
X96861421Y-122675865D01*
X96781704Y-122660815D01*
X96763151Y-122556116D01*
X96777324Y-122363653D01*
X96855643Y-122152522D01*
X97027352Y-122054993D01*
X97215522Y-122034175D01*
X97503786Y-122031367D01*
X97846421Y-122043518D01*
G36*
X76475333Y-121432667D02*
G01*
X74358667Y-121432667D01*
X74358667Y-120840000D01*
X76475333Y-120840000D01*
X76475333Y-121432667D01*
G37*
X76475333Y-121432667D02*
X74358667Y-121432667D01*
X74358667Y-120840000D01*
X76475333Y-120840000D01*
X76475333Y-121432667D01*
G36*
X98785000Y-121390334D02*
G01*
X97790167Y-121414187D01*
X96795333Y-121438041D01*
X96795333Y-120840000D01*
X98838062Y-120840000D01*
X98785000Y-121390334D01*
G37*
X98785000Y-121390334D02*
X97790167Y-121414187D01*
X96795333Y-121438041D01*
X96795333Y-120840000D01*
X98838062Y-120840000D01*
X98785000Y-121390334D01*
G36*
X76475333Y-120162667D02*
G01*
X74358667Y-120162667D01*
X74358667Y-119570000D01*
X76475333Y-119570000D01*
X76475333Y-120162667D01*
G37*
X76475333Y-120162667D02*
X74358667Y-120162667D01*
X74358667Y-119570000D01*
X76475333Y-119570000D01*
X76475333Y-120162667D01*
G36*
X98580086Y-119580922D02*
G01*
X98767079Y-119593916D01*
X98866549Y-119622906D01*
X98905737Y-119671463D01*
X98912000Y-119729879D01*
X98904538Y-119903125D01*
X98864512Y-120022656D01*
X98765460Y-120098422D01*
X98580921Y-120140373D01*
X98284435Y-120158458D01*
X97849540Y-120162627D01*
X97760969Y-120162667D01*
X96712722Y-120162667D01*
X96734919Y-119887500D01*
X96757116Y-119612334D01*
X97834558Y-119588637D01*
X98278326Y-119580353D01*
X98580086Y-119580922D01*
G37*
X98580086Y-119580922D02*
X98767079Y-119593916D01*
X98866549Y-119622906D01*
X98905737Y-119671463D01*
X98912000Y-119729879D01*
X98904538Y-119903125D01*
X98864512Y-120022656D01*
X98765460Y-120098422D01*
X98580921Y-120140373D01*
X98284435Y-120158458D01*
X97849540Y-120162627D01*
X97760969Y-120162667D01*
X96712722Y-120162667D01*
X96734919Y-119887500D01*
X96757116Y-119612334D01*
X97834558Y-119588637D01*
X98278326Y-119580353D01*
X98580086Y-119580922D01*
G36*
X76475333Y-118892667D02*
G01*
X74358667Y-118892667D01*
X74358667Y-118300000D01*
X76475333Y-118300000D01*
X76475333Y-118892667D01*
G37*
X76475333Y-118892667D02*
X74358667Y-118892667D01*
X74358667Y-118300000D01*
X76475333Y-118300000D01*
X76475333Y-118892667D01*
G36*
X98863078Y-118515561D02*
G01*
X98886640Y-118707036D01*
X98867260Y-118811894D01*
X98767650Y-118843539D01*
X98539930Y-118867390D01*
X98225015Y-118883204D01*
X97863820Y-118890740D01*
X97497261Y-118889755D01*
X97166252Y-118880009D01*
X96911710Y-118861259D01*
X96774548Y-118833264D01*
X96763092Y-118824329D01*
X96741730Y-118691805D01*
X96751617Y-118591496D01*
X96780478Y-118423854D01*
X96788855Y-118363500D01*
X96870658Y-118338867D01*
X97088629Y-118318688D01*
X97409620Y-118305040D01*
X97800482Y-118300000D01*
X98808976Y-118300000D01*
X98863078Y-118515561D01*
G37*
X98863078Y-118515561D02*
X98886640Y-118707036D01*
X98867260Y-118811894D01*
X98767650Y-118843539D01*
X98539930Y-118867390D01*
X98225015Y-118883204D01*
X97863820Y-118890740D01*
X97497261Y-118889755D01*
X97166252Y-118880009D01*
X96911710Y-118861259D01*
X96774548Y-118833264D01*
X96763092Y-118824329D01*
X96741730Y-118691805D01*
X96751617Y-118591496D01*
X96780478Y-118423854D01*
X96788855Y-118363500D01*
X96870658Y-118338867D01*
X97088629Y-118318688D01*
X97409620Y-118305040D01*
X97800482Y-118300000D01*
X98808976Y-118300000D01*
X98863078Y-118515561D01*
G36*
X76475333Y-117368667D02*
G01*
X76464006Y-117585758D01*
X76412537Y-117678263D01*
X76294696Y-117690355D01*
X76284833Y-117689478D01*
X76121332Y-117679284D01*
X75835079Y-117666268D01*
X75472586Y-117652421D01*
X75226500Y-117644182D01*
X74358666Y-117616743D01*
X74358667Y-117323372D01*
X74358667Y-117030000D01*
X76475333Y-117030000D01*
X76475333Y-117368667D01*
G37*
X76475333Y-117368667D02*
X76464006Y-117585758D01*
X76412537Y-117678263D01*
X76294696Y-117690355D01*
X76284833Y-117689478D01*
X76121332Y-117679284D01*
X75835079Y-117666268D01*
X75472586Y-117652421D01*
X75226500Y-117644182D01*
X74358666Y-117616743D01*
X74358667Y-117323372D01*
X74358667Y-117030000D01*
X76475333Y-117030000D01*
X76475333Y-117368667D01*
G36*
X98827333Y-117622667D02*
G01*
X97816330Y-117622667D01*
X97420653Y-117617653D01*
X97090984Y-117604001D01*
X96861776Y-117583797D01*
X96767507Y-117559167D01*
X96742616Y-117433145D01*
X96741344Y-117284000D01*
X96753000Y-117072334D01*
X97790167Y-117048561D01*
X98827333Y-117024788D01*
X98827333Y-117622667D01*
G37*
X98827333Y-117622667D02*
X97816330Y-117622667D01*
X97420653Y-117617653D01*
X97090984Y-117604001D01*
X96861776Y-117583797D01*
X96767507Y-117559167D01*
X96742616Y-117433145D01*
X96741344Y-117284000D01*
X96753000Y-117072334D01*
X97790167Y-117048561D01*
X98827333Y-117024788D01*
X98827333Y-117622667D01*
G36*
X76475333Y-116437334D02*
G01*
X74358667Y-116437334D01*
X74358667Y-115760000D01*
X76475333Y-115760000D01*
X76475333Y-116437334D01*
G37*
X76475333Y-116437334D02*
X74358667Y-116437334D01*
X74358667Y-115760000D01*
X76475333Y-115760000D01*
X76475333Y-116437334D01*
G36*
X98412881Y-115771982D02*
G01*
X98579989Y-115792538D01*
X98681716Y-115837291D01*
X98752683Y-115912524D01*
X98790506Y-115968187D01*
X98890427Y-116148763D01*
X98904040Y-116276929D01*
X98814205Y-116361270D01*
X98603782Y-116410368D01*
X98255630Y-116432806D01*
X97853667Y-116437334D01*
X97411503Y-116432870D01*
X97112899Y-116417469D01*
X96932264Y-116388114D01*
X96844010Y-116341790D01*
X96828314Y-116316491D01*
X96802352Y-116138231D01*
X96809804Y-115998991D01*
X96830163Y-115911867D01*
X96882232Y-115854086D01*
X96996792Y-115818376D01*
X97204628Y-115797469D01*
X97536523Y-115784092D01*
X97744030Y-115778341D01*
X98145768Y-115769343D01*
X98412881Y-115771982D01*
G37*
X98412881Y-115771982D02*
X98579989Y-115792538D01*
X98681716Y-115837291D01*
X98752683Y-115912524D01*
X98790506Y-115968187D01*
X98890427Y-116148763D01*
X98904040Y-116276929D01*
X98814205Y-116361270D01*
X98603782Y-116410368D01*
X98255630Y-116432806D01*
X97853667Y-116437334D01*
X97411503Y-116432870D01*
X97112899Y-116417469D01*
X96932264Y-116388114D01*
X96844010Y-116341790D01*
X96828314Y-116316491D01*
X96802352Y-116138231D01*
X96809804Y-115998991D01*
X96830163Y-115911867D01*
X96882232Y-115854086D01*
X96996792Y-115818376D01*
X97204628Y-115797469D01*
X97536523Y-115784092D01*
X97744030Y-115778341D01*
X98145768Y-115769343D01*
X98412881Y-115771982D01*
G36*
X76475333Y-115167334D02*
G01*
X74358667Y-115167334D01*
X74358667Y-114574667D01*
X76475333Y-114574667D01*
X76475333Y-115167334D01*
G37*
X76475333Y-115167334D02*
X74358667Y-115167334D01*
X74358667Y-114574667D01*
X76475333Y-114574667D01*
X76475333Y-115167334D01*
G36*
X98827333Y-115167334D02*
G01*
X96725398Y-115167334D01*
X96753000Y-114617000D01*
X97790167Y-114593228D01*
X98827333Y-114569455D01*
X98827333Y-115167334D01*
G37*
X98827333Y-115167334D02*
X96725398Y-115167334D01*
X96753000Y-114617000D01*
X97790167Y-114593228D01*
X98827333Y-114569455D01*
X98827333Y-115167334D01*
G36*
X79417468Y-113744053D02*
G01*
X79508616Y-113808017D01*
X79523333Y-113897334D01*
X79558789Y-114034914D01*
X79608000Y-114066667D01*
X79664188Y-114141042D01*
X79692016Y-114323694D01*
X79692667Y-114360021D01*
X79648198Y-114615419D01*
X79528899Y-114741021D01*
X79224467Y-114822549D01*
X78896279Y-114789387D01*
X78695505Y-114696866D01*
X78543469Y-114507459D01*
X78507333Y-114278334D01*
X78576923Y-113995181D01*
X78780648Y-113810716D01*
X79110944Y-113730919D01*
X79203505Y-113728000D01*
X79417468Y-113744053D01*
G37*
X79417468Y-113744053D02*
X79508616Y-113808017D01*
X79523333Y-113897334D01*
X79558789Y-114034914D01*
X79608000Y-114066667D01*
X79664188Y-114141042D01*
X79692016Y-114323694D01*
X79692667Y-114360021D01*
X79648198Y-114615419D01*
X79528899Y-114741021D01*
X79224467Y-114822549D01*
X78896279Y-114789387D01*
X78695505Y-114696866D01*
X78543469Y-114507459D01*
X78507333Y-114278334D01*
X78576923Y-113995181D01*
X78780648Y-113810716D01*
X79110944Y-113730919D01*
X79203505Y-113728000D01*
X79417468Y-113744053D01*
G36*
X94555905Y-113749402D02*
G01*
X94795531Y-113870693D01*
X94911500Y-114038809D01*
X95006746Y-114333418D01*
X94972566Y-114547207D01*
X94829161Y-114696866D01*
X94535848Y-114813719D01*
X94199178Y-114774661D01*
X94109700Y-114742299D01*
X93929226Y-114594406D01*
X93844611Y-114370552D01*
X93850966Y-114122787D01*
X93943401Y-113903162D01*
X94117025Y-113763728D01*
X94203622Y-113742556D01*
X94555905Y-113749402D01*
G37*
X94555905Y-113749402D02*
X94795531Y-113870693D01*
X94911500Y-114038809D01*
X95006746Y-114333418D01*
X94972566Y-114547207D01*
X94829161Y-114696866D01*
X94535848Y-114813719D01*
X94199178Y-114774661D01*
X94109700Y-114742299D01*
X93929226Y-114594406D01*
X93844611Y-114370552D01*
X93850966Y-114122787D01*
X93943401Y-113903162D01*
X94117025Y-113763728D01*
X94203622Y-113742556D01*
X94555905Y-113749402D01*
G36*
X76475333Y-113897334D02*
G01*
X74358667Y-113897334D01*
X74358667Y-113304667D01*
X76475333Y-113304667D01*
X76475333Y-113897334D01*
G37*
X76475333Y-113897334D02*
X74358667Y-113897334D01*
X74358667Y-113304667D01*
X76475333Y-113304667D01*
X76475333Y-113897334D01*
G36*
X98896389Y-113577262D02*
G01*
X98869667Y-113855000D01*
X97784610Y-113878738D01*
X96699554Y-113902476D01*
X96753000Y-113347000D01*
X97838056Y-113323262D01*
X98923112Y-113299525D01*
X98896389Y-113577262D01*
G37*
X98896389Y-113577262D02*
X98869667Y-113855000D01*
X97784610Y-113878738D01*
X96699554Y-113902476D01*
X96753000Y-113347000D01*
X97838056Y-113323262D01*
X98923112Y-113299525D01*
X98896389Y-113577262D01*
G36*
X77914667Y-110966463D02*
G01*
X77913138Y-111382146D01*
X77904732Y-111658509D01*
X77883723Y-111825562D01*
X77844382Y-111913317D01*
X77780982Y-111951782D01*
X77724167Y-111964567D01*
X77502409Y-111979493D01*
X77385500Y-111968229D01*
X77321022Y-111937056D01*
X77278283Y-111855925D01*
X77252969Y-111695770D01*
X77240765Y-111427527D01*
X77237356Y-111022133D01*
X77237333Y-110970125D01*
X77237333Y-110002667D01*
X77914667Y-110002667D01*
X77914667Y-110966463D01*
G37*
X77914667Y-110966463D02*
X77913138Y-111382146D01*
X77904732Y-111658509D01*
X77883723Y-111825562D01*
X77844382Y-111913317D01*
X77780982Y-111951782D01*
X77724167Y-111964567D01*
X77502409Y-111979493D01*
X77385500Y-111968229D01*
X77321022Y-111937056D01*
X77278283Y-111855925D01*
X77252969Y-111695770D01*
X77240765Y-111427527D01*
X77237356Y-111022133D01*
X77237333Y-110970125D01*
X77237333Y-110002667D01*
X77914667Y-110002667D01*
X77914667Y-110966463D01*
G36*
X79354000Y-112034667D02*
G01*
X78676667Y-112034667D01*
X78676667Y-110002667D01*
X79354000Y-110002667D01*
X79354000Y-112034667D01*
G37*
X79354000Y-112034667D02*
X78676667Y-112034667D01*
X78676667Y-110002667D01*
X79354000Y-110002667D01*
X79354000Y-112034667D01*
G36*
X80675679Y-110018388D02*
G01*
X80769138Y-110098653D01*
X80819114Y-110293114D01*
X80823657Y-110320167D01*
X80849998Y-110565676D01*
X80869142Y-110907660D01*
X80877048Y-111273290D01*
X80877068Y-111283250D01*
X80878000Y-111928834D01*
X80613417Y-111981750D01*
X80405826Y-112018961D01*
X80275446Y-112034665D01*
X80274750Y-112034667D01*
X80246151Y-111955464D01*
X80222681Y-111739665D01*
X80206726Y-111419987D01*
X80200670Y-111029144D01*
X80200667Y-111018667D01*
X80200667Y-110002667D01*
X80485922Y-110002667D01*
X80675679Y-110018388D01*
G37*
X80675679Y-110018388D02*
X80769138Y-110098653D01*
X80819114Y-110293114D01*
X80823657Y-110320167D01*
X80849998Y-110565676D01*
X80869142Y-110907660D01*
X80877048Y-111273290D01*
X80877068Y-111283250D01*
X80878000Y-111928834D01*
X80613417Y-111981750D01*
X80405826Y-112018961D01*
X80275446Y-112034665D01*
X80274750Y-112034667D01*
X80246151Y-111955464D01*
X80222681Y-111739665D01*
X80206726Y-111419987D01*
X80200670Y-111029144D01*
X80200667Y-111018667D01*
X80200667Y-110002667D01*
X80485922Y-110002667D01*
X80675679Y-110018388D01*
G36*
X82147114Y-110030984D02*
G01*
X82283411Y-110100009D01*
X82289726Y-110108500D01*
X82317415Y-110232910D01*
X82339827Y-110486501D01*
X82354258Y-110829142D01*
X82358223Y-111124458D01*
X82359667Y-112034583D01*
X81999833Y-112034625D01*
X81640000Y-112034667D01*
X81640000Y-110002667D01*
X81931336Y-110002667D01*
X82147114Y-110030984D01*
G37*
X82147114Y-110030984D02*
X82283411Y-110100009D01*
X82289726Y-110108500D01*
X82317415Y-110232910D01*
X82339827Y-110486501D01*
X82354258Y-110829142D01*
X82358223Y-111124458D01*
X82359667Y-112034583D01*
X81999833Y-112034625D01*
X81640000Y-112034667D01*
X81640000Y-110002667D01*
X81931336Y-110002667D01*
X82147114Y-110030984D01*
G36*
X85280667Y-112034667D02*
G01*
X84603333Y-112034667D01*
X84603333Y-110002667D01*
X85280667Y-110002667D01*
X85280667Y-112034667D01*
G37*
X85280667Y-112034667D02*
X84603333Y-112034667D01*
X84603333Y-110002667D01*
X85280667Y-110002667D01*
X85280667Y-112034667D01*
G36*
X86804667Y-112034667D02*
G01*
X86127333Y-112034667D01*
X86127333Y-110002667D01*
X86804667Y-110002667D01*
X86804667Y-112034667D01*
G37*
X86804667Y-112034667D02*
X86127333Y-112034667D01*
X86127333Y-110002667D01*
X86804667Y-110002667D01*
X86804667Y-112034667D01*
G36*
X88141677Y-110019266D02*
G01*
X88238654Y-110102755D01*
X88292793Y-110303666D01*
X88293440Y-110307107D01*
X88308688Y-110493122D01*
X88309879Y-110773168D01*
X88299535Y-111099926D01*
X88280180Y-111426076D01*
X88254338Y-111704299D01*
X88224531Y-111887278D01*
X88206868Y-111930687D01*
X88114284Y-111960005D01*
X87917940Y-111999450D01*
X87859297Y-112009335D01*
X87654998Y-112033577D01*
X87578994Y-112006410D01*
X87594612Y-111914632D01*
X87594807Y-111914123D01*
X87618501Y-111770651D01*
X87637309Y-111501231D01*
X87648851Y-111149233D01*
X87651333Y-110884742D01*
X87651333Y-110002667D01*
X87943830Y-110002667D01*
X88141677Y-110019266D01*
G37*
X88141677Y-110019266D02*
X88238654Y-110102755D01*
X88292793Y-110303666D01*
X88293440Y-110307107D01*
X88308688Y-110493122D01*
X88309879Y-110773168D01*
X88299535Y-111099926D01*
X88280180Y-111426076D01*
X88254338Y-111704299D01*
X88224531Y-111887278D01*
X88206868Y-111930687D01*
X88114284Y-111960005D01*
X87917940Y-111999450D01*
X87859297Y-112009335D01*
X87654998Y-112033577D01*
X87578994Y-112006410D01*
X87594612Y-111914632D01*
X87594807Y-111914123D01*
X87618501Y-111770651D01*
X87637309Y-111501231D01*
X87648851Y-111149233D01*
X87651333Y-110884742D01*
X87651333Y-110002667D01*
X87943830Y-110002667D01*
X88141677Y-110019266D01*
G36*
X89768000Y-110917067D02*
G01*
X89761934Y-111372187D01*
X89736143Y-111684549D01*
X89679242Y-111880524D01*
X89579842Y-111986482D01*
X89426557Y-112028794D01*
X89285400Y-112034667D01*
X89006000Y-112034667D01*
X89006000Y-110002667D01*
X89768000Y-110002667D01*
X89768000Y-110917067D01*
G37*
X89768000Y-110917067D02*
X89761934Y-111372187D01*
X89736143Y-111684549D01*
X89679242Y-111880524D01*
X89579842Y-111986482D01*
X89426557Y-112028794D01*
X89285400Y-112034667D01*
X89006000Y-112034667D01*
X89006000Y-110002667D01*
X89768000Y-110002667D01*
X89768000Y-110917067D01*
G36*
X91201308Y-110905572D02*
G01*
X91210626Y-111282875D01*
X91225482Y-111596956D01*
X91243629Y-111809387D01*
X91258260Y-111879239D01*
X91232818Y-111941511D01*
X91180580Y-111950000D01*
X91013920Y-111965983D01*
X90794583Y-112002917D01*
X90530000Y-112055834D01*
X90530000Y-110002667D01*
X91188088Y-110002667D01*
X91201308Y-110905572D01*
G37*
X91201308Y-110905572D02*
X91210626Y-111282875D01*
X91225482Y-111596956D01*
X91243629Y-111809387D01*
X91258260Y-111879239D01*
X91232818Y-111941511D01*
X91180580Y-111950000D01*
X91013920Y-111965983D01*
X90794583Y-112002917D01*
X90530000Y-112055834D01*
X90530000Y-110002667D01*
X91188088Y-110002667D01*
X91201308Y-110905572D01*
G36*
X92628187Y-110997500D02*
G01*
X92604333Y-111992334D01*
X92286833Y-112018611D01*
X91969333Y-112044889D01*
X91969333Y-110002667D01*
X92652040Y-110002667D01*
X92628187Y-110997500D01*
G37*
X92628187Y-110997500D02*
X92604333Y-111992334D01*
X92286833Y-112018611D01*
X91969333Y-112044889D01*
X91969333Y-110002667D01*
X92652040Y-110002667D01*
X92628187Y-110997500D01*
G36*
X94152187Y-110997500D02*
G01*
X94128333Y-111992334D01*
X93846242Y-112000800D01*
X93632006Y-111978524D01*
X93516443Y-111871715D01*
X93486409Y-111804788D01*
X93451998Y-111631243D01*
X93425388Y-111338994D01*
X93410500Y-110978626D01*
X93408667Y-110801488D01*
X93408667Y-110002667D01*
X94176040Y-110002667D01*
X94152187Y-110997500D01*
G37*
X94152187Y-110997500D02*
X94128333Y-111992334D01*
X93846242Y-112000800D01*
X93632006Y-111978524D01*
X93516443Y-111871715D01*
X93486409Y-111804788D01*
X93451998Y-111631243D01*
X93425388Y-111338994D01*
X93410500Y-110978626D01*
X93408667Y-110801488D01*
X93408667Y-110002667D01*
X94176040Y-110002667D01*
X94152187Y-110997500D01*
G36*
X83605676Y-110015575D02*
G01*
X83713204Y-110071608D01*
X83781733Y-110196729D01*
X83819954Y-110416901D01*
X83836560Y-110758086D01*
X83840177Y-111166834D01*
X83841333Y-111950000D01*
X83164000Y-111950000D01*
X83164000Y-110002667D01*
X83450458Y-110002667D01*
X83605676Y-110015575D01*
G37*
X83605676Y-110015575D02*
X83713204Y-110071608D01*
X83781733Y-110196729D01*
X83819954Y-110416901D01*
X83836560Y-110758086D01*
X83840177Y-111166834D01*
X83841333Y-111950000D01*
X83164000Y-111950000D01*
X83164000Y-110002667D01*
X83450458Y-110002667D01*
X83605676Y-110015575D01*
G36*
X95610000Y-111950000D02*
G01*
X94932667Y-111950000D01*
X94932667Y-110002667D01*
X95610000Y-110002667D01*
X95610000Y-111950000D01*
G37*
X95610000Y-111950000D02*
X94932667Y-111950000D01*
X94932667Y-110002667D01*
X95610000Y-110002667D01*
X95610000Y-111950000D01*
G36*
X61714914Y-87139806D02*
G01*
X62328922Y-87160613D01*
X62790625Y-87183747D01*
X63117046Y-87210788D01*
X63325211Y-87243316D01*
X63432145Y-87282912D01*
X63450237Y-87300845D01*
X63462299Y-87402953D01*
X63473120Y-87660003D01*
X63482568Y-88057607D01*
X63490512Y-88581377D01*
X63496821Y-89216926D01*
X63501363Y-89949865D01*
X63504007Y-90765807D01*
X63504621Y-91650364D01*
X63503076Y-92589148D01*
X63501886Y-92959333D01*
X63481667Y-98505000D01*
X62846667Y-98510592D01*
X62498918Y-98508735D01*
X62045521Y-98499400D01*
X61549919Y-98484173D01*
X61153334Y-98468258D01*
X60095000Y-98420333D01*
X60051458Y-87091587D01*
X61714914Y-87139806D01*
G37*
X61714914Y-87139806D02*
X62328922Y-87160613D01*
X62790625Y-87183747D01*
X63117046Y-87210788D01*
X63325211Y-87243316D01*
X63432145Y-87282912D01*
X63450237Y-87300845D01*
X63462299Y-87402953D01*
X63473120Y-87660003D01*
X63482568Y-88057607D01*
X63490512Y-88581377D01*
X63496821Y-89216926D01*
X63501363Y-89949865D01*
X63504007Y-90765807D01*
X63504621Y-91650364D01*
X63503076Y-92589148D01*
X63501886Y-92959333D01*
X63481667Y-98505000D01*
X62846667Y-98510592D01*
X62498918Y-98508735D01*
X62045521Y-98499400D01*
X61549919Y-98484173D01*
X61153334Y-98468258D01*
X60095000Y-98420333D01*
X60051458Y-87091587D01*
X61714914Y-87139806D01*
G36*
X71643656Y-87118912D02*
G01*
X72230016Y-87126004D01*
X72751238Y-87138921D01*
X73183424Y-87157577D01*
X73502673Y-87181885D01*
X73685085Y-87211760D01*
X73712467Y-87223724D01*
X73768079Y-87281670D01*
X73806499Y-87378147D01*
X73830006Y-87539624D01*
X73840876Y-87792571D01*
X73841388Y-88163458D01*
X73834483Y-88641891D01*
X73811000Y-89953666D01*
X71313334Y-90005258D01*
X70668561Y-90018811D01*
X70069627Y-90031849D01*
X69540066Y-90043822D01*
X69103416Y-90054184D01*
X68783212Y-90062387D01*
X68602991Y-90067884D01*
X68582834Y-90068758D01*
X68319156Y-90151329D01*
X68112004Y-90337559D01*
X68013523Y-90577345D01*
X68011334Y-90617877D01*
X68028233Y-90764692D01*
X68091974Y-90884159D01*
X68222124Y-90983753D01*
X68438249Y-91070946D01*
X68759915Y-91153211D01*
X69206688Y-91238020D01*
X69798136Y-91332848D01*
X69939380Y-91354256D01*
X70765912Y-91484116D01*
X71444173Y-91604681D01*
X71994498Y-91722366D01*
X72437218Y-91843583D01*
X72792666Y-91974745D01*
X73081177Y-92122265D01*
X73323082Y-92292555D01*
X73535112Y-92488313D01*
X73794060Y-92794972D01*
X73986548Y-93130133D01*
X74135786Y-93543010D01*
X74247434Y-93998690D01*
X74351023Y-94777413D01*
X74332671Y-95528797D01*
X74199562Y-96230791D01*
X73958880Y-96861346D01*
X73617809Y-97398412D01*
X73183534Y-97819941D01*
X72953709Y-97969390D01*
X72731144Y-98087370D01*
X72508990Y-98185754D01*
X72269522Y-98266483D01*
X71995018Y-98331497D01*
X71667754Y-98382735D01*
X71270008Y-98422136D01*
X70784057Y-98451642D01*
X70192178Y-98473190D01*
X69476647Y-98488722D01*
X68619742Y-98500177D01*
X68053667Y-98505693D01*
X67315341Y-98511168D01*
X66624806Y-98514188D01*
X66001634Y-98514824D01*
X65465395Y-98513148D01*
X65035662Y-98509232D01*
X64732005Y-98503145D01*
X64573996Y-98494960D01*
X64561167Y-98492985D01*
X64491688Y-98472714D01*
X64441561Y-98431040D01*
X64407628Y-98343497D01*
X64386731Y-98185621D01*
X64375711Y-97932945D01*
X64371409Y-97561004D01*
X64370667Y-97045334D01*
X64370667Y-95584000D01*
X67082720Y-95584000D01*
X67877857Y-95582498D01*
X68520713Y-95577540D01*
X69028319Y-95568444D01*
X69417703Y-95554530D01*
X69705896Y-95535118D01*
X69909927Y-95509528D01*
X70046827Y-95477078D01*
X70081571Y-95464167D01*
X70355154Y-95295429D01*
X70495794Y-95086664D01*
X70487114Y-94864643D01*
X70470296Y-94828780D01*
X70408043Y-94746276D01*
X70303137Y-94670990D01*
X70137402Y-94597878D01*
X69892658Y-94521897D01*
X69550727Y-94438001D01*
X69093432Y-94341147D01*
X68502594Y-94226290D01*
X67884334Y-94111204D01*
X67018863Y-93926820D01*
X66304503Y-93714512D01*
X65723874Y-93463225D01*
X65259597Y-93161901D01*
X64894290Y-92799486D01*
X64610574Y-92364923D01*
X64409914Y-91901000D01*
X64314576Y-91502910D01*
X64261409Y-90999190D01*
X64250758Y-90448295D01*
X64282968Y-89908679D01*
X64358383Y-89438797D01*
X64394593Y-89303124D01*
X64612451Y-88763042D01*
X64915412Y-88315067D01*
X65316485Y-87951823D01*
X65828678Y-87665929D01*
X66465000Y-87450006D01*
X67238458Y-87296676D01*
X68096000Y-87203497D01*
X68571288Y-87173834D01*
X69124838Y-87150511D01*
X69732750Y-87133444D01*
X70371123Y-87122545D01*
X71016058Y-87117730D01*
X71643656Y-87118912D01*
G37*
X71643656Y-87118912D02*
X72230016Y-87126004D01*
X72751238Y-87138921D01*
X73183424Y-87157577D01*
X73502673Y-87181885D01*
X73685085Y-87211760D01*
X73712467Y-87223724D01*
X73768079Y-87281670D01*
X73806499Y-87378147D01*
X73830006Y-87539624D01*
X73840876Y-87792571D01*
X73841388Y-88163458D01*
X73834483Y-88641891D01*
X73811000Y-89953666D01*
X71313334Y-90005258D01*
X70668561Y-90018811D01*
X70069627Y-90031849D01*
X69540066Y-90043822D01*
X69103416Y-90054184D01*
X68783212Y-90062387D01*
X68602991Y-90067884D01*
X68582834Y-90068758D01*
X68319156Y-90151329D01*
X68112004Y-90337559D01*
X68013523Y-90577345D01*
X68011334Y-90617877D01*
X68028233Y-90764692D01*
X68091974Y-90884159D01*
X68222124Y-90983753D01*
X68438249Y-91070946D01*
X68759915Y-91153211D01*
X69206688Y-91238020D01*
X69798136Y-91332848D01*
X69939380Y-91354256D01*
X70765912Y-91484116D01*
X71444173Y-91604681D01*
X71994498Y-91722366D01*
X72437218Y-91843583D01*
X72792666Y-91974745D01*
X73081177Y-92122265D01*
X73323082Y-92292555D01*
X73535112Y-92488313D01*
X73794060Y-92794972D01*
X73986548Y-93130133D01*
X74135786Y-93543010D01*
X74247434Y-93998690D01*
X74351023Y-94777413D01*
X74332671Y-95528797D01*
X74199562Y-96230791D01*
X73958880Y-96861346D01*
X73617809Y-97398412D01*
X73183534Y-97819941D01*
X72953709Y-97969390D01*
X72731144Y-98087370D01*
X72508990Y-98185754D01*
X72269522Y-98266483D01*
X71995018Y-98331497D01*
X71667754Y-98382735D01*
X71270008Y-98422136D01*
X70784057Y-98451642D01*
X70192178Y-98473190D01*
X69476647Y-98488722D01*
X68619742Y-98500177D01*
X68053667Y-98505693D01*
X67315341Y-98511168D01*
X66624806Y-98514188D01*
X66001634Y-98514824D01*
X65465395Y-98513148D01*
X65035662Y-98509232D01*
X64732005Y-98503145D01*
X64573996Y-98494960D01*
X64561167Y-98492985D01*
X64491688Y-98472714D01*
X64441561Y-98431040D01*
X64407628Y-98343497D01*
X64386731Y-98185621D01*
X64375711Y-97932945D01*
X64371409Y-97561004D01*
X64370667Y-97045334D01*
X64370667Y-95584000D01*
X67082720Y-95584000D01*
X67877857Y-95582498D01*
X68520713Y-95577540D01*
X69028319Y-95568444D01*
X69417703Y-95554530D01*
X69705896Y-95535118D01*
X69909927Y-95509528D01*
X70046827Y-95477078D01*
X70081571Y-95464167D01*
X70355154Y-95295429D01*
X70495794Y-95086664D01*
X70487114Y-94864643D01*
X70470296Y-94828780D01*
X70408043Y-94746276D01*
X70303137Y-94670990D01*
X70137402Y-94597878D01*
X69892658Y-94521897D01*
X69550727Y-94438001D01*
X69093432Y-94341147D01*
X68502594Y-94226290D01*
X67884334Y-94111204D01*
X67018863Y-93926820D01*
X66304503Y-93714512D01*
X65723874Y-93463225D01*
X65259597Y-93161901D01*
X64894290Y-92799486D01*
X64610574Y-92364923D01*
X64409914Y-91901000D01*
X64314576Y-91502910D01*
X64261409Y-90999190D01*
X64250758Y-90448295D01*
X64282968Y-89908679D01*
X64358383Y-89438797D01*
X64394593Y-89303124D01*
X64612451Y-88763042D01*
X64915412Y-88315067D01*
X65316485Y-87951823D01*
X65828678Y-87665929D01*
X66465000Y-87450006D01*
X67238458Y-87296676D01*
X68096000Y-87203497D01*
X68571288Y-87173834D01*
X69124838Y-87150511D01*
X69732750Y-87133444D01*
X70371123Y-87122545D01*
X71016058Y-87117730D01*
X71643656Y-87118912D01*
G36*
X80808479Y-87111731D02*
G01*
X81580852Y-87114234D01*
X82317620Y-87119249D01*
X83000153Y-87126802D01*
X83609821Y-87136920D01*
X84127995Y-87149629D01*
X84536045Y-87164957D01*
X84815343Y-87182929D01*
X84947259Y-87203573D01*
X84950233Y-87204978D01*
X85013974Y-87251515D01*
X85058706Y-87329633D01*
X85087751Y-87466474D01*
X85104433Y-87689181D01*
X85112072Y-88024895D01*
X85113994Y-88500758D01*
X85114000Y-88542712D01*
X85107760Y-89114011D01*
X85088626Y-89524698D01*
X85055974Y-89783050D01*
X85012400Y-89894400D01*
X84929389Y-89925897D01*
X84742074Y-89950969D01*
X84438441Y-89970080D01*
X84006476Y-89983696D01*
X83434164Y-89992281D01*
X82709490Y-89996300D01*
X82366567Y-89996735D01*
X81702161Y-89998735D01*
X81071353Y-90004025D01*
X80500039Y-90012130D01*
X80014113Y-90022571D01*
X79639471Y-90034872D01*
X79402007Y-90048554D01*
X79368104Y-90052014D01*
X79098523Y-90093768D01*
X78943067Y-90158310D01*
X78846845Y-90278819D01*
X78790880Y-90400925D01*
X78723696Y-90740765D01*
X78818661Y-91036390D01*
X79071747Y-91276111D01*
X79098152Y-91292198D01*
X79185417Y-91333830D01*
X79303171Y-91366651D01*
X79470881Y-91391675D01*
X79708010Y-91409916D01*
X80034023Y-91422386D01*
X80468385Y-91430101D01*
X81030562Y-91434074D01*
X81740018Y-91435319D01*
X81846230Y-91435333D01*
X84352000Y-91435333D01*
X84352000Y-92626232D01*
X84345941Y-93074470D01*
X84329295Y-93469454D01*
X84304357Y-93775689D01*
X84273426Y-93957685D01*
X84264355Y-93980899D01*
X84231806Y-94028017D01*
X84177920Y-94065123D01*
X84084015Y-94093411D01*
X83931409Y-94114071D01*
X83701419Y-94128295D01*
X83375363Y-94137275D01*
X82934559Y-94142202D01*
X82360323Y-94144268D01*
X81696780Y-94144666D01*
X79216851Y-94144666D01*
X79025818Y-94348011D01*
X78867914Y-94603977D01*
X78790840Y-94911949D01*
X78804272Y-95205046D01*
X78877643Y-95372333D01*
X78917221Y-95417023D01*
X78973736Y-95453302D01*
X79064268Y-95482234D01*
X79205896Y-95504883D01*
X79415699Y-95522311D01*
X79710757Y-95535583D01*
X80108150Y-95545760D01*
X80624957Y-95553908D01*
X81278257Y-95561089D01*
X82016758Y-95567775D01*
X85029334Y-95593884D01*
X85029334Y-97028275D01*
X85026288Y-97581308D01*
X85016270Y-97982928D01*
X84997962Y-98250960D01*
X84970045Y-98403229D01*
X84931198Y-98457561D01*
X84923500Y-98458343D01*
X84821243Y-98458330D01*
X84565319Y-98459850D01*
X84171386Y-98462772D01*
X83655102Y-98466963D01*
X83032124Y-98472289D01*
X82318111Y-98478619D01*
X81528721Y-98485818D01*
X80679611Y-98493755D01*
X80109274Y-98499187D01*
X79095663Y-98508681D01*
X78237907Y-98515936D01*
X77522541Y-98520651D01*
X76936098Y-98522526D01*
X76465112Y-98521259D01*
X76096115Y-98516552D01*
X75815643Y-98508102D01*
X75610228Y-98495609D01*
X75466404Y-98478774D01*
X75370705Y-98457294D01*
X75309664Y-98430871D01*
X75269814Y-98399203D01*
X75262107Y-98391009D01*
X75234064Y-98348037D01*
X75210035Y-98277530D01*
X75189715Y-98167150D01*
X75172798Y-98004562D01*
X75158981Y-97777426D01*
X75147958Y-97473406D01*
X75139423Y-97080164D01*
X75133072Y-96585363D01*
X75128599Y-95976666D01*
X75125700Y-95241734D01*
X75124069Y-94368231D01*
X75123401Y-93343819D01*
X75123334Y-92779099D01*
X75124113Y-91613535D01*
X75126563Y-90608051D01*
X75130853Y-89753400D01*
X75137152Y-89040336D01*
X75145629Y-88459613D01*
X75156453Y-88001984D01*
X75169793Y-87658202D01*
X75185817Y-87419021D01*
X75204695Y-87275194D01*
X75224933Y-87218933D01*
X75328740Y-87197794D01*
X75583236Y-87178899D01*
X75969791Y-87162275D01*
X76469777Y-87147948D01*
X77064564Y-87135946D01*
X77735522Y-87126294D01*
X78464022Y-87119020D01*
X79231435Y-87114150D01*
X80019130Y-87111712D01*
X80808479Y-87111731D01*
G37*
X80808479Y-87111731D02*
X81580852Y-87114234D01*
X82317620Y-87119249D01*
X83000153Y-87126802D01*
X83609821Y-87136920D01*
X84127995Y-87149629D01*
X84536045Y-87164957D01*
X84815343Y-87182929D01*
X84947259Y-87203573D01*
X84950233Y-87204978D01*
X85013974Y-87251515D01*
X85058706Y-87329633D01*
X85087751Y-87466474D01*
X85104433Y-87689181D01*
X85112072Y-88024895D01*
X85113994Y-88500758D01*
X85114000Y-88542712D01*
X85107760Y-89114011D01*
X85088626Y-89524698D01*
X85055974Y-89783050D01*
X85012400Y-89894400D01*
X84929389Y-89925897D01*
X84742074Y-89950969D01*
X84438441Y-89970080D01*
X84006476Y-89983696D01*
X83434164Y-89992281D01*
X82709490Y-89996300D01*
X82366567Y-89996735D01*
X81702161Y-89998735D01*
X81071353Y-90004025D01*
X80500039Y-90012130D01*
X80014113Y-90022571D01*
X79639471Y-90034872D01*
X79402007Y-90048554D01*
X79368104Y-90052014D01*
X79098523Y-90093768D01*
X78943067Y-90158310D01*
X78846845Y-90278819D01*
X78790880Y-90400925D01*
X78723696Y-90740765D01*
X78818661Y-91036390D01*
X79071747Y-91276111D01*
X79098152Y-91292198D01*
X79185417Y-91333830D01*
X79303171Y-91366651D01*
X79470881Y-91391675D01*
X79708010Y-91409916D01*
X80034023Y-91422386D01*
X80468385Y-91430101D01*
X81030562Y-91434074D01*
X81740018Y-91435319D01*
X81846230Y-91435333D01*
X84352000Y-91435333D01*
X84352000Y-92626232D01*
X84345941Y-93074470D01*
X84329295Y-93469454D01*
X84304357Y-93775689D01*
X84273426Y-93957685D01*
X84264355Y-93980899D01*
X84231806Y-94028017D01*
X84177920Y-94065123D01*
X84084015Y-94093411D01*
X83931409Y-94114071D01*
X83701419Y-94128295D01*
X83375363Y-94137275D01*
X82934559Y-94142202D01*
X82360323Y-94144268D01*
X81696780Y-94144666D01*
X79216851Y-94144666D01*
X79025818Y-94348011D01*
X78867914Y-94603977D01*
X78790840Y-94911949D01*
X78804272Y-95205046D01*
X78877643Y-95372333D01*
X78917221Y-95417023D01*
X78973736Y-95453302D01*
X79064268Y-95482234D01*
X79205896Y-95504883D01*
X79415699Y-95522311D01*
X79710757Y-95535583D01*
X80108150Y-95545760D01*
X80624957Y-95553908D01*
X81278257Y-95561089D01*
X82016758Y-95567775D01*
X85029334Y-95593884D01*
X85029334Y-97028275D01*
X85026288Y-97581308D01*
X85016270Y-97982928D01*
X84997962Y-98250960D01*
X84970045Y-98403229D01*
X84931198Y-98457561D01*
X84923500Y-98458343D01*
X84821243Y-98458330D01*
X84565319Y-98459850D01*
X84171386Y-98462772D01*
X83655102Y-98466963D01*
X83032124Y-98472289D01*
X82318111Y-98478619D01*
X81528721Y-98485818D01*
X80679611Y-98493755D01*
X80109274Y-98499187D01*
X79095663Y-98508681D01*
X78237907Y-98515936D01*
X77522541Y-98520651D01*
X76936098Y-98522526D01*
X76465112Y-98521259D01*
X76096115Y-98516552D01*
X75815643Y-98508102D01*
X75610228Y-98495609D01*
X75466404Y-98478774D01*
X75370705Y-98457294D01*
X75309664Y-98430871D01*
X75269814Y-98399203D01*
X75262107Y-98391009D01*
X75234064Y-98348037D01*
X75210035Y-98277530D01*
X75189715Y-98167150D01*
X75172798Y-98004562D01*
X75158981Y-97777426D01*
X75147958Y-97473406D01*
X75139423Y-97080164D01*
X75133072Y-96585363D01*
X75128599Y-95976666D01*
X75125700Y-95241734D01*
X75124069Y-94368231D01*
X75123401Y-93343819D01*
X75123334Y-92779099D01*
X75124113Y-91613535D01*
X75126563Y-90608051D01*
X75130853Y-89753400D01*
X75137152Y-89040336D01*
X75145629Y-88459613D01*
X75156453Y-88001984D01*
X75169793Y-87658202D01*
X75185817Y-87419021D01*
X75204695Y-87275194D01*
X75224933Y-87218933D01*
X75328740Y-87197794D01*
X75583236Y-87178899D01*
X75969791Y-87162275D01*
X76469777Y-87147948D01*
X77064564Y-87135946D01*
X77735522Y-87126294D01*
X78464022Y-87119020D01*
X79231435Y-87114150D01*
X80019130Y-87111712D01*
X80808479Y-87111731D01*
G36*
X97301740Y-87145030D02*
G01*
X97683679Y-87150779D01*
X97955451Y-87159921D01*
X98087859Y-87172010D01*
X98089167Y-87172356D01*
X98215071Y-87278053D01*
X98237334Y-87362663D01*
X98206310Y-87504644D01*
X98117462Y-87787152D01*
X97977124Y-88194005D01*
X97791629Y-88709024D01*
X97567311Y-89316025D01*
X97310503Y-89998829D01*
X97027539Y-90741254D01*
X96724754Y-91527118D01*
X96408480Y-92340241D01*
X96085051Y-93164441D01*
X95760802Y-93983537D01*
X95442065Y-94781347D01*
X95135175Y-95541691D01*
X94846465Y-96248386D01*
X94582269Y-96885253D01*
X94348920Y-97436109D01*
X94152753Y-97884774D01*
X94000101Y-98215065D01*
X93950537Y-98314500D01*
X93830318Y-98547333D01*
X90283015Y-98547333D01*
X90164383Y-98314500D01*
X90059838Y-98093200D01*
X89904867Y-97742877D01*
X89705818Y-97279254D01*
X89469040Y-96718055D01*
X89200884Y-96075003D01*
X88907698Y-95365822D01*
X88595831Y-94606236D01*
X88271632Y-93811968D01*
X87941452Y-92998743D01*
X87611638Y-92182283D01*
X87288540Y-91378312D01*
X86978507Y-90602555D01*
X86687889Y-89870734D01*
X86423034Y-89198573D01*
X86190292Y-88601797D01*
X85996012Y-88096128D01*
X85846543Y-87697290D01*
X85748234Y-87421007D01*
X85707435Y-87283003D01*
X85706667Y-87275029D01*
X85726766Y-87232967D01*
X85800455Y-87201894D01*
X85947823Y-87180609D01*
X86188959Y-87167913D01*
X86543951Y-87162605D01*
X87032889Y-87163486D01*
X87505834Y-87167549D01*
X88045122Y-87173385D01*
X88529666Y-87179227D01*
X88932951Y-87184707D01*
X89228465Y-87189455D01*
X89389698Y-87193104D01*
X89408659Y-87193984D01*
X89464789Y-87214588D01*
X89526562Y-87276664D01*
X89599127Y-87393368D01*
X89687629Y-87577855D01*
X89797217Y-87843283D01*
X89933037Y-88202809D01*
X90100236Y-88669588D01*
X90303962Y-89256778D01*
X90549361Y-89977535D01*
X90841581Y-90845016D01*
X90869211Y-90927333D01*
X91104961Y-91623565D01*
X91326701Y-92266421D01*
X91528247Y-92838855D01*
X91703412Y-93323825D01*
X91846013Y-93704284D01*
X91949864Y-93963190D01*
X92008781Y-94083497D01*
X92016844Y-94090004D01*
X92087663Y-94009752D01*
X92184912Y-93815331D01*
X92259888Y-93624337D01*
X92328344Y-93432211D01*
X92445470Y-93104351D01*
X92602797Y-92664428D01*
X92791855Y-92136111D01*
X93004177Y-91543068D01*
X93231293Y-90908969D01*
X93330884Y-90631000D01*
X93559047Y-89992280D01*
X93773100Y-89389376D01*
X93965108Y-88844920D01*
X94127138Y-88381542D01*
X94251256Y-88021872D01*
X94329528Y-87788541D01*
X94347866Y-87730161D01*
X94441642Y-87483430D01*
X94547827Y-87299924D01*
X94581032Y-87264494D01*
X94696221Y-87222631D01*
X94936482Y-87190459D01*
X95313647Y-87167169D01*
X95839546Y-87151955D01*
X96324162Y-87145484D01*
X96838835Y-87143116D01*
X97301740Y-87145030D01*
G37*
X97301740Y-87145030D02*
X97683679Y-87150779D01*
X97955451Y-87159921D01*
X98087859Y-87172010D01*
X98089167Y-87172356D01*
X98215071Y-87278053D01*
X98237334Y-87362663D01*
X98206310Y-87504644D01*
X98117462Y-87787152D01*
X97977124Y-88194005D01*
X97791629Y-88709024D01*
X97567311Y-89316025D01*
X97310503Y-89998829D01*
X97027539Y-90741254D01*
X96724754Y-91527118D01*
X96408480Y-92340241D01*
X96085051Y-93164441D01*
X95760802Y-93983537D01*
X95442065Y-94781347D01*
X95135175Y-95541691D01*
X94846465Y-96248386D01*
X94582269Y-96885253D01*
X94348920Y-97436109D01*
X94152753Y-97884774D01*
X94000101Y-98215065D01*
X93950537Y-98314500D01*
X93830318Y-98547333D01*
X90283015Y-98547333D01*
X90164383Y-98314500D01*
X90059838Y-98093200D01*
X89904867Y-97742877D01*
X89705818Y-97279254D01*
X89469040Y-96718055D01*
X89200884Y-96075003D01*
X88907698Y-95365822D01*
X88595831Y-94606236D01*
X88271632Y-93811968D01*
X87941452Y-92998743D01*
X87611638Y-92182283D01*
X87288540Y-91378312D01*
X86978507Y-90602555D01*
X86687889Y-89870734D01*
X86423034Y-89198573D01*
X86190292Y-88601797D01*
X85996012Y-88096128D01*
X85846543Y-87697290D01*
X85748234Y-87421007D01*
X85707435Y-87283003D01*
X85706667Y-87275029D01*
X85726766Y-87232967D01*
X85800455Y-87201894D01*
X85947823Y-87180609D01*
X86188959Y-87167913D01*
X86543951Y-87162605D01*
X87032889Y-87163486D01*
X87505834Y-87167549D01*
X88045122Y-87173385D01*
X88529666Y-87179227D01*
X88932951Y-87184707D01*
X89228465Y-87189455D01*
X89389698Y-87193104D01*
X89408659Y-87193984D01*
X89464789Y-87214588D01*
X89526562Y-87276664D01*
X89599127Y-87393368D01*
X89687629Y-87577855D01*
X89797217Y-87843283D01*
X89933037Y-88202809D01*
X90100236Y-88669588D01*
X90303962Y-89256778D01*
X90549361Y-89977535D01*
X90841581Y-90845016D01*
X90869211Y-90927333D01*
X91104961Y-91623565D01*
X91326701Y-92266421D01*
X91528247Y-92838855D01*
X91703412Y-93323825D01*
X91846013Y-93704284D01*
X91949864Y-93963190D01*
X92008781Y-94083497D01*
X92016844Y-94090004D01*
X92087663Y-94009752D01*
X92184912Y-93815331D01*
X92259888Y-93624337D01*
X92328344Y-93432211D01*
X92445470Y-93104351D01*
X92602797Y-92664428D01*
X92791855Y-92136111D01*
X93004177Y-91543068D01*
X93231293Y-90908969D01*
X93330884Y-90631000D01*
X93559047Y-89992280D01*
X93773100Y-89389376D01*
X93965108Y-88844920D01*
X94127138Y-88381542D01*
X94251256Y-88021872D01*
X94329528Y-87788541D01*
X94347866Y-87730161D01*
X94441642Y-87483430D01*
X94547827Y-87299924D01*
X94581032Y-87264494D01*
X94696221Y-87222631D01*
X94936482Y-87190459D01*
X95313647Y-87167169D01*
X95839546Y-87151955D01*
X96324162Y-87145484D01*
X96838835Y-87143116D01*
X97301740Y-87145030D01*
G36*
X101218227Y-87158081D02*
G01*
X101598201Y-87167306D01*
X101883654Y-87181950D01*
X102041609Y-87202210D01*
X102057834Y-87208489D01*
X102083295Y-87306520D01*
X102106985Y-87556643D01*
X102128694Y-87941627D01*
X102148212Y-88444238D01*
X102165328Y-89047242D01*
X102179832Y-89733408D01*
X102191514Y-90485501D01*
X102200163Y-91286289D01*
X102205570Y-92118538D01*
X102207523Y-92965016D01*
X102205814Y-93808490D01*
X102200230Y-94631726D01*
X102190564Y-95417491D01*
X102176602Y-96148553D01*
X102170099Y-96409500D01*
X102112881Y-98547333D01*
X100446041Y-98547333D01*
X99800696Y-98543504D01*
X99312620Y-98531562D01*
X98969912Y-98510824D01*
X98760672Y-98480604D01*
X98677600Y-98445733D01*
X98655764Y-98341320D01*
X98636334Y-98085638D01*
X98619302Y-97695895D01*
X98604664Y-97189301D01*
X98592412Y-96583066D01*
X98582539Y-95894399D01*
X98575040Y-95140509D01*
X98569907Y-94338606D01*
X98567134Y-93505900D01*
X98566716Y-92659599D01*
X98568644Y-91816914D01*
X98572913Y-90995054D01*
X98579517Y-90211227D01*
X98588448Y-89482645D01*
X98599701Y-88826515D01*
X98613268Y-88260048D01*
X98629143Y-87800454D01*
X98647321Y-87464941D01*
X98667793Y-87270718D01*
X98681834Y-87228672D01*
X98800117Y-87205485D01*
X99054714Y-87186337D01*
X99412648Y-87171425D01*
X99840943Y-87160946D01*
X100306622Y-87155098D01*
X100776709Y-87154077D01*
X101218227Y-87158081D01*
G37*
X101218227Y-87158081D02*
X101598201Y-87167306D01*
X101883654Y-87181950D01*
X102041609Y-87202210D01*
X102057834Y-87208489D01*
X102083295Y-87306520D01*
X102106985Y-87556643D01*
X102128694Y-87941627D01*
X102148212Y-88444238D01*
X102165328Y-89047242D01*
X102179832Y-89733408D01*
X102191514Y-90485501D01*
X102200163Y-91286289D01*
X102205570Y-92118538D01*
X102207523Y-92965016D01*
X102205814Y-93808490D01*
X102200230Y-94631726D01*
X102190564Y-95417491D01*
X102176602Y-96148553D01*
X102170099Y-96409500D01*
X102112881Y-98547333D01*
X100446041Y-98547333D01*
X99800696Y-98543504D01*
X99312620Y-98531562D01*
X98969912Y-98510824D01*
X98760672Y-98480604D01*
X98677600Y-98445733D01*
X98655764Y-98341320D01*
X98636334Y-98085638D01*
X98619302Y-97695895D01*
X98604664Y-97189301D01*
X98592412Y-96583066D01*
X98582539Y-95894399D01*
X98575040Y-95140509D01*
X98569907Y-94338606D01*
X98567134Y-93505900D01*
X98566716Y-92659599D01*
X98568644Y-91816914D01*
X98572913Y-90995054D01*
X98579517Y-90211227D01*
X98588448Y-89482645D01*
X98599701Y-88826515D01*
X98613268Y-88260048D01*
X98629143Y-87800454D01*
X98647321Y-87464941D01*
X98667793Y-87270718D01*
X98681834Y-87228672D01*
X98800117Y-87205485D01*
X99054714Y-87186337D01*
X99412648Y-87171425D01*
X99840943Y-87160946D01*
X100306622Y-87155098D01*
X100776709Y-87154077D01*
X101218227Y-87158081D01*
G36*
X112856942Y-87155236D02*
G01*
X113454450Y-87161367D01*
X113954881Y-87171027D01*
X114339574Y-87183869D01*
X114589870Y-87199546D01*
X114683834Y-87215247D01*
X114740807Y-87261619D01*
X114781160Y-87348871D01*
X114807674Y-87502942D01*
X114823131Y-87749768D01*
X114830311Y-88115287D01*
X114832000Y-88596982D01*
X114826038Y-89155215D01*
X114808599Y-89574658D01*
X114780352Y-89845259D01*
X114741967Y-89956969D01*
X114741423Y-89957319D01*
X114636534Y-89973554D01*
X114384359Y-89992049D01*
X114006913Y-90011809D01*
X113526213Y-90031842D01*
X112964273Y-90051156D01*
X112343109Y-90068758D01*
X112180257Y-90072796D01*
X111464075Y-90090657D01*
X110895976Y-90107085D01*
X110454746Y-90123953D01*
X110119165Y-90143135D01*
X109868017Y-90166502D01*
X109680086Y-90195929D01*
X109534154Y-90233288D01*
X109409004Y-90280451D01*
X109310349Y-90326132D01*
X108716826Y-90685707D01*
X108272651Y-91120555D01*
X107971296Y-91641101D01*
X107806237Y-92257770D01*
X107767958Y-92790000D01*
X107816654Y-93444410D01*
X107975798Y-93987505D01*
X108254836Y-94443886D01*
X108502925Y-94703831D01*
X108734788Y-94897468D01*
X108973883Y-95056707D01*
X109239980Y-95185529D01*
X109552850Y-95287911D01*
X109932264Y-95367833D01*
X110397991Y-95429275D01*
X110969803Y-95476214D01*
X111667469Y-95512631D01*
X112510761Y-95542503D01*
X112697384Y-95548007D01*
X113350702Y-95568085D01*
X113854351Y-95587263D01*
X114227975Y-95607351D01*
X114491217Y-95630159D01*
X114663720Y-95657498D01*
X114765128Y-95691178D01*
X114815083Y-95733009D01*
X114821247Y-95743743D01*
X114841534Y-95872643D01*
X114852902Y-96137800D01*
X114854943Y-96506354D01*
X114847251Y-96945442D01*
X114839197Y-97192666D01*
X114789667Y-98505000D01*
X112165000Y-98514908D01*
X111466079Y-98515105D01*
X110778955Y-98510798D01*
X110133728Y-98502509D01*
X109560503Y-98490759D01*
X109089379Y-98476073D01*
X108750459Y-98458970D01*
X108693667Y-98454692D01*
X107759913Y-98317313D01*
X106883639Y-98070445D01*
X106105630Y-97726208D01*
X105955580Y-97640919D01*
X105524413Y-97338059D01*
X105066883Y-96938388D01*
X104622158Y-96483232D01*
X104229407Y-96013915D01*
X103927798Y-95571761D01*
X103840060Y-95408919D01*
X103497546Y-94522884D01*
X103299706Y-93588514D01*
X103246764Y-92634886D01*
X103338943Y-91691081D01*
X103576468Y-90786177D01*
X103800424Y-90250000D01*
X104168681Y-89641973D01*
X104663500Y-89044588D01*
X105244604Y-88497440D01*
X105871714Y-88040121D01*
X106280667Y-87811862D01*
X106605057Y-87659287D01*
X106907655Y-87532910D01*
X107208569Y-87430172D01*
X107527910Y-87348516D01*
X107885787Y-87285384D01*
X108302309Y-87238218D01*
X108797586Y-87204460D01*
X109391728Y-87181553D01*
X110104844Y-87166939D01*
X110957044Y-87158059D01*
X111445334Y-87154950D01*
X112181016Y-87152981D01*
X112856942Y-87155236D01*
G37*
X112856942Y-87155236D02*
X113454450Y-87161367D01*
X113954881Y-87171027D01*
X114339574Y-87183869D01*
X114589870Y-87199546D01*
X114683834Y-87215247D01*
X114740807Y-87261619D01*
X114781160Y-87348871D01*
X114807674Y-87502942D01*
X114823131Y-87749768D01*
X114830311Y-88115287D01*
X114832000Y-88596982D01*
X114826038Y-89155215D01*
X114808599Y-89574658D01*
X114780352Y-89845259D01*
X114741967Y-89956969D01*
X114741423Y-89957319D01*
X114636534Y-89973554D01*
X114384359Y-89992049D01*
X114006913Y-90011809D01*
X113526213Y-90031842D01*
X112964273Y-90051156D01*
X112343109Y-90068758D01*
X112180257Y-90072796D01*
X111464075Y-90090657D01*
X110895976Y-90107085D01*
X110454746Y-90123953D01*
X110119165Y-90143135D01*
X109868017Y-90166502D01*
X109680086Y-90195929D01*
X109534154Y-90233288D01*
X109409004Y-90280451D01*
X109310349Y-90326132D01*
X108716826Y-90685707D01*
X108272651Y-91120555D01*
X107971296Y-91641101D01*
X107806237Y-92257770D01*
X107767958Y-92790000D01*
X107816654Y-93444410D01*
X107975798Y-93987505D01*
X108254836Y-94443886D01*
X108502925Y-94703831D01*
X108734788Y-94897468D01*
X108973883Y-95056707D01*
X109239980Y-95185529D01*
X109552850Y-95287911D01*
X109932264Y-95367833D01*
X110397991Y-95429275D01*
X110969803Y-95476214D01*
X111667469Y-95512631D01*
X112510761Y-95542503D01*
X112697384Y-95548007D01*
X113350702Y-95568085D01*
X113854351Y-95587263D01*
X114227975Y-95607351D01*
X114491217Y-95630159D01*
X114663720Y-95657498D01*
X114765128Y-95691178D01*
X114815083Y-95733009D01*
X114821247Y-95743743D01*
X114841534Y-95872643D01*
X114852902Y-96137800D01*
X114854943Y-96506354D01*
X114847251Y-96945442D01*
X114839197Y-97192666D01*
X114789667Y-98505000D01*
X112165000Y-98514908D01*
X111466079Y-98515105D01*
X110778955Y-98510798D01*
X110133728Y-98502509D01*
X109560503Y-98490759D01*
X109089379Y-98476073D01*
X108750459Y-98458970D01*
X108693667Y-98454692D01*
X107759913Y-98317313D01*
X106883639Y-98070445D01*
X106105630Y-97726208D01*
X105955580Y-97640919D01*
X105524413Y-97338059D01*
X105066883Y-96938388D01*
X104622158Y-96483232D01*
X104229407Y-96013915D01*
X103927798Y-95571761D01*
X103840060Y-95408919D01*
X103497546Y-94522884D01*
X103299706Y-93588514D01*
X103246764Y-92634886D01*
X103338943Y-91691081D01*
X103576468Y-90786177D01*
X103800424Y-90250000D01*
X104168681Y-89641973D01*
X104663500Y-89044588D01*
X105244604Y-88497440D01*
X105871714Y-88040121D01*
X106280667Y-87811862D01*
X106605057Y-87659287D01*
X106907655Y-87532910D01*
X107208569Y-87430172D01*
X107527910Y-87348516D01*
X107885787Y-87285384D01*
X108302309Y-87238218D01*
X108797586Y-87204460D01*
X109391728Y-87181553D01*
X110104844Y-87166939D01*
X110957044Y-87158059D01*
X111445334Y-87154950D01*
X112181016Y-87152981D01*
X112856942Y-87155236D01*
D13*
%TO.C,GND*%
X116840000Y-136652000D02*
G75*
G03*
X116840000Y-136652000I-2286000J0D01*
G01*
X116840000Y-105918000D02*
G75*
G03*
X116840000Y-105918000I-2286000J0D01*
G01*
X62230000Y-136652000D02*
G75*
G03*
X62230000Y-136652000I-2286000J0D01*
G01*
X62230000Y-105918000D02*
G75*
G03*
X62230000Y-105918000I-2286000J0D01*
G01*
%TD*%
M02*
